<svg width="530" height="273" viewBox="0 0 530 273" fill="none" xmlns="http://www.w3.org/2000/svg">
<g clip-path="url(#clip0_275_2578)">
<path d="M380.023 216.967C380.023 218.2 380.512 218.812 381.497 218.812H435.546L380.023 179.478V216.967Z" fill="#31C1DE"/>
<path d="M528.159 174.89H502.373L502.328 154.37L444.076 218.814H457.802V229.359L502.373 260.935V218.812H528.527C529.505 218.812 530 218.2 530 216.967V176.735C530 175.507 529.385 174.89 528.159 174.89Z" fill="#F05D76"/>
<path d="M440.638 236.889V261.998C440.638 263.232 441.128 263.843 442.112 263.843H478.685L440.637 236.889H440.638Z" fill="#31C1DE"/>
<path d="M387.262 160.77L447.497 203.443L511.229 132.937L511.022 38.8957L434.06 62.9008L387.263 160.77H387.262ZM466.722 162.594H429.15L466.722 82.1294V162.594Z" fill="#31C1DE"/>
<path d="M490.191 37.926L490.111 1.59335C490.111 0.613226 489.743 0.11705 489.006 0.11705H447.381C446.398 0.11705 445.66 0.613226 445.17 1.59335L416.861 60.799L490.191 37.9278V37.926Z" fill="#31C1DE"/>
<path d="M312.976 129.792L357.646 161.439L357.378 76.3395C357.378 75.8853 357.364 75.438 357.357 74.9872L312.969 127.806L312.976 129.794V129.792Z" fill="#F05D76"/>
<path d="M192.467 152.586L237.279 180.107V76.3395C237.279 75.6337 237.308 74.9436 237.35 74.2587L192.624 102.855L192.467 152.586Z" fill="#31C1DE"/>
<path d="M225.919 193.345V187.319L181.085 159.784L180.979 193.345C180.979 206.881 184.351 219.245 191.109 230.439C192.53 232.798 194.076 235.051 195.731 237.212L226.652 200.42C226.169 198.205 225.919 195.85 225.919 193.345Z" fill="#F05D76"/>
<path d="M297.321 55.3009C303.705 60.7169 306.899 67.7298 306.899 76.3395L307.031 118.294L350.806 66.2081C349.521 56.6025 346.367 47.6731 341.342 39.4303C336.576 31.6208 330.558 24.9189 323.292 19.3124L279.029 47.612C286.293 48.5676 292.394 51.1271 297.323 55.3009H297.321Z" fill="#31C1DE"/>
<path d="M289.813 225.047C284.751 227.238 278.908 228.339 272.272 228.339C261.709 228.339 253.237 225.697 246.856 220.404C244.124 218.141 241.981 215.527 240.419 212.568L211.088 247.468C216.564 253.471 223.084 258.599 230.647 262.851C242.676 269.616 256.554 273.002 272.272 273.002C287.991 273.002 301.798 269.616 313.712 262.851C320.078 259.235 325.701 254.979 330.593 250.094L289.813 225.049V225.047Z" fill="#31C1DE"/>
<path d="M336.708 230.439C343.459 219.245 346.838 206.879 346.838 193.345L346.762 168.985L302.091 137.338L302.267 193.343C302.267 202.449 299.01 209.647 292.506 214.935C291.995 215.351 291.469 215.744 290.934 216.127L329.84 240.02C332.366 237.029 334.658 233.837 336.71 230.437L336.708 230.439Z" fill="#31C1DE"/>
<path d="M189.765 92.6592L236.295 62.9096C237.871 58.9192 240.427 55.418 243.974 52.4112C249.482 47.743 256.548 45.0909 265.167 44.448L314.995 12.5896C313.586 11.6794 312.137 10.8041 310.647 9.96371C298.86 3.32124 285.105 0 269.392 0C253.678 0 240.164 3.32124 228.135 9.96546C216.101 16.6097 206.706 25.4675 199.955 36.5406C193.199 47.6137 189.825 59.9203 189.825 73.4516L189.764 92.6609L189.765 92.6592Z" fill="#31C1DE"/>
<path d="M83.6006 118.198L80.8457 122.54V153.444L94.0743 144.985L83.6006 118.198Z" fill="#31C1DE"/>
<path d="M129.851 125.017L129.693 52.7502L92.2246 111.774L103.893 141.615L129.851 125.017Z" fill="#31C1DE"/>
<path d="M166.227 216.967V176.735C166.227 175.507 165.612 174.89 164.384 174.89H138.598L138.504 132.301L114.811 147.45L142.713 218.814H164.752C165.73 218.814 166.225 218.202 166.225 216.969L166.227 216.967Z" fill="#31C1DE"/>
<path d="M89.4533 104.684L129.667 41.3329L129.594 8.42451C129.594 7.44439 129.226 6.94821 128.489 6.94821H86.8641C85.8789 6.94821 85.1432 7.44439 84.6532 8.42451L66.5879 46.2055L89.4533 104.683V104.684Z" fill="#31C1DE"/>
<path d="M100.903 150.82L85.3922 160.738V174.89H52.163L24.2812 218.814H85.3922V261.999C85.3922 263.232 85.8822 263.843 86.8656 263.843H128.49C129.468 263.843 129.964 263.232 129.964 261.999V225.142L100.903 150.82Z" fill="#31C1DE"/>
<path d="M1.47333 214.453H12.6567L51.6172 153.076L77.4798 97.6873L58.6107 49.4289L0 172.005V212.606C0 213.84 0.489948 214.451 1.47333 214.451V214.453Z" fill="#F05D76"/>
</g>
<defs>
<clipPath id="clip0_275_2578">
<rect width="530" height="273" fill="white"/>
</clipPath>
</defs>
</svg>
