<svg width="80" height="80" viewBox="0 0 80 80" fill="none" xmlns="http://www.w3.org/2000/svg">
<path d="M48.8817 36.4624L45.1641 35.5329C44.9053 34.7927 44.6023 34.0621 44.2611 33.355L46.2333 30.0682C46.8569 29.0288 46.6939 27.7043 45.8367 26.8471L41.0192 22.0296C40.1622 21.1725 38.8375 21.0094 37.7981 21.633L34.5112 23.6052C33.8041 23.2638 33.0736 22.961 32.3333 22.7022L31.7761 20.4735L35.7736 14.4775H71.5478C72.195 14.4775 72.7197 13.9529 72.7197 13.3057C72.7197 12.6585 72.195 12.1338 71.5478 12.1338H35.1466C34.7548 12.1338 34.3889 12.3296 34.1716 12.6555L30.7456 17.7939C30.2614 17.2911 29.5833 16.9872 28.8459 16.9872H22.033C20.8209 16.9872 19.7689 17.8085 19.475 18.9844L18.5456 22.7021C17.8053 22.9608 17.0747 23.2638 16.3677 23.605L13.0808 21.6329C12.0416 21.0094 10.7169 21.1724 9.85969 22.0294L9.20656 22.6825C8.74891 23.1402 8.74891 23.8822 9.20656 24.3397C9.66422 24.7974 10.4062 24.7974 10.8638 24.3397L11.5169 23.6866C11.6122 23.5914 11.7594 23.5732 11.8748 23.6425L15.367 25.7379C15.9267 26.0736 16.6083 26.1013 17.1906 25.8116C17.9438 25.4369 18.7292 25.1113 19.5253 24.8436C20.1409 24.6366 20.603 24.1352 20.7612 23.5024L21.7486 19.5527C21.7812 19.4221 21.8983 19.3308 22.0328 19.3308H28.8458C28.9805 19.3308 29.0973 19.4221 29.13 19.5527L30.1173 23.5027C30.2756 24.1354 30.7377 24.6368 31.3534 24.8438C32.1494 25.1114 32.9348 25.4371 33.688 25.8118C34.2703 26.1014 34.9517 26.0736 35.5116 25.738L39.0037 23.6427C39.1192 23.5733 39.2664 23.5918 39.3617 23.6868L44.1792 28.5043C44.2744 28.5996 44.2927 28.7468 44.2233 28.8622L42.128 32.3544C41.7922 32.9141 41.7645 33.5958 42.0542 34.178C42.4289 34.9313 42.7545 35.7168 43.0222 36.5127C43.2292 37.1285 43.7308 37.5905 44.3634 37.7486L48.3131 38.7361C48.4438 38.7688 48.535 38.8858 48.535 39.0204V45.8333C48.535 45.968 48.4438 46.0849 48.3131 46.1175L44.3631 47.1049C43.7305 47.2632 43.2291 47.7252 43.022 48.341C42.7544 49.1371 42.4287 49.9224 42.0539 50.6757C41.7644 51.2579 41.792 51.9396 42.1278 52.4991L44.2231 55.9913C44.2923 56.1068 44.2742 56.2539 44.1791 56.3493L39.3616 61.1668C39.2664 61.2619 39.1192 61.2802 39.0036 61.2108L35.5114 59.1155C34.9516 58.7797 34.2702 58.7521 33.6878 59.0418C32.9352 59.4161 32.1497 59.7419 31.3531 60.0097C30.7377 60.2168 30.2756 60.718 30.1172 61.351L29.1298 65.3007C29.0972 65.4313 28.9802 65.5225 28.8456 65.5225H22.0327C21.898 65.5225 21.7811 65.4313 21.7484 65.3007L20.7611 61.3505C20.6027 60.7178 20.1406 60.2166 19.525 60.0096C18.7286 59.7418 17.943 59.4161 17.1903 59.0416C16.6078 58.7518 15.9263 58.7796 15.3667 59.1154L11.875 61.2107C11.7594 61.2799 11.6123 61.2619 11.517 61.1666L6.69953 56.3491C6.60437 56.2538 6.58609 56.1066 6.65547 55.9911L8.75078 52.4989C9.08656 51.9393 9.11422 51.2577 8.82453 50.6752C8.44984 49.9222 8.12422 49.1368 7.85656 48.3407C7.64953 47.725 7.14813 47.263 6.51531 47.1047L2.56562 46.1174C2.435 46.0847 2.34375 45.9677 2.34375 45.8332V39.0204C2.34375 38.8857 2.435 38.7688 2.56562 38.7361L6.51516 37.7488C7.14812 37.5907 7.64953 37.1286 7.85656 36.5127C8.12406 35.7169 8.44969 34.9314 8.82453 34.1782C9.11422 33.596 9.08656 32.9143 8.75078 32.3546L6.65547 28.8624C6.58625 28.7469 6.60437 28.5997 6.69953 28.5044L6.92391 28.28C7.38156 27.8224 7.38156 27.0804 6.92391 26.6229C6.46625 26.1652 5.72422 26.1652 5.26672 26.6229L5.04234 26.8472C4.18516 27.7043 4.02219 29.0288 4.64578 30.0683L6.61797 33.3552C6.27656 34.0624 5.97359 34.793 5.715 35.533L1.99719 36.4625C0.82125 36.7563 0 37.8083 0 39.0204V45.8333C0 47.0454 0.82125 48.0974 1.99719 48.3913L5.71484 49.3207C5.97359 50.061 6.27656 50.7918 6.61781 51.4985L4.64563 54.7854C4.02203 55.8247 4.185 57.1493 5.04219 58.0064L9.85969 62.8239C10.7167 63.6811 12.0413 63.8441 13.0808 63.2205L16.3677 61.2483C17.0744 61.5896 17.8052 61.8924 18.5456 62.1513L19.475 65.8691C19.7689 67.0449 20.8209 67.8663 22.033 67.8663H28.8459C30.058 67.8663 31.11 67.045 31.4039 65.8691L32.3333 62.1514C33.0737 61.8925 33.8045 61.5896 34.5112 61.2485L37.7981 63.2207C38.8375 63.8443 40.1622 63.6814 41.0192 62.8241L45.8367 58.0066C46.6939 57.1496 46.8569 55.825 46.2333 54.7855L44.2609 51.4985C44.6023 50.7914 44.9052 50.0608 45.1639 49.3207L48.8817 48.3913C50.0575 48.0974 50.8789 47.0454 50.8789 45.8333V39.0204C50.8789 37.8083 50.0577 36.7563 48.8817 36.4624Z" fill="#31C1DE"/>
<path d="M78.8282 36.4014H61.8408C61.1936 36.4014 60.6689 36.9261 60.6689 37.5732C60.6689 38.2204 61.1936 38.7451 61.8408 38.7451H78.8282C79.4754 38.7451 80 38.2204 80 37.5732C80 36.9261 79.4754 36.4014 78.8282 36.4014Z" fill="#31C1DE"/>
<path d="M78.8281 41.2549H56.9873C56.3401 41.2549 55.8154 41.7796 55.8154 42.4268C55.8154 43.0739 56.3401 43.5986 56.9873 43.5986H78.8281C79.4753 43.5986 80 43.0739 80 42.4268C80 41.7796 79.4753 41.2549 78.8281 41.2549Z" fill="#31C1DE"/>
<path d="M71.5479 46.1084H56.9873C56.3401 46.1084 55.8154 46.6331 55.8154 47.2803C55.8154 47.9275 56.3401 48.4521 56.9873 48.4521H71.5479C72.1951 48.4521 72.7198 47.9275 72.7198 47.2803C72.7198 46.6331 72.1951 46.1084 71.5479 46.1084Z" fill="#31C1DE"/>
<path d="M38.5087 39.5107C38.6489 40.1424 39.2747 40.541 39.9069 40.4007C40.5386 40.2604 40.9372 39.6344 40.7969 39.0025C39.2427 32.0041 32.9958 26.6946 25.4383 26.6946C16.8528 26.6946 9.70703 33.624 9.70703 42.4274C9.70703 43.8618 9.9 45.2827 10.2806 46.6507C10.7202 48.2313 12.4445 49.0768 13.9628 48.4485L15.5747 47.7816C16.828 47.2629 17.5169 45.8855 17.1772 44.5779C16.9958 43.8797 16.9037 43.1561 16.9037 42.4276C16.9037 37.6997 20.7358 33.8916 25.4381 33.8916C28.2103 33.8916 30.6339 35.2097 32.1777 37.1832L27.7981 39.7118C27.1659 39.1618 26.3406 38.8283 25.4389 38.8283C23.4545 38.8283 21.8403 40.4427 21.8403 42.4269C21.8403 44.4111 23.4547 46.0255 25.4389 46.0255C27.4231 46.0255 29.0375 44.4111 29.0375 42.4269C29.0375 42.1922 29.0148 41.9627 28.9717 41.7404L33.3517 39.2116C33.7589 40.216 33.9741 41.3036 33.9741 42.4276C33.9741 43.1563 33.8822 43.8797 33.7006 44.5779C33.3609 45.8857 34.0498 47.263 35.3033 47.7816L36.915 48.4485C38.4306 49.0758 40.1572 48.2338 40.5973 46.6508C40.7402 46.1377 40.8578 45.611 40.9472 45.0854C41.0558 44.4474 40.6266 43.8421 39.9884 43.7336C39.3506 43.625 38.7452 44.0543 38.6367 44.6924C38.5606 45.1391 38.4606 45.5866 38.3394 46.0229C38.2759 46.2507 38.0298 46.3733 37.8111 46.283L36.1995 45.6161C36.0209 45.5422 35.922 45.3493 35.9692 45.1672C36.2005 44.2768 36.3178 43.3549 36.3178 42.4276C36.3178 39.4138 35.1042 36.6049 32.9527 34.5588L34.4867 32.5591C36.5031 34.4096 37.9156 36.8394 38.5087 39.5107ZM25.4389 43.6816C24.747 43.6816 24.1841 43.1186 24.1841 42.4268C24.1841 41.7349 24.747 41.1719 25.4389 41.1719C26.1308 41.1719 26.6938 41.7349 26.6938 42.4268C26.6938 43.1186 26.1309 43.6816 25.4389 43.6816ZM14.5602 42.4274C14.5602 43.3547 14.6773 44.2765 14.9088 45.1671C14.9561 45.3491 14.857 45.5421 14.6786 45.616L13.0667 46.2829C12.8491 46.373 12.6022 46.2513 12.5386 46.0225C12.2148 44.8591 12.0508 43.6494 12.0508 42.4274C12.0508 38.6283 13.6189 35.0922 16.3903 32.5577L17.9253 34.5585C15.7736 36.6047 14.5602 39.4138 14.5602 42.4274ZM19.7841 33.1311L18.2487 31.1299C20.3933 29.758 22.8561 29.0383 25.4381 29.0383C28.0211 29.0383 30.4844 29.758 32.6291 31.1299L31.0938 33.1311C29.3955 32.0919 27.4619 31.5477 25.4381 31.5477C23.4152 31.5477 21.4822 32.0919 19.7841 33.1311Z" fill="#31C1DE"/>
<path d="M32.0164 51.1986C28.144 54.1104 22.735 54.1104 18.8625 51.1986C18.3451 50.8094 17.6106 50.9136 17.2217 51.4309C16.8326 51.9483 16.9367 52.6828 17.454 53.0717C22.1555 56.6072 28.7231 56.6075 33.425 53.0717C33.9423 52.6828 34.0464 51.9481 33.6573 51.4309C33.2684 50.9136 32.5337 50.8095 32.0164 51.1986Z" fill="#31C1DE"/>
<path d="M63.102 25.7678C63.1295 26.4901 63.2504 27.2062 63.4617 27.8962C63.651 28.5151 64.3064 28.8634 64.9253 28.6737C65.5442 28.4843 65.8921 27.829 65.7028 27.2101C65.5509 26.714 65.4639 26.1987 65.4442 25.6789C65.3248 22.5368 67.5529 19.9859 70.376 19.4423V25.1161C70.376 25.6378 70.5792 26.1282 70.9481 26.4971L74.9606 30.5096C73.8728 31.2476 72.5812 31.6092 71.2268 31.54C70.2721 31.4914 69.3282 31.2098 68.4973 30.7256C67.9384 30.3996 67.2207 30.5889 66.8948 31.1481C66.569 31.7073 66.7581 32.4246 67.3173 32.7506C68.4701 33.4223 69.7807 33.8131 71.1076 33.8806C75.8759 34.1236 80 30.3465 80 25.4395C80 20.779 76.2084 16.9873 71.5478 16.9873C66.7576 16.9875 62.919 20.9542 63.102 25.7678ZM77.6562 25.4395C77.6562 26.6732 77.2928 27.8512 76.6167 28.8512L72.7196 24.9542V19.444C75.5292 19.9921 77.6562 22.4721 77.6562 25.4395Z" fill="#31C1DE"/>
</svg>
