<svg width="80" height="80" viewBox="0 0 80 80" fill="none" xmlns="http://www.w3.org/2000/svg">
<g clip-path="url(#clip0_227_3454)">
<mask id="mask0_227_3454" style="mask-type:luminance" maskUnits="userSpaceOnUse" x="-14" y="-14" width="108" height="108">
<path d="M93.3395 93.3237H-13.3271V-13.3429H93.3395V93.3237Z" fill="white"/>
</mask>
<g mask="url(#mask0_227_3454)">
<path d="M4.76361 79.9941C4.60737 79.9941 4.46676 79.9629 4.31051 79.9004C3.87303 79.7129 3.5918 79.291 3.5918 78.8223V66.4323C3.5918 64.7918 4.23239 63.245 5.38858 62.0888L54.933 12.5443H48.3709C45.8866 12.5443 43.8867 10.5288 43.8867 8.04453V4.46658C43.8867 1.98232 45.9022 -0.0332031 48.3709 -0.0332031H71.901C74.3852 -0.0332031 76.3851 1.98232 76.3851 4.46658V17.8253C76.4007 18.4815 75.8695 18.9971 75.2289 18.9971C74.5883 18.9971 74.0571 18.4659 74.0571 17.8253V4.49783C74.0571 3.31039 73.0884 2.34168 71.9166 2.34168H48.3865C47.199 2.34168 46.246 3.31039 46.246 4.49783V8.06016C46.246 9.2476 47.2147 10.2163 48.3865 10.2163H57.7766C58.2454 10.2163 58.6829 10.4975 58.8547 10.935C59.0422 11.3725 58.9328 11.8725 58.6047 12.2162L7.06038 63.7606C6.34166 64.4793 5.95106 65.4324 5.95106 66.4479V76.01L50.0583 31.9027C50.0739 31.8871 50.0895 31.8871 50.0895 31.8715L64.1826 17.7472C64.5107 17.4191 65.0263 17.3097 65.4638 17.4972C65.9013 17.6847 66.1825 18.1065 66.1825 18.5753V28.0279C66.1825 29.2154 67.1512 30.1841 68.3386 30.1841H71.9166C73.104 30.1841 74.0571 29.2154 74.0571 28.0279V23.3719C74.0571 22.7313 74.5883 22.2001 75.2289 22.2001C75.8695 22.2001 76.4007 22.7313 76.4007 23.3719V28.0279C76.4007 30.5122 74.3852 32.5277 71.9166 32.5277H68.3386C65.8544 32.5277 63.8389 30.5122 63.8389 28.0279V21.4033L51.7144 33.5433C51.6988 33.5589 51.6832 33.5745 51.6832 33.5745L5.60732 79.6504C5.37296 79.8848 5.0761 79.9941 4.76361 79.9941Z" fill="#31C1DE"/>
<path d="M18.161 79.999H4.75545C4.28672 79.999 3.84924 79.7178 3.67738 79.2803C3.48989 78.8428 3.59926 78.3429 3.92736 77.9991L33.7697 48.1568C35.5352 46.3913 37.9101 45.407 40.41 45.407H52.1438L47.5034 40.7666C45.7534 39.0167 45.7534 36.173 47.4877 34.4231L50.0189 31.892C50.0345 31.8764 50.0501 31.8608 50.0657 31.8608C51.8156 30.1421 54.6436 30.1577 56.3779 31.892L73.0177 48.5318C74.7676 50.2817 74.7676 53.141 73.0177 54.8909L56.3935 71.5151C55.5498 72.3588 54.4249 72.8275 53.2218 72.8275C52.0188 72.8275 50.8938 72.3588 50.0501 71.5151L47.519 68.9839C45.7691 67.234 45.7691 64.3904 47.519 62.6249L52.1906 57.9532H44.691C42.7692 57.9532 40.9724 58.7032 39.6131 60.0625L27.8012 71.89C27.3481 72.3431 26.5981 72.3431 26.145 71.89C25.6919 71.4369 25.6919 70.687 26.145 70.2339L37.9726 58.4063C39.7694 56.6095 42.1599 55.6252 44.7066 55.6252H55.0342C55.503 55.6252 55.9404 55.9065 56.1123 56.3439C56.2998 56.7814 56.1904 57.2814 55.8623 57.6251L49.1752 64.2967C48.3314 65.1404 48.3314 66.4997 49.1752 67.3278L51.7063 69.8589C52.1125 70.2651 52.6437 70.4839 53.2218 70.4839C53.7999 70.4839 54.3311 70.2651 54.7374 69.8589L71.3772 53.2191C72.2209 52.3754 72.2209 51.0161 71.3772 50.1724L54.7374 33.5482C53.9093 32.7201 52.5344 32.7045 51.7063 33.5482C51.6907 33.5638 51.6907 33.5638 51.675 33.5794L49.1752 36.0793C48.3471 36.9074 48.3471 38.2823 49.1752 39.1104L55.8155 45.7507C56.1436 46.0788 56.2529 46.5944 56.0654 47.0319C55.8779 47.4694 55.4561 47.7506 54.9874 47.7506H40.4256C38.535 47.7506 36.7695 48.4849 35.4414 49.813L35.4102 49.8442L7.59906 77.6554H18.1767C18.536 77.6554 18.8798 77.5148 19.1297 77.2648L22.2858 74.0931C22.7389 73.64 23.4889 73.64 23.942 74.0931C24.3951 74.5462 24.3951 75.2961 23.942 75.7492L20.7703 78.921C20.0828 79.6084 19.161 79.999 18.161 79.999Z" fill="#31C1DE"/>
<path d="M14.2841 38.5386C13.9873 38.5386 13.6904 38.4292 13.456 38.1948C13.0029 37.7417 13.0029 36.9918 13.456 36.5387L35.3925 14.6022C35.8456 14.1491 36.5955 14.1491 37.0486 14.6022C37.5017 15.0553 37.5017 15.8053 37.0486 16.2584L15.1122 38.1948C14.8778 38.4292 14.581 38.5386 14.2841 38.5386Z" fill="#31C1DE"/>
<path d="M5.46869 47.354C5.17183 47.354 4.87497 47.2446 4.64061 47.0103C4.18751 46.5572 4.18751 45.8072 4.64061 45.3541L9.39038 40.6043C9.84348 40.1512 10.5934 40.1512 11.0465 40.6043C11.4996 41.0574 11.4996 41.8074 11.0465 42.2605L6.29678 47.0103C6.06241 47.2446 5.76555 47.354 5.46869 47.354Z" fill="#31C1DE"/>
<path d="M36.2203 23.855C35.5797 23.855 35.0485 23.3238 35.0485 22.6832V16.6053H28.9706C28.3301 16.6053 27.7988 16.0741 27.7988 15.4335C27.7988 14.7929 28.3301 14.2617 28.9706 14.2617H36.2203C36.8609 14.2617 37.3921 14.7929 37.3921 15.4335V22.6832C37.3921 23.3238 36.8609 23.855 36.2203 23.855Z" fill="#31C1DE"/>
</g>
</g>
<defs>
<clipPath id="clip0_227_3454">
<rect width="80" height="80" fill="white"/>
</clipPath>
</defs>
</svg>
