<svg width="80" height="80" viewBox="0 0 80 80" fill="none" xmlns="http://www.w3.org/2000/svg">
<g clip-path="url(#clip0_198_1212)">
<mask id="mask0_198_1212" style="mask-type:luminance" maskUnits="userSpaceOnUse" x="-14" y="-14" width="108" height="108">
<path d="M93.3395 93.3237H-13.3271V-13.3429H93.3395V93.3237Z" fill="white"/>
</mask>
<g mask="url(#mask0_198_1212)">
<path d="M46.124 7.11255C45.8271 7.11255 45.5302 7.00318 45.2959 6.76882C44.8428 6.31571 44.8428 5.56575 45.2959 5.11265L46.8739 3.5346C47.327 3.0815 48.077 3.0815 48.5301 3.5346C48.9832 3.9877 48.9832 4.73766 48.5301 5.19077L46.9521 6.76882C46.7333 7.00318 46.4208 7.11255 46.124 7.11255Z" fill="#31C1DE"/>
<path d="M39.999 4.57812C39.3584 4.57812 38.8271 4.0469 38.8271 3.40631V1.17204C38.8271 0.531448 39.3584 0.000223637 39.999 0.000223637C40.6396 0.000223637 41.1708 0.531448 41.1708 1.17204V3.40631C41.1708 4.0469 40.6396 4.57812 39.999 4.57812Z" fill="#31C1DE"/>
<path d="M33.8739 7.11255C33.577 7.11255 33.2802 7.00318 33.0458 6.76882L31.4678 5.19077C31.0147 4.73766 31.0147 3.9877 31.4678 3.5346C31.9209 3.0815 32.6708 3.0815 33.1239 3.5346L34.702 5.11265C35.1551 5.56575 35.1551 6.31571 34.702 6.76882C34.4676 7.00318 34.1707 7.11255 33.8739 7.11255Z" fill="#31C1DE"/>
</g>
<path d="M70.6025 19.8599C69.9619 19.8599 69.4307 19.3286 69.4307 18.688V14.6882C69.4307 14.0476 69.9619 13.5164 70.6025 13.5164C71.2431 13.5164 71.7743 14.0476 71.7743 14.6882V18.688C71.7743 19.3443 71.2431 19.8599 70.6025 19.8599Z" fill="#31C1DE"/>
<path d="M72.6062 17.8633H68.6064C67.9658 17.8633 67.4346 17.3321 67.4346 16.6915C67.4346 16.0509 67.9658 15.5196 68.6064 15.5196H72.6062C73.2468 15.5196 73.778 16.0509 73.778 16.6915C73.778 17.3321 73.2468 17.8633 72.6062 17.8633Z" fill="#31C1DE"/>
<path d="M9.3935 58.4863C8.7529 58.4863 8.22168 57.9551 8.22168 57.3145V53.3147C8.22168 52.6741 8.7529 52.1429 9.3935 52.1429C10.0341 52.1429 10.5653 52.6741 10.5653 53.3147V57.3145C10.5653 57.9707 10.0341 58.4863 9.3935 58.4863Z" fill="#31C1DE"/>
<path d="M11.3972 56.4897H7.3974C6.75681 56.4897 6.22559 55.9585 6.22559 55.3179C6.22559 54.6773 6.75681 54.1461 7.3974 54.1461H11.3972C12.0378 54.1461 12.569 54.6773 12.569 55.3179C12.569 55.9585 12.0378 56.4897 11.3972 56.4897Z" fill="#31C1DE"/>
<mask id="mask1_198_1212" style="mask-type:luminance" maskUnits="userSpaceOnUse" x="-14" y="-14" width="108" height="108">
<path d="M93.3395 93.3237H-13.3271V-13.3429H93.3395V93.3237Z" fill="white"/>
</mask>
<g mask="url(#mask1_198_1212)">
<path d="M36.6295 40.7397C35.692 40.7397 34.8014 40.3804 34.1452 39.7085L29.0205 34.5838C28.083 33.6463 28.083 32.0995 29.0205 31.1621L30.5673 29.6153C31.0204 29.1622 31.6297 28.9122 32.2859 28.9122C32.9265 28.9122 33.5359 29.1622 34.0046 29.6153L36.6295 32.2558L46.004 22.8812C46.9415 21.9438 48.4883 21.9438 49.4257 22.8812L50.9725 24.428C51.91 25.3655 51.91 26.9123 50.9725 27.8498L39.1137 39.7085C38.4575 40.3804 37.5669 40.7397 36.6295 40.7397ZM32.2703 31.2402C32.2391 31.2402 32.2234 31.2558 32.2234 31.2558L30.6766 32.8026C30.6454 32.8339 30.6454 32.8808 30.6766 32.912L35.8014 38.0524C36.0201 38.2711 36.317 38.3961 36.6295 38.3961C36.942 38.3961 37.2388 38.2711 37.4576 38.0524L49.3164 26.1936C49.3476 26.1623 49.3476 26.1155 49.3164 26.0842L47.7696 24.5374C47.7383 24.5062 47.6914 24.5062 47.6602 24.5374L37.4576 34.74C37.0045 35.1931 36.2545 35.1931 35.8014 34.74L32.3328 31.2715C32.3172 31.2558 32.3016 31.2402 32.2703 31.2402Z" fill="#31C1DE"/>
<path d="M42.2418 80.0027H37.7576C35.414 80.0027 33.5234 78.0965 33.5234 75.7685V72.9562C33.5234 72.3156 34.0547 71.7843 34.6953 71.7843H45.3041C45.9447 71.7843 46.4759 72.3156 46.4759 72.9562V75.7529C46.4759 78.0965 44.5698 80.0027 42.2418 80.0027ZM35.8671 74.128V75.7529C35.8671 76.7997 36.7108 77.6434 37.7576 77.6434H42.2418C43.2886 77.6434 44.1323 76.7997 44.1323 75.7529V74.128H35.8671Z" fill="#31C1DE"/>
<path d="M49.8612 60.7837C49.7362 60.7837 49.6112 60.7681 49.4862 60.7212C48.8769 60.5181 48.5331 59.8619 48.7363 59.2369L50.8768 52.7997C51.6736 50.0186 53.0642 47.4875 54.9078 45.4876C58.3608 41.7377 60.2669 36.863 60.2669 31.7695C60.2669 27.9884 59.2201 24.2855 57.2358 21.0981C56.8921 20.5513 57.064 19.8326 57.6108 19.4888C58.1577 19.1451 58.8764 19.317 59.2201 19.8638C61.4388 23.4418 62.6106 27.5509 62.6106 31.7851C62.6106 37.4723 60.4857 42.9096 56.6421 47.0812C55.0328 48.8155 53.8141 51.0185 53.1267 53.4559C53.1267 53.4715 53.111 53.4872 53.111 53.5028L50.9705 59.9869C50.8143 60.4712 50.3456 60.7837 49.8612 60.7837Z" fill="#31C1DE"/>
<path d="M28.3378 55.3801C27.8534 55.3801 27.3847 55.0676 27.2284 54.5833L26.9472 53.7552C26.9472 53.7396 26.9316 53.724 26.9316 53.7083C26.2129 51.1616 24.9473 48.8336 23.2599 46.9899C19.3538 42.6932 17.2602 37.1154 17.3852 31.3032C17.5102 25.491 19.8694 20.0069 24.0099 15.8508C28.1503 11.6948 33.6344 9.3355 39.4466 9.19489C45.4932 9.02302 51.2116 11.2417 55.5864 15.3977C56.0552 15.8508 56.0708 16.5851 55.6333 17.0539C55.1802 17.5226 54.4459 17.5382 53.9771 17.1007C50.0711 13.3822 44.9307 11.3979 39.5247 11.5229C28.8377 11.7573 19.9632 20.6474 19.7444 31.3188C19.6351 36.5373 21.4943 41.5214 25.0098 45.3806C26.916 47.4899 28.369 50.1304 29.1815 53.0052L29.4471 53.8177C29.6502 54.427 29.3221 55.0989 28.7127 55.302C28.5878 55.3489 28.4628 55.3801 28.3378 55.3801Z" fill="#31C1DE"/>
<path d="M45.3078 74.1267H34.6989C31.5272 74.1267 28.9648 71.5643 28.9648 68.3926V59.6118C28.9648 58.9712 29.4961 58.44 30.1367 58.44H49.8544C50.495 58.44 51.0263 58.9712 51.0263 59.6118V68.3926C51.0263 71.5643 48.4639 74.1267 45.3078 74.1267ZM31.3085 60.7836V68.3926C31.3085 70.2519 32.824 71.7831 34.6989 71.7831H45.3078C47.1671 71.7831 48.6983 70.2675 48.6983 68.3926V60.7836H31.3085Z" fill="#31C1DE"/>
<path d="M49.8579 65.168H40.3115C39.6709 65.168 39.1396 64.6367 39.1396 63.9962C39.1396 63.3556 39.6709 62.8243 40.3115 62.8243H49.8579C50.4985 62.8243 51.0297 63.3556 51.0297 63.9962C51.0297 64.6367 50.5141 65.168 49.8579 65.168Z" fill="#31C1DE"/>
<path d="M34.6364 65.168H30.1367C29.4961 65.168 28.9648 64.6367 28.9648 63.9962C28.9648 63.3556 29.4961 62.8243 30.1367 62.8243H34.6364C35.277 62.8243 35.8083 63.3556 35.8083 63.9962C35.8083 64.6367 35.277 65.168 34.6364 65.168Z" fill="#31C1DE"/>
<path d="M49.8544 69.5715H30.1367C29.4961 69.5715 28.9648 69.0403 28.9648 68.3997C28.9648 67.7591 29.4961 67.2279 30.1367 67.2279H49.8544C50.495 67.2279 51.0263 67.7591 51.0263 68.3997C51.0263 69.0403 50.5107 69.5715 49.8544 69.5715Z" fill="#31C1DE"/>
</g>
</g>
<defs>
<clipPath id="clip0_198_1212">
<rect width="80" height="80" fill="white"/>
</clipPath>
</defs>
</svg>
