<svg width="80" height="80" viewBox="0 0 80 80" fill="none" xmlns="http://www.w3.org/2000/svg">
<g clip-path="url(#clip0_198_1314)">
<path d="M59.1857 68.3845C58.9825 68.3845 58.7794 68.3376 58.5919 68.2283L50.7173 63.5566C50.1548 63.2285 49.983 62.5098 50.3111 61.9473C50.6392 61.3849 51.3579 61.213 51.9204 61.5411L59.7794 66.1971C60.3418 66.5409 60.5293 67.2596 60.2012 67.8064C59.9825 68.1814 59.5919 68.3845 59.1857 68.3845Z" fill="#31C1DE"/>
<path d="M54.2844 71.9209C54.0813 71.9209 53.8782 71.874 53.6907 71.7647L47.8941 68.3273C47.3316 67.9992 47.1597 67.2805 47.4878 66.718C47.816 66.1556 48.5347 65.9837 49.0971 66.3118L54.8937 69.7491C55.4406 70.0772 55.6281 70.796 55.3 71.3428C55.0812 71.7178 54.6906 71.9209 54.2844 71.9209Z" fill="#31C1DE"/>
<path d="M48.3451 74.8418C48.142 74.8418 47.9389 74.7949 47.7514 74.6856L45.4702 73.3419C44.9078 73.0138 44.7359 72.295 45.064 71.7326C45.3921 71.1701 46.1108 70.9982 46.6733 71.3263L48.9388 72.6544C49.5013 72.9981 49.6888 73.7169 49.3607 74.2637C49.1419 74.6387 48.7513 74.8418 48.3451 74.8418Z" fill="#31C1DE"/>
<path d="M52.333 23.8772H14.0224C13.3818 23.8772 12.8506 23.346 12.8506 22.7054C12.8506 22.0648 13.3818 21.5336 14.0224 21.5336H52.333C52.9736 21.5336 53.5049 22.0648 53.5049 22.7054C53.5049 23.346 52.9893 23.8772 52.333 23.8772Z" fill="#31C1DE"/>
<path d="M33.1777 15.7131H14.0224C13.3818 15.7131 12.8506 15.1819 12.8506 14.5413C12.8506 13.9007 13.3818 13.3695 14.0224 13.3695H33.1777C33.8183 13.3695 34.3495 13.9007 34.3495 14.5413C34.3495 15.1819 33.8339 15.7131 33.1777 15.7131Z" fill="#31C1DE"/>
<path d="M52.333 31.1111H14.0224C13.3818 31.1111 12.8506 30.5799 12.8506 29.9393C12.8506 29.2987 13.3818 28.7674 14.0224 28.7674H52.333C52.9736 28.7674 53.5049 29.2987 53.5049 29.9393C53.5049 30.5799 52.9893 31.1111 52.333 31.1111Z" fill="#31C1DE"/>
<mask id="mask0_198_1314" style="mask-type:luminance" maskUnits="userSpaceOnUse" x="-14" y="-14" width="108" height="108">
<path d="M93.3395 93.3235H-13.3271V-13.3432H93.3395V93.3235Z" fill="white"/>
</mask>
<g mask="url(#mask0_198_1314)">
<path d="M60.3733 15.7192H52.155C48.8426 15.7192 46.1553 13.0162 46.1553 9.71953V1.50118C46.1553 0.86059 46.6865 0.329367 47.3271 0.329367C47.9677 0.329367 48.4989 0.86059 48.4989 1.50118V9.71953C48.4989 11.7351 50.1395 13.3756 52.155 13.3756H60.3733C61.0139 13.3756 61.5451 13.9068 61.5451 14.5474C61.5451 15.188 61.0139 15.7192 60.3733 15.7192Z" fill="#31C1DE"/>
<path d="M22.7452 74.175H10.4802C7.16784 74.175 4.48047 71.4877 4.48047 68.1753V6.00651C4.48047 2.69418 7.16784 0.00679779 10.4802 0.00679779H45.8066C47.1034 0.00679779 48.3064 0.506783 49.2283 1.42861L60.4621 12.6624C61.3683 13.5686 61.8839 14.7873 61.8839 16.0841V36.0988C61.8839 36.7394 61.3527 37.2706 60.7121 37.2706C60.0715 37.2706 59.5247 36.7394 59.5247 36.0988V16.0529C59.5247 15.3967 59.259 14.7717 58.7903 14.303L47.5721 3.06915C47.1034 2.60043 46.4784 2.33482 45.8222 2.33482H10.4958C8.48027 2.33482 6.83972 3.97536 6.83972 5.99088V68.1597C6.83972 70.1752 8.48027 71.8158 10.4958 71.8158H22.7608C23.4014 71.8158 23.9326 72.347 23.9326 72.9876C23.9326 73.6282 23.4014 74.175 22.7452 74.175Z" fill="#31C1DE"/>
<path d="M19.6607 63.2305C18.8639 63.2305 18.0514 63.0274 17.3327 62.5899L14.9109 61.1524C13.6922 60.4337 13.286 58.8401 14.0047 57.6214L23.973 40.7784C24.6917 39.5597 26.2854 39.1535 27.5041 39.8722L29.9258 41.3097C30.9883 41.9346 31.7382 42.9346 32.0351 44.122C32.332 45.3095 32.1601 46.5438 31.5351 47.6062L23.6293 60.965C22.7699 62.418 21.2388 63.2305 19.6607 63.2305ZM26.1916 41.8565C26.1135 41.8565 26.0354 41.9034 25.9885 41.9659L16.0203 58.7932C15.9578 58.9026 15.989 59.0432 16.0984 59.1057L18.5201 60.5431C19.5826 61.1837 20.9731 60.8243 21.6137 59.7463L29.5196 46.4188C29.8321 45.9032 29.9102 45.2938 29.7696 44.7157C29.629 44.1377 29.254 43.6377 28.7384 43.3408L26.3166 41.9034C26.2698 41.8721 26.2385 41.8565 26.1916 41.8565Z" fill="#31C1DE"/>
<path d="M69.4759 63.2224C67.8978 63.2224 66.3666 62.41 65.5073 60.9725L61.8044 54.7072C61.4763 54.1604 61.6637 53.4416 62.2262 53.0979C62.7887 52.7698 63.5074 52.9573 63.8355 53.5041L67.5385 59.7695C68.1791 60.8319 69.554 61.1913 70.6164 60.5663L73.0382 59.1289C73.1476 59.0664 73.1788 58.9257 73.1163 58.8164L63.1637 41.9735C63.1168 41.911 63.0699 41.8797 63.0231 41.8641C62.9762 41.8485 62.9137 41.8485 62.8512 41.8953L60.4138 43.3328C59.8982 43.6452 59.5232 44.1296 59.3826 44.7077C59.2264 45.2858 59.3201 45.8951 59.6326 46.4107L61.0388 48.77C61.3669 49.3325 61.1794 50.0512 60.6325 50.3793C60.0857 50.7074 59.3514 50.5199 59.0233 49.9731L57.6171 47.6138C56.9921 46.5514 56.8202 45.317 57.1171 44.1296C57.414 42.9422 58.1639 41.9422 59.2264 41.3172L61.6481 39.8798C62.2418 39.5361 62.9293 39.4267 63.6012 39.5986C64.273 39.7704 64.8355 40.1923 65.1792 40.786L75.1475 57.6133C75.8662 58.832 75.4599 60.4257 74.2413 61.1444L71.8195 62.5818C71.0852 63.0193 70.2727 63.2224 69.4759 63.2224Z" fill="#31C1DE"/>
<path d="M34.5938 49.2524C33.5314 49.2524 32.4846 48.9712 31.5471 48.4087L30.1565 47.5806C29.5941 47.2525 29.4066 46.5338 29.7347 45.9714C30.0628 45.4089 30.7815 45.2214 31.344 45.5495L32.7502 46.3776C33.7189 46.9557 34.8751 47.0494 35.9219 46.6432L38.1874 45.7682C40.7498 44.7995 42.1872 45.2214 44.6402 46.6276C44.6402 46.6276 44.6558 46.6276 44.6558 46.6432L45.0621 46.8776C45.6089 47.2057 45.7964 47.9244 45.4683 48.4712C45.1246 49.0337 44.4059 49.2212 43.859 48.8931L43.4684 48.6587C41.3747 47.4557 40.656 47.3463 39.0311 47.9713L36.7656 48.8462C36.0625 49.1118 35.3282 49.2524 34.5938 49.2524Z" fill="#31C1DE"/>
<path d="M24.423 63.6228C24.2199 63.6228 24.0168 63.5759 23.8293 63.4666L21.4856 62.076C20.9232 61.7479 20.7357 61.0292 21.0638 60.4667C21.3919 59.9042 22.1106 59.7167 22.6731 60.0605L25.0167 61.451C25.5792 61.7791 25.7667 62.4979 25.423 63.0603C25.2198 63.4041 24.8292 63.6228 24.423 63.6228Z" fill="#31C1DE"/>
<path d="M46.9229 79.9944C46.2198 79.9944 45.5323 79.8069 44.923 79.4475L41.1731 77.2289C40.6107 76.8852 40.4232 76.1664 40.7513 75.6196C41.0794 75.0571 41.7981 74.8853 42.3606 75.2134L46.1104 77.432C46.4854 77.6507 46.9072 77.7132 47.3291 77.6039C47.7353 77.4945 48.0947 77.2445 48.3134 76.8695C48.5322 76.4946 48.5947 76.0727 48.4853 75.6508C48.3759 75.2446 48.1259 74.8853 47.751 74.6665C47.1885 74.3384 47.0166 73.6197 47.3447 73.0572C47.6728 72.4948 48.3915 72.3229 48.954 72.651L52.0632 74.4947C52.8288 74.9478 53.7975 74.6978 54.2506 73.9322C54.7037 73.1822 54.4537 72.1979 53.6882 71.7448C53.1257 71.4167 52.9538 70.698 53.2819 70.1355C53.61 69.573 54.3288 69.4012 54.8912 69.7293L56.9693 70.9636C57.7348 71.4167 58.7035 71.1667 59.1566 70.4011C59.6097 69.6355 59.3598 68.6668 58.5942 68.2137C58.0317 67.8856 57.8598 67.1669 58.1879 66.6044C58.5161 66.0419 59.2348 65.8701 59.7972 66.1982L62.344 67.6981C63.1096 68.1512 64.0783 67.9012 64.5314 67.1356C64.9845 66.37 64.7345 65.4013 63.9689 64.9482C63.4064 64.6201 63.2346 63.9014 63.5627 63.3389C63.8908 62.7765 64.6095 62.6046 65.172 62.9327C67.0469 64.042 67.6562 66.4638 66.5469 68.3387C65.547 70.0261 63.4846 70.698 61.7034 69.9949C61.6409 70.5417 61.469 71.0886 61.1722 71.6042C60.266 73.1353 58.4692 73.8384 56.813 73.4166C56.7661 74.0103 56.5943 74.604 56.2662 75.1352C55.1568 77.0102 52.7351 77.6351 50.8602 76.5258L50.8446 76.5102C50.7821 77.057 50.6102 77.5726 50.3133 78.057C49.7821 78.9632 48.9228 79.6038 47.8916 79.8694C47.5791 79.9631 47.251 79.9944 46.9229 79.9944Z" fill="#31C1DE"/>
<path d="M64.2489 64.9487C64.0457 64.9487 63.8426 64.9019 63.6551 64.7925L48.4215 55.7617C48.1715 56.5116 47.7497 57.1991 47.1716 57.7616C46.1872 58.7459 44.8904 59.2771 43.4999 59.2771C42.1249 59.2771 41 58.1522 41 56.7616V51.5431C41 49.1214 42.6405 47.0277 44.9842 46.434L48.8902 45.4497C49.9683 45.1841 51.0776 45.2466 52.1088 45.6528L54.6556 46.6528C55.7024 47.059 56.8586 46.9652 57.8273 46.3871L58.1554 46.1996C58.7179 45.8715 59.4366 46.059 59.7647 46.6215C60.0772 47.184 59.8897 47.9027 59.3272 48.2308L58.9991 48.4183C57.4211 49.3557 55.5149 49.512 53.7963 48.8401L51.2339 47.8402C50.6558 47.6215 50.0464 47.5746 49.4371 47.7308L45.531 48.7151C44.2342 49.0433 43.328 50.2151 43.328 51.5588V56.7773C43.328 56.871 43.4061 56.9491 43.4999 56.9491C44.2655 56.9491 44.9842 56.6523 45.5154 56.121C46.0623 55.5742 46.3591 54.8711 46.3591 54.1055V53.8868C46.3591 53.4649 46.5779 53.0743 46.9528 52.8712C47.3122 52.6681 47.7653 52.6681 48.1247 52.8868L64.1082 62.3239C64.2957 62.1832 64.4989 62.0426 64.7176 61.9176L67.0925 60.5271C67.6549 60.199 68.3737 60.3865 68.7018 60.9489C69.0299 61.5114 68.8424 62.2301 68.2799 62.5582L65.905 63.9332C65.6238 64.105 65.3426 64.3238 65.1082 64.5737C64.8738 64.8237 64.5613 64.9487 64.2489 64.9487Z" fill="#31C1DE"/>
<path d="M24.8234 70.5159C24.0265 70.5159 23.2297 70.2815 22.5266 69.7815C21.6673 69.1722 21.1048 68.2504 20.9329 67.2192C20.7611 66.188 21.0111 65.1411 21.6204 64.2818L23.1828 62.0944C23.7922 61.2351 24.714 60.6726 25.7452 60.5007C26.792 60.3289 27.8232 60.5789 28.6826 61.1882C29.5419 61.7975 30.1044 62.7194 30.2762 63.7506C30.4481 64.7818 30.1981 65.8286 29.5888 66.6879C29.2138 67.2192 28.4794 67.3285 27.9638 66.9535C27.4326 66.5786 27.3076 65.8442 27.6826 65.313C27.9326 64.9693 28.0263 64.5474 27.9638 64.1256C27.9013 63.7037 27.667 63.3287 27.3233 63.0944C26.9795 62.8444 26.5577 62.7506 26.1358 62.8131C25.714 62.8756 25.339 63.11 25.089 63.4537L23.5266 65.6411C23.2766 65.9848 23.1828 66.4067 23.2453 66.8285C23.3234 67.2504 23.5422 67.6254 23.8859 67.8754C24.6046 68.391 25.6046 68.2191 26.1202 67.516C26.4952 66.9848 27.2295 66.8598 27.7607 67.2348C28.2763 67.6098 28.4013 68.3441 28.0263 68.8753C27.2608 69.9378 26.0421 70.5159 24.8234 70.5159Z" fill="#31C1DE"/>
<path d="M29.3109 73.7429C28.5141 73.7429 27.7173 73.5086 27.0142 73.0086C26.1549 72.3992 25.5924 71.4774 25.4205 70.4462C25.2486 69.415 25.5143 68.3526 26.1236 67.5089L29.4203 62.9153C30.6859 61.1498 33.1545 60.7436 34.92 62.0091C35.7794 62.6185 36.3419 63.5403 36.5137 64.5715C36.6856 65.6027 36.4356 66.6495 35.8263 67.5089L32.5295 72.1024C31.764 73.1648 30.5453 73.7429 29.3109 73.7429ZM32.6233 63.6028C32.1233 63.6028 31.639 63.8372 31.3265 64.2746L28.0298 68.8682C27.7798 69.2119 27.686 69.6337 27.7485 70.0556C27.811 70.4775 28.0454 70.8524 28.3891 71.0868C29.1078 71.6024 30.1078 71.4305 30.6234 70.7274L33.9201 66.1339C34.1701 65.7902 34.2638 65.3683 34.2013 64.9465C34.1388 64.5246 33.9045 64.1496 33.5607 63.9153C33.2795 63.7122 32.9514 63.6028 32.6233 63.6028Z" fill="#31C1DE"/>
<path d="M33.8105 76.9771C33.0137 76.9771 32.2168 76.7427 31.5137 76.2427C29.7482 74.9771 29.342 72.5085 30.6075 70.743C30.9825 70.2118 31.7169 70.1024 32.2481 70.4774C32.7793 70.8524 32.8887 71.5867 32.5137 72.1179C31.9981 72.8366 32.17 73.8366 32.8731 74.3522C33.5918 74.8678 34.5917 74.6959 35.1073 73.9928L38.404 69.3993C38.654 69.0556 38.7478 68.6337 38.6853 68.2119C38.6228 67.7588 38.404 67.3838 38.0603 67.1338C37.7166 66.8838 37.2947 66.79 36.8729 66.8525C36.4354 66.9307 36.076 67.165 35.826 67.5088C35.4511 68.0244 34.7167 68.1494 34.1855 67.7744C33.6699 67.3994 33.5449 66.6651 33.9199 66.1338C34.5292 65.2745 35.4511 64.712 36.4823 64.5402C37.5135 64.3683 38.5603 64.6183 39.4196 65.2276C40.2789 65.837 40.8414 66.7588 41.0133 67.79C41.1851 68.8212 40.9352 69.868 40.3258 70.7274L37.0291 75.3365C36.2479 76.399 35.0448 76.9771 33.8105 76.9771Z" fill="#31C1DE"/>
<path d="M39.0468 79.1719C38.25 79.1719 37.4532 78.9375 36.7501 78.4375C34.9845 77.172 34.5783 74.7033 35.8439 72.9378C36.0626 72.6253 36.422 72.4535 36.7813 72.4535C36.672 72.1097 36.7188 71.7191 36.9532 71.4066C38.2188 69.6411 40.6874 69.2349 42.4529 70.5004C43.3123 71.1098 43.8747 72.0316 44.0466 73.0628C44.2185 74.094 43.9685 75.1408 43.3591 76.0002L42.2654 77.5313C41.4842 78.6094 40.2812 79.1719 39.0468 79.1719ZM37.9219 73.2659C38.0313 73.6096 37.9844 74.0003 37.75 74.3127C37.2344 75.0315 37.4063 76.0314 38.1094 76.547C38.8281 77.0626 39.828 76.8907 40.3436 76.1876L41.4373 74.6565C41.6873 74.3127 41.7811 73.8909 41.7186 73.469C41.6561 73.0316 41.4373 72.6566 41.0936 72.4066C40.3749 71.891 39.3749 72.0628 38.8593 72.7659C38.6406 73.094 38.2812 73.2659 37.9219 73.2659Z" fill="#31C1DE"/>
</g>
</g>
<defs>
<clipPath id="clip0_198_1314">
<rect width="80" height="80" fill="white"/>
</clipPath>
</defs>
</svg>
