<svg width="80" height="80" viewBox="0 0 80 80" fill="none" xmlns="http://www.w3.org/2000/svg">
<path d="M52.75 62.4531H12.6562C12.0156 62.4531 11.4844 61.9219 11.4844 61.2812V1.17188C11.4844 0.53125 12 0 12.6562 0H52.75C54.5938 0 56.0938 1.5 56.0938 3.34375V59.125C56.0781 60.9688 54.5938 62.4531 52.75 62.4531ZM13.8281 60.1094H52.75C53.2969 60.1094 53.75 59.6562 53.75 59.1094V3.32812C53.75 2.78125 53.2969 2.32812 52.75 2.32812H13.8281V60.1094Z" fill="#31C1DE"/>
<path d="M3.28125 66.4688C2.64062 66.4688 2.10938 65.9375 2.10938 65.2969V5.1875C2.10938 2.32813 4.4375 0 7.29688 0H12.6562C13.2969 0 13.8281 0.53125 13.8281 1.17188V61.2812C13.8281 61.9219 13.2969 62.4531 12.6562 62.4531H7.29688C5.73438 62.4531 4.45312 63.7344 4.45312 65.2969C4.45312 65.9531 3.9375 66.4688 3.28125 66.4688ZM7.29688 2.34375C5.73438 2.34375 4.45312 3.625 4.45312 5.1875V60.9688C5.26562 60.4375 6.25 60.125 7.29688 60.125H11.4844V2.34375H7.29688Z" fill="#31C1DE"/>
<path d="M52.75 70.4844H32.1875C31.5469 70.4844 31.0156 69.9531 31.0156 69.3125C31.0156 68.6719 31.5469 68.1406 32.1875 68.1406H52.75C53.2969 68.1406 53.75 67.6875 53.75 67.1406V59.1094C53.75 58.4688 54.2812 57.9375 54.9219 57.9375C55.5625 57.9375 56.0938 58.4688 56.0938 59.1094V67.1406C56.0781 68.9844 54.5938 70.4844 52.75 70.4844Z" fill="#31C1DE"/>
<path d="M26.6875 70.4844H7.29688C4.4375 70.4844 2.10938 68.1562 2.10938 65.2969C2.10938 62.4375 4.4375 60.1094 7.29688 60.1094H12.6562C13.2969 60.1094 13.8281 60.6406 13.8281 61.2812C13.8281 61.9219 13.2969 62.4531 12.6562 62.4531H7.29688C5.73438 62.4531 4.45312 63.7344 4.45312 65.2969C4.45312 66.8594 5.73438 68.1406 7.29688 68.1406H26.6875C27.3281 68.1406 27.8594 68.6719 27.8594 69.3125C27.8594 69.9531 27.3281 70.4844 26.6875 70.4844Z" fill="#31C1DE"/>
<path d="M38.7188 41.7187H28.8438C27.2813 41.7187 26 40.4531 26 38.875C26 38.0625 26.3438 37.2969 26.9375 36.7656L32.9844 31.3438C33.4219 30.9375 34.1094 30.9375 34.5469 31.3438L40.5937 36.7656C41.1875 37.2969 41.5312 38.0781 41.5312 38.875C41.5625 40.4375 40.2813 41.7187 38.7188 41.7187ZM33.7813 33.7812L28.5156 38.5156C28.4063 38.6094 28.3438 38.75 28.3438 38.8906C28.3438 39.1562 28.5625 39.3906 28.8438 39.3906H38.7188C38.9844 39.3906 39.2188 39.1719 39.2188 38.8906C39.2188 38.75 39.1562 38.6094 39.0469 38.5156L33.7813 33.7812Z" fill="#31C1DE"/>
<path d="M33.7812 33.375C33.1406 33.375 32.6094 32.8438 32.6094 32.2031V11.5625C32.6094 10.9219 33.1406 10.3906 33.7812 10.3906C34.4219 10.3906 34.9531 10.9219 34.9531 11.5625V32.2031C34.9531 32.8594 34.4219 33.375 33.7812 33.375Z" fill="#31C1DE"/>
<path d="M45.6872 20.5625C45.3591 20.5625 45.031 20.4219 44.7966 20.1562C43.2966 18.4219 39.8747 15.5312 33.781 15.5312C27.6872 15.5312 24.2653 18.4219 22.7653 20.1562C22.3435 20.6406 21.6091 20.7031 21.1091 20.2812C20.6247 19.8594 20.5622 19.125 20.9841 18.625C22.7497 16.5937 26.7497 13.1875 33.7653 13.1875C40.7966 13.1875 44.7966 16.5937 46.5466 18.625C46.9685 19.1094 46.9216 19.8594 46.4216 20.2812C46.2341 20.4688 45.9528 20.5625 45.6872 20.5625Z" fill="#31C1DE"/>
<path d="M21.875 32.9688C18.7969 32.9688 16.2969 30.4688 16.2969 27.3906V26.7812C16.2969 26.1406 16.8281 25.6094 17.4688 25.6094H26.2812C26.9219 25.6094 27.4531 26.1406 27.4531 26.7812V27.3906C27.4687 30.4688 24.9531 32.9688 21.875 32.9688ZM18.6875 27.9531C18.9531 29.4688 20.2812 30.625 21.875 30.625C23.4687 30.625 24.7969 29.4688 25.0625 27.9531H18.6875Z" fill="#31C1DE"/>
<path d="M26.2964 27.9531C25.8902 27.9531 25.5152 27.75 25.2964 27.375L21.8746 21.6719L18.4683 27.375C18.1402 27.9375 17.4214 28.1094 16.8589 27.7812C16.2964 27.4531 16.1246 26.7344 16.4527 26.1719L20.8589 18.7812C21.0777 18.4219 21.4527 18.2031 21.8589 18.2031C22.2652 18.2031 22.6558 18.4219 22.8589 18.7812L27.2652 26.1719C27.5933 26.7344 27.4214 27.4531 26.8589 27.7812C26.7027 27.8906 26.4996 27.9531 26.2964 27.9531Z" fill="#31C1DE"/>
<path d="M45.6875 32.9688C42.6094 32.9688 40.1094 30.4688 40.1094 27.3906V26.7812C40.1094 26.1406 40.6406 25.6094 41.2812 25.6094H50.0937C50.7344 25.6094 51.2656 26.1406 51.2656 26.7812V27.3906C51.2656 30.4688 48.7656 32.9688 45.6875 32.9688ZM42.5 27.9531C42.7656 29.4688 44.0937 30.625 45.6875 30.625C47.2812 30.625 48.6094 29.4688 48.875 27.9531H42.5Z" fill="#31C1DE"/>
<path d="M50.0933 27.9531C49.6871 27.9531 49.3121 27.75 49.0933 27.375L45.6871 21.6719L42.2808 27.375C41.9527 27.9375 41.2339 28.1094 40.6714 27.7812C40.1089 27.4531 39.9371 26.7344 40.2652 26.1719L44.6714 18.7812C44.8902 18.4219 45.2652 18.2031 45.6714 18.2031C46.0777 18.2031 46.4683 18.4219 46.6714 18.7812L51.0777 26.1719C51.4058 26.7344 51.2339 27.4531 50.6714 27.7812C50.4996 27.8906 50.2964 27.9531 50.0933 27.9531Z" fill="#31C1DE"/>
<path d="M44.5625 52.0625H23.1562C21.3437 52.0625 19.8594 50.5781 19.8594 48.7656C19.8594 46.9531 21.3437 45.4688 23.1562 45.4688H44.5625C46.375 45.4688 47.8594 46.9531 47.8594 48.7656C47.8594 50.5781 46.375 52.0625 44.5625 52.0625ZM23.1406 47.8125C22.6094 47.8125 22.1875 48.2344 22.1875 48.7656C22.1875 49.2969 22.6094 49.7188 23.1406 49.7188H44.5469C45.0781 49.7188 45.5 49.2969 45.5 48.7656C45.5 48.2344 45.0781 47.8125 44.5469 47.8125H23.1406Z" fill="#31C1DE"/>
<path d="M74.9531 80H33.9531C32.3281 80 31.0156 78.6875 31.0156 77.0625V69.3125C31.0156 68.6719 31.5469 68.1406 32.1875 68.1406C32.8281 68.1406 33.3594 68.6719 33.3594 69.3125V77.0625C33.3594 77.3906 33.625 77.6562 33.9531 77.6562H74.9531C75.2812 77.6562 75.5469 77.3906 75.5469 77.0625V33.0625C75.5469 32.4219 76.0781 31.8906 76.7188 31.8906C77.3594 31.8906 77.8906 32.4219 77.8906 33.0625V77.0625C77.8906 78.6875 76.5781 80 74.9531 80Z" fill="#31C1DE"/>
<path d="M76.7188 28.75C76.0781 28.75 75.5469 28.2188 75.5469 27.5781V20.4688C75.5469 20.1406 75.2813 19.875 74.9531 19.875H54.9219C54.2812 19.875 53.75 19.3438 53.75 18.7031C53.75 18.0625 54.2812 17.5312 54.9219 17.5312H74.9531C76.5781 17.5312 77.8906 18.8438 77.8906 20.4688V27.5781C77.8906 28.2344 77.3594 28.75 76.7188 28.75Z" fill="#31C1DE"/>
<path d="M72.4688 75.75H36.4375C35.7969 75.75 35.2656 75.2188 35.2656 74.5781C35.2656 73.9375 35.7969 73.4062 36.4375 73.4062H72.4688C73.1094 73.4062 73.6406 73.9375 73.6406 74.5781C73.6406 75.2188 73.1094 75.75 72.4688 75.75Z" fill="#31C1DE"/>
<path d="M72.4687 71.0625H67.1094C66.4688 71.0625 65.9375 70.5312 65.9375 69.8906C65.9375 69.25 66.4688 68.7188 67.1094 68.7188H72.4687C73.1094 68.7188 73.6406 69.25 73.6406 69.8906C73.6406 70.5312 73.1094 71.0625 72.4687 71.0625Z" fill="#31C1DE"/>
<path d="M72.4687 66.3594H67.1094C66.4688 66.3594 65.9375 65.8281 65.9375 65.1875C65.9375 64.5469 66.4688 64.0156 67.1094 64.0156H72.4687C73.1094 64.0156 73.6406 64.5469 73.6406 65.1875C73.6406 65.8281 73.1094 66.3594 72.4687 66.3594Z" fill="#31C1DE"/>
<path d="M72.4688 61.6719H54.9063C54.2656 61.6719 53.7344 61.1406 53.7344 60.5C53.7344 59.8594 54.2656 59.3281 54.9063 59.3281H72.4531C73.0938 59.3281 73.625 59.8594 73.625 60.5C73.625 61.1406 73.1094 61.6719 72.4688 61.6719Z" fill="#31C1DE"/>
<path d="M72.4688 56.9844H54.9063C54.2656 56.9844 53.7344 56.4531 53.7344 55.8125C53.7344 55.1719 54.2656 54.6406 54.9063 54.6406H72.4531C73.0938 54.6406 73.625 55.1719 73.625 55.8125C73.625 56.4531 73.1094 56.9844 72.4688 56.9844Z" fill="#31C1DE"/>
<path d="M72.4688 52.2812H54.9063C54.2656 52.2812 53.7344 51.75 53.7344 51.1094C53.7344 50.4688 54.2656 49.9375 54.9063 49.9375H72.4531C73.0938 49.9375 73.625 50.4688 73.625 51.1094C73.625 51.75 73.1094 52.2812 72.4688 52.2812Z" fill="#31C1DE"/>
<path d="M72.4687 47.5938H67.1094C66.4688 47.5938 65.9375 47.0625 65.9375 46.4219C65.9375 45.7812 66.4688 45.25 67.1094 45.25H72.4687C73.1094 45.25 73.6406 45.7812 73.6406 46.4219C73.6406 47.0625 73.1094 47.5938 72.4687 47.5938Z" fill="#31C1DE"/>
<path d="M72.4687 42.9062H54.9219C54.2812 42.9062 53.75 42.375 53.75 41.7344C53.75 41.0938 54.2812 40.5625 54.9219 40.5625H71.2969V28.8281H54.9219C54.2812 28.8281 53.75 28.2969 53.75 27.6562C53.75 27.0156 54.2812 26.4844 54.9219 26.4844H72.4687C73.1094 26.4844 73.6406 27.0156 73.6406 27.6562V41.7344C73.6406 42.375 73.1094 42.9062 72.4687 42.9062Z" fill="#31C1DE"/>
<path d="M72.4687 24.125H67.1094C66.4688 24.125 65.9375 23.5938 65.9375 22.9531C65.9375 22.3125 66.4688 21.7812 67.1094 21.7812H72.4687C73.1094 21.7812 73.6406 22.3125 73.6406 22.9531C73.6406 23.5938 73.1094 24.125 72.4687 24.125Z" fill="#31C1DE"/>
</svg>
