<svg width="80" height="80" viewBox="0 0 80 80" fill="none" xmlns="http://www.w3.org/2000/svg">
<g clip-path="url(#clip0_227_3428)">
<path d="M18.9879 21.6548H41.9818C43.497 21.6548 43.497 19.311 41.9818 19.311H18.9879C17.4728 19.311 17.4728 21.6548 18.9879 21.6548Z" fill="#31C1DE"/>
<path d="M18.9879 30.2524H36.6693C38.1845 30.2524 38.1845 27.9087 36.6693 27.9087H18.9879C17.4728 27.9087 17.4728 30.2524 18.9879 30.2524Z" fill="#31C1DE"/>
<path d="M18.9879 38.8501H34.1693C35.6845 38.8501 35.6845 36.5063 34.1693 36.5063H18.9879C17.4728 36.5063 17.4728 38.8501 18.9879 38.8501Z" fill="#31C1DE"/>
<path d="M40.5792 67.56H39.8028V56.107C39.8028 55.4598 39.2783 54.9351 38.6309 54.9351H33.9281V50.8042C33.9281 50.157 33.4036 49.6323 32.7563 49.6323H26.8958C26.2484 49.6323 25.7239 50.157 25.7239 50.8042V57.935H21.0303C20.383 57.935 19.8584 58.4597 19.8584 59.1069V67.56H19.082C18.4347 67.56 17.9102 68.0847 17.9102 68.7319C17.9102 69.379 18.4347 69.9037 19.082 69.9037H40.5791C41.2264 69.9037 41.7509 69.379 41.7509 68.7319C41.7509 68.0847 41.2264 67.56 40.5792 67.56ZM22.2023 67.56V60.2787H25.7192V67.56H22.2023ZM28.0678 67.56V51.9761H31.5845V67.56H28.0678ZM33.9422 67.56V57.2789H37.4591V67.56H33.9422Z" fill="#31C1DE"/>
<path d="M79.99 36.5005C79.8373 31.5673 77.8281 26.9252 74.332 23.4291C72.6545 21.7516 70.7427 20.4483 68.7012 19.5173C68.667 19.4977 68.6316 19.4794 68.5948 19.4628C68.5573 19.4459 68.5194 19.4312 68.4812 19.4188C65.8411 18.2545 62.9922 17.7083 60.1561 17.7814V11.3248C60.1561 9.82391 58.9353 8.60281 57.4345 8.60281H55.7444V7.13969C55.7444 5.63875 54.5236 4.41766 53.0228 4.41766H51.328V2.72203C51.3281 1.22109 50.1072 0 48.6066 0H2.72156C1.22078 0 0 1.22109 0 2.72203V68.6753C0 70.1763 1.22078 71.3973 2.72156 71.3973H4.41641V73.093C4.41641 74.5939 5.63719 75.815 7.13313 75.815L8.82828 75.8219V77.2781C8.82828 78.7791 10.0491 80.0002 11.5498 80.0002H48.1559C48.4623 80.0002 48.7655 79.8752 48.9827 79.6589L59.8112 68.8816C60.0322 68.6616 60.1564 68.3627 60.1564 68.0509V56.4331C60.3144 56.437 60.4723 56.4408 60.6303 56.4408C63.9334 56.4408 67.2225 55.5966 70.0992 53.9847C71.4212 53.2441 70.2755 51.1998 68.9536 51.94C62.6969 55.4461 54.8664 54.5822 49.503 49.9158L61.0109 38.4078L76.7437 42.5769C76.0503 44.627 74.9544 46.5725 73.4498 48.2887C72.4511 49.4281 74.2133 50.9731 75.2122 49.8339C78.445 46.1463 80.1417 41.4111 79.99 36.5005ZM66.5448 21.1633L59.6781 36.4255L47.8434 48.2603C42.0302 41.5927 42.2959 31.4333 48.643 25.0863C53.4748 20.2544 60.5164 18.9473 66.5448 21.1633ZM7.13766 73.4711C6.92938 73.4711 6.76 73.3014 6.76 73.0928V7.13969C6.76 6.93109 6.92938 6.76141 7.13766 6.76141H15.3123C16.8275 6.76141 16.8275 4.41766 15.3123 4.41766H7.13766C5.63703 4.41766 4.41625 5.63875 4.41625 7.13969V69.0534H2.72156C2.51328 69.0534 2.34375 68.8838 2.34375 68.6752V2.72203C2.34375 2.51344 2.51328 2.34375 2.72156 2.34375H48.6066C48.8148 2.34375 48.9844 2.51344 48.9844 2.72203V4.41781H21.875C20.3598 4.41781 20.3598 6.76156 21.875 6.76156H53.023C53.2312 6.76156 53.4008 6.93125 53.4008 7.13984V8.60297H11.5497C10.0491 8.60297 8.82812 9.82406 8.82812 11.325V73.4781L7.13766 73.4711ZM11.1719 77.278V11.3248C11.1719 11.1162 11.3414 10.9466 11.5497 10.9466H57.4347C57.643 10.9466 57.8125 11.1162 57.8125 11.3248V17.9841C53.8477 18.5694 50.0309 20.3839 46.9856 23.4292C39.4462 30.9686 39.4462 43.2361 46.9856 50.7756C49.9511 53.7409 53.6894 55.62 57.8125 56.2297V66.7784H49.7055C48.2048 66.7784 46.9839 67.9995 46.9839 69.5005V77.6562H11.5497C11.3414 77.6562 11.1719 77.4866 11.1719 77.278ZM49.3277 75.9898V69.5005C49.3277 69.2919 49.4972 69.1222 49.7055 69.1222H56.1642L49.3277 75.9898ZM62.2942 36.3233L68.6833 22.1227C70.1183 22.8903 71.4658 23.8777 72.6745 25.0864C76.7819 29.1939 78.3587 34.9464 77.3389 40.3102L62.2942 36.3233Z" fill="#31C1DE"/>
</g>
<defs>
<clipPath id="clip0_227_3428">
<rect width="80" height="80" fill="white"/>
</clipPath>
</defs>
</svg>
