<svg width="80" height="80" viewBox="0 0 80 80" fill="none" xmlns="http://www.w3.org/2000/svg">
<path d="M62.0469 59.5625C58.0156 59.5625 54.7344 56.2812 54.7344 52.25C54.7344 48.2187 58.0156 44.9375 62.0469 44.9375C66.0781 44.9375 69.3594 48.2187 69.3594 52.25C69.3594 56.2812 66.0938 59.5625 62.0469 59.5625ZM62.0469 47.2656C59.3125 47.2656 57.0781 49.5 57.0781 52.2344C57.0781 54.9687 59.3125 57.2031 62.0469 57.2031C64.7813 57.2031 67.0156 54.9687 67.0156 52.2344C67.0156 49.5 64.7969 47.2656 62.0469 47.2656Z" fill="#31C1DE"/>
<path d="M74.8128 70.7812C74.2659 70.7812 73.7815 70.4062 73.6722 69.8594L73.1722 67.5313C72.1722 62.9063 68.0003 59.5625 63.2815 59.5625H62.0784C59.3284 59.5625 56.6409 60.5469 54.5472 62.3281C54.0472 62.75 53.3128 62.6875 52.8909 62.1875C52.469 61.6875 52.5315 60.9531 53.0315 60.5312C55.5628 58.3906 58.7659 57.2031 62.0784 57.2031H63.2815C66.1253 57.2031 68.8909 58.1875 71.1097 59.9687C73.3128 61.75 74.8753 64.25 75.469 67.0312L75.969 69.3594C76.1097 69.9844 75.7034 70.6094 75.0784 70.75C74.9847 70.7656 74.8909 70.7812 74.8128 70.7812Z" fill="#31C1DE"/>
<path d="M17.9531 59.5625C13.9219 59.5625 10.6406 56.2812 10.6406 52.25C10.6406 48.2187 13.9219 44.9375 17.9531 44.9375C21.9844 44.9375 25.2656 48.2187 25.2656 52.25C25.2656 56.2812 21.9844 59.5625 17.9531 59.5625ZM17.9531 47.2656C15.2188 47.2656 12.9844 49.5 12.9844 52.2344C12.9844 54.9687 15.2188 57.2031 17.9531 57.2031C20.6875 57.2031 22.9219 54.9687 22.9219 52.2344C22.9219 49.5 20.6875 47.2656 17.9531 47.2656Z" fill="#31C1DE"/>
<path d="M5.20267 70.75C5.12454 70.75 5.03079 70.7344 4.95267 70.7188C4.32767 70.5781 3.92142 69.9531 4.06204 69.3281L4.56204 67.0312C5.17142 64.2656 6.71829 61.75 8.92142 59.9687C11.1245 58.1875 13.9058 57.2031 16.7495 57.2031H17.9527C21.3433 57.2031 24.6089 58.4375 27.1558 60.6563C27.6402 61.0781 27.687 61.8281 27.2652 62.3125C26.8433 62.7969 26.0933 62.8437 25.6089 62.4219C23.4839 60.5625 20.7652 59.5469 17.9527 59.5469H16.7495C12.0152 59.5469 7.85892 62.9062 6.85892 67.5156L6.35892 69.8125C6.21829 70.375 5.73392 70.75 5.20267 70.75Z" fill="#31C1DE"/>
<path d="M44.359 23.9531C44.109 23.9531 43.8434 23.9062 43.609 23.7969L40.4684 22.4531L37.3278 23.7969C36.7028 24.0625 35.9997 23.9844 35.4528 23.5938C34.9059 23.2031 34.609 22.5625 34.6715 21.875L34.984 18.4687L32.734 15.9063C32.2809 15.3906 32.1403 14.7031 32.359 14.0625C32.5622 13.4219 33.0934 12.9375 33.7497 12.7969L37.0778 12.0469L38.8278 9.10938C39.1715 8.53125 39.7809 8.17188 40.4684 8.17188C41.1403 8.17188 41.7497 8.51563 42.109 9.09375L43.859 12.0312L47.1872 12.7813C47.8434 12.9375 48.3747 13.4063 48.5778 14.0469C48.7809 14.6875 48.6403 15.375 48.2028 15.8906L45.9372 18.4687L46.2497 21.875C46.3122 22.5469 46.0153 23.1875 45.4684 23.5938C45.1403 23.8281 44.7653 23.9531 44.359 23.9531ZM40.4684 20.0625C40.7184 20.0625 40.984 20.1094 41.2184 20.2187L43.8434 21.3438L43.5778 18.4844C43.5309 17.9688 43.7028 17.4531 44.0465 17.0625L45.9372 14.9219L43.1403 14.2969C42.6403 14.1875 42.1872 13.8594 41.9215 13.4063L40.4684 10.9375L38.9997 13.4063C38.734 13.8594 38.2965 14.1719 37.7809 14.2969L34.984 14.9219L36.8747 17.0781C37.2184 17.4688 37.3903 17.9844 37.3434 18.5L37.0778 21.3594L39.7028 20.2344C39.9528 20.125 40.2184 20.0625 40.4684 20.0625Z" fill="#31C1DE"/>
<path d="M18.1248 23.9531C17.7655 23.9531 17.3905 23.8438 17.0936 23.6094C16.578 23.2344 16.3123 22.6406 16.3748 22.0156L16.6248 19.3125L14.8436 17.2812C14.4217 16.8125 14.2967 16.1719 14.4842 15.5625C14.6717 14.9687 15.1561 14.5156 15.7811 14.3906L18.4217 13.7969L19.8123 11.4688C20.1405 10.9219 20.703 10.6094 21.328 10.6094C21.953 10.6094 22.5311 10.9375 22.8436 11.4688L24.2342 13.7969L26.8748 14.3906C27.4842 14.5312 27.9686 14.9687 28.1717 15.5625C28.3592 16.1562 28.2342 16.7969 27.8123 17.2812L26.0311 19.3125L26.2811 22.0156C26.3436 22.6406 26.0623 23.2344 25.5623 23.6094C25.0467 23.9844 24.4061 24.0469 23.828 23.7969L21.3436 22.7344L18.8592 23.7969C18.6092 23.9062 18.3592 23.9531 18.1248 23.9531ZM17.2342 16.4688L18.5467 17.9688C18.8592 18.3281 19.0155 18.8125 18.9842 19.2969L18.7967 21.2812L20.6248 20.5C21.0623 20.3125 21.578 20.3125 22.0155 20.5L23.8436 21.2812L23.6561 19.2969C23.6092 18.8125 23.7655 18.3281 24.0936 17.9688L25.4061 16.4688L23.4686 16.0312C22.9998 15.9219 22.578 15.625 22.3436 15.2031L21.328 13.5L20.3123 15.2031C20.0623 15.625 19.6561 15.9219 19.1873 16.0312L17.2342 16.4688Z" fill="#31C1DE"/>
<path d="M61.8748 23.9531C61.6405 23.9531 61.4061 23.9062 61.1717 23.8125L58.6873 22.75L56.203 23.8125C55.6248 24.0625 54.9686 23.9844 54.4686 23.625C53.9686 23.2656 53.6873 22.6562 53.7498 22.0312L53.9998 19.3281L52.2186 17.2969C51.7967 16.8281 51.6717 16.1875 51.8592 15.5781C52.0467 14.9687 52.5311 14.5312 53.1561 14.4062L55.7967 13.8125L57.1873 11.4844C57.5155 10.9375 58.078 10.625 58.703 10.625C59.328 10.625 59.9061 10.9531 60.2186 11.4844L61.6092 13.8125L64.2498 14.4062C64.8592 14.5469 65.3436 14.9844 65.5467 15.5781C65.7342 16.1719 65.6092 16.8125 65.1873 17.2969L63.4061 19.3281L63.6561 22.0312C63.7186 22.6562 63.4373 23.25 62.9373 23.625C62.5936 23.8437 62.2342 23.9531 61.8748 23.9531ZM54.5936 16.4688L55.9061 17.9688C56.2186 18.3281 56.3748 18.8125 56.3436 19.2969L56.1561 21.2812L57.9842 20.5C58.4217 20.3125 58.9373 20.3125 59.3748 20.5L61.203 21.2812L61.0155 19.2969C60.9686 18.8125 61.1248 18.3281 61.453 17.9688L62.7655 16.4688L60.828 16.0312C60.3592 15.9219 59.9373 15.625 59.703 15.2031L58.6873 13.4844L57.6561 15.2031C57.4061 15.625 56.9998 15.9219 56.5311 16.0312L54.5936 16.4688Z" fill="#31C1DE"/>
<path d="M40 34.2188C39.2656 34.2188 38.5937 33.8281 38.2187 33.1875L36.5937 30.3594H20.0781C19.4375 30.3594 18.9062 29.8281 18.9062 29.1875C18.9062 28.5469 19.4375 28.0156 20.0781 28.0156H36.7656C37.5 28.0156 38.1719 28.4062 38.5469 29.0469L40 31.5781L41.4531 29.0469C41.8125 28.4219 42.5 28.0156 43.2344 28.0156H71.6094C72.8125 28.0156 73.7812 27.0312 73.7812 25.8437V18.125C73.7812 11.25 68.1875 5.67188 61.3281 5.67188H18.6719C11.7969 5.67188 6.21875 11.2656 6.21875 18.125V25.8594C6.21875 27.0625 7.20312 28.0312 8.39062 28.0312H14.2969C14.9375 28.0312 15.4687 28.5625 15.4687 29.2031C15.4687 29.8437 14.9375 30.375 14.2969 30.375H8.39062C5.89062 30.375 3.875 28.3438 3.875 25.8594V18.125C3.875 9.96875 10.5156 3.32812 18.6719 3.32812H61.3281C69.4844 3.32812 76.125 9.96875 76.125 18.125V25.8594C76.125 28.3594 74.0937 30.375 71.6094 30.375H43.4062L41.7812 33.2031C41.4062 33.8438 40.7344 34.2188 40 34.2188Z" fill="#31C1DE"/>
<path d="M40 56.0781C34.9688 56.0781 30.8906 51.9844 30.8906 46.9688C30.8906 41.9531 34.9844 37.8594 40 37.8594C45.0156 37.8594 49.1094 41.9531 49.1094 46.9688C49.1094 51.9844 45.0313 56.0781 40 56.0781ZM40 40.2031C36.2656 40.2031 33.2344 43.2344 33.2344 46.9688C33.2344 50.7031 36.2656 53.7344 40 53.7344C43.7344 53.7344 46.7656 50.7031 46.7656 46.9688C46.7656 43.2344 43.7344 40.2031 40 40.2031Z" fill="#31C1DE"/>
<path d="M24.4214 70.9375C24.1402 70.9375 23.8589 70.8437 23.6402 70.625C22.8277 69.875 22.4527 68.75 22.687 67.6562C23.5464 63.7187 25.7495 60.1562 28.8902 57.625C32.0308 55.0937 35.9839 53.7031 39.9995 53.7031C44.0152 53.7031 47.9839 55.0937 51.1089 57.625C54.2495 60.1562 56.4527 63.7187 57.312 67.6562C57.5152 68.5781 57.2964 69.5312 56.7027 70.2656C56.2964 70.7656 55.562 70.8437 55.062 70.4375C54.562 70.0312 54.4839 69.2969 54.8902 68.7969C54.9683 68.6875 55.1089 68.4688 55.0464 68.1562C53.5152 61.1406 47.2027 56.0625 40.0152 56.0625C32.8433 56.0625 26.5152 61.1562 24.9839 68.1562C24.9214 68.4219 25.0152 68.7031 25.2183 68.8906C25.7027 69.3281 25.7339 70.0625 25.2964 70.5469C25.062 70.8125 24.7339 70.9375 24.4214 70.9375Z" fill="#31C1DE"/>
<path d="M77.5156 76.6719H58.6875C58.0469 76.6719 57.5156 76.1406 57.5156 75.5C57.5156 74.8594 58.0469 74.3281 58.6875 74.3281H77.5312C77.6094 74.3281 77.6719 74.2656 77.6719 74.1875V71.4531C77.6719 71.375 77.6094 71.3125 77.5312 71.3125H2.48438C2.40625 71.3125 2.34375 71.375 2.34375 71.4531V74.1875C2.34375 74.2656 2.40625 74.3281 2.48438 74.3281H52.9062C53.5469 74.3281 54.0781 74.8594 54.0781 75.5C54.0781 76.1406 53.5469 76.6719 52.9062 76.6719H2.48438C1.10937 76.6719 0 75.5625 0 74.1875V71.4531C0 70.0781 1.10937 68.9688 2.48438 68.9688H77.5156C78.8906 68.9688 80 70.0781 80 71.4531V74.1875C80 75.5625 78.8906 76.6719 77.5156 76.6719Z" fill="#31C1DE"/>
</svg>
