<svg width="80" height="80" viewBox="0 0 80 80" fill="none" xmlns="http://www.w3.org/2000/svg">
<g clip-path="url(#clip0_227_3519)">
<mask id="mask0_227_3519" style="mask-type:luminance" maskUnits="userSpaceOnUse" x="-14" y="-14" width="108" height="108">
<path d="M93.3395 93.3237H-13.3271V-13.3429H93.3395V93.3237Z" fill="white"/>
</mask>
<g mask="url(#mask0_227_3519)">
<path d="M34.4763 32.9575C33.8357 32.9575 33.3045 32.4263 33.3045 31.7857V14.974H30.5234C30.0859 14.974 29.6797 14.724 29.4765 14.3334C29.2734 13.9428 29.3203 13.4585 29.5859 13.0991L39.0542 0.474731C39.2729 0.177872 39.6167 0.00600433 39.9916 0.00600433C40.3666 0.00600433 40.7104 0.177872 40.9291 0.474731L50.3974 13.0991C50.663 13.4585 50.7099 13.9272 50.5068 14.3334C50.3036 14.724 49.8974 14.974 49.4599 14.974H46.6944V18.7863C46.6944 19.4269 46.1632 19.9582 45.5226 19.9582C44.882 19.9582 44.3508 19.4269 44.3508 18.7863V13.8022C44.3508 13.1616 44.882 12.6304 45.5226 12.6304H47.1319L40.0073 3.13085L32.867 12.6304H34.4763C35.1169 12.6304 35.6481 13.1616 35.6481 13.8022V31.7857C35.6481 32.4419 35.1169 32.9575 34.4763 32.9575Z" fill="#31C1DE"/>
</g>
<path d="M45.5224 32.9629C44.8818 32.9629 44.3506 32.4317 44.3506 31.7911V24.2758C44.3506 23.6352 44.8818 23.104 45.5224 23.104C46.163 23.104 46.6942 23.6352 46.6942 24.2758V31.7911C46.6942 32.4317 46.163 32.9629 45.5224 32.9629Z" fill="#31C1DE"/>
<path d="M59.2556 37.5454C58.615 37.5454 58.0838 37.0142 58.0838 36.3736V27.7646H55.3027C54.8652 27.7646 54.459 27.5147 54.2558 27.124C54.0527 26.7334 54.0996 26.2491 54.3652 25.8897L63.8335 13.2653C64.0522 12.9685 64.396 12.7966 64.7709 12.7966C65.1459 12.7966 65.4897 12.9685 65.7084 13.2653L75.1767 25.8897C75.4423 26.2491 75.4892 26.7178 75.2861 27.124C75.0829 27.5147 74.6767 27.7646 74.2392 27.7646H71.4737V32.2644C71.4737 32.905 70.9425 33.4362 70.3019 33.4362C69.6613 33.4362 69.1301 32.905 69.1301 32.2644V26.5772C69.1301 25.9366 69.6613 25.4054 70.3019 25.4054H71.9112L64.7866 15.9058L57.6463 25.4054H59.2556C59.8962 25.4054 60.4274 25.9366 60.4274 26.5772V36.358C60.4274 37.0142 59.8962 37.5454 59.2556 37.5454Z" fill="#31C1DE"/>
<path d="M70.3017 45.7471C69.6611 45.7471 69.1299 45.2158 69.1299 44.5753V37.7318C69.1299 37.0912 69.6611 36.56 70.3017 36.56C70.9423 36.56 71.4735 37.0912 71.4735 37.7318V44.5753C71.4735 45.2158 70.9423 45.7471 70.3017 45.7471Z" fill="#31C1DE"/>
<path d="M20.7414 37.5454C20.1008 37.5454 19.5696 37.0142 19.5696 36.3736V26.5928C19.5696 25.9522 20.1008 25.421 20.7414 25.421H22.3507L15.226 15.9215L8.10137 25.421H9.69504C10.3356 25.421 10.8669 25.9522 10.8669 26.5928V32.2644C10.8669 32.905 10.3356 33.4362 9.69504 33.4362C9.05445 33.4362 8.52323 32.905 8.52323 32.2644V27.749H5.74211C5.30463 27.749 4.8984 27.499 4.69529 27.1084C4.49217 26.7178 4.53905 26.2335 4.80466 25.8741L14.2729 13.2497C14.4917 12.9529 14.8354 12.781 15.2104 12.781C15.5854 12.781 15.9291 12.9529 16.1479 13.2497L25.6318 25.8741C25.8974 26.2335 25.9443 26.7022 25.7411 27.1084C25.538 27.5147 25.1318 27.749 24.6943 27.749H21.9132V36.358C21.9132 37.0142 21.3976 37.5454 20.7414 37.5454Z" fill="#31C1DE"/>
<path d="M9.69526 45.7471C9.05466 45.7471 8.52344 45.2158 8.52344 44.5753V37.7318C8.52344 37.0912 9.05466 36.56 9.69526 36.56C10.3358 36.56 10.8671 37.0912 10.8671 37.7318V44.5753C10.8671 45.2158 10.3358 45.7471 9.69526 45.7471Z" fill="#31C1DE"/>
<mask id="mask1_227_3519" style="mask-type:luminance" maskUnits="userSpaceOnUse" x="-14" y="-14" width="108" height="108">
<path d="M93.3395 93.3237H-13.3271V-13.3429H93.3395V93.3237Z" fill="white"/>
</mask>
<g mask="url(#mask1_227_3519)">
<path d="M39.998 79.9888C34.0608 79.9888 28.2799 78.7076 22.7958 76.1765C18.421 74.1609 14.2337 71.3642 10.3432 67.8487C3.73419 61.8803 0.312486 55.9743 0.171868 55.7243C-0.0312475 55.365 -0.0312475 54.9119 0.171868 54.5525C0.312486 54.3025 3.73419 48.3966 10.3432 42.4281C14.2337 38.9127 18.421 36.1159 22.7958 34.1004C28.2799 31.5849 34.0608 30.3037 39.998 30.3037C45.9353 30.3037 51.7162 31.5849 57.2003 34.116C61.5751 36.1315 65.7624 38.9283 69.6528 42.4437C76.2619 48.4122 79.6836 54.3181 79.8242 54.5681C80.0273 54.9275 80.0273 55.3806 79.8242 55.74C79.6836 55.9899 76.2619 61.8959 69.6528 67.8644C65.7624 71.3798 61.5751 74.1766 57.2003 76.1921C51.7162 78.7232 45.9353 79.9888 39.998 79.9888ZM2.54675 55.1462C3.56233 56.7712 6.78092 61.4897 11.9525 66.1613C17.7648 71.3954 27.358 77.6451 39.998 77.6451C52.6381 77.6451 62.2313 71.3954 68.0436 66.1613C73.2308 61.4897 76.4338 56.7555 77.4493 55.1462C76.4181 53.5213 73.2152 48.8028 68.0436 44.1311C62.2313 38.897 52.6381 32.6473 39.998 32.6473C27.358 32.6473 17.7648 38.897 11.9525 44.1311C6.78092 48.8028 3.56233 53.5369 2.54675 55.1462Z" fill="#31C1DE"/>
<path d="M40.0011 72.1025C30.6578 72.1025 23.0488 64.4935 23.0488 55.1502C23.0488 45.807 30.6578 38.1979 40.0011 38.1979C49.3444 38.1979 56.9534 45.807 56.9534 55.1502C56.9534 64.4935 49.3444 72.1025 40.0011 72.1025ZM40.0011 40.5416C31.939 40.5416 25.3925 47.1038 25.3925 55.1502C25.3925 63.1967 31.9546 69.7589 40.0011 69.7589C48.0632 69.7589 54.6098 63.1967 54.6098 55.1502C54.6098 47.1038 48.0476 40.5416 40.0011 40.5416Z" fill="#31C1DE"/>
<path d="M47.5759 63.7471H42.5292C41.8886 63.7471 41.3574 63.2158 41.3574 62.5753V48.0603C41.3574 47.4197 41.8886 46.8885 42.5292 46.8885H47.5759C48.2165 46.8885 48.7477 47.4197 48.7477 48.0603V62.5753C48.7477 63.2158 48.2165 63.7471 47.5759 63.7471ZM43.7011 61.4034H46.404V49.2165H43.7011V61.4034Z" fill="#31C1DE"/>
<path d="M42.529 63.7471H37.4824C36.8418 63.7471 36.3105 63.2158 36.3105 62.5753V51.3727C36.3105 50.7321 36.8418 50.2009 37.4824 50.2009H42.529C43.1696 50.2009 43.7008 50.7321 43.7008 51.3727V62.5753C43.7008 63.2158 43.1696 63.7471 42.529 63.7471ZM38.6386 61.4034H41.3416V52.5445H38.6386V61.4034Z" fill="#31C1DE"/>
<path d="M37.4665 63.7471H32.4199C31.7793 63.7471 31.248 63.2158 31.248 62.5753V54.5288C31.248 53.8882 31.7793 53.357 32.4199 53.357H37.4665C38.1071 53.357 38.6383 53.8882 38.6383 54.5288V62.5753C38.6383 63.2158 38.1227 63.7471 37.4665 63.7471ZM33.5917 61.4034H36.2947V55.7006H33.5917V61.4034Z" fill="#31C1DE"/>
<path d="M67.1442 56.3218H60.832C60.1914 56.3218 59.6602 55.7906 59.6602 55.15C59.6602 54.5094 60.1914 53.9781 60.832 53.9781H67.1442C67.7848 53.9781 68.316 54.5094 68.316 55.15C68.316 55.7906 67.7848 56.3218 67.1442 56.3218Z" fill="#31C1DE"/>
<path d="M63.5144 61.3726H60.3583C59.7177 61.3726 59.1865 60.8413 59.1865 60.2007C59.1865 59.5601 59.7177 59.0289 60.3583 59.0289H63.5144C64.155 59.0289 64.6863 59.5601 64.6863 60.2007C64.6863 60.8413 64.155 61.3726 63.5144 61.3726Z" fill="#31C1DE"/>
<path d="M63.5144 51.2715H60.3583C59.7177 51.2715 59.1865 50.7403 59.1865 50.0997C59.1865 49.4591 59.7177 48.9278 60.3583 48.9278H63.5144C64.155 48.9278 64.6863 49.4591 64.6863 50.0997C64.6863 50.7403 64.155 51.2715 63.5144 51.2715Z" fill="#31C1DE"/>
<path d="M19.1647 56.3218H12.8525C12.2119 56.3218 11.6807 55.7906 11.6807 55.15C11.6807 54.5094 12.2119 53.9781 12.8525 53.9781H19.1647C19.8053 53.9781 20.3365 54.5094 20.3365 55.15C20.3365 55.7906 19.8053 56.3218 19.1647 56.3218Z" fill="#31C1DE"/>
<path d="M19.6375 61.3726H16.4814C15.8408 61.3726 15.3096 60.8413 15.3096 60.2007C15.3096 59.5601 15.8408 59.0289 16.4814 59.0289H19.6375C20.2781 59.0289 20.8093 59.5601 20.8093 60.2007C20.8093 60.8413 20.2781 61.3726 19.6375 61.3726Z" fill="#31C1DE"/>
<path d="M19.6375 51.2715H16.4814C15.8408 51.2715 15.3096 50.7403 15.3096 50.0997C15.3096 49.4591 15.8408 48.9278 16.4814 48.9278H19.6375C20.2781 48.9278 20.8093 49.4591 20.8093 50.0997C20.8093 50.7403 20.2781 51.2715 19.6375 51.2715Z" fill="#31C1DE"/>
</g>
</g>
<defs>
<clipPath id="clip0_227_3519">
<rect width="80" height="80" fill="white"/>
</clipPath>
</defs>
</svg>
