<svg width="80" height="80" viewBox="0 0 80 80" fill="none" xmlns="http://www.w3.org/2000/svg">
<g clip-path="url(#clip0_198_1201)">
<path d="M78.2325 23.7849L67.2558 16.9319C66.0807 16.198 64.6557 16.1615 63.4439 16.8333C62.2322 17.5054 61.5089 18.7336 61.5089 20.1191V21.7033H47.2627C45.8554 21.7033 44.5324 22.2515 43.5377 23.2463L34.2343 32.55L29.4984 27.8141C28.5034 26.8189 27.1806 26.271 25.7732 26.271H5.35968C2.45734 26.271 0.104686 28.5011 0.00343642 31.3483C-0.0478135 32.7922 0.475623 34.1591 1.47718 35.1969C2.47921 36.2352 3.82546 36.8069 5.26811 36.8069H23.5912L26.7842 40.0003L23.591 43.1934H17.1868C16.3882 43.1934 15.7411 43.8408 15.7411 44.6392C15.7411 45.4378 16.3884 46.085 17.1868 46.085H24.19C24.5734 46.085 24.9412 45.9327 25.2123 45.6616L28.829 42.0449L32.1898 45.4056L27.4537 50.1417C27.0049 50.5905 26.4081 50.8376 25.7734 50.8376H5.35968C4.04452 50.8376 2.93812 49.8111 2.89327 48.5492C2.87015 47.8966 3.10624 47.2794 3.55796 46.8111C4.00999 46.3427 4.61733 46.0847 5.26811 46.0847H12.5967C13.3953 46.0847 14.0425 45.4373 14.0425 44.6389C14.0425 43.8403 13.3951 43.1931 12.5967 43.1931H5.26811C3.82546 43.1931 2.47921 43.7648 1.47718 44.8031C0.475623 45.8409 -0.0478135 47.2077 0.00343642 48.6519C0.104686 51.4991 2.45734 53.7292 5.35968 53.7292H25.7731C27.1804 53.7292 28.5034 53.1811 29.4981 52.1862L34.234 47.4502L43.5374 56.7536C44.5324 57.7487 45.8552 58.2967 47.2626 58.2967H61.5088V59.8809C61.5088 61.2664 62.2322 62.4947 63.4438 63.1667C64.0205 63.4865 64.6452 63.6459 65.2688 63.6457C65.9552 63.6457 66.6399 63.4526 67.2557 63.0681L71.9502 60.1372C72.6275 59.7143 72.8338 58.8223 72.411 58.1451C71.9883 57.4679 71.0964 57.2614 70.4189 57.6843L65.7243 60.6153C65.3338 60.8589 64.9799 60.7122 64.846 60.6379C64.7118 60.5637 64.4 60.3409 64.4 59.8809V56.8511C64.4 56.0525 63.7527 55.4053 62.9543 55.4053H47.2627C46.6279 55.4053 46.0312 55.1581 45.5823 54.7094L25.2121 34.3391C24.941 34.0678 24.5732 33.9155 24.1898 33.9155H5.26811C4.61733 33.9155 4.00999 33.6575 3.55796 33.1891C3.10624 32.721 2.87015 32.1038 2.89327 31.4511C2.93812 30.1892 4.04468 29.1625 5.35968 29.1625H25.7731C26.4079 29.1625 27.0046 29.4097 27.4535 29.8585L41.3216 43.7266C41.8862 44.2911 42.8016 44.2911 43.3662 43.7266C43.9309 43.162 43.9309 42.2466 43.3662 41.682L41.6841 40.0003L49.4447 32.2397H51.456C52.2546 32.2397 52.9018 31.5924 52.9018 30.7939C52.9018 29.9953 52.2544 29.3482 51.456 29.3482H48.846C48.4626 29.3482 48.0947 29.5005 47.8237 29.7716L39.6396 37.9558L36.2788 34.595L45.5826 25.2913C46.0313 24.8425 46.6282 24.5954 47.2629 24.5954H62.9547C63.7533 24.5954 64.4005 23.948 64.4005 23.1496V20.1194C64.4005 19.6593 64.7122 19.4366 64.8464 19.3624C64.9803 19.2882 65.3341 19.1413 65.7246 19.3851L76.7013 26.238C77.0688 26.4675 77.1084 26.828 77.1084 26.9722C77.1084 27.1166 77.0688 27.4771 76.7013 27.7064L65.7246 34.5594C65.3341 34.803 64.9802 34.6563 64.8464 34.5821C64.7122 34.5078 64.4005 34.285 64.4005 33.825V30.7938C64.4005 29.9952 63.7532 29.348 62.9547 29.348H56.1099C55.3113 29.348 54.6641 29.9953 54.6641 30.7938C54.6641 31.5924 55.3115 32.2396 56.1099 32.2396H61.5089V33.825C61.5089 35.2105 62.2324 36.4389 63.4439 37.1108C64.6553 37.7828 66.0807 37.746 67.2558 37.0122L78.2325 30.1592C79.3392 29.4683 80 28.2769 80 26.9722C80 25.6674 79.3392 24.4758 78.2325 23.7849Z" fill="#31C1DE"/>
<path d="M78.2328 49.8412L67.2561 42.9882C66.081 42.2543 64.6558 42.2174 63.4443 42.8896C62.2327 43.5615 61.5093 44.7899 61.5093 46.1754V47.7609H49.4452L47.011 45.3266C46.4465 44.7621 45.531 44.7621 44.9665 45.3266C44.4018 45.8912 44.4018 46.8066 44.9665 47.3712L47.8241 50.2288C48.0952 50.5001 48.463 50.6524 48.8465 50.6524H62.9552C63.7538 50.6524 64.401 50.0051 64.401 49.2066V46.1754C64.401 45.7151 64.7127 45.4926 64.8468 45.4184C64.981 45.3441 65.3346 45.1974 65.7252 45.441L76.7019 52.294C77.0694 52.5235 77.1091 52.884 77.1091 53.0282C77.1091 53.1724 77.0694 53.533 76.7017 53.7624L74.5894 55.0813C73.9122 55.5041 73.7058 56.3961 74.1286 57.0735C74.4027 57.5127 74.8741 57.7538 75.3564 57.7538C75.6178 57.7538 75.8827 57.683 76.1206 57.5343L78.2328 56.2154C79.3395 55.5244 80.0003 54.333 80.0003 53.0283C80.0003 51.7237 79.3395 50.5319 78.2328 49.8412Z" fill="#31C1DE"/>
</g>
<defs>
<clipPath id="clip0_198_1201">
<rect width="80" height="80" fill="white"/>
</clipPath>
</defs>
</svg>
