<svg width="80" height="80" viewBox="0 0 80 80" fill="none" xmlns="http://www.w3.org/2000/svg">
<g clip-path="url(#clip0_198_1272)">
<mask id="mask0_198_1272" style="mask-type:luminance" maskUnits="userSpaceOnUse" x="-14" y="-14" width="108" height="108">
<path d="M93.3395 93.3235H-13.3271V-13.3432H93.3395V93.3235Z" fill="white"/>
</mask>
<g mask="url(#mask0_198_1272)">
<path d="M39.2723 79.9692C38.6317 79.9692 38.1005 79.438 38.1005 78.7974V47.6271H35.46C34.7257 47.6271 34.0538 47.2208 33.7257 46.5646C33.382 45.9084 33.4445 45.1428 33.8663 44.5335L43.1003 31.5185C43.4596 31.0029 44.069 30.6904 44.6939 30.6904C45.3189 30.6904 45.9283 31.0029 46.2876 31.5185L55.5215 44.5335C55.9434 45.1272 56.0059 45.9084 55.6622 46.5646C55.3184 47.2208 54.6622 47.6271 53.9279 47.6271H51.2717V57.0797C51.2717 57.7203 50.7405 58.2515 50.0999 58.2515C49.4593 58.2515 48.9281 57.7203 48.9281 57.0797V47.2365C48.9281 46.1584 49.8031 45.2834 50.8811 45.2834H53.1623L44.6783 33.3465L36.1944 45.2834H38.4755C39.5536 45.2834 40.4285 46.1584 40.4285 47.2365V78.7974C40.4442 79.438 39.9129 79.9692 39.2723 79.9692Z" fill="#31C1DE"/>
<path d="M50.1005 79.97C49.4599 79.97 48.9287 79.4387 48.9287 78.7982V62.1896C48.9287 61.549 49.4599 61.0178 50.1005 61.0178C50.7411 61.0178 51.2723 61.549 51.2723 62.1896V78.7982C51.2723 79.4387 50.7411 79.97 50.1005 79.97Z" fill="#31C1DE"/>
<path d="M61.8232 79.9697C61.1826 79.9697 60.6514 79.4385 60.6514 78.7979V44.5965C60.6514 43.9559 61.1826 43.4246 61.8232 43.4246C62.4638 43.4246 62.995 43.9559 62.995 44.5965V78.7979C62.995 79.4385 62.4638 79.9697 61.8232 79.9697Z" fill="#31C1DE"/>
<path d="M72.6527 79.97C72.0121 79.97 71.4808 79.4387 71.4808 78.7982V30.0505C71.4808 28.9725 72.3558 28.0975 73.4339 28.0975H75.715L67.2311 16.1606L58.7471 28.0975H61.0282C62.1063 28.0975 62.9813 28.9725 62.9813 30.0505V39.4876C62.9813 40.1282 62.45 40.6594 61.8094 40.6594C61.1688 40.6594 60.6376 40.1282 60.6376 39.4876V30.4411H57.9971C57.2628 30.4411 56.5909 30.0349 56.2628 29.3787C55.9191 28.7225 55.9816 27.9569 56.4035 27.3475L65.6374 14.3326C65.9967 13.817 66.6061 13.5045 67.2311 13.5045C67.856 13.5045 68.4654 13.817 68.8247 14.3326L78.0586 27.3475C78.4805 27.9413 78.543 28.7225 78.1993 29.3787C77.8555 30.0349 77.1993 30.4411 76.465 30.4411H73.8245V78.7982C73.8245 79.4387 73.2933 79.97 72.6527 79.97Z" fill="#31C1DE"/>
<path d="M16.7177 79.9688C16.0771 79.9688 15.5459 79.4375 15.5459 78.7969V74.969C15.5459 74.3284 16.0771 73.7972 16.7177 73.7972C17.3583 73.7972 17.8895 74.3284 17.8895 74.969V78.7969C17.8895 79.4532 17.3583 79.9688 16.7177 79.9688Z" fill="#31C1DE"/>
<path d="M27.5482 79.97C26.9076 79.97 26.3764 79.4387 26.3764 78.7982V61.299C26.3764 60.2209 27.2513 59.346 28.3294 59.346H30.6105L22.1266 47.4091L13.6426 59.346H15.9237C17.0018 59.346 17.8768 60.2209 17.8768 61.299V69.8611C17.8768 70.5017 17.3455 71.0329 16.705 71.0329C16.0644 71.0329 15.5331 70.5017 15.5331 69.8611V61.6896H12.8926C12.1583 61.6896 11.4865 61.2834 11.1583 60.6272C10.8146 59.9709 10.8771 59.2054 11.299 58.596L20.5329 45.581C20.8922 45.0654 21.486 44.7529 22.1266 44.7529C22.7515 44.7529 23.3609 45.0654 23.7202 45.581L32.9542 58.596C33.376 59.1897 33.4385 59.9709 33.0948 60.6272C32.751 61.2834 32.0948 61.6896 31.3605 61.6896H28.72V78.7982C28.72 79.4387 28.1888 79.97 27.5482 79.97Z" fill="#31C1DE"/>
<path d="M78.8243 79.9961H1.95303C0.874957 79.9961 0 79.1211 0 78.0431V1.17182C0 0.531235 0.531224 7.62939e-06 1.17182 7.62939e-06C1.81241 7.62939e-06 2.34364 0.531235 2.34364 1.17182V77.6525H78.8243C79.4649 77.6525 79.9961 78.1837 79.9961 78.8243C79.9961 79.4649 79.4649 79.9961 78.8243 79.9961Z" fill="#31C1DE"/>
<path d="M6.34637 17.8574H1.17475C0.534154 17.8574 0.00292969 17.3262 0.00292969 16.6856C0.00292969 16.045 0.534154 15.5138 1.17475 15.5138H6.34637C6.98696 15.5138 7.51819 16.045 7.51819 16.6856C7.51819 17.3262 6.98696 17.8574 6.34637 17.8574Z" fill="#31C1DE"/>
<path d="M6.34637 33.4045H1.17475C0.534154 33.4045 0.00292969 32.8733 0.00292969 32.2327C0.00292969 31.5921 0.534154 31.0609 1.17475 31.0609H6.34637C6.98696 31.0609 7.51819 31.5921 7.51819 32.2327C7.51819 32.8733 6.98696 33.4045 6.34637 33.4045Z" fill="#31C1DE"/>
<path d="M6.34637 48.9519H1.17475C0.534154 48.9519 0.00292969 48.4207 0.00292969 47.7801C0.00292969 47.1395 0.534154 46.6083 1.17475 46.6083H6.34637C6.98696 46.6083 7.51819 47.1395 7.51819 47.7801C7.51819 48.4207 6.98696 48.9519 6.34637 48.9519Z" fill="#31C1DE"/>
<path d="M6.34637 64.4993H1.17475C0.534154 64.4993 0.00292969 63.968 0.00292969 63.3274C0.00292969 62.6869 0.534154 62.1556 1.17475 62.1556H6.34637C6.98696 62.1556 7.51819 62.6869 7.51819 63.3274C7.51819 63.968 6.98696 64.4993 6.34637 64.4993Z" fill="#31C1DE"/>
<path d="M29.0793 11.8284H15.1894C14.5488 11.8284 14.0176 11.2971 14.0176 10.6566C14.0176 10.016 14.5488 9.48473 15.1894 9.48473H29.0793C29.7199 9.48473 30.2512 10.016 30.2512 10.6566C30.2512 11.2971 29.7199 11.8284 29.0793 11.8284Z" fill="#31C1DE"/>
<path d="M29.0793 17.873H15.1894C14.5488 17.873 14.0176 17.3418 14.0176 16.7012C14.0176 16.0606 14.5488 15.5294 15.1894 15.5294H29.0793C29.7199 15.5294 30.2512 16.0606 30.2512 16.7012C30.2512 17.3418 29.7199 17.873 29.0793 17.873Z" fill="#31C1DE"/>
<path d="M22.1266 23.9175H15.1894C14.5488 23.9175 14.0176 23.3863 14.0176 22.7457C14.0176 22.1051 14.5488 21.5738 15.1894 21.5738H22.1266C22.7671 21.5738 23.2984 22.1051 23.2984 22.7457C23.2984 23.3863 22.7828 23.9175 22.1266 23.9175Z" fill="#31C1DE"/>
</g>
</g>
<defs>
<clipPath id="clip0_198_1272">
<rect width="80" height="80" fill="white"/>
</clipPath>
</defs>
</svg>
