<svg width="80" height="80" viewBox="0 0 80 80" fill="none" xmlns="http://www.w3.org/2000/svg">
<g clip-path="url(#clip0_152_3126)">
<path d="M51.7031 72.9688C50.7969 72.9688 49.9219 72.6094 49.2344 71.9375L48.5469 71.25C48.0938 70.7969 48.0938 70.0469 48.5469 69.5937C49 69.1406 49.75 69.1406 50.2031 69.5937L50.8906 70.2812C51.4062 70.7969 52 70.6094 52.1719 70.5312C52.3437 70.4531 52.8906 70.1719 52.8906 69.4531V58.0625C52.8906 57.4219 53.4219 56.8906 54.0625 56.8906C54.7031 56.8906 55.2344 57.4219 55.2344 58.0625V69.4531C55.2344 70.9062 54.4062 72.1406 53.0625 72.7031C52.6094 72.875 52.1562 72.9688 51.7031 72.9688Z" fill="#31C1DE"/>
<path d="M30.625 66.9063C29.9844 66.9063 29.4531 66.375 29.4531 65.7344V59.9688C29.4531 59.3281 29.9844 58.7969 30.625 58.7969C31.2656 58.7969 31.7969 59.3281 31.7969 59.9688V65.7344C31.7969 66.375 31.2656 66.9063 30.625 66.9063Z" fill="#31C1DE"/>
<path d="M47.0156 80C46.1094 80 45.2344 79.6406 44.5469 78.9687L40 74.4219L35.4531 78.9687C34.4219 80 32.9531 80.2812 31.625 79.7344C30.2812 79.1875 29.4531 77.9375 29.4531 76.4844V72.7812C28.6562 73.0625 27.7656 73.0469 26.9375 72.7031C25.5937 72.1562 24.7656 70.9062 24.7656 69.4531V58.0625C24.7656 57.4219 25.2969 56.8906 25.9375 56.8906C26.5781 56.8906 27.1094 57.4219 27.1094 58.0625V69.4531C27.1094 70.1875 27.6563 70.4687 27.8281 70.5312C28 70.5937 28.5938 70.7969 29.1094 70.2812L29.7969 69.5937C30.125 69.2656 30.6406 69.1562 31.0781 69.3437C31.5156 69.5312 31.7969 69.9531 31.7969 70.4219V76.4844C31.7969 77.2187 32.3438 77.5 32.5156 77.5625C32.6875 77.6406 33.2813 77.8281 33.7969 77.3125L39.1719 71.9375C39.3906 71.7187 39.6875 71.5938 40 71.5938C40.3125 71.5938 40.6094 71.7187 40.8281 71.9375L46.2031 77.3125C46.7188 77.8281 47.3125 77.6406 47.4844 77.5625C47.6562 77.4844 48.2031 77.2031 48.2031 76.4844V59.9687C48.2031 59.3281 48.7344 58.7969 49.375 58.7969C50.0156 58.7969 50.5469 59.3281 50.5469 59.9687V76.4687C50.5469 77.9219 49.7188 79.1563 48.375 79.7188C47.9219 79.9063 47.4688 80 47.0156 80Z" fill="#31C1DE"/>
<path d="M40 54.9219C26.6094 54.9219 15.7031 44.0156 15.7031 30.625C15.7031 25.0469 17.6406 19.5938 21.1719 15.2812C21.5781 14.7812 22.3125 14.7031 22.8281 15.1094C23.3281 15.5156 23.4062 16.25 23 16.7656C19.8125 20.6719 18.0625 25.5938 18.0625 30.6406C18.0625 42.75 27.9063 52.5938 40.0156 52.5938C52.125 52.5938 61.9688 42.75 61.9688 30.6406C61.9688 18.5313 52.125 8.6875 40.0156 8.6875C34.9688 8.6875 30.0469 10.4375 26.1406 13.625C25.6406 14.0312 24.9062 13.9531 24.4844 13.4531C24.0781 12.9531 24.1562 12.2188 24.6562 11.7969C28.9688 8.26562 34.4219 6.32812 40 6.32812C53.3906 6.32812 64.2969 17.2344 64.2969 30.625C64.2969 44.0156 53.3906 54.9219 40 54.9219Z" fill="#31C1DE"/>
<path d="M47.9219 61.25C46.4219 61.25 44.9375 60.9531 43.5156 60.375C41.25 59.4375 38.7656 59.4375 36.5 60.375C35.0625 60.9687 33.5781 61.25 32.1094 61.25C27.5938 61.25 23.2969 58.5781 21.4531 54.1406C20.5156 51.875 18.75 50.1094 16.4844 49.1719C13.6406 48 11.4375 45.7812 10.25 42.9375C9.07812 40.0937 9.07812 36.9688 10.25 34.125C11.1875 31.8594 11.1875 29.375 10.25 27.1094C7.82812 21.25 10.625 14.5 16.4844 12.0781C18.75 11.1406 20.5156 9.375 21.4531 7.10938C22.625 4.26562 24.8438 2.0625 27.6875 0.875C30.5312 -0.296875 33.6562 -0.296875 36.5 0.875C38.7656 1.8125 41.25 1.8125 43.5156 0.875C46.3594 -0.296875 49.4844 -0.296875 52.3281 0.875C55.1719 2.04688 57.375 4.26562 58.5625 7.10938C59.5 9.375 61.2656 11.1406 63.5312 12.0781C69.3906 14.5 72.1875 21.25 69.7656 27.125C68.8281 29.3906 68.8281 31.875 69.7656 34.1406C72.1875 40 69.4062 46.75 63.5312 49.1875C61.2656 50.125 59.5 51.8906 58.5625 54.1562C57.3906 57 55.1719 59.2031 52.3281 60.3906C50.9062 60.9531 49.4062 61.25 47.9219 61.25ZM40 57.3281C41.5 57.3281 42.9844 57.625 44.4062 58.2188C46.6719 59.1562 49.1562 59.1562 51.4219 58.2188C53.6875 57.2812 55.4531 55.5156 56.3906 53.25C57.5625 50.4062 59.7812 48.2031 62.625 47.0156C67.2969 45.0781 69.5156 39.7031 67.5938 35.0312C66.4219 32.1875 66.4219 29.0625 67.5938 26.2188C69.5312 21.5469 67.2969 16.1719 62.625 14.2344C59.7812 13.0625 57.5781 10.8438 56.3906 8C55.4531 5.73438 53.6875 3.96875 51.4219 3.03125C49.1562 2.09375 46.6719 2.09375 44.4062 3.03125C41.5625 4.21875 38.4375 4.21875 35.5938 3.04688C33.3281 2.10938 30.8438 2.10938 28.5781 3.04688C26.3125 3.98438 24.5469 5.75 23.6094 8.01562C22.4375 10.8594 20.2188 13.0625 17.375 14.25C12.7031 16.1875 10.4844 21.5625 12.4063 26.2344C13.5781 29.0781 13.5781 32.2031 12.4063 35.0469C11.4688 37.3125 11.4688 39.7969 12.4063 42.0625C13.3438 44.3281 15.1094 46.0938 17.375 47.0312C20.2188 48.2031 22.4219 50.4219 23.6094 53.2656C25.5469 57.9375 30.9219 60.1562 35.5938 58.2344C37.0156 57.625 38.5 57.3281 40 57.3281Z" fill="#31C1DE"/>
<path d="M40 45.5469C31.7656 45.5469 25.0781 38.8594 25.0781 30.625C25.0781 22.3906 31.7656 15.7031 40 15.7031C48.2344 15.7031 54.9219 22.3906 54.9219 30.625C54.9219 38.8594 48.2344 45.5469 40 45.5469ZM40 18.0469C33.0625 18.0469 27.4219 23.6875 27.4219 30.625C27.4219 37.5625 33.0625 43.2031 40 43.2031C46.9375 43.2031 52.5781 37.5625 52.5781 30.625C52.5781 23.6875 46.9375 18.0469 40 18.0469Z" fill="#31C1DE"/>
<path d="M40 40.8594C34.3594 40.8594 29.7656 36.2656 29.7656 30.625C29.7656 24.9844 34.3594 20.3906 40 20.3906C45.6406 20.3906 50.2344 24.9844 50.2344 30.625C50.2344 36.2656 45.6406 40.8594 40 40.8594ZM40 22.7344C35.6562 22.7344 32.1094 26.2812 32.1094 30.625C32.1094 34.9688 35.6562 38.5156 40 38.5156C44.3438 38.5156 47.8906 34.9688 47.8906 30.625C47.8906 26.2812 44.3438 22.7344 40 22.7344Z" fill="#31C1DE"/>
</g>
<defs>
<clipPath id="clip0_152_3126">
<rect width="80" height="80" fill="white"/>
</clipPath>
</defs>
</svg>
