<svg width="80" height="80" viewBox="0 0 80 80" fill="none" xmlns="http://www.w3.org/2000/svg">
<g clip-path="url(#clip0_150_2945)">
<mask id="mask0_150_2945" style="mask-type:luminance" maskUnits="userSpaceOnUse" x="-14" y="-14" width="108" height="108">
<path d="M93.339 93.3237H-13.3276V-13.3429H93.339V93.3237Z" fill="white"/>
</mask>
<g mask="url(#mask0_150_2945)">
<path d="M67.766 33.7485C67.5785 33.7485 67.391 33.7329 67.2035 33.7173C64.8755 33.4673 62.985 31.5924 62.7038 29.2644C62.5163 27.6863 63.0319 26.1395 64.1412 25.0146C64.2037 24.9521 64.2349 24.8896 64.2349 24.8115V24.6552C64.2349 24.5146 64.1256 24.4052 63.9849 24.4052H56.7197C56.0791 24.4052 55.5479 23.874 55.5479 23.2334V15.9682C55.5479 14.5463 56.704 13.3745 58.1415 13.3745H58.2977C58.9852 13.3745 59.6414 13.6558 60.1414 14.1557C60.7507 14.7651 61.5944 15.0463 62.4538 14.937C63.7037 14.7807 64.7193 13.7651 64.8599 12.4996C64.9536 11.7027 64.7037 10.9215 64.1724 10.3278C63.6412 9.73408 62.8912 9.40597 62.11 9.40597C61.3757 9.40597 60.6726 9.68721 60.157 10.2184C59.657 10.7184 59.0008 10.984 58.3133 10.984H58.1571C56.7353 10.984 55.5635 9.82783 55.5635 8.3904V1.172C55.5635 0.531406 56.0947 0.000183105 56.7353 0.000183105H66.3442C66.9848 0.000183105 67.516 0.531406 67.516 1.172C67.516 1.8126 66.9848 2.34382 66.3442 2.34382H57.9071V8.43727C57.9071 8.57789 58.0165 8.68726 58.1571 8.68726H58.3133C58.4071 8.68726 58.4696 8.62476 58.5008 8.59351C59.4695 7.64043 60.7507 7.10921 62.11 7.10921C63.5631 7.10921 64.9536 7.73418 65.9223 8.81225C66.891 9.89032 67.3598 11.3434 67.1879 12.7964C66.9379 15.1244 65.063 17.015 62.735 17.2962C61.157 17.4837 59.6102 16.9681 58.4852 15.8588C58.4227 15.7963 58.3602 15.765 58.2821 15.765H58.1259C57.9852 15.765 57.8759 15.8744 57.8759 16.015V22.1085H63.9693C65.3911 22.1085 66.5629 23.2647 66.5629 24.7021V24.8583C66.5629 25.5458 66.2817 26.202 65.7817 26.702C65.1724 27.3113 64.8911 28.1551 65.0005 29.0144C65.1568 30.2643 66.1723 31.2799 67.4379 31.4205C68.2347 31.5143 69.0159 31.2643 69.6097 30.7331C70.2034 30.2018 70.5315 29.4519 70.5315 28.6707C70.5315 27.9363 70.2503 27.2332 69.719 26.7176C69.2191 26.2177 68.9534 25.5614 68.9534 24.874V24.7177C68.9534 23.2959 70.1096 22.1241 71.5471 22.1241H77.6405V2.7813C77.6405 2.56256 77.453 2.37507 77.2343 2.37507H71.8127C71.1721 2.37507 70.6409 1.84384 70.6409 1.20325C70.6409 0.562656 71.1721 0.0314293 71.8127 0.0314293H77.2343C78.7498 0.0314293 79.9842 1.26575 79.9842 2.7813V23.2959C79.9842 23.9365 79.4529 24.4677 78.8123 24.4677H71.5627C71.4221 24.4677 71.3127 24.5771 71.3127 24.7177V24.874C71.3127 24.9677 71.3752 25.0302 71.4065 25.0615C72.3595 26.0302 72.8908 27.3113 72.8908 28.6707C72.8908 30.1237 72.2658 31.5143 71.1877 32.483C70.2503 33.2954 69.0316 33.7485 67.766 33.7485Z" fill="#31C1DE"/>
<path d="M77.2507 79.9976H56.7205C56.0799 79.9976 55.5486 79.4663 55.5486 78.8257V71.3105H55.158C55.0643 71.3105 55.0018 71.373 54.9705 71.4042C54.0018 72.3573 52.7207 72.8885 51.3613 72.8885C49.9083 72.8885 48.5177 72.2636 47.549 71.1855C46.5803 70.1074 46.1116 68.6544 46.2835 67.2013C46.5335 64.8733 48.4084 62.9828 50.7364 62.7015C52.3144 62.514 53.8612 63.0296 54.9862 64.139C55.0487 64.2015 55.1112 64.2327 55.1893 64.2327H55.3455C55.4861 64.2327 55.5955 64.1233 55.5955 63.9827V56.7174C55.5955 56.0769 56.1267 55.5456 56.7673 55.5456H63.9857C65.4075 55.5456 66.5793 56.7018 66.5793 58.1393V58.2955C66.5793 58.983 66.2981 59.6392 65.7981 60.1392C65.1888 60.7485 64.9076 61.5922 65.0169 62.4515C65.1732 63.7015 66.1887 64.7171 67.4543 64.8577C68.2511 64.9514 69.0324 64.7014 69.6261 64.1702C70.2198 63.639 70.5479 62.889 70.5479 62.1078C70.5479 61.3735 70.2667 60.6704 69.7354 60.1548C69.2355 59.6548 68.9699 58.9986 68.9699 58.3111V58.1549C68.9699 56.7331 70.1261 55.5613 71.5635 55.5613H78.8288C79.4693 55.5613 80.0006 56.0925 80.0006 56.7331V77.2477C80.0006 78.7632 78.7663 79.9976 77.2507 79.9976ZM57.8923 77.6539H77.2507C77.4694 77.6539 77.6569 77.4664 77.6569 77.2477V57.9049H71.5635C71.4229 57.9049 71.3135 58.0143 71.3135 58.1549V58.3111C71.3135 58.4049 71.376 58.4674 71.4072 58.4986C72.3603 59.4673 72.8915 60.7485 72.8915 62.1078C72.8915 63.5609 72.2666 64.9514 71.1885 65.9201C70.1104 66.8888 68.6574 67.3576 67.2043 67.1857C64.8763 66.9201 62.9858 65.0608 62.7045 62.7328C62.517 61.1547 63.0326 59.6079 64.142 58.483C64.2045 58.4205 64.2357 58.358 64.2357 58.2799V58.1236C64.2357 57.983 64.1263 57.8736 63.9857 57.8736H57.8923V63.9983C57.8923 65.4201 56.7361 66.592 55.2986 66.592H55.1424C54.4549 66.592 53.7987 66.3107 53.2987 65.8108C52.6894 65.2014 51.8457 64.9202 50.9864 65.0295C49.7364 65.1858 48.7208 66.2014 48.5802 67.4669C48.4865 68.2638 48.7365 69.045 49.2677 69.6387C49.7989 70.2324 50.5489 70.5605 51.3301 70.5605C52.0644 70.5605 52.7675 70.2793 53.2831 69.7481C53.7831 69.2481 54.4393 68.9825 55.1268 68.9825H56.6892C57.3298 68.9825 57.861 69.5137 57.861 70.1543V77.6539H57.8923Z" fill="#31C1DE"/>
<path d="M23.262 79.9961H10.8252C10.1846 79.9961 9.65334 79.4649 9.65334 78.8243C9.65334 78.1837 10.1846 77.6525 10.8252 77.6525H22.0902V71.559C22.0902 71.4184 21.9809 71.309 21.8402 71.309H21.684C21.5903 71.309 21.5278 71.3715 21.4965 71.4028C20.5434 72.3715 19.2622 72.8871 17.9029 72.8871C16.4499 72.8871 15.0593 72.2621 14.0906 71.184C13.1219 70.106 12.6532 68.6529 12.8251 67.1998C13.075 64.8718 14.95 62.9813 17.278 62.7001C18.856 62.5126 20.4028 63.0282 21.5278 64.1375C21.5903 64.2 21.6528 64.2312 21.7309 64.2312H21.8871C22.0277 64.2312 22.1371 64.1219 22.1371 63.9813V57.8878H16.0436C14.6218 57.8878 13.45 56.7316 13.45 55.2942V55.1379C13.45 54.4505 13.7313 53.7942 14.2312 53.2943C14.8406 52.6849 15.1218 51.8412 15.0125 50.9819C14.8562 49.7319 13.8406 48.7164 12.5751 48.5758C11.7782 48.482 10.997 48.732 10.4033 49.2632C9.80958 49.7944 9.48147 50.5444 9.48147 51.3256C9.48147 52.06 9.76271 52.763 10.2939 53.2786C10.7939 53.7786 11.0595 54.4348 11.0595 55.1223V55.2786C11.0595 56.7004 9.90333 57.8722 8.46589 57.8722H2.37244V77.2462C2.37244 77.465 2.55993 77.6525 2.77867 77.6525H5.35667C5.99727 77.6525 6.52849 78.1837 6.52849 78.8243C6.52849 79.4649 5.99727 79.9961 5.35667 79.9961H2.74742C1.23187 79.9961 -0.00244141 78.7618 -0.00244141 77.2462V56.7316C-0.00244141 56.091 0.528783 55.5598 1.16938 55.5598H8.43465C8.57526 55.5598 8.68463 55.4504 8.68463 55.3098V55.1536C8.68463 55.0598 8.62214 54.9973 8.59089 54.9661C7.63781 53.9974 7.10659 52.7162 7.10659 51.3569C7.10659 49.9038 7.73156 48.5133 8.80963 47.5446C9.8877 46.5759 11.3408 46.1071 12.7938 46.279C15.1218 46.529 17.0124 48.4039 17.2936 50.7319C17.4811 52.3099 16.9655 53.8567 15.8562 54.9817C15.7937 55.0442 15.7624 55.1067 15.7624 55.1848V55.341C15.7624 55.4817 15.8718 55.591 16.0124 55.591H23.2777C23.9183 55.591 24.4495 56.1223 24.4495 56.7629V63.9969C24.4495 65.4187 23.2933 66.5905 21.8559 66.5905H21.6996C21.0122 66.5905 20.3559 66.3093 19.856 65.8093C19.2466 65.1999 18.4029 64.9187 17.5436 65.0281C16.2936 65.1843 15.2781 66.1999 15.1374 67.4655C15.0437 68.2623 15.2937 69.0435 15.8249 69.6372C16.3561 70.2309 17.1061 70.5591 17.8873 70.5591C18.6216 70.5591 19.3247 70.2778 19.8403 69.7466C20.3403 69.2466 20.9965 68.981 21.684 68.981H21.8402C23.262 68.981 24.4339 70.1372 24.4339 71.5746V78.8243C24.4339 79.4649 23.9183 79.9961 23.262 79.9961Z" fill="#31C1DE"/>
<path d="M23.2752 24.4355H16.01C14.5882 24.4355 13.4163 23.2794 13.4163 21.8419V21.6857C13.4163 20.9982 13.6976 20.342 14.1975 19.842C14.8069 19.2327 15.0881 18.389 14.9788 17.5296C14.8225 16.2797 13.8069 15.2641 12.5414 15.1235C11.7289 15.0298 10.9633 15.2797 10.3696 15.811C9.77589 16.3422 9.44778 17.0922 9.44778 17.8734C9.44778 18.6077 9.72902 19.3108 10.2602 19.8264C10.7602 20.3264 11.0258 20.9826 11.0258 21.6701V21.8263C11.0258 23.2481 9.86963 24.4199 8.43221 24.4199H1.16693C0.526341 24.4199 -0.00488281 23.8887 -0.00488281 23.2481V2.74911C-0.00488281 1.23355 1.22943 -0.000759125 2.74498 -0.000759125H23.2752C23.9158 -0.000759125 24.447 0.530466 24.447 1.17106V8.43633C24.447 8.57695 24.5564 8.68632 24.697 8.68632H24.8533C24.947 8.68632 25.0095 8.62382 25.0408 8.59257C26.0095 7.63949 27.2907 7.10827 28.65 7.10827C30.103 7.10827 31.4936 7.73324 32.4623 8.81131C33.431 9.88938 33.8997 11.3424 33.7278 12.7955C33.4779 15.1235 31.6029 17.014 29.2749 17.2953C27.6969 17.4984 26.1501 16.9672 25.0251 15.8578C24.9626 15.7953 24.9001 15.7641 24.822 15.7641H24.6658C24.5252 15.7641 24.4158 15.8735 24.4158 16.0141V23.2794C24.447 23.9199 23.9158 24.4355 23.2752 24.4355ZM17.2911 17.264C17.4786 18.8421 16.963 20.3889 15.8537 21.5138C15.7912 21.5763 15.76 21.6388 15.76 21.7169V21.8732C15.76 22.0138 15.8693 22.1232 16.01 22.1232H22.1034V15.9985C22.1034 14.5767 23.2596 13.4048 24.697 13.4048H24.8533C25.5407 13.4048 26.197 13.6861 26.6969 14.186C27.3063 14.7954 28.15 15.0766 29.0093 14.9673C30.2593 14.811 31.2748 13.7954 31.4155 12.5299C31.5092 11.733 31.2592 10.9518 30.728 10.3581C30.1968 9.76439 29.4468 9.43628 28.6656 9.43628C27.9312 9.43628 27.2282 9.71751 26.7126 10.2487C26.2126 10.7487 25.5564 11.0143 24.8689 11.0143H24.7127C23.2909 11.0143 22.119 9.85813 22.119 8.4207V2.32725H2.74498C2.52624 2.32725 2.33875 2.51474 2.33875 2.73348V22.0919H8.43221C8.57282 22.0919 8.68219 21.9825 8.68219 21.8419V21.6857C8.68219 21.5919 8.6197 21.5294 8.58845 21.4982C7.63537 20.5295 7.10415 19.2483 7.10415 17.889C7.10415 16.4359 7.72911 15.0454 8.80719 14.0767C9.88526 13.108 11.3383 12.6392 12.7914 12.8111C15.1194 13.0767 17.0099 14.936 17.2911 17.264Z" fill="#31C1DE"/>
<path d="M38.246 13.5498H37.3085C36.6679 13.5498 36.1367 13.0186 36.1367 12.378C36.1367 11.7374 36.6679 11.2062 37.3085 11.2062H38.246C38.8866 11.2062 39.4178 11.7374 39.4178 12.378C39.4178 13.0186 38.8866 13.5498 38.246 13.5498Z" fill="#31C1DE"/>
<path d="M45.8167 13.5498H43.4887C42.8481 13.5498 42.3169 13.0186 42.3169 12.378C42.3169 11.7374 42.8481 11.2062 43.4887 11.2062H45.8167C46.4573 11.2062 46.9885 11.7374 46.9885 12.378C46.9885 13.0186 46.4729 13.5498 45.8167 13.5498Z" fill="#31C1DE"/>
<path d="M51.9994 13.5498H51.062C50.4214 13.5498 49.8901 13.0186 49.8901 12.378C49.8901 11.7374 50.4214 11.2062 51.062 11.2062H51.9994C52.64 11.2062 53.1712 11.7374 53.1712 12.378C53.1712 13.0186 52.64 13.5498 51.9994 13.5498Z" fill="#31C1DE"/>
<path d="M67.6181 39.418C66.9775 39.418 66.4463 38.8867 66.4463 38.2462V37.3087C66.4463 36.6681 66.9775 36.1369 67.6181 36.1369C68.2587 36.1369 68.7899 36.6681 68.7899 37.3087V38.2462C68.7899 38.8867 68.2587 39.418 67.6181 39.418Z" fill="#31C1DE"/>
<path d="M67.6181 46.9888C66.9775 46.9888 66.4463 46.4575 66.4463 45.817V43.4889C66.4463 42.8483 66.9775 42.3171 67.6181 42.3171C68.2587 42.3171 68.7899 42.8483 68.7899 43.4889V45.817C68.7899 46.4732 68.2587 46.9888 67.6181 46.9888Z" fill="#31C1DE"/>
<path d="M67.6181 53.1714C66.9775 53.1714 66.4463 52.6402 66.4463 51.9996V51.0621C66.4463 50.4215 66.9775 49.8903 67.6181 49.8903C68.2587 49.8903 68.7899 50.4215 68.7899 51.0621V51.9996C68.7899 52.6402 68.2587 53.1714 67.6181 53.1714Z" fill="#31C1DE"/>
<path d="M42.6874 68.7905H41.7499C41.1093 68.7905 40.5781 68.2593 40.5781 67.6187C40.5781 66.9781 41.1093 66.4469 41.7499 66.4469H42.6874C43.328 66.4469 43.8592 66.9781 43.8592 67.6187C43.8592 68.2593 43.328 68.7905 42.6874 68.7905Z" fill="#31C1DE"/>
<path d="M36.5072 68.7905H34.1791C33.5385 68.7905 33.0073 68.2593 33.0073 67.6187C33.0073 66.9781 33.5385 66.4469 34.1791 66.4469H36.5072C37.1477 66.4469 37.679 66.9781 37.679 67.6187C37.679 68.2593 37.1477 68.7905 36.5072 68.7905Z" fill="#31C1DE"/>
<path d="M28.934 68.7905H27.9965C27.3559 68.7905 26.8247 68.2593 26.8247 67.6187C26.8247 66.9781 27.3559 66.4469 27.9965 66.4469H28.934C29.5746 66.4469 30.1058 66.9781 30.1058 67.6187C30.1058 68.2593 29.5746 68.7905 28.934 68.7905Z" fill="#31C1DE"/>
<path d="M12.3774 43.8594C11.7368 43.8594 11.2056 43.3282 11.2056 42.6876V41.7501C11.2056 41.1095 11.7368 40.5783 12.3774 40.5783C13.018 40.5783 13.5492 41.1095 13.5492 41.7501V42.6876C13.5492 43.3282 13.018 43.8594 12.3774 43.8594Z" fill="#31C1DE"/>
<path d="M12.3774 37.6792C11.7368 37.6792 11.2056 37.148 11.2056 36.5074V34.1794C11.2056 33.5388 11.7368 33.0076 12.3774 33.0076C13.018 33.0076 13.5492 33.5388 13.5492 34.1794V36.5074C13.5492 37.148 13.018 37.6792 12.3774 37.6792Z" fill="#31C1DE"/>
<path d="M12.3774 30.106C11.7368 30.106 11.2056 29.5747 11.2056 28.9341V27.9967C11.2056 27.3561 11.7368 26.8249 12.3774 26.8249C13.018 26.8249 13.5492 27.3561 13.5492 27.9967V28.9341C13.5492 29.5747 13.018 30.106 12.3774 30.106Z" fill="#31C1DE"/>
<path d="M42.3414 58.8755H37.6541C36.0917 58.8755 34.8105 57.5943 34.8105 56.0319V53.1883C34.8105 52.9852 34.6855 52.8133 34.4824 52.7195C33.498 52.2977 32.5606 51.7508 31.7013 51.1102C31.5294 50.9852 31.3263 50.9696 31.1544 51.0634L28.6858 52.4852C28.0296 52.8602 27.264 52.9695 26.5296 52.7664C25.7953 52.5633 25.1859 52.0946 24.811 51.4384L22.4673 47.3917C21.6861 46.0324 22.1548 44.2981 23.5142 43.5169L25.9828 42.0951C26.1546 42.0013 26.2328 41.8138 26.2171 41.5951C26.1546 41.0639 26.1234 40.517 26.1234 39.9858C26.1234 39.4546 26.1546 38.9077 26.2171 38.3765C26.2484 38.1734 26.1546 37.9859 25.9828 37.8765L23.5142 36.4547C22.1548 35.6735 21.6861 33.9236 22.4673 32.5799L24.811 28.5332C25.1859 27.877 25.8109 27.4083 26.5296 27.2052C27.264 27.002 28.0296 27.1114 28.6858 27.4864L31.1544 28.9082C31.3263 29.0019 31.5294 28.9863 31.7013 28.8613C32.5606 28.2207 33.498 27.6739 34.4824 27.252C34.6699 27.1739 34.8105 26.9864 34.8105 26.7833V23.9397C34.8105 22.3773 36.0917 21.0961 37.6541 21.0961H42.3414C43.9038 21.0961 45.185 22.3773 45.185 23.9397V26.7833C45.185 26.9864 45.31 27.1583 45.5131 27.252C46.4974 27.6739 47.4349 28.2207 48.2942 28.8613C48.4661 28.9863 48.6692 29.0019 48.841 28.9082L51.3097 27.4864C51.9659 27.1114 52.7315 27.002 53.4658 27.2052C54.2001 27.4083 54.8095 27.877 55.1845 28.5332L57.5281 32.5799C58.3093 33.9392 57.8406 35.6735 56.4813 36.4547L53.997 37.8921C53.8252 37.9859 53.747 38.1734 53.7627 38.3921C53.8252 38.9233 53.8564 39.4702 53.8564 40.0014C53.8564 40.5326 53.8252 41.0795 53.7627 41.6107C53.7314 41.8138 53.8252 42.0013 53.997 42.1107L56.4657 43.5325C57.825 44.3137 58.2937 46.0636 57.5125 47.4073L55.1689 51.454C54.7939 52.1102 54.1689 52.5789 53.4502 52.782C52.7158 52.9852 51.9503 52.8758 51.294 52.5008L48.8254 51.079C48.6535 50.9852 48.4504 51.0009 48.2786 51.1259C47.4192 51.7665 46.4818 52.3133 45.4974 52.7352C45.31 52.8133 45.1693 53.0008 45.1693 53.2039V56.0475C45.1693 57.5943 43.9038 58.8755 42.3414 58.8755ZM31.4044 48.6729C32.0137 48.6729 32.6075 48.8604 33.1231 49.251C33.8418 49.7822 34.6074 50.2353 35.4198 50.579C36.4666 51.0321 37.1541 52.0633 37.1541 53.1883V56.0319C37.1541 56.3131 37.3728 56.5319 37.6541 56.5319H42.3414C42.6226 56.5319 42.8413 56.3131 42.8413 56.0319V53.1883C42.8413 52.0477 43.5288 51.0321 44.5756 50.579C45.3881 50.2197 46.1693 49.7822 46.888 49.251C47.8098 48.5635 49.0285 48.4854 50.0129 49.0478L52.4815 50.4696C52.6377 50.5634 52.7783 50.5321 52.8565 50.5165C52.9346 50.5009 53.0752 50.4384 53.1533 50.2822L55.497 46.2355C55.6376 46.0011 55.5595 45.6886 55.3095 45.548L52.8252 44.1262C51.8565 43.5637 51.3097 42.47 51.4347 41.3295C51.4815 40.892 51.5128 40.4389 51.5128 39.9858C51.5128 39.5327 51.4815 39.0796 51.4347 38.6421C51.3097 37.5015 51.8409 36.4078 52.8252 35.8454L55.2938 34.4236C55.5282 34.2829 55.6063 33.9861 55.4813 33.7361L53.1377 29.6894C53.044 29.5332 52.9033 29.4707 52.8408 29.4551C52.7627 29.4394 52.6221 29.4082 52.4659 29.5019L49.9972 30.955C49.0129 31.5175 47.7942 31.4393 46.8724 30.7519C46.1537 30.2206 45.3881 29.7675 44.5756 29.4238C43.5288 28.9707 42.8413 27.9395 42.8413 26.8146V23.9709C42.8413 23.6897 42.6226 23.471 42.3414 23.471H37.6541C37.3728 23.471 37.1541 23.6897 37.1541 23.9709V26.8146C37.1541 27.9551 36.4666 28.9707 35.4198 29.4238C34.6074 29.7832 33.8261 30.2206 33.1231 30.7519C32.2012 31.4393 30.9825 31.5175 29.9982 30.955L27.5296 29.5332C27.3733 29.4394 27.2327 29.4707 27.1546 29.4863C27.0765 29.5019 26.9359 29.5644 26.8577 29.7207L24.5141 33.7673C24.3735 34.0017 24.4516 34.3142 24.7016 34.4548L27.1702 35.8766C28.1389 36.4391 28.6858 37.5328 28.5608 38.6734C28.5139 39.1108 28.4827 39.5639 28.4827 40.017C28.4827 40.4701 28.5139 40.9232 28.5608 41.3607C28.6858 42.5013 28.1546 43.595 27.1702 44.1575L24.7016 45.5793C24.4672 45.7199 24.3891 46.0167 24.5141 46.2667L26.8577 50.3134C26.9515 50.4696 27.0921 50.5321 27.1546 50.5478C27.2327 50.5634 27.3733 50.5946 27.5296 50.5009L29.9982 49.0791C30.4357 48.7822 30.92 48.6729 31.4044 48.6729ZM39.9977 44.22C37.6697 44.22 35.7792 42.3294 35.7792 40.0014C35.7792 37.6734 37.6697 35.7829 39.9977 35.7829C42.3257 35.7829 44.2163 37.6734 44.2163 40.0014C44.2163 42.3294 42.3257 44.22 39.9977 44.22ZM39.9977 38.1265C38.9665 38.1265 38.1228 38.9702 38.1228 40.0014C38.1228 41.0326 38.9665 41.8763 39.9977 41.8763C41.0289 41.8763 41.8726 41.0326 41.8726 40.0014C41.8726 38.9702 41.0289 38.1265 39.9977 38.1265Z" fill="#31C1DE"/>
<path d="M39.9981 49.0615C34.9983 49.0615 30.936 44.9992 30.936 39.9995C30.936 34.9997 34.9983 30.9374 39.9981 30.9374C44.9978 30.9374 49.0601 34.9997 49.0601 39.9995C49.0601 44.9992 44.9978 49.0615 39.9981 49.0615ZM39.9981 33.281C36.2951 33.281 33.2797 36.2965 33.2797 39.9995C33.2797 43.7024 36.2951 46.7179 39.9981 46.7179C43.701 46.7179 46.7165 43.7024 46.7165 39.9995C46.7165 36.2965 43.701 33.281 39.9981 33.281Z" fill="#31C1DE"/>
</g>
</g>
<defs>
<clipPath id="clip0_150_2945">
<rect width="80" height="80" fill="white"/>
</clipPath>
</defs>
</svg>
