<svg width="80" height="80" viewBox="0 0 80 80" fill="none" xmlns="http://www.w3.org/2000/svg">
<g clip-path="url(#clip0_151_3097)">
<path d="M21.227 69.895C20.5864 69.895 20.0552 69.3638 20.0552 68.7232V45.1775C20.0552 44.5369 20.5864 44.0057 21.227 44.0057C21.8676 44.0057 22.3988 44.5369 22.3988 45.1775V68.7232C22.3988 69.3638 21.8676 69.895 21.227 69.895Z" fill="#31C1DE"/>
<mask id="mask0_151_3097" style="mask-type:luminance" maskUnits="userSpaceOnUse" x="-14" y="-14" width="108" height="108">
<path d="M93.339 93.3237H-13.3276V-13.3429H93.339V93.3237Z" fill="white"/>
</mask>
<g mask="url(#mask0_151_3097)">
<path d="M17.6174 79.9961H16.5706C13.9301 79.9961 11.7896 77.8556 11.7896 75.2151V4.79665C11.7896 2.15614 13.9301 0.015625 16.5706 0.015625H17.6174C20.2579 0.015625 22.3984 2.15614 22.3984 4.79665V9.14018C22.3984 9.78077 21.8672 10.312 21.2266 10.312C20.586 10.312 20.0548 9.78077 20.0548 9.14018V4.79665C20.0548 3.45296 18.9611 2.35926 17.6174 2.35926H16.5706C15.2269 2.35926 14.1332 3.45296 14.1332 4.79665V75.2151C14.1332 76.5588 15.2269 77.6525 16.5706 77.6525H17.6174C18.9611 77.6525 20.0548 76.5588 20.0548 75.2151V73.9026C20.0548 73.262 20.586 72.7308 21.2266 72.7308C21.8672 72.7308 22.3984 73.262 22.3984 73.9026V75.2151C22.3984 77.8556 20.2579 79.9961 17.6174 79.9961Z" fill="#31C1DE"/>
<path d="M62.9999 62.769C60.6875 62.769 58.5001 62.5816 56.4689 62.2222C53.2816 61.6597 50.8286 59.2223 50.2192 56.0194C49.6255 52.8164 51.0161 49.6603 53.7816 47.9885C53.8284 47.9573 53.8909 47.926 53.9378 47.8948C44.1414 42.1607 31.1733 42.5044 13.346 48.9103C12.7367 49.1291 12.0649 48.8166 11.8461 48.2073C11.6274 47.5979 11.9399 46.9261 12.5492 46.7073C32.017 39.7077 46.0319 39.7545 56.6564 46.8323C56.9533 47.0354 57.1408 47.3479 57.172 47.7073C57.2033 48.0666 57.0783 48.4104 56.8283 48.6604C56.7658 48.7229 56.1408 49.3166 55.0003 50.004C52.6566 51.4258 52.1879 53.832 52.516 55.5975C52.8441 57.3787 54.1722 59.4411 56.8595 59.9254C59.5782 60.4098 62.5936 60.5504 65.8435 60.3317V26.6302C62.4687 26.8333 59.3126 26.6771 56.4533 26.1771C56.219 26.1458 55.9533 26.0833 55.7034 26.0052C55.0784 25.8333 54.719 25.1928 54.8909 24.5678C55.0628 23.9428 55.7034 23.5835 56.3283 23.7553C56.5002 23.8022 56.6877 23.8491 56.8752 23.8803C59.8906 24.4115 63.2811 24.5209 66.9372 24.2084C67.2653 24.1772 67.5934 24.2865 67.8278 24.5053C68.0621 24.724 68.2027 25.0365 68.2027 25.3646V61.4097C68.2027 62.0191 67.734 62.5191 67.1247 62.5816C65.7185 62.7065 64.3436 62.769 62.9999 62.769Z" fill="#31C1DE"/>
<path d="M12.9584 12.9399C12.474 12.9399 12.0209 12.6431 11.849 12.1587C11.6303 11.5494 11.9428 10.8775 12.5521 10.6588C16.7394 9.15888 20.708 7.97143 24.3641 7.12773C24.989 6.98711 25.6296 7.37771 25.7702 8.00268C25.9109 8.62765 25.5203 9.26825 24.8953 9.40886C21.3173 10.2369 17.4425 11.3931 13.349 12.8618C13.224 12.9087 13.0834 12.9399 12.9584 12.9399Z" fill="#31C1DE"/>
<path d="M56.0078 48.979C55.3672 48.979 54.8359 48.4478 54.8359 47.8072V12.4027C49.9612 9.29344 44.3833 7.77789 37.8055 7.77789C35.3369 7.77789 32.6652 7.99663 29.8997 8.43411C29.2591 8.52785 28.6654 8.09038 28.556 7.44978C28.4622 6.82481 28.8841 6.21547 29.5247 6.12172C32.4152 5.66862 35.1963 5.43426 37.7899 5.43426C45.0864 5.43426 51.258 7.18417 56.6484 10.7777C56.9765 10.9965 57.164 11.3558 57.164 11.7464V47.7916C57.1796 48.4634 56.664 48.979 56.0078 48.979Z" fill="#31C1DE"/>
<path d="M52.2915 59.3291C51.9946 59.3291 51.6977 59.2197 51.4634 58.9854C46.698 54.22 45.1668 49.2202 46.7761 43.6892C46.9636 43.0643 47.6042 42.7049 48.2292 42.8924C48.8541 43.0799 49.2135 43.7205 49.026 44.3455C47.6667 49.0484 48.9635 53.1732 53.1196 57.3292C53.5727 57.7823 53.5727 58.5323 53.1196 58.9854C52.8852 59.2197 52.5883 59.3291 52.2915 59.3291Z" fill="#31C1DE"/>
</g>
</g>
<defs>
<clipPath id="clip0_151_3097">
<rect width="80" height="80" fill="white"/>
</clipPath>
</defs>
</svg>
