<svg width="80" height="80" viewBox="0 0 80 80" fill="none" xmlns="http://www.w3.org/2000/svg">
<g clip-path="url(#clip0_150_3033)">
<mask id="mask0_150_3033" style="mask-type:luminance" maskUnits="userSpaceOnUse" x="-14" y="-14" width="108" height="108">
<path d="M93.339 93.3232H-13.3276V-13.3434H93.339V93.3232Z" fill="white"/>
</mask>
<g mask="url(#mask0_150_3033)">
<path d="M62.0945 58.2363C61.4383 58.2363 60.7821 57.9863 60.2821 57.4864L57.5947 54.799C57.0166 54.2209 56.751 53.4084 56.876 52.596L58.1885 43.7839C58.2666 43.1433 58.8603 42.7058 59.5009 42.7996C60.1415 42.8933 60.579 43.487 60.4852 44.1276L59.1728 52.9397C59.1728 53.0178 59.1884 53.0803 59.2509 53.1428L61.9383 55.8302C62.032 55.9239 62.1726 55.9239 62.2664 55.8302L64.9538 53.1428C65.0006 53.096 65.0319 53.0178 65.0163 52.9553L63.7038 44.1276C63.6101 43.487 64.0476 42.8933 64.6881 42.7996C65.3287 42.7058 65.9225 43.1433 66.0162 43.7839L67.3286 52.596C67.4536 53.3928 67.1724 54.2209 66.6099 54.799L63.9226 57.4864C63.4226 57.9863 62.7507 58.2363 62.0945 58.2363Z" fill="#31C1DE"/>
<path d="M62.1022 66.7695C61.2116 66.7695 60.3679 66.4258 59.7429 65.7852L55.3994 61.4573C54.9463 61.0042 54.9463 60.2542 55.3994 59.8011C55.8525 59.348 56.6025 59.348 57.0556 59.8011L61.3991 64.1447C61.5866 64.3322 61.8366 64.4415 62.1022 64.4415C62.3678 64.4415 62.6178 64.3322 62.8053 64.1447L67.9769 58.973C68.43 58.5199 69.18 58.5199 69.6331 58.973C70.0862 59.4261 70.0862 60.1761 69.6331 60.6292L64.4615 65.8008C63.8365 66.4258 62.9928 66.7695 62.1022 66.7695Z" fill="#31C1DE"/>
<path d="M49.1304 45.9048C48.7554 45.9048 48.396 45.7329 48.1617 45.4048C47.7867 44.8736 47.9273 44.1392 48.4585 43.7799C50.599 42.28 52.9739 41.155 55.4894 40.4363C56.1144 40.2644 56.755 40.6238 56.9425 41.2331C57.13 41.8425 56.755 42.5143 56.1457 42.6862C53.8801 43.3424 51.7396 44.3424 49.8022 45.7017C49.5835 45.8423 49.3647 45.9048 49.1304 45.9048Z" fill="#31C1DE"/>
<path d="M72.6132 57.1592C72.3163 57.1592 72.0195 57.0498 71.7851 56.8154C71.332 56.3623 71.332 55.6124 71.7851 55.1593L77.363 49.5814C77.7536 49.1908 77.7536 48.5658 77.363 48.1752C74.8162 45.6441 71.6757 43.7536 68.254 42.7536C67.6291 42.5661 67.2853 41.9099 67.4572 41.3006C67.6447 40.6756 68.3009 40.3319 68.9103 40.5037C72.7226 41.6287 76.2068 43.7067 79.0191 46.5191C80.316 47.8159 80.316 49.9408 79.0191 51.2376L73.4413 56.8154C73.2069 57.0498 72.9101 57.1592 72.6132 57.1592Z" fill="#31C1DE"/>
<path d="M62.0972 45.1299C56.7381 45.1299 52.3633 40.7707 52.3633 35.396C52.3633 30.0369 56.7224 25.6621 62.0972 25.6621C67.4719 25.6621 71.8311 30.0369 71.8311 35.396C71.8311 40.7551 67.4719 45.1299 62.0972 45.1299ZM62.0972 28.0057C58.0193 28.0057 54.7069 31.3181 54.7069 35.396C54.7069 39.4739 58.0193 42.7862 62.0972 42.7862C66.1751 42.7862 69.4874 39.4739 69.4874 35.396C69.4874 31.3181 66.1751 28.0057 62.0972 28.0057Z" fill="#31C1DE"/>
<path d="M17.8914 58.2363C17.2352 58.2363 16.579 57.9863 16.079 57.4864L13.3916 54.799C12.8135 54.2209 12.5479 53.4084 12.6729 52.596L13.9853 43.7839C14.0635 43.1433 14.6572 42.7058 15.2978 42.7996C15.9384 42.8933 16.3758 43.487 16.2821 44.1276L14.9697 52.9397C14.9697 53.0178 14.9853 53.0803 15.0478 53.1428L17.7352 55.8302C17.8289 55.9239 17.9695 55.9239 18.0633 55.8302L20.7506 53.1428C20.7975 53.096 20.8288 53.0178 20.8131 52.9553L19.5007 44.1276C19.407 43.487 19.8444 42.8933 20.485 42.7996C21.1256 42.7058 21.7193 43.1433 21.8131 43.7839L23.1255 52.596C23.2505 53.3928 22.9693 54.2209 22.4068 54.799L19.7194 57.4864C19.2195 57.9863 18.5476 58.2363 17.8914 58.2363Z" fill="#31C1DE"/>
<path d="M9.09672 58.8853C8.79986 58.8853 8.503 58.7759 8.26864 58.5415L0.97212 51.245C0.347151 50.62 -0.012207 49.7763 -0.012207 48.8857C-0.012207 47.9952 0.331527 47.1515 0.97212 46.5265C3.84698 43.6516 7.40931 41.5424 11.2997 40.433C11.9247 40.2612 12.5653 40.6205 12.7528 41.2455C12.9247 41.8705 12.5653 42.5111 11.9403 42.6985C8.44051 43.6985 5.22191 45.6047 2.62829 48.1827C2.4408 48.3701 2.33143 48.6201 2.33143 48.8857C2.33143 49.1514 2.4408 49.4013 2.62829 49.5888L9.92481 56.8854C10.3779 57.3385 10.3779 58.0884 9.92481 58.5415C9.70607 58.7603 9.39358 58.8853 9.09672 58.8853Z" fill="#31C1DE"/>
<path d="M31.2632 46.1895C31.0288 46.1895 30.7789 46.1113 30.5757 45.9707C28.5758 44.5177 26.3572 43.424 23.9979 42.7365C23.373 42.549 23.0136 41.9084 23.2011 41.2834C23.3886 40.6585 24.0292 40.2991 24.6542 40.4866C27.279 41.2522 29.7477 42.4709 31.9663 44.0802C32.4819 44.4552 32.5913 45.1895 32.2163 45.7051C31.9819 46.0176 31.6226 46.1895 31.2632 46.1895Z" fill="#31C1DE"/>
<path d="M17.8991 66.7695C17.0085 66.7695 16.1648 66.4258 15.5399 65.7852L12.0869 62.3479C11.6338 61.8948 11.6338 61.1448 12.0869 60.6917C12.54 60.2386 13.29 60.2386 13.7431 60.6917L17.196 64.1447C17.3835 64.3322 17.6335 64.4415 17.8991 64.4415C18.1647 64.4415 18.4147 64.3322 18.6022 64.1447L22.9457 59.8011C23.3988 59.348 24.1488 59.348 24.6019 59.8011C25.055 60.2542 25.055 61.0042 24.6019 61.4573L20.2584 65.8008C19.6334 66.4258 18.7897 66.7695 17.8991 66.7695Z" fill="#31C1DE"/>
<path d="M17.8945 45.1299C12.5354 45.1299 8.16064 40.7707 8.16064 35.396C8.16064 30.0369 12.5198 25.6621 17.8945 25.6621C23.2693 25.6621 27.6284 30.0369 27.6284 35.396C27.6284 40.7551 23.2693 45.1299 17.8945 45.1299ZM17.8945 28.0057C13.8166 28.0057 10.5043 31.3181 10.5043 35.396C10.5043 39.4739 13.8166 42.7862 17.8945 42.7862C21.9725 42.7862 25.2848 39.4739 25.2848 35.396C25.2848 31.3181 21.9725 28.0057 17.8945 28.0057Z" fill="#31C1DE"/>
<path d="M39.9994 67.9248C39.3432 67.9248 38.6714 67.6748 38.1714 67.1748L35.4528 64.4562C34.8747 63.8781 34.6091 63.05 34.7185 62.2532L36.0309 53.363C36.1403 52.7068 36.734 52.2693 37.3746 52.3631C38.0152 52.4568 38.4527 53.0505 38.3589 53.6911L37.0465 62.5813C37.0308 62.6594 37.0621 62.7376 37.109 62.7844L39.8276 65.503C39.9213 65.5968 40.0776 65.5968 40.1713 65.503L42.8899 62.7844C42.9368 62.7376 42.9681 62.6594 42.9524 62.5813L41.64 53.6911C41.5462 53.0505 41.9837 52.4568 42.6243 52.3631C43.2649 52.2693 43.8586 52.7068 43.9524 53.3474L45.2648 62.2376C45.3898 63.05 45.1086 63.8625 44.5305 64.4406L41.8275 67.1592C41.3275 67.6592 40.6557 67.9248 39.9994 67.9248Z" fill="#31C1DE"/>
<path d="M28.8693 66.2974C28.5724 66.2974 28.2756 66.188 28.0412 65.9536L22.9477 60.8601C21.6353 59.5477 21.6353 57.4228 22.9477 56.1104C25.8226 53.2199 29.4161 51.1106 33.3066 49.9857C33.9315 49.8138 34.5721 50.1732 34.7596 50.7825C34.9315 51.4075 34.5721 52.0481 33.9628 52.2356C30.4473 53.2511 27.1975 55.1573 24.6039 57.7665C24.2133 58.1571 24.2133 58.8134 24.6039 59.204L29.6974 64.2975C30.1505 64.7506 30.1505 65.5005 29.6974 65.9536C29.463 66.188 29.1662 66.2974 28.8693 66.2974Z" fill="#31C1DE"/>
<path d="M40.0045 76.5381C39.1451 76.5381 38.2858 76.21 37.6296 75.5538L31.8486 69.7728C31.3955 69.3197 31.3955 68.5697 31.8486 68.1166C32.3017 67.6635 33.0517 67.6635 33.5048 68.1166L39.2858 73.8976C39.6764 74.2882 40.3326 74.2882 40.7232 73.8976L55.41 59.2108C55.8006 58.8202 55.8006 58.164 55.41 57.7734C52.8007 55.1641 49.5665 53.258 46.051 52.2424C45.4261 52.0705 45.0667 51.4143 45.2542 50.7893C45.4261 50.1644 46.0823 49.805 46.7073 49.9925C50.6133 51.1175 54.1913 53.2267 57.0818 56.1172C58.3942 57.4296 58.3942 59.5545 57.0818 60.867L42.395 75.5538C41.7231 76.21 40.8638 76.5381 40.0045 76.5381Z" fill="#31C1DE"/>
<path d="M39.9941 54.6948C34.5882 54.6948 30.1821 50.2888 30.1821 44.8828C30.1821 39.4768 34.5882 35.0708 39.9941 35.0708C45.4001 35.0708 49.8062 39.4768 49.8062 44.8828C49.8062 50.2888 45.4001 54.6948 39.9941 54.6948ZM39.9941 37.4144C35.885 37.4144 32.5258 40.758 32.5258 44.8828C32.5258 48.992 35.8694 52.3512 39.9941 52.3512C44.1189 52.3512 47.4625 48.992 47.4625 44.8828C47.4625 40.7736 44.1189 37.4144 39.9941 37.4144Z" fill="#31C1DE"/>
<path d="M45.1801 29.2667C44.7426 29.2667 44.3051 29.1573 43.8989 28.9542L39.9928 26.9074L36.0868 28.9542C35.1649 29.4385 34.0556 29.3604 33.2119 28.7511C32.3682 28.1417 31.9464 27.1105 32.1182 26.0793L32.8682 21.7358L29.7121 18.6578C28.9621 17.9235 28.6965 16.8454 29.0246 15.8611C29.3527 14.8611 30.1964 14.158 31.2276 14.0018L35.5868 13.3612L37.5398 9.40826C38.0086 8.47081 38.946 7.87709 39.9928 7.87709C41.0397 7.87709 41.9771 8.45518 42.4458 9.40826L44.3989 13.3456L48.758 13.9862C49.7892 14.1424 50.6486 14.8455 50.9611 15.8454C51.2892 16.8454 51.0236 17.9235 50.2736 18.6422L47.1175 21.7202L47.8675 26.0637C48.0393 27.0949 47.6331 28.1261 46.7738 28.7354C46.305 29.0948 45.7426 29.2667 45.1801 29.2667ZM39.9928 24.4075C40.1803 24.4075 40.3678 24.4544 40.5397 24.5481L44.9926 26.8918C45.1801 26.9855 45.3363 26.923 45.3988 26.8605C45.4769 26.8137 45.5863 26.6887 45.5551 26.4856L44.7114 21.5327C44.6489 21.1577 44.7739 20.7671 45.0551 20.5015L48.6487 16.986C48.8049 16.8454 48.7737 16.6735 48.7424 16.5798C48.7112 16.486 48.633 16.3454 48.4299 16.3142L43.4614 15.5955C43.0864 15.533 42.7427 15.2986 42.5865 14.9549L40.3522 10.4238C40.2584 10.2363 40.0866 10.2051 39.9928 10.2051C39.8991 10.2051 39.7429 10.2363 39.6491 10.4238L37.4305 14.9392C37.2586 15.283 36.9305 15.5173 36.5555 15.5798L31.587 16.2985C31.3839 16.3298 31.3058 16.4704 31.2745 16.5642C31.2433 16.6579 31.2276 16.8141 31.3683 16.9704L34.9618 20.4858C35.2431 20.7515 35.3681 21.1421 35.3056 21.517L34.4619 26.4699C34.4306 26.673 34.54 26.798 34.6181 26.8449C34.6962 26.8918 34.8368 26.9699 35.0243 26.8762L39.4772 24.5325C39.6179 24.4544 39.8053 24.4075 39.9928 24.4075Z" fill="#31C1DE"/>
<path d="M58.409 19.3794C57.9403 19.3794 57.4716 19.2388 57.0653 18.9419C56.3623 18.4263 56.0029 17.567 56.1591 16.7077L56.6591 13.7859L54.5342 11.7235C53.9093 11.1142 53.6905 10.208 53.9561 9.37988C54.2217 8.5518 54.9405 7.95808 55.7998 7.83308L58.7371 7.41123L60.0496 4.75511C60.4402 3.9739 61.2214 3.48954 62.0964 3.48954C62.9713 3.48954 63.7525 3.9739 64.1431 4.75511L65.4556 7.41123L68.3929 7.83308C69.2523 7.95808 69.971 8.5518 70.2366 9.37988C70.5022 10.208 70.2835 11.1142 69.6585 11.7235L67.5336 13.7859L68.0336 16.7077C68.1742 17.567 67.8304 18.4263 67.1274 18.9419C66.4243 19.4575 65.5024 19.52 64.7212 19.1138L62.0964 17.7388L59.4715 19.1138C59.1434 19.2856 58.7684 19.3794 58.409 19.3794ZM62.0964 15.239C62.2838 15.239 62.4713 15.2858 62.6432 15.3796L65.7056 16.9733L65.1275 13.5672C65.065 13.1922 65.19 12.8016 65.4712 12.536L67.9398 10.1298L64.5181 9.62987C64.1431 9.56737 63.7994 9.33301 63.6432 8.98928L62.0964 5.88005L60.5652 8.97365C60.3933 9.31738 60.0652 9.55175 59.6902 9.61425L56.2685 10.1142L58.7371 12.5204C59.0184 12.786 59.1434 13.1766 59.0809 13.5516L58.4872 16.9733L61.5495 15.364C61.7214 15.2858 61.9089 15.239 62.0964 15.239Z" fill="#31C1DE"/>
<path d="M14.2064 19.3794C13.7377 19.3794 13.2689 19.2388 12.8627 18.9419C12.1596 18.4263 11.8003 17.567 11.9565 16.7077L12.4565 13.7859L10.3316 11.7235C9.70662 11.1142 9.48788 10.208 9.75349 9.37988C10.0191 8.5518 10.7378 7.95808 11.5971 7.83308L14.5345 7.41123L15.8469 4.75511C16.2375 3.9739 17.0188 3.48954 17.8937 3.48954C18.7687 3.48954 19.5499 3.95827 19.9405 4.73948L21.2529 7.3956L24.1903 7.81746C25.0496 7.94245 25.7683 8.53617 26.0339 9.36426C26.2996 10.1923 26.0808 11.0985 25.4558 11.7079L23.3309 13.7859L23.8309 16.7077C23.9715 17.567 23.6278 18.4263 22.9247 18.9419C22.2216 19.4575 21.2998 19.52 20.5186 19.1138L17.8937 17.7388L15.2688 19.1138C14.9407 19.2856 14.5658 19.3794 14.2064 19.3794ZM17.8937 15.239C18.0812 15.239 18.2687 15.2858 18.4406 15.3796L21.5029 16.9733L20.9248 13.5672C20.8623 13.1922 20.9873 12.8016 21.2686 12.536L23.7372 10.1298L20.3155 9.62987C19.9405 9.56737 19.5968 9.33301 19.4405 8.98928L17.8937 5.88005L16.3625 8.97365C16.1907 9.31738 15.8626 9.55175 15.4876 9.61425L12.0659 10.1142L14.5345 12.5204C14.8157 12.786 14.9407 13.1766 14.8782 13.5516L14.2845 16.9733L17.3469 15.364C17.5187 15.2858 17.7062 15.239 17.8937 15.239Z" fill="#31C1DE"/>
</g>
</g>
<defs>
<clipPath id="clip0_150_3033">
<rect width="80" height="80" fill="white"/>
</clipPath>
</defs>
</svg>
