<svg width="80" height="80" viewBox="0 0 80 80" fill="none" xmlns="http://www.w3.org/2000/svg">
<path d="M53.2967 58.4531C52.828 58.4531 52.3749 58.1718 52.203 57.7031C51.9686 57.0937 52.2811 56.4218 52.8905 56.1875C62.8124 52.4218 69.4686 42.7656 69.4686 32.1562C69.4686 31.5937 69.453 31.0156 69.4061 30.4218C69.3592 29.7812 69.8436 29.2187 70.4999 29.1718C71.1405 29.125 71.703 29.6093 71.7499 30.2656C71.7967 30.9062 71.8124 31.5468 71.8124 32.1562C71.8124 37.9531 70.0624 43.5312 66.7342 48.25C63.4842 52.875 58.9842 56.375 53.7186 58.375C53.5624 58.4218 53.4217 58.4531 53.2967 58.4531Z" fill="#31C1DE"/>
<path d="M20.2036 20.3906C20.0161 20.3906 19.813 20.3438 19.6411 20.25C19.0786 19.9375 18.8599 19.2188 19.1724 18.6563C24.1099 9.6875 33.5317 4.10938 43.7505 4.10938C48.2505 4.10938 52.7192 5.20313 56.688 7.26562C57.2661 7.5625 57.4849 8.26562 57.188 8.84375C56.8911 9.42188 56.188 9.64062 55.6098 9.34375C51.9223 7.42188 47.938 6.45312 43.7505 6.45312C34.3755 6.45312 25.7505 11.5625 21.2192 19.7812C21.0161 20.1719 20.6255 20.3906 20.2036 20.3906Z" fill="#31C1DE"/>
<path d="M24.5469 66.6406H19.9688C18.4688 66.6406 17.25 65.4219 17.25 63.9219V60.9844C17.25 60.8281 17.1406 60.6875 16.9844 60.625C16.125 60.3438 15.2969 60 14.5 59.5938C14.3438 59.5156 14.1719 59.5469 14.0625 59.6562L11.9844 61.7344C11.4688 62.25 10.7969 62.5312 10.0625 62.5312C9.32812 62.5312 8.65625 62.25 8.14062 61.7344L4.90625 58.5C4.39062 57.9844 4.10938 57.3125 4.10938 56.5781C4.10938 55.8438 4.39062 55.1719 4.90625 54.6562L6.98438 52.5781C7.09375 52.4688 7.125 52.2812 7.04688 52.1406C6.64062 51.3438 6.29688 50.5 6.01562 49.6562C5.96875 49.5 5.82812 49.3906 5.65625 49.3906H2.71875C1.21875 49.3906 0 48.1719 0 46.6719V42.0937C0 40.5937 1.21875 39.375 2.71875 39.375H5.65625C5.8125 39.375 5.95312 39.2656 6.01562 39.1094C6.29688 38.25 6.64062 37.4219 7.04688 36.625C7.125 36.4687 7.09375 36.2969 6.98438 36.1875L4.90625 34.1094C3.84375 33.0469 3.84375 31.3281 4.90625 30.2656L8.14062 27.0312C8.65625 26.5156 9.32812 26.2344 10.0625 26.2344C10.7969 26.2344 11.4688 26.5156 11.9844 27.0312L14.0625 29.1094C14.1719 29.2187 14.3594 29.25 14.5 29.1719C15.2969 28.7656 16.1406 28.4219 16.9844 28.1406C17.1406 28.0938 17.25 27.9531 17.25 27.7812V24.8437C17.25 23.3437 18.4688 22.125 19.9688 22.125H24.5469C25.25 22.125 25.9219 22.3906 26.4375 22.8906C26.7969 23.2344 26.8906 23.7812 26.6875 24.2344C25.5 26.7656 24.9219 29.4687 24.9375 32.2656C24.9688 37.0781 26.8125 41.6406 30.125 45.1406C32.4844 47.625 34.375 50.5937 35.7188 53.9531L36.5156 55.9375C36.6406 56.2656 36.625 56.625 36.4531 56.9375C36.2812 57.25 35.9844 57.4531 35.6406 57.5312C35.4062 57.5781 35.2344 57.7812 35.2344 58.0312V59.8125C35.2344 60.0312 35.375 60.1875 35.5 60.2656C35.9219 60.4844 36.1562 60.9219 36.125 61.3906C36.0938 61.8594 35.7812 62.2656 35.3438 62.4062C34.3594 62.75 33.2656 62.5 32.5312 61.7656L30.4531 59.6875C30.3438 59.5781 30.1562 59.5469 30.0156 59.625C29.2188 60.0312 28.375 60.375 27.5312 60.6562C27.375 60.7031 27.2656 60.8438 27.2656 61.0156V63.9531C27.25 65.4219 26.0469 66.6406 24.5469 66.6406ZM14.3125 57.2188C14.7344 57.2188 15.1562 57.3125 15.5625 57.5156C16.25 57.8594 16.9688 58.1719 17.7031 58.4062C18.8281 58.7656 19.5938 59.8125 19.5938 60.9844V63.9219C19.5938 64.125 19.7656 64.2969 19.9688 64.2969H24.5469C24.75 64.2969 24.9219 64.125 24.9219 63.9219V60.9844C24.9219 59.7969 25.6875 58.7656 26.8125 58.4062C27.5469 58.1719 28.2656 57.875 28.9531 57.5156C30.0156 56.9688 31.2812 57.1719 32.1094 58L32.875 58.7656V58C32.875 57.125 33.2812 56.3281 33.9219 55.7969L33.5312 54.7969C32.2969 51.7031 30.5781 49 28.4219 46.7188C24.6875 42.7969 22.625 37.6562 22.5938 32.25C22.5781 29.5469 23.0625 26.9375 24.0312 24.4531H19.9688C19.7656 24.4531 19.5938 24.625 19.5938 24.8281V27.7656C19.5938 28.9531 18.8281 29.9844 17.7031 30.3437C16.9688 30.5781 16.25 30.875 15.5625 31.2344C14.5 31.7812 13.2344 31.5781 12.4062 30.75L10.3125 28.6875C10.2188 28.5938 10.1094 28.5781 10.0469 28.5781C9.98438 28.5781 9.875 28.5938 9.78125 28.6875L6.54688 31.9219C6.45312 32.0156 6.4375 32.125 6.4375 32.1875C6.4375 32.25 6.45312 32.3594 6.54688 32.4531L8.625 34.5312C9.45312 35.3594 9.65625 36.6406 9.10938 37.6875C8.76562 38.375 8.45312 39.0937 8.21875 39.8281C7.85938 40.9531 6.8125 41.7188 5.64062 41.7188H2.71875C2.51562 41.7188 2.34375 41.8906 2.34375 42.0937V46.6719C2.34375 46.875 2.51562 47.0469 2.71875 47.0469H5.65625C6.84375 47.0469 7.875 47.8125 8.23438 48.9375C8.46875 49.6719 8.76562 50.3906 9.125 51.0781C9.67188 52.1406 9.46875 53.4062 8.64062 54.2344L6.5625 56.3125C6.46875 56.4062 6.45312 56.5156 6.45312 56.5781C6.45312 56.6406 6.46875 56.75 6.5625 56.8437L9.79688 60.0781C9.89062 60.1719 10 60.1875 10.0625 60.1875C10.125 60.1875 10.2344 60.1719 10.3281 60.0781L12.4062 58C12.9219 57.4844 13.6094 57.2188 14.3125 57.2188Z" fill="#31C1DE"/>
<path d="M25.625 54.9531H18.875C18.2344 54.9531 17.625 54.7031 17.1719 54.25L12.3906 49.4688C11.9375 49.0156 11.6875 48.4063 11.6875 47.7656V46.875C11.6875 46.2344 12.2188 45.7031 12.8594 45.7031C13.5 45.7031 14.0312 46.2344 14.0312 46.875V47.7656C14.0312 47.7813 14.0312 47.7969 14.0469 47.8125L18.8281 52.5938C18.8437 52.6094 18.8594 52.6094 18.875 52.6094H25.625C25.6406 52.6094 25.6562 52.6094 25.6719 52.5938L30.4531 47.8125C30.8437 47.2969 31.5781 47.1875 32.0937 47.5938C32.6094 47.9844 32.7188 48.7188 32.3125 49.2344C32.2344 49.3281 32.1719 49.4063 32.0937 49.4844L27.3125 54.2656C26.875 54.7031 26.2812 54.9531 25.625 54.9531ZM23.8438 50.1562H20.6719C20.1562 50.1562 19.6719 49.9531 19.2969 49.5937L17.0469 47.3438C16.6875 46.9844 16.4844 46.4844 16.4844 45.9688V42.8125C16.4844 42.2969 16.6875 41.8125 17.0469 41.4375L19.2969 39.1875C19.6719 38.8281 20.1562 38.625 20.6719 38.625H23.8438C24.3594 38.625 24.8437 38.8281 25.2187 39.1875L27.1406 41.1094C27.2187 41.1875 27.2812 41.2656 27.3281 41.3594C27.4844 41.6406 27.6719 41.9375 27.8438 42.2344C27.9688 42.4219 28.0312 42.6406 28.0312 42.8594V45.9844C28.0312 46.5 27.8281 47 27.4688 47.3594L25.2187 49.6094C24.8437 49.9531 24.3594 50.1562 23.8438 50.1562ZM20.8281 47.8125H23.6719L25.6719 45.8125V43.1875C25.5625 43 25.4531 42.8281 25.3437 42.6406L23.6562 40.9531H20.8125L18.8281 42.9688V45.8125L20.8281 47.8125ZM12.8594 42.5781C12.2188 42.5781 11.6875 42.0469 11.6875 41.4062V41.0156C11.6875 40.375 11.9375 39.7656 12.3906 39.3125L17.1719 34.5312C17.625 34.0781 18.2344 33.8281 18.875 33.8281H23.9531C24.5938 33.8281 25.125 34.3594 25.125 35C25.125 35.6406 24.5938 36.1719 23.9531 36.1719H18.875C18.8594 36.1719 18.8437 36.1719 18.8281 36.1875L14.0469 40.9688C14.0312 40.9844 14.0312 41 14.0312 41.0156V41.4062C14.0312 42.0469 13.5156 42.5781 12.8594 42.5781Z" fill="#31C1DE"/>
<path d="M52.593 15.3594C52.4212 15.3594 52.2493 15.3281 52.0774 15.2344C49.4368 13.9375 46.593 13.2813 43.6243 13.3125C41.2024 13.3281 38.8587 13.7969 36.6243 14.7188C36.0305 14.9688 35.343 14.6875 35.093 14.0781C34.843 13.4844 35.1243 12.7969 35.7337 12.5469C38.2337 11.5156 40.8899 10.9844 43.6087 10.9531C46.9524 10.9375 50.1399 11.6563 53.1087 13.125C53.6868 13.4063 53.9212 14.1094 53.6399 14.6875C53.4368 15.125 53.0149 15.3594 52.593 15.3594Z" fill="#31C1DE"/>
<path d="M52.1089 57.5468C52.0308 57.5468 51.9683 57.5468 51.8902 57.5311C51.8589 57.5311 51.8277 57.5155 51.7964 57.5155H35.7339C35.7027 57.5155 35.6714 57.5155 35.6402 57.5311C35.0933 57.6405 34.5464 57.3436 34.3277 56.8124L33.5308 54.828C32.2964 51.7343 30.5777 49.0311 28.4214 46.7499C24.6871 42.828 22.6246 37.6874 22.5933 32.2811C22.5464 25.703 25.5308 19.5624 30.7496 15.4686C31.2652 15.0624 31.9996 15.1561 32.3902 15.6718C32.7964 16.1874 32.7027 16.9218 32.1871 17.3124C27.5308 20.953 24.8902 26.4061 24.9214 32.2655C24.9527 37.078 26.7964 41.6405 30.1089 45.1405C32.4683 47.6249 34.3589 50.5936 35.7027 53.953L36.1871 55.1718H51.3277L51.8589 53.8593C53.1558 50.6249 55.0621 47.6561 57.5152 45.0311C60.7964 41.5311 62.5933 36.953 62.5933 32.1561C62.5933 31.5155 63.1246 30.9843 63.7652 30.9843C64.4058 30.9843 64.9371 31.5155 64.9371 32.1561C64.9371 37.5468 62.9058 42.6874 59.2183 46.6249C56.9527 49.0468 55.2027 51.7655 54.0152 54.7343L53.1871 56.828C53.0152 57.2655 52.5777 57.5468 52.1089 57.5468Z" fill="#31C1DE"/>
<path d="M46.75 57.5156H40.7812C40.1406 57.5156 39.6094 56.9844 39.6094 56.3438V49.0625C39.6094 48.4219 40.1406 47.8906 40.7812 47.8906C41.4219 47.8906 41.9531 48.4219 41.9531 49.0625V55.1719H45.5781V35.6562H41.9531V43.5938C41.9531 44.2344 41.4219 44.7656 40.7812 44.7656C40.1406 44.7656 39.6094 44.2344 39.6094 43.5938V34.4844C39.6094 33.8438 40.1406 33.3125 40.7812 33.3125H46.75C47.3906 33.3125 47.9219 33.8438 47.9219 34.4844V56.3438C47.9219 56.9844 47.3906 57.5156 46.75 57.5156Z" fill="#31C1DE"/>
<path d="M44.9219 76.5938H42.5938C40.9531 76.5938 39.625 75.2656 39.625 73.625V71.1406C39.625 70.5 40.1562 69.9688 40.7969 69.9688H46.7187C47.3594 69.9688 47.8906 70.5 47.8906 71.1406V73.625C47.8906 75.2656 46.5625 76.5938 44.9219 76.5938ZM41.9688 72.3125V73.625C41.9688 73.9688 42.25 74.25 42.5938 74.25H44.9219C45.2656 74.25 45.5469 73.9688 45.5469 73.625V72.3125H41.9688Z" fill="#31C1DE"/>
<path d="M46.9061 72.3125H40.6092C40.0311 72.3125 39.4998 72.0469 39.1405 71.5938L35.8123 67.3125C35.5311 66.9531 35.4842 66.4844 35.6873 66.0781C35.8905 65.6719 36.2967 65.4219 36.7342 65.4219H50.7811C51.2342 65.4219 51.6405 65.6719 51.828 66.0781C52.0311 66.4844 51.9686 66.9531 51.703 67.3125L48.3748 71.5938C48.0155 72.0469 47.4842 72.3125 46.9061 72.3125ZM40.8436 69.9687H46.6561L48.3748 67.7656H39.1248L40.8436 69.9687Z" fill="#31C1DE"/>
<path d="M51.7969 62.6406H35.7188C34.1563 62.6406 32.875 61.3594 32.875 59.7969V58.0156C32.875 56.4531 34.1563 55.1719 35.7188 55.1719H51.7812C53.3438 55.1719 54.625 56.4531 54.625 58.0156V59.7969C54.6406 61.3594 53.3594 62.6406 51.7969 62.6406ZM35.7188 57.5156C35.4375 57.5156 35.2188 57.7344 35.2188 58.0156V59.7969C35.2188 60.0781 35.4375 60.2969 35.7188 60.2969H51.7812C52.0625 60.2969 52.2813 60.0781 52.2813 59.7969V58.0156C52.2813 57.7344 52.0625 57.5156 51.7812 57.5156H35.7188Z" fill="#31C1DE"/>
<path d="M51.7969 67.7656H35.7188C34.1563 67.7656 32.875 66.4844 32.875 64.9219V63.1406C32.875 61.5781 34.1563 60.2969 35.7188 60.2969H51.7812C53.3438 60.2969 54.625 61.5781 54.625 63.1406V64.9219C54.6406 66.5 53.3594 67.7656 51.7969 67.7656ZM35.7188 62.6406C35.4375 62.6406 35.2188 62.8594 35.2188 63.1406V64.9219C35.2188 65.2031 35.4375 65.4219 35.7188 65.4219H51.7812C52.0625 65.4219 52.2813 65.2031 52.2813 64.9219V63.1406C52.2813 62.8594 52.0625 62.6406 51.7812 62.6406H35.7188Z" fill="#31C1DE"/>
<path d="M36.9375 38.9375C35.75 38.9375 34.625 38.4688 33.7813 37.625C32.0469 35.8906 32.0469 33.0625 33.7813 31.3281C35.5156 29.5938 38.3438 29.5938 40.0781 31.3281C41.8125 33.0625 41.8125 35.8906 40.0781 37.625C39.25 38.4688 38.125 38.9375 36.9375 38.9375ZM36.9375 32.375C36.3906 32.375 35.8594 32.5781 35.4375 33C34.6094 33.8281 34.6094 35.1719 35.4375 35.9844C35.8438 36.3906 36.375 36.6094 36.9375 36.6094C37.5 36.6094 38.0313 36.3906 38.4375 35.9844C39.2656 35.1563 39.2656 33.8125 38.4375 33C38.0156 32.5781 37.4844 32.375 36.9375 32.375Z" fill="#31C1DE"/>
<path d="M50.5781 38.9375C49.3906 38.9375 48.2656 38.4688 47.4219 37.625C46.5781 36.7813 46.1094 35.6563 46.1094 34.4688C46.1094 33.2813 46.5781 32.1562 47.4219 31.3125C48.2656 30.4687 49.3906 30 50.5781 30C51.7656 30 52.8906 30.4687 53.7344 31.3125C54.5781 32.1562 55.0469 33.2813 55.0469 34.4688C55.0469 35.6563 54.5781 36.7813 53.7344 37.625C52.8906 38.4688 51.7656 38.9375 50.5781 38.9375ZM50.5781 32.375C50.0156 32.375 49.4844 32.5937 49.0781 33C48.6719 33.4062 48.4531 33.9375 48.4531 34.5C48.4531 35.0625 48.6719 35.5937 49.0781 36C49.4844 36.4062 50.0156 36.625 50.5781 36.625C51.1406 36.625 51.6719 36.4062 52.0781 36C52.4844 35.5937 52.7031 35.0625 52.7031 34.5C52.7031 33.9375 52.4844 33.4062 52.0781 33C51.6719 32.5937 51.1406 32.375 50.5781 32.375Z" fill="#31C1DE"/>
<path d="M65.4375 32.5312C57.4062 32.5312 50.875 26 50.875 17.9688C50.875 9.9375 57.4062 3.40625 65.4375 3.40625C73.4687 3.40625 80 9.9375 80 17.9688C80 26 73.4687 32.5312 65.4375 32.5312ZM65.4375 5.75C58.7031 5.75 53.2188 11.2344 53.2188 17.9688C53.2188 24.7031 58.7031 30.1875 65.4375 30.1875C72.1719 30.1875 77.6562 24.7031 77.6562 17.9688C77.6562 11.2344 72.1719 5.75 65.4375 5.75Z" fill="#31C1DE"/>
<path d="M67.5781 23.8906H62.0937C61.4531 23.8906 60.9219 23.3594 60.9219 22.7187C60.9219 22.0781 61.4531 21.5469 62.0937 21.5469H67.5781C68.2031 21.5469 68.7187 21.0313 68.7187 20.4063C68.7187 19.7813 68.2031 19.2656 67.5781 19.2656H63.2969C61.375 19.2656 59.7969 17.7031 59.7969 15.7656V15.6875C59.7969 14.75 60.1563 13.875 60.8125 13.2188C61.4688 12.5625 62.3437 12.2031 63.2812 12.2031H68.7656C69.4062 12.2031 69.9375 12.7344 69.9375 13.375C69.9375 14.0156 69.4062 14.5469 68.7656 14.5469H63.2812C62.9687 14.5469 62.6875 14.6719 62.4687 14.8906C62.25 15.1094 62.125 15.3906 62.125 15.7031V15.7813C62.125 16.4219 62.6406 16.9375 63.2812 16.9375H67.5625C69.4844 16.9375 71.0469 18.5 71.0469 20.4219C71.0469 22.3438 69.5 23.8906 67.5781 23.8906Z" fill="#31C1DE"/>
<path d="M65.4375 14.2656C64.7969 14.2656 64.2656 13.7344 64.2656 13.0938V10.4375C64.2656 9.79688 64.7969 9.26562 65.4375 9.26562C66.0781 9.26562 66.6094 9.79688 66.6094 10.4375V13.0938C66.6094 13.7344 66.0781 14.2656 65.4375 14.2656Z" fill="#31C1DE"/>
<path d="M65.4375 26.6562C64.7969 26.6562 64.2656 26.125 64.2656 25.4844V22.9844C64.2656 22.3438 64.7969 21.8125 65.4375 21.8125C66.0781 21.8125 66.6094 22.3438 66.6094 22.9844V25.4844C66.6094 26.1406 66.0781 26.6562 65.4375 26.6562Z" fill="#31C1DE"/>
</svg>
