<svg width="80" height="80" viewBox="0 0 80 80" fill="none" xmlns="http://www.w3.org/2000/svg">
<g clip-path="url(#clip0_200_1534)">
<mask id="mask0_200_1534" style="mask-type:luminance" maskUnits="userSpaceOnUse" x="-14" y="-14" width="108" height="108">
<path d="M93.3395 93.3235H-13.3271V-13.3432H93.3395V93.3235Z" fill="white"/>
</mask>
<g mask="url(#mask0_200_1534)">
<path d="M40.0024 70.2302C31.9247 70.2302 24.3313 67.0898 18.6285 61.3713C12.9256 55.6528 9.76953 48.0594 9.76953 39.9973C9.76953 31.9352 12.91 24.3262 18.6285 18.6234C24.3469 12.9049 31.9403 9.76443 40.0024 9.76443C48.0645 9.76443 55.6735 12.9049 61.3764 18.6234C67.0949 24.3418 70.2353 31.9352 70.2353 39.9973C70.2353 44.9346 69.0166 49.8406 66.7043 54.1841C66.4074 54.7622 65.6887 54.9653 65.1262 54.6685C64.5481 54.3716 64.345 53.6529 64.6418 53.0904C66.7667 49.0906 67.8917 44.5752 67.8917 40.013C67.8917 24.6387 55.3767 12.1237 40.0024 12.1237C24.6282 12.1237 12.1132 24.6387 12.1132 40.013C12.1132 55.3872 24.6126 67.8866 40.0024 67.8866C44.5647 67.8866 49.0957 66.7616 53.0955 64.6367C53.658 64.3243 54.3767 64.543 54.6736 65.1211C54.9861 65.6836 54.7673 66.4023 54.1892 66.6991C49.8613 69.0115 44.9397 70.2302 40.0024 70.2302Z" fill="#31C1DE"/>
<path d="M40 79.9536C29.3286 79.9536 19.2823 75.7976 11.7358 68.2511C4.18925 60.7046 0.0332031 50.6738 0.0332031 40.0024C0.0332031 29.3311 4.18925 19.2847 11.7358 11.7382C19.2823 4.1917 29.313 0.0356445 40 0.0356445C50.687 0.0356445 60.7177 4.1917 68.2642 11.7382C75.8107 19.2847 79.9668 29.3155 79.9668 40.0024C79.9668 46.174 78.5919 52.08 75.9045 57.5797C75.6233 58.1578 74.9202 58.4078 74.3421 58.1109C73.764 57.8297 73.514 57.1266 73.8108 56.5485C76.342 51.3769 77.6388 45.8147 77.6388 40.0024C77.6388 19.2535 60.7646 2.37928 40.0156 2.37928C19.2666 2.37928 2.37684 19.2535 2.37684 40.0024C2.37684 60.7514 19.251 77.6256 40 77.6256C45.8122 77.61 51.3744 76.3288 56.5461 73.7977C57.1242 73.5008 57.8273 73.7508 58.1085 74.3289C58.4053 74.907 58.1554 75.6101 57.5773 75.8913C52.0775 78.5943 46.1716 79.9536 40 79.9536Z" fill="#31C1DE"/>
<path d="M20.2148 74.5432C20.0117 74.5432 19.793 74.4807 19.6211 74.3713C13.762 70.8871 8.85601 65.9343 5.43431 60.0595C1.90323 53.9973 0.0283203 47.0602 0.0283203 39.998C0.0283203 29.3267 4.18437 19.2803 11.7309 11.7338C19.2774 4.18728 29.3081 0.0312271 39.9951 0.0312271C40.6357 0.0312271 41.1669 0.562454 41.1669 1.20305V10.937C41.1669 11.5775 40.6357 12.1088 39.9951 12.1088C24.6209 12.1088 12.1059 24.6238 12.1059 39.998C12.1059 49.7944 17.34 58.9815 25.7771 63.9969C26.3395 64.325 26.5114 65.0437 26.1833 65.6061L21.2148 73.9807C21.0585 74.2464 20.7929 74.4495 20.4961 74.512C20.4023 74.5276 20.3086 74.5432 20.2148 74.5432ZM38.8233 2.3905C18.6212 3.01546 2.37196 19.6396 2.37196 39.998C2.37196 52.8099 9.02788 64.8718 19.8086 71.7465L23.574 65.3874C19.5899 62.7938 16.2307 59.294 13.8401 55.1692C11.1684 50.5913 9.76222 45.3415 9.76222 39.998C9.76222 31.9203 12.9027 24.3269 18.6212 18.6241C24.0584 13.1868 31.1987 10.0776 38.8233 9.79638V2.3905Z" fill="#31C1DE"/>
<path d="M59.3164 19.457C59.0351 19.457 58.7539 19.3633 58.5352 19.1602C53.426 14.6135 46.8482 12.098 40.0048 12.098C39.3642 12.098 38.833 11.5668 38.833 10.9262V1.1923C38.833 0.551706 39.3642 0.020483 40.0048 0.020483C50.0668 0.020483 59.6757 3.7703 67.066 10.5825C67.3004 10.8012 67.441 11.0981 67.441 11.4262C67.441 11.7543 67.316 12.0511 67.0973 12.2855L60.1445 19.1133C59.9101 19.3477 59.6132 19.457 59.3164 19.457ZM41.1766 9.78563C47.8169 10.0356 54.1604 12.473 59.2695 16.6915L64.5505 11.5043C58.0196 5.86395 49.8012 2.66098 41.1766 2.39537V9.78563Z" fill="#31C1DE"/>
<path d="M78.6965 38.459H68.9313C68.322 38.459 67.822 37.9903 67.7595 37.3965C67.1033 30.3656 63.8378 23.8816 58.5256 19.1631C58.2912 18.9443 58.135 18.6475 58.135 18.3193C58.1193 17.9912 58.26 17.6787 58.4787 17.46L65.4315 10.6322C65.8846 10.1947 66.5877 10.1791 67.0408 10.601C74.6185 17.5538 79.1652 27.0064 79.8683 37.209C79.8839 37.5372 79.7745 37.8496 79.5558 38.084C79.3371 38.3184 79.0246 38.459 78.6965 38.459ZM69.9938 36.1153H77.4309C76.5247 27.3502 72.603 19.2568 66.2908 13.0852L61.0255 18.2568C65.9627 23.0535 69.1188 29.3032 69.9938 36.1153Z" fill="#31C1DE"/>
<path d="M66.2093 79.9641C58.6315 79.9641 52.46 73.7925 52.46 66.2148C52.46 58.637 58.6315 52.4655 66.2093 52.4655C73.787 52.4655 79.9586 58.637 79.9586 66.2148C79.9586 69.324 78.8805 72.3864 76.9431 74.8081C76.5369 75.3081 75.8026 75.4018 75.3026 74.9956C74.8026 74.5894 74.7089 73.855 75.1151 73.3551C76.7556 71.3083 77.615 68.8553 77.615 66.2304C77.615 59.9338 72.4902 54.8247 66.2093 54.8247C59.9283 54.8247 54.8036 59.9495 54.8036 66.2304C54.8036 72.527 59.9283 77.6361 66.2093 77.6361C68.0373 77.6361 69.7872 77.2142 71.3965 76.3862C71.9746 76.0737 72.6777 76.308 72.9746 76.8861C73.2714 77.4642 73.0371 78.1673 72.459 78.4642C70.5216 79.4485 68.4123 79.9641 66.2093 79.9641Z" fill="#31C1DE"/>
<path d="M65.1349 71.4629C64.7755 71.4629 64.4474 71.3066 64.213 71.0254L60.7757 66.7287C60.3695 66.2288 60.4476 65.4788 60.9632 65.0882C61.4632 64.682 62.2131 64.7601 62.6037 65.2757L65.0567 68.338L69.744 61.479C70.1034 60.9478 70.8377 60.8072 71.3689 61.1665C71.9002 61.5259 72.0408 62.2602 71.6814 62.7914L66.1036 70.9473C65.9004 71.2598 65.5567 71.4473 65.1817 71.4629C65.1661 71.4629 65.1505 71.4629 65.1349 71.4629Z" fill="#31C1DE"/>
<path d="M42.4618 59.959H37.5402C36.3527 59.959 35.384 58.9903 35.384 57.8028V54.3343C34.6184 54.0843 33.8528 53.7718 33.1341 53.3968L30.6811 55.8498C29.8374 56.6935 28.4781 56.6935 27.6344 55.8498L24.1502 52.3656C23.744 51.9594 23.5252 51.4125 23.5252 50.8344C23.5252 50.2563 23.744 49.7095 24.1502 49.3033L26.6032 46.8502C26.2282 46.1315 25.9157 45.3816 25.6657 44.6004H22.1972C21.0097 44.6004 20.041 43.6317 20.041 42.4442V37.5226C20.041 36.3351 21.0097 35.3664 22.1972 35.3664H25.6657C25.9157 34.6008 26.2282 33.8353 26.6032 33.1165L24.1502 30.6635C23.744 30.2573 23.5252 29.7105 23.5252 29.1324C23.5252 28.5543 23.744 28.0074 24.1502 27.6012L27.6344 24.117C28.4781 23.2733 29.8374 23.2733 30.6811 24.117L33.1341 26.57C33.8528 26.195 34.6028 25.8825 35.384 25.6325V22.164C35.384 20.9765 36.3527 20.0078 37.5402 20.0078H42.4618C43.6492 20.0078 44.6179 20.9765 44.6179 22.164V25.6325C45.3835 25.8825 46.1491 26.195 46.8678 26.57L49.3208 24.117C49.7271 23.7108 50.2739 23.492 50.852 23.492C51.4301 23.492 51.977 23.7108 52.3832 24.117L55.8518 27.6168C56.6955 28.4605 56.6955 29.8355 55.8518 30.6635L53.3988 33.1165C53.7737 33.8353 54.0862 34.5852 54.3362 35.3664H57.8048C58.9922 35.3664 59.9609 36.3351 59.9609 37.5226V42.4598C59.9609 43.6473 58.9922 44.616 57.8048 44.616H54.3362C54.0862 45.3816 53.7737 46.1472 53.3988 46.8659L55.8518 49.3189C56.6955 50.1626 56.6955 51.5219 55.8518 52.3656L52.3676 55.8498C51.9613 56.256 51.4145 56.4748 50.8364 56.4748C50.2583 56.4748 49.7114 56.256 49.3052 55.8498L46.8678 53.3968C46.1491 53.7718 45.3992 54.0843 44.6179 54.3343V57.8028C44.6179 58.9903 43.6492 59.959 42.4618 59.959ZM37.7277 57.6153H42.2743V54.1936C42.2743 53.2406 42.8836 52.4125 43.7899 52.1312C44.5242 51.8969 45.2273 51.6156 45.9148 51.2563C46.7585 50.8188 47.7584 50.975 48.4303 51.6469L50.852 54.0686L54.0706 50.8501L51.6488 48.4283C50.977 47.7565 50.8208 46.7409 51.2582 45.8972C51.6176 45.2253 51.9145 44.5066 52.1332 43.7723C52.4144 42.8661 53.2425 42.2567 54.1956 42.2567H57.6173V37.7101H54.1956C53.2425 37.7101 52.4144 37.1007 52.1332 36.1945C51.8988 35.4602 51.6176 34.7571 51.2582 34.0696C50.8208 33.2259 50.977 32.2103 51.6488 31.5385L54.0706 29.1167L50.852 25.8981L48.4303 28.3199C47.7584 28.9917 46.7428 29.148 45.8991 28.7105C45.2273 28.3512 44.5086 28.0543 43.7742 27.8356C42.868 27.5543 42.2587 26.7262 42.2587 25.7732V22.3514H37.712V25.7732C37.712 26.7262 37.1027 27.5543 36.1965 27.8356C35.4621 28.0699 34.759 28.3512 34.0716 28.7105C33.2279 29.148 32.2123 28.9917 31.5405 28.3199L29.1187 25.8981L25.9001 29.1167L28.3219 31.5385C28.9937 32.2103 29.1499 33.2259 28.7125 34.0696C28.3531 34.7415 28.0562 35.4602 27.8375 36.1945C27.5563 37.1007 26.7282 37.7101 25.7751 37.7101H22.3847V42.2723H25.8064C26.7594 42.2723 27.5875 42.8817 27.8688 43.7879C28.1031 44.5222 28.3844 45.2253 28.7437 45.8972C29.1812 46.7409 29.025 47.7565 28.3531 48.4283L25.9314 50.8501L29.1499 54.0686L31.5717 51.6469C32.2435 50.975 33.2591 50.8188 34.1028 51.2563C34.7747 51.6156 35.4934 51.9125 36.2121 52.1312C37.1183 52.4125 37.7277 53.2406 37.7277 54.1936V57.6153Z" fill="#31C1DE"/>
<path d="M39.9937 49.9617C38.1344 49.9617 36.3376 49.4461 34.7595 48.4774C34.2127 48.1336 34.0408 47.4149 34.3846 46.8681C34.7283 46.3212 35.447 46.1494 35.9938 46.4931C37.1969 47.2274 38.5718 47.618 39.9937 47.618C44.1966 47.618 47.6183 44.1963 47.6183 39.9934C47.6183 35.7905 44.1966 32.3688 39.9937 32.3688C35.7907 32.3688 32.369 35.7905 32.369 39.9934C32.369 41.0402 32.5721 42.0402 32.9784 42.9933C33.2284 43.587 32.9627 44.2744 32.3534 44.5244C31.7441 44.7744 31.0722 44.5088 30.8222 43.8995C30.291 42.6652 30.0254 41.3527 30.0254 39.9934C30.0254 34.4937 34.4939 30.0251 39.9937 30.0251C45.4934 30.0251 49.9619 34.4937 49.9619 39.9934C49.9619 45.4931 45.4934 49.9617 39.9937 49.9617Z" fill="#31C1DE"/>
</g>
</g>
<defs>
<clipPath id="clip0_200_1534">
<rect width="80" height="80" fill="white"/>
</clipPath>
</defs>
</svg>
