<svg width="80" height="80" viewBox="0 0 80 80" fill="none" xmlns="http://www.w3.org/2000/svg">
<path d="M15.7031 55.8594C15.0625 55.8594 14.5312 55.3281 14.5312 54.6875V38.125C14.5312 37.4844 15.0625 36.9531 15.7031 36.9531C16.3438 36.9531 16.875 37.4844 16.875 38.125V54.6875C16.875 55.3281 16.3594 55.8594 15.7031 55.8594Z" fill="#31C1DE"/>
<path d="M68.6406 50.7969C68 50.7969 67.4688 50.2656 67.4688 49.625V2.42188C67.4688 2.375 67.4375 2.34375 67.3906 2.34375H16.9531C16.9062 2.34375 16.875 2.375 16.875 2.42188V11.25C16.875 11.8906 16.3438 12.4219 15.7031 12.4219C15.0625 12.4219 14.5312 11.8906 14.5312 11.25V2.42188C14.5312 1.09375 15.625 0 16.9531 0H67.375C68.7031 0 69.7969 1.09375 69.7969 2.42188V49.625C69.8125 50.2812 69.2812 50.7969 68.6406 50.7969Z" fill="#31C1DE"/>
<path d="M49.9219 75.625H16.9531C15.625 75.625 14.5312 74.5312 14.5312 73.2031V60.1562C14.5312 59.5156 15.0625 58.9844 15.7031 58.9844C16.3438 58.9844 16.875 59.5156 16.875 60.1562V73.2031C16.875 73.25 16.9062 73.2812 16.9531 73.2812H49.9219C50.5625 73.2812 51.0938 73.8125 51.0938 74.4531C51.0938 75.0938 50.5781 75.625 49.9219 75.625Z" fill="#31C1DE"/>
<path d="M47.2344 56.4844H37.0156C36.375 56.4844 35.8438 55.9531 35.8438 55.3125C35.8438 54.6719 36.375 54.1406 37.0156 54.1406H47.2344C47.875 54.1406 48.4062 54.6719 48.4062 55.3125C48.4062 55.9531 47.8906 56.4844 47.2344 56.4844Z" fill="#31C1DE"/>
<path d="M60.6094 26.7969H54.9844C54.3438 26.7969 53.8125 26.2656 53.8125 25.625C53.8125 24.9844 54.3438 24.4531 54.9844 24.4531H60.6094C61.25 24.4531 61.7812 24.9844 61.7812 25.625C61.7812 26.2656 61.25 26.7969 60.6094 26.7969Z" fill="#31C1DE"/>
<path d="M60.6094 32.7344H54.9844C54.3438 32.7344 53.8125 32.2031 53.8125 31.5625C53.8125 30.9219 54.3438 30.3906 54.9844 30.3906H60.6094C61.25 30.3906 61.7812 30.9219 61.7812 31.5625C61.7812 32.2031 61.25 32.7344 60.6094 32.7344Z" fill="#31C1DE"/>
<path d="M60.6094 38.6719H54.9844C54.3438 38.6719 53.8125 38.1406 53.8125 37.5C53.8125 36.8594 54.3438 36.3281 54.9844 36.3281H60.6094C61.25 36.3281 61.7812 36.8594 61.7812 37.5C61.7812 38.1406 61.25 38.6719 60.6094 38.6719Z" fill="#31C1DE"/>
<path d="M60.6094 44.6094H54.9844C54.3438 44.6094 53.8125 44.0781 53.8125 43.4375C53.8125 42.7969 54.3438 42.2656 54.9844 42.2656H60.6094C61.25 42.2656 61.7812 42.7969 61.7812 43.4375C61.7812 44.0781 61.25 44.6094 60.6094 44.6094Z" fill="#31C1DE"/>
<path d="M41.969 20.3906C41.8753 20.3906 41.7815 20.375 41.6721 20.3594C41.0471 20.2031 40.6721 19.5625 40.8284 18.9375L43.5315 8.35938C43.719 7.625 44.3753 7.125 45.1253 7.125H46.4065C47.1565 7.125 47.8128 7.64063 48.0003 8.35938L50.7034 18.9375C50.8596 19.5625 50.4846 20.2031 49.8596 20.3594C49.2346 20.5156 48.594 20.1406 48.4378 19.5156L45.8753 9.45312H45.6878L43.1253 19.5156C42.969 20.0312 42.4846 20.3906 41.969 20.3906Z" fill="#31C1DE"/>
<path d="M48.375 17.25H43.125C42.4844 17.25 41.9531 16.7188 41.9531 16.0781C41.9531 15.4375 42.4844 14.9062 43.125 14.9062H48.3594C49 14.9062 49.5312 15.4375 49.5312 16.0781C49.5312 16.7188 49.0156 17.25 48.375 17.25Z" fill="#31C1DE"/>
<path d="M40.4531 9.45312H33.8906C33.25 9.45312 32.7188 8.92188 32.7188 8.28125C32.7188 7.64062 33.25 7.10938 33.8906 7.10938H40.4531C41.0938 7.10938 41.625 7.64062 41.625 8.28125C41.625 8.92188 41.0938 9.45312 40.4531 9.45312Z" fill="#31C1DE"/>
<path d="M37.1719 20.3906C36.5312 20.3906 36 19.8594 36 19.2188V8.28125C36 7.64062 36.5312 7.10938 37.1719 7.10938C37.8125 7.10938 38.3438 7.64062 38.3438 8.28125V19.2188C38.3438 19.8594 37.8125 20.3906 37.1719 20.3906Z" fill="#31C1DE"/>
<path d="M59.4214 20.3907C59.0308 20.3907 58.6402 20.1876 58.4214 19.8282L51.8589 8.89069C51.5308 8.32819 51.7027 7.60943 52.2652 7.28131C52.8277 6.95318 53.5464 7.12506 53.8746 7.68756L60.4371 18.6251C60.7652 19.1876 60.5933 19.9063 60.0308 20.2344C59.8433 20.3438 59.6402 20.3907 59.4214 20.3907Z" fill="#31C1DE"/>
<path d="M52.8589 20.3907C52.6558 20.3907 52.4527 20.3438 52.2496 20.2188C51.6871 19.8907 51.5152 19.1719 51.8433 18.6094L58.4058 7.67193C58.7339 7.10943 59.4527 6.93756 60.0152 7.26569C60.5777 7.59381 60.7496 8.31256 60.4215 8.87506L53.859 19.8126C53.6558 20.1876 53.2652 20.3907 52.8589 20.3907Z" fill="#31C1DE"/>
<path d="M29.2812 61.8437H26.0625C24.125 61.8437 22.5469 60.2656 22.5469 58.3281C22.5469 57.6875 23.0781 57.1562 23.7188 57.1562C24.3594 57.1562 24.8906 57.6875 24.8906 58.3281C24.8906 58.9687 25.4062 59.5 26.0625 59.5H29.2812C29.9219 59.5 30.4531 58.9844 30.4531 58.3281V57.6562C30.4531 57.0156 29.9375 56.4844 29.2812 56.4844H26.0625C24.125 56.4844 22.5469 54.9062 22.5469 52.9687V52.2813C22.5469 50.3438 24.125 48.7656 26.0625 48.7656H29.2812C31.2187 48.7656 32.7969 50.3438 32.7969 52.2813C32.7969 52.9219 32.2656 53.4531 31.625 53.4531C30.9844 53.4531 30.4531 52.9219 30.4531 52.2813C30.4531 51.6406 29.9375 51.1094 29.2812 51.1094H26.0625C25.4219 51.1094 24.8906 51.625 24.8906 52.2813V52.9687C24.8906 53.6094 25.4062 54.1406 26.0625 54.1406H29.2812C31.2187 54.1406 32.7969 55.7188 32.7969 57.6562V58.3437C32.7969 60.2656 31.2187 61.8437 29.2812 61.8437Z" fill="#31C1DE"/>
<path d="M27.6875 51.125C27.0469 51.125 26.5156 50.5938 26.5156 49.9531V47.8125C26.5156 47.1719 27.0469 46.6406 27.6875 46.6406C28.3281 46.6406 28.8594 47.1719 28.8594 47.8125V49.9531C28.8594 50.6094 28.3281 51.125 27.6875 51.125Z" fill="#31C1DE"/>
<path d="M27.6875 63.9844C27.0469 63.9844 26.5156 63.4531 26.5156 62.8125V60.6719C26.5156 60.0312 27.0469 59.5 27.6875 59.5C28.3281 59.5 28.8594 60.0312 28.8594 60.6719V62.8125C28.8594 63.4531 28.3281 63.9844 27.6875 63.9844Z" fill="#31C1DE"/>
<path d="M51.2344 26.7969H29.5156C28.875 26.7969 28.3438 26.2656 28.3438 25.625C28.3438 24.9844 28.875 24.4531 29.5156 24.4531H51.2344C51.875 24.4531 52.4062 24.9844 52.4062 25.625C52.4062 26.2656 51.875 26.7969 51.2344 26.7969Z" fill="#31C1DE"/>
<path d="M51.2344 32.7344H29.5156C28.875 32.7344 28.3438 32.2031 28.3438 31.5625C28.3438 30.9219 28.875 30.3906 29.5156 30.3906H51.2344C51.875 30.3906 52.4062 30.9219 52.4062 31.5625C52.4062 32.2031 51.875 32.7344 51.2344 32.7344Z" fill="#31C1DE"/>
<path d="M51.2344 38.6719H29.5156C28.875 38.6719 28.3438 38.1406 28.3438 37.5C28.3438 36.8594 28.875 36.3281 29.5156 36.3281H51.2344C51.875 36.3281 52.4062 36.8594 52.4062 37.5C52.4062 38.1406 51.875 38.6719 51.2344 38.6719Z" fill="#31C1DE"/>
<path d="M51.2344 44.6094H23.7344C23.0938 44.6094 22.5625 44.0781 22.5625 43.4375C22.5625 42.7969 23.0938 42.2656 23.7344 42.2656H51.2344C51.875 42.2656 52.4062 42.7969 52.4062 43.4375C52.4062 44.0781 51.875 44.6094 51.2344 44.6094Z" fill="#31C1DE"/>
<path d="M53.375 50.5469H37.0156C36.375 50.5469 35.8438 50.0156 35.8438 49.375C35.8438 48.7344 36.375 48.2031 37.0156 48.2031H53.375C54.0156 48.2031 54.5469 48.7344 54.5469 49.375C54.5469 50.0156 54.0156 50.5469 53.375 50.5469Z" fill="#31C1DE"/>
<path d="M45.6406 68.3594H23.7344C23.0938 68.3594 22.5625 67.8281 22.5625 67.1875C22.5625 66.5469 23.0938 66.0156 23.7344 66.0156H45.6406C46.2813 66.0156 46.8125 66.5469 46.8125 67.1875C46.8125 67.8281 46.2969 68.3594 45.6406 68.3594Z" fill="#31C1DE"/>
<path d="M45.2344 62.4219H37.0156C36.375 62.4219 35.8438 61.8906 35.8438 61.25C35.8438 60.6094 36.375 60.0781 37.0156 60.0781H45.2344C45.875 60.0781 46.4063 60.6094 46.4063 61.25C46.4063 61.8906 45.8906 62.4219 45.2344 62.4219Z" fill="#31C1DE"/>
<path d="M60.7813 80C51.5 80 43.9531 72.4531 43.9531 63.1719C43.9531 53.8906 51.5 46.3438 60.7813 46.3438C68.7344 46.3438 75.6563 51.9844 77.2656 59.7656C77.3906 60.4062 76.9844 61.0156 76.3594 61.1562C75.7188 61.2812 75.1094 60.875 74.9688 60.25C73.5938 53.5625 67.625 48.7031 60.7813 48.7031C52.7969 48.7031 46.2969 55.2031 46.2969 63.1875C46.2969 71.1719 52.7969 77.6562 60.7813 77.6562C67.9219 77.6562 74.0781 72.3437 75.1094 65.2969C75.2031 64.6562 75.7969 64.2188 76.4375 64.3125C77.0781 64.4062 77.5156 65 77.4219 65.6406C76.8438 69.5938 74.8594 73.2344 71.8281 75.875C68.7656 78.5312 64.8438 80 60.7813 80Z" fill="#31C1DE"/>
<path d="M56.8285 71.172C56.6253 71.172 56.4222 71.1251 56.2503 71.0157C55.6878 70.6876 55.5003 69.9688 55.8285 69.422L63.7191 55.7501C64.0472 55.1876 64.766 55.0001 65.3128 55.3282C65.8753 55.6563 66.0628 56.3751 65.7347 56.922L57.8441 70.5938C57.6253 70.9688 57.2347 71.172 56.8285 71.172Z" fill="#31C1DE"/>
<path d="M56.0938 61.8906C54.2344 61.8906 52.7344 60.3906 52.7344 58.5312C52.7344 56.6719 54.2344 55.1719 56.0938 55.1719C57.9531 55.1719 59.4531 56.6719 59.4531 58.5312C59.4531 60.3906 57.9375 61.8906 56.0938 61.8906ZM56.0938 57.5156C55.5312 57.5156 55.0781 57.9688 55.0781 58.5312C55.0781 59.0938 55.5312 59.5469 56.0938 59.5469C56.6562 59.5469 57.1094 59.0938 57.1094 58.5312C57.1094 57.9688 56.6562 57.5156 56.0938 57.5156Z" fill="#31C1DE"/>
<path d="M65.4688 71.1719C63.6094 71.1719 62.1094 69.6719 62.1094 67.8125C62.1094 65.9531 63.6094 64.4531 65.4688 64.4531C67.3281 64.4531 68.8281 65.9531 68.8281 67.8125C68.8281 69.6719 67.3125 71.1719 65.4688 71.1719ZM65.4688 66.7969C64.9062 66.7969 64.4531 67.25 64.4531 67.8125C64.4531 68.375 64.9062 68.8281 65.4688 68.8281C66.0312 68.8281 66.4844 68.375 66.4844 67.8125C66.4844 67.25 66.0312 66.7969 65.4688 66.7969Z" fill="#31C1DE"/>
<path d="M27.9531 39.2969H5.29688C3.79688 39.2969 2.5625 38.0625 2.5625 36.5625V16.4062C2.5625 15.7656 3.09375 15.2344 3.73438 15.2344C4.375 15.2344 4.90625 15.7656 4.90625 16.4062V36.5625C4.90625 36.7812 5.07813 36.9531 5.29688 36.9531H27.9531C28.1719 36.9531 28.3438 36.7812 28.3438 36.5625V16.4062C28.3438 15.7656 28.875 15.2344 29.5156 15.2344C30.1562 15.2344 30.6875 15.7656 30.6875 16.4062V36.5625C30.6875 38.0625 29.4688 39.2969 27.9531 39.2969Z" fill="#31C1DE"/>
<path d="M25.1406 35.3906H8.10938C7.20312 35.3906 6.46875 34.6562 6.46875 33.75V22.3438C6.46875 21.4375 7.20312 20.7031 8.10938 20.7031H25.1406C26.0469 20.7031 26.7812 21.4375 26.7812 22.3438V33.75C26.7812 34.6562 26.0469 35.3906 25.1406 35.3906ZM8.8125 33.0469H24.4375V23.0469H8.8125V33.0469Z" fill="#31C1DE"/>
<path d="M25.1406 35.3906H8.10938C7.20312 35.3906 6.46875 34.6562 6.46875 33.75V28.0469C6.46875 27.4062 7 26.875 7.64062 26.875H25.6094C26.25 26.875 26.7812 27.4062 26.7812 28.0469V33.75C26.7812 34.6562 26.0469 35.3906 25.1406 35.3906ZM8.8125 33.0469H24.4375V29.2188H8.8125V33.0469Z" fill="#31C1DE"/>
<path d="M19.5938 35.3906H13.6562C13.0156 35.3906 12.4844 34.8594 12.4844 34.2188V21.875C12.4844 21.2344 13.0156 20.7031 13.6562 20.7031H19.5938C20.2344 20.7031 20.7656 21.2344 20.7656 21.875V34.2188C20.7656 34.8594 20.2344 35.3906 19.5938 35.3906ZM14.8281 33.0469H18.4219V23.0469H14.8281V33.0469Z" fill="#31C1DE"/>
<path d="M29.5156 19.1406H13.5156C12.875 19.1406 12.3438 18.6094 12.3438 17.9688C12.3438 17.3281 12.875 16.7969 13.5156 16.7969H28.3438V12.8125C28.3438 12.5938 28.1719 12.4219 27.9531 12.4219H5.29688C5.07813 12.4219 4.90625 12.5938 4.90625 12.8125V16.7969H8.04688C8.6875 16.7969 9.21875 17.3281 9.21875 17.9688C9.21875 18.6094 8.6875 19.1406 8.04688 19.1406H3.73438C3.09375 19.1406 2.5625 18.6094 2.5625 17.9688V12.8125C2.5625 11.3125 3.79688 10.0781 5.29688 10.0781H27.9531C29.4531 10.0781 30.6875 11.3125 30.6875 12.8125V17.9688C30.6875 18.6094 30.1562 19.1406 29.5156 19.1406Z" fill="#31C1DE"/>
<path d="M25.6094 14.4531C24.9688 14.4531 24.4375 13.9219 24.4375 13.2812V9.6875C24.4375 9.04688 24.9688 8.51562 25.6094 8.51562C26.25 8.51562 26.7812 9.04688 26.7812 9.6875V13.2812C26.7812 13.9219 26.25 14.4531 25.6094 14.4531Z" fill="#31C1DE"/>
<path d="M7.64062 14.4531C7 14.4531 6.46875 13.9219 6.46875 13.2812V9.6875C6.46875 9.04688 7 8.51562 7.64062 8.51562C8.28125 8.51562 8.8125 9.04688 8.8125 9.6875V13.2812C8.8125 13.9219 8.28125 14.4531 7.64062 14.4531Z" fill="#31C1DE"/>
</svg>
