<svg width="60" height="60" viewBox="0 0 60 60" fill="none" xmlns="http://www.w3.org/2000/svg">
<g clip-path="url(#clip0_212_1996)">
<path d="M58.3857 51.6309C59.4972 50.0598 60.0648 48.1679 59.9938 46.2215C59.9128 43.989 58.9973 41.8883 57.4162 40.3077L53.495 36.3865C54.3025 33.4179 54.54 30.36 54.199 27.2875C54.1455 26.8055 53.711 26.4585 53.2286 26.5111C52.7461 26.5647 52.3986 26.9991 52.4522 27.4816C52.731 29.9924 52.5923 32.4927 52.0439 34.9349L50.7859 33.677C50.1409 33.032 49.2826 32.6767 48.3699 32.6767C47.4548 32.6767 46.5965 33.032 45.9529 33.6774C44.6217 35.01 44.6217 37.1779 45.9533 38.5096L49.2556 41.8105C48.3332 43.3088 47.2314 44.7045 45.9721 45.9647C40.4771 51.4597 32.5834 53.7197 25.0606 52.0406L26.3203 50.7808C26.9653 50.1354 27.3205 49.278 27.3205 48.3657C27.3205 47.4511 26.9649 46.5927 26.3199 45.9491C24.9882 44.618 22.8207 44.618 21.4873 45.9491L18.1808 49.2551C16.673 48.329 15.2731 47.2254 14.0138 45.9647C12.6877 44.6386 11.5332 43.1577 10.5801 41.5647C10.571 41.5459 10.5641 41.5262 10.5531 41.5084C10.181 40.8776 9.84131 40.233 9.54193 39.589C9.10843 38.6657 8.73398 37.7007 8.43048 36.7215C8.41675 36.6776 8.3989 36.6359 8.37921 36.5957C7.52228 33.7864 7.22153 30.8745 7.48703 27.938C7.53098 27.4546 7.17438 27.0275 6.69098 26.9836C6.20896 26.9391 5.78049 27.2962 5.73655 27.7796C5.46143 30.8155 5.7489 33.8276 6.58844 36.7412L2.80366 40.526C1.23078 42.0984 0.315713 44.1872 0.22645 46.4069C0.14863 48.3419 0.702523 50.226 1.79658 51.7952L1.70869 51.8831C1.04768 52.5441 0.683755 53.4226 0.683755 54.3569C0.683755 55.2912 1.04768 56.1696 1.70869 56.8306L3.33832 58.4603C4.01993 59.1423 4.91578 59.4834 5.81162 59.4834C6.70746 59.4834 7.60285 59.1423 8.28491 58.4603L8.36365 58.3815C9.8555 59.438 11.622 59.997 13.4375 59.997C13.9772 59.997 14.5215 59.9475 15.0635 59.8473C15.5409 59.7589 15.8563 59.3003 15.768 58.8233C15.6796 58.3458 15.22 58.0313 14.7439 58.1188C12.9495 58.4506 11.1336 58.0844 9.63119 57.1144L11.4824 55.2632C11.9365 54.8091 12.2501 54.2525 12.402 53.645C13.7003 54.5464 15.5011 54.4205 16.6569 53.2642L18.9339 50.9877C18.9352 50.9864 18.9366 50.985 18.9384 50.9832L22.7296 47.1924C23.3774 46.5456 24.4307 46.5456 25.078 47.1929C25.3906 47.5046 25.5627 47.9212 25.5627 48.3657C25.5627 48.8083 25.3901 49.2249 25.077 49.538L22.7333 51.8817C22.7296 51.8849 22.7269 51.8882 22.7237 51.8914L18.4463 56.1682C18.2138 56.4008 17.9643 56.6182 17.7043 56.8151C17.317 57.1076 17.2406 57.6587 17.5336 58.046C17.7061 58.2744 17.9689 58.3948 18.2349 58.3948C18.4198 58.3948 18.6061 58.3367 18.7645 58.2167C19.0886 57.9718 19.3999 57.7008 19.6892 57.4111L23.609 53.4922C25.7179 54.0634 27.8621 54.3427 29.9907 54.3427C32.2781 54.3427 34.5459 54.0186 36.7285 53.3905L40.5293 57.1927C42.1022 58.7651 44.1909 59.6802 46.4111 59.769C46.5306 59.774 46.6496 59.7763 46.7686 59.7763C48.5772 59.7763 50.3277 59.2247 51.7999 58.1984L51.8887 58.2872C52.5703 58.9688 53.4661 59.3099 54.362 59.3099C55.2578 59.3099 56.1532 58.9688 56.8353 58.2872L58.4649 56.6576C59.1259 55.9966 59.4898 55.1181 59.4898 54.1838C59.4898 53.2495 59.1259 52.3711 58.4649 51.7105L58.3857 51.6309ZM1.98243 46.4778C2.05384 44.7004 2.78672 43.0281 4.04603 41.7688L7.2078 38.6075C7.62436 39.7103 8.12149 40.7828 8.69461 41.8137L6.94962 43.5582C6.32019 44.1867 5.97367 45.0235 5.97367 45.9139C5.97367 46.5836 6.16959 47.2231 6.53488 47.7665C5.9375 47.9139 5.37171 48.2206 4.9057 48.6861L3.06367 50.5281C2.30469 49.3279 1.92429 47.9203 1.98243 46.4778ZM10.2396 54.0204L7.68478 56.5747C7.68478 56.5752 7.68433 56.5752 7.68387 56.5756L7.04209 57.2174C6.36368 57.8958 5.25956 57.8958 4.58069 57.2174L2.95106 55.5878C2.62238 55.2591 2.44111 54.822 2.44111 54.3569C2.44111 53.8922 2.62238 53.4551 2.95106 53.1264L3.57956 52.4979C3.58185 52.4956 3.58414 52.4938 3.58597 52.4915L6.14853 49.9294C6.48773 49.5902 6.93314 49.4204 7.379 49.4204C7.82257 49.4204 8.26569 49.5888 8.60443 49.9248L10.1613 51.4807L10.2396 51.559C10.5682 51.8877 10.7491 52.3249 10.7491 52.7895C10.7495 53.2546 10.5682 53.6917 10.2396 54.0204ZM15.4141 52.0214C15.117 52.3189 14.7215 52.4828 14.3013 52.4828C13.8811 52.4828 13.4856 52.3189 13.1885 52.0214L11.4911 50.3244C11.4911 50.3244 11.4824 50.3162 11.4824 50.3157L10.7234 49.5568L9.85275 48.6866C9.85092 48.6847 9.84863 48.6829 9.8468 48.6811L8.19244 47.0272C7.8949 46.7301 7.73102 46.3346 7.73102 45.9139C7.73102 45.4937 7.8949 45.0986 8.19244 44.8015L9.63486 43.3591C10.435 44.5736 11.3455 45.7193 12.3553 46.7791L11.9035 47.2309C11.5602 47.5742 11.5602 48.1304 11.9035 48.4737C12.0752 48.6454 12.3004 48.731 12.5252 48.731C12.7499 48.731 12.9752 48.6454 13.1468 48.4737L13.6133 48.0072C14.6396 48.9415 15.7419 49.7852 16.9069 50.5291L15.4141 52.0214ZM47.1966 34.9193C47.5083 34.6067 47.9249 34.4346 48.3694 34.4346C48.8134 34.4346 49.23 34.6071 49.5431 34.9198L56.1733 41.5505C58.5363 43.9135 58.881 47.6204 57.1191 50.3643L55.2679 48.5131C54.8046 48.0503 54.243 47.7449 53.6497 47.5962C54.0365 47.0423 54.2457 46.3845 54.2457 45.6946C54.2457 44.8047 53.8992 43.9684 53.2698 43.339L47.1962 37.2667C46.5493 36.6199 46.5493 35.5671 47.1966 34.9193ZM46.7768 47.6346L47.2346 48.0924C47.4063 48.2636 47.6315 48.3496 47.8562 48.3496C48.081 48.3496 48.3062 48.2636 48.4779 48.0919C48.8208 47.7486 48.8208 47.1924 48.4774 46.8491L48.0041 46.3758C48.9407 45.3476 49.7853 44.2463 50.5287 43.084L52.0269 44.5818C52.3245 44.8789 52.4879 45.2739 52.4879 45.6946C52.4879 46.1148 52.3245 46.5099 52.0269 46.8074L50.3254 48.5089C50.324 48.5103 50.3222 48.5117 50.3208 48.5131L48.6912 50.1427C48.6894 50.1441 48.688 50.1459 48.6866 50.1473L47.0314 51.803C46.4175 52.4164 45.4191 52.4164 44.8048 51.803L43.3523 50.3501C44.5613 49.5568 45.7084 48.6509 46.7768 47.6346ZM46.4811 58.013C44.7036 57.9416 43.0314 57.2087 41.7721 55.9499L38.6012 52.7785C39.1899 52.5569 39.7708 52.3125 40.3389 52.0465C40.8323 51.8163 41.3258 51.5645 41.8115 51.2958L43.562 53.0458C44.7041 54.1875 46.4747 54.3253 47.7684 53.4606C47.9194 54.0721 48.2339 54.6334 48.6907 55.0902L50.5319 56.9309C49.3312 57.6898 47.9226 58.0702 46.4811 58.013ZM57.2221 55.4143L55.592 57.0439C54.914 57.7223 53.8099 57.7228 53.1311 57.0439L49.934 53.8469C49.6049 53.5182 49.4241 53.0811 49.4241 52.6165C49.4241 52.1527 49.6044 51.7165 49.9317 51.3883L51.566 49.7541C51.9052 49.4162 52.3496 49.2473 52.7941 49.2473C53.2395 49.2473 53.6854 49.4167 54.0246 49.7559L56.5945 52.3258C56.5949 52.3258 56.5954 52.3262 56.5954 52.3267L57.2221 52.9529C57.5512 53.2816 57.732 53.7187 57.732 54.1838C57.732 54.6489 57.5508 55.0856 57.2221 55.4143Z" fill="#31C1DE"/>
<path d="M9.21468 26.3133C9.85967 26.9583 10.7175 27.3135 11.6298 27.3135C12.5449 27.3135 13.4032 26.9583 14.0468 26.3128C15.378 24.9803 15.378 22.8123 14.0464 21.4807L10.7294 18.1642C11.5882 16.768 12.604 15.4624 13.7584 14.2709C13.7832 14.2507 13.8074 14.2297 13.8308 14.2063C13.8596 14.1775 13.8852 14.1464 13.9095 14.1143C13.9438 14.0795 13.9786 14.0443 14.0134 14.009C15.3254 12.6976 16.787 11.5559 18.3585 10.6111C18.4034 10.5937 18.4473 10.5726 18.4899 10.5474C19.1152 10.178 19.7593 9.83791 20.4065 9.53624C21.333 9.10228 22.298 8.72829 23.2753 8.42525C23.3266 8.40923 23.3751 8.38771 23.4218 8.363C27.1865 7.22225 31.142 7.0808 34.9593 7.94048L33.6853 9.21443C33.0394 9.85988 32.6837 10.7177 32.6837 11.6296C32.6837 12.5433 33.0399 13.4016 33.6853 14.0457C35.0174 15.3778 37.1849 15.3778 38.5166 14.0457L41.8294 10.7333C43.3272 11.6557 44.7183 12.7548 45.9712 14.009C47.3848 15.4235 48.602 17.0097 49.5894 18.7231C49.9753 19.3942 51.0739 21.715 51.55 23.1785C51.5623 23.2435 51.5825 23.3067 51.6095 23.3676C51.61 23.3689 51.6104 23.3698 51.6104 23.3708C51.7871 23.9544 52.1368 23.8922 52.4129 23.8922H52.4138C52.6385 23.8917 52.8629 23.8061 53.0345 23.6349L57.2015 19.4692C58.7744 17.8964 59.6895 15.8081 59.7783 13.5879C59.8561 11.6534 59.3022 9.76879 58.2082 8.19957L58.296 8.11168C58.9566 7.45113 59.3205 6.57268 59.3205 5.63793C59.3205 4.70364 58.9566 3.82519 58.296 3.16464L56.6664 1.535C55.3023 0.171323 53.0835 0.171323 51.7194 1.535L51.6406 1.61373C50.0696 0.502286 48.179 -0.0657983 46.2299 0.00607054C43.9969 0.0875524 41.8962 1.00308 40.3151 2.58419L36.4095 6.48983C32.085 5.31109 27.5586 5.34267 23.2515 6.58046L19.4699 2.79797C17.8971 1.22555 15.8083 0.310483 13.5882 0.221677C11.6555 0.143399 9.76903 0.697751 8.19936 1.7918L8.11147 1.70346C6.74734 0.33978 4.52856 0.340238 3.16443 1.70346L1.53525 3.33309C0.874237 3.99365 0.510316 4.87209 0.510316 5.80639C0.510316 6.74114 0.874237 7.61959 1.53525 8.28014L1.61444 8.35933C0.502534 9.93083 -0.0646346 11.8228 0.00586089 13.7692C0.086885 16.0017 1.00241 18.1019 2.58352 19.683L9.21468 26.3133ZM48.4857 9.64244C48.4976 9.65434 48.5095 9.66716 48.5219 9.67906L51.8118 12.9676C52.1094 13.2652 52.2733 13.6607 52.2733 14.0809C52.2733 14.5016 52.1098 14.8966 51.8118 15.1937L50.3667 16.6389C49.5683 15.424 48.6588 14.2778 47.6494 13.2157L48.1012 12.7644C48.4445 12.4211 48.4445 11.8644 48.1012 11.5216C47.7579 11.1782 47.2012 11.1782 46.8584 11.5216L46.3937 11.9862C45.3679 11.0501 44.267 10.205 43.1033 9.46025L44.5902 7.97344C45.204 7.35958 46.2033 7.35958 46.8172 7.97344L48.4857 9.64244ZM58.0223 13.5174C57.9513 15.2949 57.2185 16.9667 55.9592 18.226L52.774 21.4097C52.3227 20.2131 51.6603 18.8709 51.301 18.1907L53.0542 16.437C53.6841 15.8081 54.0306 14.9717 54.0306 14.0814C54.0306 13.4117 53.8347 12.7726 53.4694 12.2288C54.0668 12.0814 54.633 11.7747 55.099 11.3087L56.9406 9.46712C57.7 10.6678 58.0804 12.075 58.0223 13.5174ZM54.1931 2.26879C54.639 2.26879 55.0844 2.43862 55.4236 2.77783L57.0537 4.40746C57.3823 4.73614 57.5632 5.17284 57.5632 5.63793C57.5632 6.10302 57.3823 6.54018 57.0537 6.86886L56.4142 7.50835C56.4123 7.51018 56.4101 7.51201 56.4087 7.51384L53.8562 10.0659C53.1778 10.7443 52.0737 10.7443 51.3953 10.0659L49.7656 8.43624C49.0868 7.75737 49.0868 6.65325 49.7652 5.97484L52.9626 2.77783C53.3018 2.43817 53.7473 2.26879 54.1931 2.26879ZM41.5584 3.82656C43.9218 1.46313 47.6292 1.11844 50.374 2.88082L48.5223 4.73202C48.0591 5.19527 47.7533 5.75741 47.605 6.35113C46.3068 5.44842 44.5041 5.57384 43.3473 6.73061L37.2746 12.8028C36.6278 13.4497 35.5754 13.4497 34.9277 12.8024C34.6141 12.4897 34.442 12.0732 34.442 11.6296C34.442 11.1874 34.6146 10.7708 34.9286 10.4568L41.5584 3.82656ZM7.97369 15.4084C7.67614 15.1113 7.51272 14.7163 7.51272 14.2956C7.51272 13.8754 7.67614 13.4803 7.97369 13.1828L12.9697 8.18767C13.5836 7.57381 14.582 7.57381 15.1958 8.18767L16.6314 9.62276C15.4169 10.4216 14.2702 11.3316 13.2087 12.3414L12.7651 11.8978C12.4218 11.555 11.8656 11.555 11.5223 11.8978C11.1794 12.2412 11.1794 12.7978 11.5223 13.1411L11.9791 13.5975C11.043 14.6243 10.1993 15.7275 9.45592 16.8907L7.97369 15.4084ZM13.5181 1.97766C15.2956 2.04861 16.9683 2.78149 18.2276 4.0408L21.3852 7.1989C20.2811 7.61547 19.2081 8.1126 18.1781 8.68389L16.4386 6.94439C15.297 5.80273 13.5254 5.66494 12.2318 6.53057C12.0807 5.91854 11.7663 5.35732 11.3089 4.90047L9.46737 3.05935C10.6685 2.29992 12.0766 1.91952 13.5181 1.97766ZM2.77807 4.57592L4.40771 2.94628C4.74691 2.60708 5.19232 2.43771 5.63818 2.43771C6.08404 2.43771 6.52944 2.60708 6.8691 2.94628L7.50585 3.58349C7.50906 3.58624 7.51226 3.5899 7.51546 3.59264L10.0666 6.1433C10.3953 6.47243 10.5761 6.90914 10.5761 7.37423C10.5761 7.83931 10.3953 8.27602 10.0666 8.60469L8.43648 10.2343C7.75808 10.9127 6.65395 10.9132 5.97509 10.2343L2.77807 7.03731C2.44894 6.70864 2.26813 6.27147 2.26813 5.80639C2.26813 5.34176 2.44894 4.90459 2.77807 4.57592ZM2.88153 9.62642L4.73227 11.4772C5.19552 11.9404 5.75765 12.2457 6.35092 12.3945C5.96411 12.9484 5.75491 13.6058 5.75491 14.2956C5.75491 15.1855 6.10189 16.0223 6.73086 16.6513L12.8035 22.7235C13.4504 23.3703 13.4504 24.4232 12.8031 25.0709C12.4909 25.3835 12.0743 25.5557 11.6298 25.5557C11.1872 25.5557 10.7706 25.3835 10.4575 25.0704L3.82635 18.4397C1.46292 16.0768 1.11868 12.3703 2.88153 9.62642Z" fill="#31C1DE"/>
<path d="M18.1588 33.0942L13.8453 36.9174C13.1646 37.5207 13.1015 38.5653 13.7048 39.246L16.0815 41.9272C16.0842 41.9299 16.0865 41.9331 16.0888 41.9363C16.0911 41.9386 16.0929 41.9404 16.0952 41.9423L18.3749 44.514C18.6999 44.8811 19.154 45.0683 19.6099 45.0683C19.999 45.0683 20.3895 44.9319 20.7031 44.6541L25.0166 40.8304C25.6977 40.2275 25.7604 39.1824 25.1571 38.5017L20.4875 33.2342C19.8841 32.5535 18.8395 32.4908 18.1588 33.0942ZM19.2437 34.4812L20.9384 36.3923L16.813 40.103L15.0918 38.1611L19.2437 34.4812ZM19.6182 43.267L17.9794 41.4181L22.1043 37.708L23.7701 39.5866L19.6182 43.267Z" fill="#31C1DE"/>
<path d="M39.6315 15.6483L33.4439 21.1323C33.0873 21.4486 32.8754 21.8849 32.8465 22.3605C32.8181 22.8361 32.9761 23.2943 33.2924 23.6509L37.7839 28.7175C38.0998 29.0741 38.5361 29.286 39.0117 29.3148C39.0483 29.3171 39.0849 29.3181 39.1211 29.3181C39.5573 29.3181 39.9734 29.1606 40.3021 28.869L46.4897 23.3845C46.8463 23.0687 47.0582 22.6324 47.0871 22.1568C47.1159 21.6807 46.9575 21.2225 46.6412 20.8659L42.1501 15.7998C41.4973 15.0638 40.3676 14.996 39.6315 15.6483ZM45.3325 22.0511C45.332 22.062 45.327 22.0666 45.3238 22.0689V22.0694L39.1362 27.5534C39.133 27.5561 39.1293 27.5616 39.1174 27.5602C39.1064 27.5598 39.1018 27.5543 39.0991 27.5515L34.608 22.485C34.6052 22.4823 34.6007 22.4768 34.6011 22.4663C34.602 22.4553 34.6071 22.4507 34.6098 22.4479L40.7974 16.9639C40.8024 16.9594 40.8088 16.9571 40.8148 16.9571C40.8226 16.9571 40.8294 16.9598 40.8345 16.9658L45.3261 22.0323C45.3288 22.035 45.3334 22.0405 45.3325 22.0511Z" fill="#31C1DE"/>
</g>
<defs>
<clipPath id="clip0_212_1996">
<rect width="60" height="60" fill="white"/>
</clipPath>
</defs>
</svg>
