<svg width="60" height="60" viewBox="0 0 60 60" fill="none" xmlns="http://www.w3.org/2000/svg">
<g clip-path="url(#clip0_212_1798)">
<path d="M59.1209 58.242H51.6888V51.3749C51.6888 50.8894 51.2954 50.496 50.8099 50.496C50.3244 50.496 49.931 50.8894 49.931 51.3749V58.242H26.5747V40.6578C26.5747 40.519 26.6875 40.4063 26.8263 40.4063H49.6792C49.8181 40.4063 49.9308 40.5191 49.9308 40.6578V47.2731C49.9308 47.7586 50.3242 48.152 50.8097 48.152C51.2952 48.152 51.6886 47.7586 51.6886 47.2731V40.6578C51.6886 39.5496 50.7871 38.6484 49.6791 38.6484H39.1316V29.8819C39.1316 29.2359 38.849 28.6257 38.3563 28.2083L32.7033 23.416V18.6666C32.7033 17.3418 31.6256 16.2642 30.3009 16.2642H30.066V12.2794C30.066 11.2455 29.225 10.4045 28.1912 10.4045H26.5747V7.60053C26.5747 6.56026 25.7285 5.71393 24.6881 5.71393H24.4998V0.878905C24.4998 0.393398 24.1062 0 23.6209 0C23.1355 0 22.7419 0.393398 22.7419 0.878905V5.71393H22.3778C21.4346 5.71393 20.667 6.48139 20.667 7.42475V10.4045H18.8748C17.938 10.4045 17.1757 11.1667 17.1757 12.1036V16.2642H16.765C15.5372 16.2642 14.5384 17.263 14.5384 18.4909V30.1044H7.97541C6.94147 30.1044 6.1003 30.9455 6.1003 31.9795V58.2421H0.878905C0.393515 58.2421 0 58.6355 0 59.121C0 59.6065 0.393515 59.9999 0.878905 59.9999C3.21703 59.9999 56.5531 59.9999 59.1209 59.9999C59.6064 59.9999 59.9998 59.6065 59.9998 59.121C59.9998 58.6355 59.6064 58.242 59.1209 58.242ZM32.7032 25.7205L37.2197 29.5492C37.3176 29.6322 37.3737 29.7535 37.3737 29.8819V38.6482H32.7032V25.7205ZM14.5383 58.242H7.85823C7.85823 30.5623 7.80104 31.8621 7.97541 31.8621H14.5383V58.242ZM22.425 7.47186C24.7955 7.47186 24.8169 7.42651 24.8169 7.60053V10.4044H22.425V7.47186ZM18.9335 12.1623C28.7588 12.1623 28.3081 12.1121 28.3081 12.2792V16.2641H18.9335V12.1623ZM24.8167 40.6578V58.242H16.2962C16.2962 56.9666 16.2962 19.0133 16.2962 18.4907C16.2962 18.2322 16.5064 18.022 16.7649 18.022C18.551 18.022 27.5657 18.022 29.187 18.022H30.3009C30.6562 18.022 30.9454 18.3112 30.9454 18.6665V23.8231V38.6482H26.8264C25.7185 38.6482 24.8167 39.5495 24.8167 40.6578Z" fill="#31C1DE"/>
<path d="M28.0352 20.9521H19.1284C18.643 20.9521 18.2495 21.3455 18.2495 21.8311C18.2495 22.3166 18.643 22.71 19.1284 22.71H28.0352C28.5206 22.71 28.9141 22.3166 28.9141 21.8311C28.9141 21.3455 28.5206 20.9521 28.0352 20.9521Z" fill="#31C1DE"/>
<path d="M28.0352 25.5278H19.1284C18.643 25.5278 18.2495 25.9212 18.2495 26.4067C18.2495 26.8922 18.643 27.2856 19.1284 27.2856H28.0352C28.5206 27.2856 28.9141 26.8922 28.9141 26.4067C28.9141 25.9212 28.5206 25.5278 28.0352 25.5278Z" fill="#31C1DE"/>
<path d="M28.0352 30.104H19.1284C18.643 30.104 18.2495 30.4974 18.2495 30.9829C18.2495 31.4684 18.643 31.8618 19.1284 31.8618H28.0352C28.5206 31.8618 28.9141 31.4684 28.9141 30.9829C28.9141 30.4974 28.5206 30.104 28.0352 30.104Z" fill="#31C1DE"/>
<path d="M12.2437 34.6802H9.83105C9.34566 34.6802 8.95215 35.0736 8.95215 35.5591C8.95215 36.0446 9.34566 36.438 9.83105 36.438H12.2437C12.7291 36.438 13.1226 36.0446 13.1226 35.5591C13.1226 35.0736 12.7291 34.6802 12.2437 34.6802Z" fill="#31C1DE"/>
<path d="M12.2437 39.2563H9.83105C9.34566 39.2563 8.95215 39.6497 8.95215 40.1353C8.95215 40.6208 9.34566 41.0142 9.83105 41.0142H12.2437C12.7291 41.0142 13.1226 40.6208 13.1226 40.1353C13.1226 39.6497 12.7291 39.2563 12.2437 39.2563Z" fill="#31C1DE"/>
<path d="M12.5851 43.8325H9.83105C9.34566 43.8325 8.95215 44.2259 8.95215 44.7114C8.95215 45.1969 9.34566 45.5903 9.83105 45.5903H12.5851C13.0705 45.5903 13.464 45.1969 13.464 44.7114C13.464 44.2259 13.0705 43.8325 12.5851 43.8325Z" fill="#31C1DE"/>
<path d="M12.5851 48.4087H9.83105C9.34566 48.4087 8.95215 48.8021 8.95215 49.2876C8.95215 49.7731 9.34566 50.1665 9.83105 50.1665H12.5851C13.0705 50.1665 13.464 49.7731 13.464 49.2876C13.464 48.8021 13.0705 48.4087 12.5851 48.4087Z" fill="#31C1DE"/>
<path d="M12.5851 52.9849H9.83105C9.34566 52.9849 8.95215 53.3783 8.95215 53.8638C8.95215 54.3493 9.34566 54.7427 9.83105 54.7427H12.5851C13.0705 54.7427 13.464 54.3493 13.464 53.8638C13.464 53.3784 13.0705 52.9849 12.5851 52.9849Z" fill="#31C1DE"/>
<path d="M28.0352 34.6802H19.1284C18.643 34.6802 18.2495 35.0736 18.2495 35.5591C18.2495 36.0446 18.643 36.438 19.1284 36.438H28.0352C28.5206 36.438 28.9141 36.0446 28.9141 35.5591C28.9141 35.0736 28.5206 34.6802 28.0352 34.6802Z" fill="#31C1DE"/>
<path d="M21.5411 39.2563H19.1284C18.643 39.2563 18.2495 39.6497 18.2495 40.1353C18.2495 40.6208 18.643 41.0142 19.1284 41.0142H21.541C22.0263 41.0142 22.4199 40.6208 22.4199 40.1353C22.4199 39.6497 22.0265 39.2563 21.5411 39.2563Z" fill="#31C1DE"/>
<path d="M21.8826 43.8325H19.1284C18.643 43.8325 18.2495 44.2259 18.2495 44.7114C18.2495 45.1969 18.643 45.5903 19.1284 45.5903H21.8824C22.3678 45.5903 22.7613 45.1969 22.7613 44.7114C22.7613 44.2259 22.3679 43.8325 21.8826 43.8325Z" fill="#31C1DE"/>
<path d="M21.8826 48.4087H19.1284C18.643 48.4087 18.2495 48.8021 18.2495 49.2876C18.2495 49.7731 18.643 50.1665 19.1284 50.1665H21.8824C22.3678 50.1665 22.7613 49.7731 22.7613 49.2876C22.7613 48.8021 22.3679 48.4087 21.8826 48.4087Z" fill="#31C1DE"/>
<path d="M21.8826 52.9849H19.1284C18.643 52.9849 18.2495 53.3783 18.2495 53.8638C18.2495 54.3493 18.643 54.7427 19.1284 54.7427H21.8824C22.3678 54.7427 22.7613 54.3493 22.7613 53.8638C22.7615 53.3784 22.3679 52.9849 21.8826 52.9849Z" fill="#31C1DE"/>
<path d="M46.2555 43.8325H30.2505C29.765 43.8325 29.3716 44.2259 29.3716 44.7114C29.3716 45.1969 29.765 45.5903 30.2505 45.5903H46.2555C46.741 45.5903 47.1344 45.1969 47.1344 44.7114C47.1344 44.2259 46.7411 43.8325 46.2555 43.8325Z" fill="#31C1DE"/>
<path d="M46.2555 48.4087H30.2505C29.765 48.4087 29.3716 48.8021 29.3716 49.2876C29.3716 49.7731 29.765 50.1665 30.2505 50.1665H46.2555C46.741 50.1665 47.1344 49.7731 47.1344 49.2876C47.1344 48.8021 46.7411 48.4087 46.2555 48.4087Z" fill="#31C1DE"/>
<path d="M46.2555 52.9849H30.2505C29.765 52.9849 29.3716 53.3783 29.3716 53.8638C29.3716 54.3493 29.765 54.7427 30.2505 54.7427H46.2555C46.741 54.7427 47.1344 54.3493 47.1344 53.8638C47.1345 53.3784 46.7411 52.9849 46.2555 52.9849Z" fill="#31C1DE"/>
<path d="M44.7983 2.85693C40.7885 2.85693 37.5264 6.11919 37.5264 10.129C37.5263 13.248 39.5111 16.0158 42.4653 17.0163C42.9252 17.1722 43.4239 16.9256 43.5798 16.4658C43.7355 16.0061 43.4891 15.5071 43.0292 15.3513C40.7893 14.5928 39.2843 12.4942 39.2843 10.1289C39.2843 7.08833 41.7578 4.61474 44.7983 4.61474C47.8388 4.61474 50.3124 7.08821 50.3124 10.1289C50.3124 12.4939 48.8074 14.5927 46.5674 15.3513C46.1075 15.5069 45.8611 16.0059 46.0168 16.4658C46.1409 16.8321 46.4828 17.0631 46.8492 17.0631C46.9427 17.0631 47.0378 17.0481 47.1312 17.0164C50.0856 16.016 52.0704 13.2483 52.0704 10.129C52.0702 6.11919 48.8081 2.85693 44.7983 2.85693Z" fill="#31C1DE"/>
</g>
<defs>
<clipPath id="clip0_212_1798">
<rect width="60" height="60" fill="white"/>
</clipPath>
</defs>
</svg>
