<svg width="60" height="60" viewBox="0 0 60 60" fill="none" xmlns="http://www.w3.org/2000/svg">
<path d="M11.7773 41.8945C11.2969 41.8945 10.8984 41.4961 10.8984 41.0156V28.5938C10.8984 28.1133 11.2969 27.7148 11.7773 27.7148C12.2578 27.7148 12.6562 28.1133 12.6562 28.5938V41.0156C12.6562 41.4961 12.2695 41.8945 11.7773 41.8945Z" fill="#31C1DE"/>
<path d="M51.4805 38.0977C51 38.0977 50.6016 37.6992 50.6016 37.2188V1.81641C50.6016 1.78125 50.5781 1.75781 50.543 1.75781H12.7148C12.6797 1.75781 12.6562 1.78125 12.6562 1.81641V8.4375C12.6562 8.91797 12.2578 9.31641 11.7773 9.31641C11.2969 9.31641 10.8984 8.91797 10.8984 8.4375V1.81641C10.8984 0.820312 11.7188 0 12.7148 0H50.5312C51.5273 0 52.3477 0.820312 52.3477 1.81641V37.2188C52.3594 37.7109 51.9609 38.0977 51.4805 38.0977Z" fill="#31C1DE"/>
<path d="M37.4414 56.7188H12.7148C11.7188 56.7188 10.8984 55.8984 10.8984 54.9023V45.1172C10.8984 44.6367 11.2969 44.2383 11.7773 44.2383C12.2578 44.2383 12.6562 44.6367 12.6562 45.1172V54.9023C12.6562 54.9375 12.6797 54.9609 12.7148 54.9609H37.4414C37.9219 54.9609 38.3203 55.3594 38.3203 55.8398C38.3203 56.3203 37.9336 56.7188 37.4414 56.7188Z" fill="#31C1DE"/>
<path d="M35.4258 42.3633H27.7617C27.2812 42.3633 26.8828 41.9648 26.8828 41.4844C26.8828 41.0039 27.2812 40.6055 27.7617 40.6055H35.4258C35.9062 40.6055 36.3047 41.0039 36.3047 41.4844C36.3047 41.9648 35.918 42.3633 35.4258 42.3633Z" fill="#31C1DE"/>
<path d="M45.457 20.0977H41.2383C40.7578 20.0977 40.3594 19.6992 40.3594 19.2188C40.3594 18.7383 40.7578 18.3398 41.2383 18.3398H45.457C45.9375 18.3398 46.3359 18.7383 46.3359 19.2188C46.3359 19.6992 45.9375 20.0977 45.457 20.0977Z" fill="#31C1DE"/>
<path d="M45.457 24.5508H41.2383C40.7578 24.5508 40.3594 24.1523 40.3594 23.6719C40.3594 23.1914 40.7578 22.793 41.2383 22.793H45.457C45.9375 22.793 46.3359 23.1914 46.3359 23.6719C46.3359 24.1523 45.9375 24.5508 45.457 24.5508Z" fill="#31C1DE"/>
<path d="M45.457 29.0039H41.2383C40.7578 29.0039 40.3594 28.6055 40.3594 28.125C40.3594 27.6445 40.7578 27.2461 41.2383 27.2461H45.457C45.9375 27.2461 46.3359 27.6445 46.3359 28.125C46.3359 28.6055 45.9375 29.0039 45.457 29.0039Z" fill="#31C1DE"/>
<path d="M45.457 33.457H41.2383C40.7578 33.457 40.3594 33.0586 40.3594 32.5781C40.3594 32.0977 40.7578 31.6992 41.2383 31.6992H45.457C45.9375 31.6992 46.3359 32.0977 46.3359 32.5781C46.3359 33.0586 45.9375 33.457 45.457 33.457Z" fill="#31C1DE"/>
<path d="M31.4768 15.293C31.4064 15.293 31.3361 15.2812 31.2541 15.2695C30.7854 15.1523 30.5041 14.6719 30.6213 14.2031L32.6486 6.26953C32.7893 5.71875 33.2814 5.34375 33.8439 5.34375H34.8049C35.3674 5.34375 35.8596 5.73047 36.0002 6.26953L38.0275 14.2031C38.1447 14.6719 37.8635 15.1523 37.3947 15.2695C36.926 15.3867 36.4455 15.1055 36.3283 14.6367L34.4064 7.08984H34.2658L32.3439 14.6367C32.2268 15.0234 31.8635 15.293 31.4768 15.293Z" fill="#31C1DE"/>
<path d="M36.2813 12.9375H32.3438C31.8633 12.9375 31.4648 12.5391 31.4648 12.0586C31.4648 11.5781 31.8633 11.1797 32.3438 11.1797H36.2695C36.75 11.1797 37.1484 11.5781 37.1484 12.0586C37.1484 12.5391 36.7617 12.9375 36.2813 12.9375Z" fill="#31C1DE"/>
<path d="M30.3398 7.08984H25.418C24.9375 7.08984 24.5391 6.69141 24.5391 6.21094C24.5391 5.73047 24.9375 5.33203 25.418 5.33203H30.3398C30.8203 5.33203 31.2188 5.73047 31.2188 6.21094C31.2188 6.69141 30.8203 7.08984 30.3398 7.08984Z" fill="#31C1DE"/>
<path d="M27.8789 15.293C27.3984 15.293 27 14.8945 27 14.4141V6.21094C27 5.73047 27.3984 5.33203 27.8789 5.33203C28.3594 5.33203 28.7578 5.73047 28.7578 6.21094V14.4141C28.7578 14.8945 28.3594 15.293 27.8789 15.293Z" fill="#31C1DE"/>
<path d="M44.5666 15.2929C44.2736 15.2929 43.9806 15.1405 43.8166 14.871L38.8947 6.66789C38.6486 6.24602 38.7775 5.70695 39.1994 5.46086C39.6213 5.21477 40.1603 5.34367 40.4064 5.76555L45.3283 13.9687C45.5744 14.3905 45.4455 14.9296 45.0236 15.1757C44.883 15.2577 44.7306 15.2929 44.5666 15.2929Z" fill="#31C1DE"/>
<path d="M39.6447 15.2929C39.4924 15.2929 39.34 15.2577 39.1877 15.164C38.7658 14.9179 38.6369 14.3788 38.883 13.957L43.8049 5.75383C44.0509 5.33195 44.59 5.20305 45.0119 5.44914C45.4338 5.69524 45.5627 6.2343 45.3166 6.65617L40.3947 14.8593C40.2424 15.1405 39.9494 15.2929 39.6447 15.2929Z" fill="#31C1DE"/>
<path d="M21.9609 46.3828H19.5469C18.0938 46.3828 16.9102 45.1992 16.9102 43.7461C16.9102 43.2656 17.3086 42.8672 17.7891 42.8672C18.2695 42.8672 18.668 43.2656 18.668 43.7461C18.668 44.2266 19.0547 44.625 19.5469 44.625H21.9609C22.4414 44.625 22.8398 44.2383 22.8398 43.7461V43.2422C22.8398 42.7617 22.4531 42.3633 21.9609 42.3633H19.5469C18.0938 42.3633 16.9102 41.1797 16.9102 39.7266V39.2109C16.9102 37.7578 18.0938 36.5742 19.5469 36.5742H21.9609C23.4141 36.5742 24.5977 37.7578 24.5977 39.2109C24.5977 39.6914 24.1992 40.0898 23.7187 40.0898C23.2383 40.0898 22.8398 39.6914 22.8398 39.2109C22.8398 38.7305 22.4531 38.332 21.9609 38.332H19.5469C19.0664 38.332 18.668 38.7188 18.668 39.2109V39.7266C18.668 40.207 19.0547 40.6055 19.5469 40.6055H21.9609C23.4141 40.6055 24.5977 41.7891 24.5977 43.2422V43.7578C24.5977 45.1992 23.4141 46.3828 21.9609 46.3828Z" fill="#31C1DE"/>
<path d="M20.7656 38.3438C20.2852 38.3438 19.8867 37.9453 19.8867 37.4648V35.8594C19.8867 35.3789 20.2852 34.9805 20.7656 34.9805C21.2461 34.9805 21.6445 35.3789 21.6445 35.8594V37.4648C21.6445 37.957 21.2461 38.3438 20.7656 38.3438Z" fill="#31C1DE"/>
<path d="M20.7656 47.9883C20.2852 47.9883 19.8867 47.5898 19.8867 47.1094V45.5039C19.8867 45.0234 20.2852 44.625 20.7656 44.625C21.2461 44.625 21.6445 45.0234 21.6445 45.5039V47.1094C21.6445 47.5898 21.2461 47.9883 20.7656 47.9883Z" fill="#31C1DE"/>
<path d="M38.4258 20.0977H22.1367C21.6562 20.0977 21.2578 19.6992 21.2578 19.2188C21.2578 18.7383 21.6562 18.3398 22.1367 18.3398H38.4258C38.9062 18.3398 39.3047 18.7383 39.3047 19.2188C39.3047 19.6992 38.9062 20.0977 38.4258 20.0977Z" fill="#31C1DE"/>
<path d="M38.4258 24.5508H22.1367C21.6562 24.5508 21.2578 24.1523 21.2578 23.6719C21.2578 23.1914 21.6562 22.793 22.1367 22.793H38.4258C38.9062 22.793 39.3047 23.1914 39.3047 23.6719C39.3047 24.1523 38.9062 24.5508 38.4258 24.5508Z" fill="#31C1DE"/>
<path d="M38.4258 29.0039H22.1367C21.6562 29.0039 21.2578 28.6055 21.2578 28.125C21.2578 27.6445 21.6562 27.2461 22.1367 27.2461H38.4258C38.9062 27.2461 39.3047 27.6445 39.3047 28.125C39.3047 28.6055 38.9062 29.0039 38.4258 29.0039Z" fill="#31C1DE"/>
<path d="M38.4258 33.457H17.8008C17.3203 33.457 16.9219 33.0586 16.9219 32.5781C16.9219 32.0977 17.3203 31.6992 17.8008 31.6992H38.4258C38.9062 31.6992 39.3047 32.0977 39.3047 32.5781C39.3047 33.0586 38.9062 33.457 38.4258 33.457Z" fill="#31C1DE"/>
<path d="M40.0313 37.9102H27.7617C27.2812 37.9102 26.8828 37.5117 26.8828 37.0312C26.8828 36.5508 27.2812 36.1523 27.7617 36.1523H40.0313C40.5117 36.1523 40.9102 36.5508 40.9102 37.0312C40.9102 37.5117 40.5117 37.9102 40.0313 37.9102Z" fill="#31C1DE"/>
<path d="M34.2305 51.2695H17.8008C17.3203 51.2695 16.9219 50.8711 16.9219 50.3906C16.9219 49.9102 17.3203 49.5117 17.8008 49.5117H34.2305C34.7109 49.5117 35.1094 49.9102 35.1094 50.3906C35.1094 50.8711 34.7227 51.2695 34.2305 51.2695Z" fill="#31C1DE"/>
<path d="M33.9258 46.8164H27.7617C27.2812 46.8164 26.8828 46.418 26.8828 45.9375C26.8828 45.457 27.2812 45.0586 27.7617 45.0586H33.9258C34.4063 45.0586 34.8047 45.457 34.8047 45.9375C34.8047 46.418 34.418 46.8164 33.9258 46.8164Z" fill="#31C1DE"/>
<path d="M45.5859 60C38.625 60 32.9648 54.3398 32.9648 47.3789C32.9648 40.418 38.625 34.7578 45.5859 34.7578C51.5508 34.7578 56.7422 38.9883 57.9492 44.8242C58.043 45.3047 57.7383 45.7617 57.2695 45.8672C56.7891 45.9609 56.332 45.6562 56.2266 45.1875C55.1953 40.1719 50.7188 36.5273 45.5859 36.5273C39.5977 36.5273 34.7227 41.4023 34.7227 47.3906C34.7227 53.3789 39.5977 58.2422 45.5859 58.2422C50.9414 58.2422 55.5586 54.2578 56.332 48.9727C56.4023 48.4922 56.8477 48.1641 57.3281 48.2344C57.8086 48.3047 58.1367 48.75 58.0664 49.2305C57.6328 52.1953 56.1445 54.9258 53.8711 56.9062C51.5742 58.8984 48.6328 60 45.5859 60Z" fill="#31C1DE"/>
<path d="M42.6211 53.3789C42.4688 53.3789 42.3164 53.3438 42.1875 53.2617C41.7656 53.0156 41.625 52.4766 41.8711 52.0664L47.7891 41.8125C48.0352 41.3906 48.5742 41.25 48.9844 41.4961C49.4063 41.7422 49.5469 42.2812 49.3008 42.6914L43.3828 52.9453C43.2188 53.2266 42.9258 53.3789 42.6211 53.3789Z" fill="#31C1DE"/>
<path d="M42.0703 46.418C40.6758 46.418 39.5508 45.293 39.5508 43.8984C39.5508 42.5039 40.6758 41.3789 42.0703 41.3789C43.4648 41.3789 44.5898 42.5039 44.5898 43.8984C44.5898 45.293 43.4531 46.418 42.0703 46.418ZM42.0703 43.1367C41.6484 43.1367 41.3086 43.4766 41.3086 43.8984C41.3086 44.3203 41.6484 44.6602 42.0703 44.6602C42.4922 44.6602 42.832 44.3203 42.832 43.8984C42.832 43.4766 42.4922 43.1367 42.0703 43.1367Z" fill="#31C1DE"/>
<path d="M49.1016 53.3789C47.707 53.3789 46.582 52.2539 46.582 50.8594C46.582 49.4648 47.707 48.3398 49.1016 48.3398C50.4961 48.3398 51.6211 49.4648 51.6211 50.8594C51.6211 52.2539 50.4844 53.3789 49.1016 53.3789ZM49.1016 50.0977C48.6797 50.0977 48.3398 50.4375 48.3398 50.8594C48.3398 51.2812 48.6797 51.6211 49.1016 51.6211C49.5234 51.6211 49.8633 51.2812 49.8633 50.8594C49.8633 50.4375 49.5234 50.0977 49.1016 50.0977Z" fill="#31C1DE"/>
<path d="M20.9648 29.4727H3.97266C2.84766 29.4727 1.92188 28.5469 1.92188 27.4219V12.3047C1.92188 11.8242 2.32031 11.4258 2.80078 11.4258C3.28125 11.4258 3.67969 11.8242 3.67969 12.3047V27.4219C3.67969 27.5859 3.80859 27.7148 3.97266 27.7148H20.9648C21.1289 27.7148 21.2578 27.5859 21.2578 27.4219V12.3047C21.2578 11.8242 21.6562 11.4258 22.1367 11.4258C22.6172 11.4258 23.0156 11.8242 23.0156 12.3047V27.4219C23.0156 28.5469 22.1016 29.4727 20.9648 29.4727Z" fill="#31C1DE"/>
<path d="M18.8555 26.543H6.08203C5.40234 26.543 4.85156 25.9922 4.85156 25.3125V16.7578C4.85156 16.0781 5.40234 15.5273 6.08203 15.5273H18.8555C19.5352 15.5273 20.0859 16.0781 20.0859 16.7578V25.3125C20.0859 25.9922 19.5352 26.543 18.8555 26.543ZM6.60938 24.7852H18.3281V17.2852H6.60938V24.7852Z" fill="#31C1DE"/>
<path d="M18.8555 26.543H6.08203C5.40234 26.543 4.85156 25.9922 4.85156 25.3125V21.0352C4.85156 20.5547 5.25 20.1562 5.73047 20.1562H19.207C19.6875 20.1562 20.0859 20.5547 20.0859 21.0352V25.3125C20.0859 25.9922 19.5352 26.543 18.8555 26.543ZM6.60938 24.7852H18.3281V21.9141H6.60938V24.7852Z" fill="#31C1DE"/>
<path d="M14.6953 26.543H10.2422C9.76172 26.543 9.36328 26.1445 9.36328 25.6641V16.4062C9.36328 15.9258 9.76172 15.5273 10.2422 15.5273H14.6953C15.1758 15.5273 15.5742 15.9258 15.5742 16.4062V25.6641C15.5742 26.1445 15.1758 26.543 14.6953 26.543ZM11.1211 24.7852H13.8164V17.2852H11.1211V24.7852Z" fill="#31C1DE"/>
<path d="M22.1367 14.3555H10.1367C9.65625 14.3555 9.25781 13.957 9.25781 13.4766C9.25781 12.9961 9.65625 12.5977 10.1367 12.5977H21.2578V9.60938C21.2578 9.44531 21.1289 9.31641 20.9648 9.31641H3.97266C3.80859 9.31641 3.67969 9.44531 3.67969 9.60938V12.5977H6.03516C6.51562 12.5977 6.91406 12.9961 6.91406 13.4766C6.91406 13.957 6.51562 14.3555 6.03516 14.3555H2.80078C2.32031 14.3555 1.92188 13.957 1.92188 13.4766V9.60938C1.92188 8.48437 2.84766 7.55859 3.97266 7.55859H20.9648C22.0898 7.55859 23.0156 8.48437 23.0156 9.60938V13.4766C23.0156 13.957 22.6172 14.3555 22.1367 14.3555Z" fill="#31C1DE"/>
<path d="M19.207 10.8398C18.7266 10.8398 18.3281 10.4414 18.3281 9.96094V7.26562C18.3281 6.78516 18.7266 6.38672 19.207 6.38672C19.6875 6.38672 20.0859 6.78516 20.0859 7.26562V9.96094C20.0859 10.4414 19.6875 10.8398 19.207 10.8398Z" fill="#31C1DE"/>
<path d="M5.73047 10.8398C5.25 10.8398 4.85156 10.4414 4.85156 9.96094V7.26562C4.85156 6.78516 5.25 6.38672 5.73047 6.38672C6.21094 6.38672 6.60938 6.78516 6.60938 7.26562V9.96094C6.60938 10.4414 6.21094 10.8398 5.73047 10.8398Z" fill="#31C1DE"/>
</svg>
