<svg width="60" height="60" viewBox="0 0 60 60" fill="none" xmlns="http://www.w3.org/2000/svg">
<g clip-path="url(#clip0_212_1728)">
<mask id="mask0_212_1728" style="mask-type:luminance" maskUnits="userSpaceOnUse" x="-10" y="-11" width="81" height="81">
<path d="M70.0044 69.9927H-9.99561V-10.0073H70.0044V69.9927Z" fill="white"/>
</mask>
<g mask="url(#mask0_212_1728)">
<path d="M57.4122 59.9971H2.58288C1.15326 59.9971 0.00488281 58.837 0.00488281 57.4074V56.1066C0.00488281 54.677 1.16498 53.5169 2.58288 53.5169H57.4122C58.8419 53.5169 60.0019 54.677 60.0019 56.1066V57.4074C60.0019 58.837 58.8419 59.9971 57.4122 59.9971ZM2.58288 55.2864C2.13759 55.2864 1.76261 55.6613 1.76261 56.1184V57.4074C1.76261 57.8644 2.13759 58.2393 2.58288 58.2393H57.4122C57.8692 58.2393 58.2442 57.8644 58.2442 57.4074V56.1066C58.2442 55.6613 57.8692 55.2746 57.4122 55.2746H2.58288V55.2864Z" fill="#31C1DE"/>
<path d="M55.4218 27.7998H4.57662C4.09617 27.7998 3.69775 27.4014 3.69775 26.9209V25.0578C3.69775 23.6281 4.85785 22.468 6.27575 22.468H14.5839C15.0644 22.468 15.4628 22.8665 15.4628 23.3469C15.4628 23.8273 15.0644 24.2258 14.5839 24.2258H6.27575C5.81874 24.2258 5.45548 24.6007 5.45548 25.0578V26.0421H54.5429V25.0578C54.5429 24.6007 54.1679 24.2258 53.7109 24.2258H45.4027C44.9223 24.2258 44.5239 23.8273 44.5239 23.3469C44.5239 22.8665 44.9223 22.468 45.4027 22.468H53.7109C55.1405 22.468 56.3007 23.6281 56.3007 25.0578V26.9209C56.3007 27.4014 55.9022 27.7998 55.4218 27.7998Z" fill="#31C1DE"/>
<path d="M57.4122 34.7788H2.58288C1.15326 34.7788 0.00488281 33.6187 0.00488281 32.1891V28.6268C0.00488281 27.1971 1.16498 26.0488 2.58288 26.0488H57.4122C58.8419 26.0488 60.0019 27.2089 60.0019 28.6268V32.1891C60.0019 33.6187 58.8419 34.7788 57.4122 34.7788ZM2.58288 27.7948C2.12587 27.7948 1.76261 28.1698 1.76261 28.615V32.1891C1.76261 32.6461 2.13759 33.0211 2.58288 33.0211H57.4122C57.8692 33.0211 58.2442 32.6461 58.2442 32.1891V28.6268C58.2442 28.1698 57.8692 27.8065 57.4122 27.8065H2.58288V27.7948Z" fill="#31C1DE"/>
<path d="M45.8153 27.7942H14.1762C13.6958 27.7942 13.2974 27.3958 13.2974 26.9153C13.2974 22.7671 14.8324 18.7946 17.6097 15.7245C17.9378 15.3612 18.4885 15.3378 18.8518 15.6659C19.215 15.994 19.2385 16.5447 18.9104 16.908C16.6136 19.4391 15.2777 22.6499 15.0785 26.0482H44.9013C44.4443 18.2204 37.929 11.9864 29.984 11.9864C27.0545 11.9747 24.207 12.8301 21.7579 14.4472C21.3595 14.7167 20.8087 14.6112 20.5509 14.2011C20.2814 13.8027 20.3869 13.2519 20.797 12.9941C23.5273 11.1895 26.703 10.2286 30.0075 10.2286C39.218 10.2286 46.7059 17.7166 46.7059 26.927C46.6942 27.4075 46.2957 27.7942 45.8153 27.7942Z" fill="#31C1DE"/>
<path d="M57.4123 55.2886H2.58296C2.10252 55.2886 1.7041 54.8902 1.7041 54.4097V46.1484C1.7041 45.668 2.10252 45.2695 2.58296 45.2695C3.06341 45.2695 3.46183 45.668 3.46183 46.1484V53.5308H56.5335V34.7818H3.46183V42.1642C3.46183 42.6447 3.06341 43.0431 2.58296 43.0431C2.10252 43.0431 1.7041 42.6447 1.7041 42.1642V33.9029C1.7041 33.4225 2.10252 33.024 2.58296 33.024H57.4123C57.8928 33.024 58.2912 33.4225 58.2912 33.9029V54.4097C58.2912 54.8902 57.8928 55.2886 57.4123 55.2886Z" fill="#31C1DE"/>
<path d="M29.9965 11.9788C29.5161 11.9788 29.1177 11.5803 29.1177 11.0999V0.881646C29.1177 0.401201 29.5161 0.00278282 29.9965 0.00278282C30.477 0.00278282 30.8754 0.401201 30.8754 0.881646V11.0999C30.8754 11.5803 30.477 11.9788 29.9965 11.9788Z" fill="#31C1DE"/>
<path d="M40.5312 7.86279H29.9965C29.5161 7.86279 29.1177 7.46437 29.1177 6.98393V0.87876C29.1177 0.398314 29.5161 -0.000103474 29.9965 -0.000103474H40.5312C40.8476 -0.000103474 41.1405 0.175669 41.2929 0.445187C41.4452 0.726423 41.4452 1.05453 41.2811 1.33577L39.7226 3.92549L41.2929 6.52692C41.4569 6.79644 41.4569 7.13627 41.3046 7.4175C41.1405 7.68702 40.8476 7.86279 40.5312 7.86279ZM30.8754 6.10507H38.9727L37.9415 4.38249C37.7774 4.10126 37.7774 3.74971 37.9415 3.4802L38.9727 1.75762H30.8754V6.10507Z" fill="#31C1DE"/>
<path d="M52.7433 55.2869H45.4663C44.9859 55.2869 44.5875 54.8884 44.5875 54.408V42.5844C44.5875 40.0884 46.6147 38.0611 49.1107 38.0611C51.6066 38.0611 53.6339 40.0884 53.6339 42.5844V54.408C53.6222 54.8884 53.2355 55.2869 52.7433 55.2869ZM46.3452 53.5291H51.8644V42.5844C51.8644 41.061 50.6223 39.8189 49.0989 39.8189C47.5756 39.8189 46.3335 41.061 46.3335 42.5844V53.5291H46.3452ZM39.783 55.2869H32.506C32.0256 55.2869 31.6271 54.8884 31.6271 54.408V42.5844C31.6271 40.0884 33.6544 38.0611 36.1386 38.0611C38.6346 38.0611 40.6619 40.0884 40.6619 42.5844V54.408C40.6619 54.8884 40.2634 55.2869 39.783 55.2869ZM33.3849 53.5291H38.9041V42.5844C38.9041 41.061 37.662 39.8189 36.1386 39.8189C34.6153 39.8189 33.3849 41.061 33.3849 42.5844V53.5291ZM26.811 55.2869H19.534C19.0535 55.2869 18.6551 54.8884 18.6551 54.408V42.5844C18.6551 40.0884 20.6824 38.0611 23.1783 38.0611C25.6626 38.0611 27.6898 40.0884 27.6898 42.5844V54.408C27.6898 54.8884 27.2914 55.2869 26.811 55.2869ZM20.4129 53.5291H25.9321V42.5844C25.9321 41.061 24.69 39.8189 23.1783 39.8189C21.655 39.8189 20.4129 41.061 20.4129 42.5844V53.5291ZM13.8507 55.2869H6.57369C6.09324 55.2869 5.69482 54.8884 5.69482 54.408V42.5844C5.69482 40.0884 7.72207 38.0611 10.218 38.0611C12.714 38.0611 14.7413 40.0884 14.7413 42.5844V54.408C14.7295 54.8884 14.3311 55.2869 13.8507 55.2869ZM7.44083 53.5291H12.9601V42.5844C12.9601 41.061 11.718 39.8189 10.1946 39.8189C8.67124 39.8189 7.42911 41.061 7.42911 42.5844V53.5291H7.44083Z" fill="#31C1DE"/>
</g>
</g>
<defs>
<clipPath id="clip0_212_1728">
<rect width="60" height="60" fill="white"/>
</clipPath>
</defs>
</svg>
