<svg width="60" height="60" viewBox="0 0 60 60" fill="none" xmlns="http://www.w3.org/2000/svg">
<path d="M34.875 59.4844C34.3945 59.4844 33.9961 59.0859 33.9961 58.6055V53.0273C33.9961 52.9336 33.9609 52.8516 33.8906 52.7813L31.5 50.3906C31.1016 49.9922 30.8789 49.4648 30.8789 48.9023V47.3906C30.8789 47.2031 30.7266 47.0391 30.5273 47.0391H28.793C28.6992 47.0391 28.6172 47.0742 28.5469 47.1445L25.4297 50.25C25.0313 50.6484 24.5039 50.8711 23.9414 50.8711H19.043C18.4805 50.8711 17.9531 50.6484 17.5547 50.25L17.168 49.8633C16.8281 49.5234 16.8281 48.9609 17.168 48.6211C17.5078 48.2813 18.0703 48.2813 18.4102 48.6211L18.7969 49.0078C18.8672 49.0781 18.9492 49.1133 19.043 49.1133H23.9414C24.0352 49.1133 24.1172 49.0781 24.1875 49.0078L27.3047 45.8906C27.7031 45.4922 28.2305 45.2695 28.793 45.2695H30.5273C31.6875 45.2695 32.6367 46.2188 32.6367 47.3789V48.8906C32.6367 48.9844 32.6719 49.0664 32.7422 49.1367L35.1328 51.5273C35.5312 51.9258 35.7539 52.4531 35.7539 53.0156V58.5938C35.7539 59.0859 35.3555 59.4844 34.875 59.4844Z" fill="#31C1DE"/>
<path d="M15.0703 47.4141C14.8477 47.4141 14.625 47.332 14.4492 47.1562L14.0391 46.7461C13.6406 46.3477 13.418 45.8203 13.418 45.2578V40.3711C13.418 39.8086 13.6406 39.2812 14.0391 38.8828L16.0898 36.832C16.4883 36.4336 17.0156 36.2109 17.5781 36.2109H22.5C22.5938 36.2109 22.6758 36.1758 22.7461 36.1055L25.3359 33.5156C25.4062 33.4453 25.4414 33.3633 25.4414 33.2695V28.7578C25.4414 28.6641 25.4062 28.582 25.3359 28.5117L22.8516 26.0273C22.7813 25.957 22.6992 25.9219 22.6055 25.9219H20.4258C20.332 25.9219 20.2383 25.957 20.1797 26.0273L18.0469 28.1602C17.6484 28.5586 17.1211 28.7812 16.5586 28.7812H14.5781C14.0156 28.7812 13.4883 28.5586 13.0898 28.1602L9.44531 24.5156C9.10547 24.1758 9.10547 23.6133 9.44531 23.2734C9.78516 22.9336 10.3477 22.9336 10.6875 23.2734L14.332 26.918C14.4023 26.9883 14.4844 27.0234 14.5781 27.0234H16.5586C16.6523 27.0234 16.7344 26.9883 16.8047 26.918L18.9375 24.7852C19.3359 24.3867 19.8633 24.1641 20.4258 24.1641H22.6172C23.1797 24.1641 23.707 24.3867 24.1055 24.7852L26.5898 27.2695C26.9883 27.668 27.2109 28.1953 27.2109 28.7578V33.2695C27.2109 33.832 26.9883 34.3594 26.5898 34.7578L24 37.3477C23.6016 37.7461 23.0742 37.9688 22.5117 37.9688H17.5898C17.4961 37.9688 17.4023 38.0039 17.3438 38.0742L15.293 40.125C15.2227 40.1953 15.1875 40.2773 15.1875 40.3711V45.2578C15.1875 45.3516 15.2227 45.4336 15.293 45.5039L15.7031 45.9141C16.043 46.2539 16.043 46.8164 15.7031 47.1562C15.5156 47.3203 15.293 47.4141 15.0703 47.4141Z" fill="#31C1DE"/>
<path d="M52.7227 41.5547H47.1094C46.5469 41.5547 46.0195 41.332 45.6211 40.9336L42.9727 38.2852C42.9023 38.2148 42.8203 38.1797 42.7266 38.1797H40.4648C39.3047 38.1797 38.3555 37.2305 38.3555 36.0703V33.457C38.3555 33.3633 38.3203 33.2812 38.25 33.2109L36.3516 31.3125C36.2813 31.2422 36.1992 31.207 36.1055 31.207H34.5C32.6602 31.207 31.1602 29.707 31.1602 27.8672V24.2578C31.1602 23.0977 32.1094 22.1484 33.2695 22.1484H35.5313C35.625 22.1484 35.707 22.1133 35.7773 22.043L37.4531 20.3672C37.8516 19.9688 38.3789 19.7461 38.9414 19.7461H40.6641C40.7578 19.7461 40.8398 19.7109 40.9102 19.6406L43.6406 16.9102C43.9805 16.5703 44.543 16.5703 44.8828 16.9102C45.2227 17.25 45.2227 17.8125 44.8828 18.1523L42.1523 20.8828C41.7539 21.2812 41.2266 21.5039 40.6641 21.5039H38.9414C38.8477 21.5039 38.7539 21.5391 38.6953 21.6094L37.0195 23.2852C36.6211 23.6836 36.0938 23.9062 35.5313 23.9062H33.2695C33.082 23.9062 32.918 24.0586 32.918 24.2578V27.8672C32.918 28.7344 33.6211 29.4492 34.5 29.4492H36.1055C36.668 29.4492 37.1953 29.6719 37.5937 30.0703L39.4922 31.9687C39.8906 32.3672 40.1133 32.8945 40.1133 33.457V36.0703C40.1133 36.2578 40.2656 36.4219 40.4648 36.4219H42.7266C43.2891 36.4219 43.8164 36.6445 44.2148 37.043L46.8633 39.6914C46.9336 39.7617 47.0156 39.7969 47.1094 39.7969H52.7227C53.2031 39.7969 53.6016 40.1953 53.6016 40.6758C53.6016 41.1562 53.2148 41.5547 52.7227 41.5547Z" fill="#31C1DE"/>
<path d="M29.9883 60.0001C23.754 60.0001 17.836 57.6329 13.336 53.3204C8.84772 49.0313 6.211 43.254 5.90632 37.0665C5.88288 36.586 6.25788 36.1641 6.73835 36.1407C7.21881 36.1173 7.64069 36.4923 7.66413 36.9727C8.22663 48.9024 18.0469 58.2423 29.9883 58.2423C35.0391 58.2423 39.7969 56.6016 43.7696 53.4962C44.1563 53.1915 44.7071 53.2618 45.0001 53.6485C45.3048 54.0352 45.2344 54.586 44.8477 54.879C40.5704 58.2305 35.4376 60.0001 29.9883 60.0001Z" fill="#31C1DE"/>
<path d="M6.90238 34.0549C6.86722 34.0549 6.83207 34.0549 6.79691 34.0432C6.31644 33.9846 5.96488 33.551 6.02347 33.0705C6.58597 28.1721 8.62504 23.6252 11.8946 19.9221C15.1407 16.2424 19.3477 13.676 24.0821 12.4807C24.5508 12.3635 25.0313 12.6447 25.1485 13.1135C25.2657 13.5822 24.9844 14.0627 24.5157 14.1799C15.5625 16.4533 8.83597 24.1174 7.78129 33.2814C7.72269 33.7268 7.34769 34.0549 6.90238 34.0549Z" fill="#31C1DE"/>
<path d="M47.1328 52.4414C46.9218 52.4414 46.7109 52.3593 46.5351 52.207C46.1718 51.8789 46.1484 51.3281 46.4765 50.9648C50.2617 46.8398 52.3359 41.4726 52.3359 35.8711C52.3359 25.5 45.3046 16.5586 35.2382 14.1328C34.7695 14.0156 34.4765 13.5468 34.5937 13.0781C34.7109 12.6093 35.1796 12.3164 35.6484 12.4336C40.8164 13.6757 45.5039 16.664 48.8437 20.8476C52.2773 25.1601 54.0937 30.3515 54.0937 35.8711C54.0937 41.9179 51.8437 47.6953 47.7656 52.1484C47.6015 52.3476 47.3671 52.4414 47.1328 52.4414Z" fill="#31C1DE"/>
<path d="M11.9766 59.5194C10.2188 59.5194 8.81258 59.0272 7.81649 58.0429C6.67977 56.9061 6.18758 55.2186 6.36336 53.0507C6.5157 51.1054 7.20711 48.8202 8.41414 46.2304C8.61336 45.785 9.1407 45.5975 9.58602 45.8085C10.0313 46.0077 10.2188 46.535 10.0079 46.9804C7.83992 51.6561 7.50008 55.2421 9.05867 56.8124C10.711 58.4647 14.543 58.0077 19.5704 55.5468C24.9493 52.91 31.043 48.328 36.7266 42.6444C42.4102 36.9608 47.004 30.8671 49.629 25.4882C52.0899 20.4608 52.5587 16.6405 50.8946 14.9765C49.3009 13.3827 45.6681 13.7577 40.922 15.996C40.4884 16.2069 39.961 16.0194 39.7501 15.5741C39.5391 15.1405 39.7266 14.6132 40.172 14.4022C42.797 13.1718 45.1173 12.4569 47.086 12.2929C49.2891 12.1054 50.9884 12.5858 52.1368 13.746C54.3868 15.996 54.0587 20.4491 51.1993 26.2733C48.4805 31.8163 43.7813 38.0741 37.9571 43.8983C32.1329 49.7225 25.8751 54.4218 20.3321 57.1405C17.0743 58.7108 14.2384 59.5194 11.9766 59.5194Z" fill="#31C1DE"/>
<path d="M29.9883 20.4844C29.2734 20.4844 28.5938 20.1797 28.125 19.6523C25.8164 17.0742 21.9375 12.1406 21.9375 8.05078C21.9375 3.60937 25.5469 0 29.9883 0C34.4297 0 38.0391 3.60937 38.0391 8.05078C38.0391 12.1406 34.1602 17.0742 31.8516 19.6523C31.3711 20.1797 30.6914 20.4844 29.9883 20.4844ZM29.9883 1.75781C26.5195 1.75781 23.6953 4.58203 23.6953 8.05078C23.6953 11.6836 27.7031 16.5586 29.4375 18.4805C29.5781 18.6445 29.7773 18.7266 29.9883 18.7266C30.1992 18.7266 30.3984 18.6328 30.5391 18.4805C32.2617 16.5586 36.2813 11.6836 36.2813 8.05078C36.2813 4.58203 33.457 1.75781 29.9883 1.75781Z" fill="#31C1DE"/>
<path d="M29.9883 11.9883C27.8203 11.9883 26.0508 10.2188 26.0508 8.05078C26.0508 5.88281 27.8203 4.11328 29.9883 4.11328C32.1562 4.11328 33.9258 5.88281 33.9258 8.05078C33.9258 10.2188 32.1562 11.9883 29.9883 11.9883ZM29.9883 5.88281C28.793 5.88281 27.8086 6.85547 27.8086 8.0625C27.8086 9.26953 28.7812 10.2422 29.9883 10.2422C31.1836 10.2422 32.168 9.26953 32.168 8.0625C32.168 6.85547 31.1836 5.88281 29.9883 5.88281Z" fill="#31C1DE"/>
</svg>
