<svg width="60" height="60" viewBox="0 0 60 60" fill="none" xmlns="http://www.w3.org/2000/svg">
<g clip-path="url(#clip0_212_1909)">
<mask id="mask0_212_1909" style="mask-type:luminance" maskUnits="userSpaceOnUse" x="-10" y="-11" width="81" height="81">
<path d="M70.0044 69.9927H-9.99561V-10.0073H70.0044V69.9927Z" fill="white"/>
</mask>
<g mask="url(#mask0_212_1909)">
<path d="M24.7207 42.0493C24.2402 42.0493 23.8418 41.6509 23.8418 41.1705V21.9292H4.60054C4.1201 21.9292 3.72168 21.5308 3.72168 21.0503C3.72168 16.2576 5.29192 11.7578 8.25661 8.00801C8.56129 7.63303 9.11204 7.56272 9.48702 7.86739C9.87372 8.17207 9.94403 8.72282 9.63936 9.10952C7.09651 12.3086 5.67862 16.117 5.50284 20.1715H24.7207C25.2011 20.1715 25.5995 20.5699 25.5995 21.0503V40.2682C29.6657 40.0924 33.4858 38.6628 36.6849 36.1199C37.0599 35.8152 37.6224 35.8856 37.9153 36.2605C38.22 36.6355 38.1497 37.198 37.7747 37.4909C34.0366 40.4791 29.5134 42.0493 24.7207 42.0493Z" fill="#31C1DE"/>
<path d="M44.4046 26.0903C44.346 26.0903 44.2875 26.0786 44.2171 26.0669C43.7367 25.9614 43.4437 25.5044 43.5375 25.024C43.807 23.7233 43.9476 22.3874 43.9476 21.0515C43.9593 10.4466 35.3348 1.81027 24.7181 1.81027C19.9957 1.81027 15.449 3.54456 11.9218 6.68503C11.5586 7.01314 11.0078 6.97798 10.6797 6.61472C10.3516 6.25146 10.3868 5.7007 10.75 5.37259C14.5936 1.93917 19.5621 0.0525417 24.7181 0.0525417C30.3311 0.0525417 35.6043 2.23212 39.565 6.20458C43.5258 10.1653 45.7171 15.4385 45.7171 21.0515C45.7171 22.5163 45.5647 23.9693 45.2718 25.3872C45.178 25.7974 44.8148 26.0903 44.4046 26.0903Z" fill="#31C1DE"/>
<path d="M34.1191 59.9463H24.7329C24.2524 59.9463 23.854 59.5479 23.854 59.0674V49.9507C23.854 48.4859 25.0493 47.2907 26.514 47.2907H32.338C33.8027 47.2907 34.998 48.4859 34.998 49.9507V59.0674C34.998 59.5479 34.6113 59.9463 34.1191 59.9463ZM25.6117 58.1886H33.2403V49.9507C33.2403 49.4585 32.8418 49.0484 32.338 49.0484H26.514C26.0101 49.0484 25.6117 49.4585 25.6117 49.9507V58.1886Z" fill="#31C1DE"/>
<path d="M46.6196 59.9434H37.2334C36.7529 59.9434 36.3545 59.5449 36.3545 59.0645V26.9918C36.3545 25.5271 37.5497 24.3318 39.0145 24.3318H44.8385C46.3032 24.3318 47.4985 25.5271 47.4985 26.9918V48.9517C47.4985 49.4322 47.1001 49.8306 46.6196 49.8306C46.1392 49.8306 45.7408 49.4322 45.7408 48.9517V26.9918C45.7408 26.488 45.3306 26.0895 44.8385 26.0895H39.0145C38.5106 26.0895 38.1122 26.4997 38.1122 26.9918V58.1856H45.7408V52.4672C45.7408 51.9867 46.1392 51.5883 46.6196 51.5883C47.1001 51.5883 47.4985 51.9867 47.4985 52.4672V59.0645C47.4985 59.5567 47.1001 59.9434 46.6196 59.9434Z" fill="#31C1DE"/>
<path d="M59.1152 59.9395H49.729C49.2485 59.9395 48.8501 59.541 48.8501 59.0606V40.2881C48.8501 38.8233 50.0454 37.628 51.5101 37.628H57.3341C58.7988 37.628 59.9941 38.8233 59.9941 40.2881V59.0606C59.9941 59.5528 59.6074 59.9395 59.1152 59.9395ZM50.6078 58.1817H58.2364V40.2881C58.2364 39.7959 57.8379 39.3858 57.3341 39.3858H51.5101C51.0062 39.3858 50.6078 39.7959 50.6078 40.2881V58.1817Z" fill="#31C1DE"/>
<path d="M20.999 45.772C15.386 45.772 10.1128 43.5924 6.15204 39.6199C2.1913 35.6592 0 30.3743 0 24.773C0 24.2926 0.398418 23.8941 0.878863 23.8941H20.999C21.4794 23.8941 21.8778 24.2926 21.8778 24.773V44.8931C21.8778 45.3736 21.4794 45.772 20.999 45.772ZM1.78116 25.6519C2.22645 35.5654 10.2065 43.5455 20.1201 43.9908V25.6519H1.78116Z" fill="#31C1DE"/>
<path d="M12.0947 51.5835H2.07564C1.5952 51.5835 1.19678 51.1851 1.19678 50.7046C1.19678 50.2242 1.5952 49.8258 2.07564 49.8258H11.5322L15.8797 40.4044C16.0789 39.9591 16.6062 39.7716 17.0515 39.9708C17.4968 40.17 17.6843 40.6973 17.485 41.1426L12.8915 51.0796C12.7509 51.3843 12.4345 51.5835 12.0947 51.5835Z" fill="#31C1DE"/>
<path d="M9.37411 47.8047H2.07369C1.59324 47.8047 1.19482 47.4063 1.19482 46.9258C1.19482 46.4454 1.59324 46.047 2.07369 46.047H9.37411C9.85456 46.047 10.253 46.4454 10.253 46.9258C10.253 47.4063 9.86628 47.8047 9.37411 47.8047Z" fill="#31C1DE"/>
<path d="M37.0211 16.8745C36.8805 16.8745 36.7282 16.8394 36.5876 16.7573C36.1657 16.523 36.0134 15.9839 36.2477 15.5621L42.0834 5.16805C42.2357 4.88682 42.5287 4.72276 42.8451 4.72276H55.2429C55.7233 4.72276 56.1218 5.12118 56.1218 5.60163C56.1218 6.08207 55.7233 6.48049 55.2429 6.48049H43.3724L37.7828 16.4292C37.6305 16.7105 37.3258 16.8745 37.0211 16.8745Z" fill="#31C1DE"/>
<path d="M55.2554 2.98193H46.5957C46.1152 2.98193 45.7168 2.58352 45.7168 2.10307C45.7168 1.62262 46.1152 1.22421 46.5957 1.22421H55.2554C55.7358 1.22421 56.1343 1.62262 56.1343 2.10307C56.1343 2.58352 55.7358 2.98193 55.2554 2.98193Z" fill="#31C1DE"/>
<path d="M57.3605 21.5552H50.9741C50.4936 21.5552 50.0952 21.1568 50.0952 20.6763C50.0952 20.1959 50.4936 19.7974 50.9741 19.7974H57.3605C57.8409 19.7974 58.2393 20.1959 58.2393 20.6763C58.2393 21.1568 57.8409 21.5552 57.3605 21.5552Z" fill="#31C1DE"/>
<path d="M57.3605 25.3433H50.9741C50.4936 25.3433 50.0952 24.9448 50.0952 24.4644C50.0952 23.984 50.4936 23.5855 50.9741 23.5855H57.3605C57.8409 23.5855 58.2393 23.984 58.2393 24.4644C58.2393 24.9448 57.8409 25.3433 57.3605 25.3433Z" fill="#31C1DE"/>
<path d="M57.3605 29.1309H50.9741C50.4936 29.1309 50.0952 28.7324 50.0952 28.252C50.0952 27.7716 50.4936 27.3731 50.9741 27.3731H57.3605C57.8409 27.3731 58.2393 27.7716 58.2393 28.252C58.2393 28.7324 57.8409 29.1309 57.3605 29.1309Z" fill="#31C1DE"/>
</g>
</g>
<defs>
<clipPath id="clip0_212_1909">
<rect width="60" height="60" fill="white"/>
</clipPath>
</defs>
</svg>
