<svg width="60" height="60" viewBox="0 0 60 60" fill="none" xmlns="http://www.w3.org/2000/svg">
<g clip-path="url(#clip0_212_1694)">
<mask id="mask0_212_1694" style="mask-type:luminance" maskUnits="userSpaceOnUse" x="-10" y="-11" width="81" height="81">
<path d="M70.0044 69.9927H-9.99561V-10.0073H70.0044V69.9927Z" fill="white"/>
</mask>
<g mask="url(#mask0_212_1694)">
<path d="M6.57968 32.1814C6.35704 32.1814 6.13439 32.1345 5.92347 32.0525L1.13073 30.1659C0.216714 29.8026 -0.240295 28.7597 0.122968 27.834L6.13439 12.6003C6.31017 12.155 6.64999 11.8035 7.08357 11.616C7.52886 11.4285 8.0093 11.4168 8.45459 11.5926L13.2356 13.4792C13.6809 13.655 14.0324 13.9948 14.2199 14.4284C14.4074 14.8736 14.4191 15.3541 14.2434 15.7994L8.23195 31.033C8.05618 31.4783 7.71635 31.8299 7.28277 32.0173C7.06013 32.1345 6.81405 32.1814 6.57968 32.1814ZM1.76351 28.4902C1.7518 28.5019 1.76351 28.5253 1.78695 28.537L6.56797 30.4237C6.56797 30.4237 6.57968 30.4237 6.5914 30.4237C6.60312 30.412 6.61484 30.412 6.61484 30.4002L12.6263 15.1666C12.6263 15.1666 12.6263 15.1549 12.6263 15.1432C12.6263 15.1314 12.6145 15.1197 12.6028 15.1197L7.82181 13.2331C7.82181 13.2331 7.81009 13.2331 7.79837 13.2331C7.78666 13.2448 7.77494 13.2448 7.77494 13.2565L1.76351 28.4902Z" fill="#31C1DE"/>
<path d="M43.0552 37.5613C42.8677 37.5613 42.6802 37.5027 42.5162 37.3738L39.3874 34.9598C39.0007 34.6669 38.9304 34.1161 39.2234 33.7294C39.5163 33.3427 40.0671 33.2724 40.4538 33.5654L43.5942 35.991C43.9809 36.284 44.0512 36.8348 43.7466 37.2215C43.5825 37.4441 43.313 37.5613 43.0552 37.5613Z" fill="#31C1DE"/>
<path d="M38.8692 40.9294C38.6817 40.9294 38.4942 40.8709 38.3301 40.742L35.5529 38.5975C35.1662 38.3046 35.0959 37.7538 35.3889 37.3671C35.6818 36.9804 36.2326 36.9101 36.6193 37.2031L39.4082 39.3592C39.7949 39.6522 39.8652 40.2029 39.5606 40.5896C39.3965 40.8123 39.127 40.9294 38.8692 40.9294Z" fill="#31C1DE"/>
<path d="M34.2683 43.9971C34.0808 43.9971 33.8933 43.9385 33.7292 43.8096L31.7489 42.2745C31.3622 41.9815 31.2919 41.4308 31.5965 41.0441C31.8895 40.6574 32.4402 40.5871 32.8269 40.8918L34.8073 42.4268C35.194 42.7198 35.2643 43.2705 34.9596 43.6572C34.7956 43.8799 34.5261 43.9971 34.2683 43.9971Z" fill="#31C1DE"/>
<path d="M14.8756 39.5095C14.1139 39.5095 13.3991 39.24 12.8132 38.7478C12.1569 38.1971 11.7585 37.4237 11.6882 36.5683C11.6179 35.7128 11.8874 34.8926 12.4382 34.2363L14.6178 31.6818C15.1685 31.0256 15.9419 30.6389 16.7973 30.5686C17.6528 30.4982 18.473 30.7678 19.1293 31.3185C19.7855 31.8693 20.1839 32.6427 20.2542 33.4981C20.3245 34.3535 20.055 35.1738 19.5042 35.83L17.3247 38.3846C16.7739 39.0408 16.0005 39.4275 15.1451 39.4978C15.0513 39.5095 14.9576 39.5095 14.8756 39.5095ZM17.0551 32.3146C17.02 32.3146 16.9731 32.3146 16.938 32.3146C16.5513 32.3497 16.1997 32.5255 15.9536 32.8184L13.7741 35.373C13.528 35.666 13.4108 36.0409 13.4342 36.4276C13.4694 36.8143 13.6452 37.1659 13.9381 37.412C14.2311 37.658 14.606 37.7869 14.9927 37.7518C15.3794 37.7166 15.731 37.5409 15.9771 37.2479L18.1567 34.6934C18.4027 34.4004 18.5199 34.0254 18.4965 33.6387C18.4613 33.252 18.2856 32.9005 17.9926 32.6544C17.7231 32.4317 17.395 32.3146 17.0551 32.3146Z" fill="#31C1DE"/>
<path d="M18.4199 42.5146C17.6582 42.5146 16.9434 42.2451 16.3575 41.753C15.0099 40.6163 14.8341 38.5891 15.9825 37.2415L18.1621 34.6869C18.7129 34.0307 19.4863 33.644 20.3417 33.5737C21.1971 33.5034 22.0174 33.7729 22.6736 34.3236C23.3298 34.8744 23.7282 35.6478 23.7985 36.5032C23.8689 37.3587 23.5993 38.1789 23.0486 38.8351L20.869 41.3897C20.3182 42.0459 19.5448 42.4443 18.6894 42.5029C18.5957 42.5146 18.5019 42.5146 18.4199 42.5146ZM17.4942 40.4171C17.7871 40.6632 18.1621 40.7921 18.5488 40.7569C18.9355 40.7218 19.287 40.546 19.5331 40.253L21.7127 37.6985C21.9588 37.4055 22.076 37.0305 22.0525 36.6438C22.0174 36.2571 21.8416 35.9056 21.5487 35.6595C21.2557 35.4134 20.8807 35.2845 20.494 35.3197C20.1073 35.3548 19.7558 35.5306 19.5097 35.8236L17.3184 38.3781C16.8028 38.9875 16.8848 39.9015 17.4942 40.4171Z" fill="#31C1DE"/>
<path d="M21.9639 45.5198C21.2374 45.5198 20.4991 45.2737 19.8898 44.7581C18.5539 43.6214 18.3781 41.5942 19.5265 40.2466L21.7061 37.692C22.8428 36.3444 24.87 36.1804 26.2176 37.3171C26.8738 37.8678 27.2722 38.6412 27.3426 39.4966C27.4129 40.3521 27.1433 41.1723 26.5926 41.8285L24.413 44.3948C23.7802 45.1331 22.8779 45.5198 21.9639 45.5198ZM21.0382 43.4222C21.6358 43.9378 22.5498 43.8558 23.0654 43.2464L25.245 40.6919C25.4911 40.3989 25.6083 40.024 25.5848 39.6373C25.5497 39.2506 25.3739 38.899 25.0809 38.6529C24.4716 38.1373 23.5576 38.2076 23.042 38.817L20.8624 41.3833C20.3468 41.9926 20.4288 42.9066 21.0382 43.4222Z" fill="#31C1DE"/>
<path d="M25.5082 48.5249C24.7817 48.5249 24.0434 48.2788 23.4341 47.7632C22.7779 47.2125 22.3795 46.4391 22.3092 45.5836C22.2506 44.7282 22.5201 43.9079 23.0708 43.2517L25.2504 40.6972C25.8012 40.0409 26.5746 39.6542 27.43 39.5839C28.2854 39.5136 29.1057 39.7831 29.7619 40.3339C30.4181 40.8847 30.8165 41.6581 30.8869 42.5135C30.9572 43.3689 30.6876 44.1892 30.1369 44.8454L27.9573 47.4C27.3245 48.1382 26.4222 48.5249 25.5082 48.5249ZM27.6878 41.3299C27.6526 41.3299 27.6058 41.3299 27.5706 41.3299C27.1839 41.3651 26.8324 41.5409 26.5863 41.8338L24.4067 44.3884C24.1606 44.6813 24.0434 45.0563 24.0669 45.443C24.102 45.8297 24.2778 46.1813 24.5708 46.4273C25.1801 46.9429 26.0941 46.8609 26.6097 46.2516L28.7893 43.697C29.0354 43.4041 29.1526 43.0291 29.1291 42.6424C29.094 42.2557 28.9182 41.9041 28.6252 41.6581C28.3557 41.4471 28.0276 41.3299 27.6878 41.3299Z" fill="#31C1DE"/>
<path d="M32.1411 48.1589C31.3912 48.1589 30.6412 47.9246 29.9967 47.4558L28.0515 46.0262C27.8523 45.8856 27.7234 45.663 27.7 45.4169C27.6765 45.1708 27.7468 44.9364 27.8992 44.7489L28.778 43.7177C29.0241 43.4248 29.1413 43.0498 29.1179 42.6631C29.0827 42.2764 28.9069 41.9249 28.614 41.6788C28.0046 41.1632 27.0906 41.2335 26.575 41.8428C26.2586 42.2178 25.7079 42.253 25.3329 41.9483C25.1337 41.7725 25.0282 41.5264 25.0282 41.2804C25.0282 41.0812 25.0985 40.8819 25.2391 40.7179C25.4852 40.4249 25.6141 40.05 25.579 39.6633C25.5438 39.2766 25.368 38.925 25.0751 38.6789C24.4657 38.1633 23.5517 38.2336 23.0361 38.843C22.7197 39.218 22.169 39.2531 21.794 38.9484C21.5948 38.7727 21.4893 38.5266 21.4893 38.2805C21.4893 38.0813 21.5596 37.8821 21.7002 37.718C21.9463 37.4251 22.0752 37.0501 22.0401 36.6634C22.0049 36.2767 21.8291 35.9252 21.5362 35.6791C20.9268 35.1635 20.0128 35.2338 19.4972 35.8431C19.1808 36.2181 18.6301 36.2533 18.2551 35.9486C18.0559 35.7728 17.9504 35.5267 17.9504 35.2807C17.9504 35.0814 18.0207 34.8822 18.1614 34.7182C18.4074 34.4252 18.5363 34.0503 18.5012 33.6636C18.466 33.2768 18.2903 32.9253 17.9973 32.6792C17.7043 32.4331 17.3294 32.3042 16.9427 32.3394C16.556 32.3746 16.2044 32.5503 15.9583 32.8433L14.1186 35.0111C13.8256 35.351 13.31 35.4213 12.9468 35.1635L11.5406 34.1674L7.04081 31.3316C6.68926 31.109 6.53693 30.6637 6.68926 30.2653L12.4077 15.7816C12.4898 15.559 12.6655 15.3832 12.8882 15.2894C13.1108 15.1957 13.3569 15.1957 13.5678 15.2894L15.8998 16.2621C16.4739 16.5081 17.1067 16.6136 17.7278 16.5667C18.1496 16.5433 18.5949 16.5433 19.0988 16.5667L22.3213 16.7425C23.5869 16.8128 24.829 17.0706 26.0243 17.5159L26.3406 17.6331C26.6219 17.7385 26.8328 17.9846 26.8914 18.2776C26.95 18.5705 26.8562 18.8869 26.6336 19.0861C24.9813 20.6564 22.4385 22.8945 19.6964 24.6523C19.5558 24.746 19.4738 24.8866 19.4504 25.0507C19.4386 25.1444 19.4504 25.3202 19.6027 25.4725C21.876 27.6404 25.1337 25.6014 27.4656 23.5039C28.2741 22.7774 29.4928 22.8242 30.2428 23.5976C31.7076 25.121 34.8598 27.5701 39.547 26.7733C39.7697 26.7381 40.0158 26.785 40.2032 26.9256L40.836 27.3709L40.8477 27.3826L47.4802 32.3042C48.2654 32.8784 48.781 33.7573 48.9099 34.7182C49.0388 35.6674 48.7927 36.5931 48.2068 37.3313C47.3045 38.4797 45.8631 38.925 44.539 38.5735C44.4921 39.4055 44.1406 40.2257 43.5078 40.8585C42.6758 41.6905 41.4805 42.0186 40.3556 41.8077C40.3439 42.628 40.0509 43.4365 39.4884 44.081C38.5158 45.1825 36.969 45.5223 35.6214 45.0302C35.5394 45.7801 35.223 46.5067 34.6723 47.0926C33.9926 47.7957 33.0669 48.1589 32.1411 48.1589ZM29.8561 45.1591L31.0396 46.0262C31.7779 46.5653 32.7974 46.495 33.4067 45.8622C33.9926 45.2528 34.0512 44.3037 33.559 43.624C33.3012 43.2725 33.3481 42.792 33.6528 42.4873C33.9575 42.1827 34.4496 42.1475 34.7895 42.4053L35.7621 43.1201C36.512 43.6826 37.5784 43.5771 38.176 42.9092C38.7502 42.2647 38.7619 41.2686 38.1994 40.6124C37.9065 40.2726 37.9182 39.7687 38.2229 39.4406C38.5275 39.1125 39.0314 39.0656 39.383 39.3351L39.9337 39.7336C40.6485 40.2609 41.6563 40.2023 42.2656 39.6047C42.8984 38.9719 42.957 37.929 42.3711 37.2376C42.0899 36.8978 42.1016 36.3939 42.4063 36.0775C42.7109 35.7494 43.2148 35.7142 43.5664 35.972L44.3866 36.5814C45.16 37.1556 46.2264 37.0032 46.8123 36.2533C47.0935 35.89 47.2224 35.433 47.1521 34.9643C47.1053 34.4604 46.8357 34.0151 46.4256 33.7104L39.7697 28.8005L39.4416 28.5661C37.1331 28.8943 34.9066 28.5661 32.8325 27.6053C31.0279 26.7733 29.7155 25.6249 28.9421 24.8163C28.8601 24.7226 28.7077 24.7226 28.614 24.8163C25.8016 27.3475 23.5634 28.156 21.8526 28.156C20.2355 28.156 19.0871 27.4295 18.3723 26.7498C17.8684 26.2694 17.6106 25.5897 17.6809 24.8984C17.7512 24.1953 18.1262 23.5742 18.7238 23.1875C20.8097 21.8516 22.79 20.2111 24.3134 18.8401C23.622 18.6643 22.9189 18.5471 22.2041 18.5119L18.9816 18.3362C18.5481 18.3127 18.1731 18.3127 17.8215 18.3362C16.9309 18.3948 16.0287 18.2424 15.1967 17.8909L13.6967 17.2581L8.57589 30.2301L12.478 32.6909C12.4898 32.7027 12.5015 32.7027 12.5132 32.7144L13.2866 33.2534L14.6108 31.6949C15.1615 31.0387 15.9349 30.6403 16.7903 30.5817C17.6458 30.5114 18.466 30.7809 19.1222 31.3316C19.7785 31.8824 20.1769 32.6558 20.2472 33.5112C20.2472 33.5347 20.2472 33.5698 20.2589 33.5932C21.1026 33.4995 21.9815 33.7456 22.6729 34.3315C23.3291 34.8822 23.7275 35.6556 23.7978 36.5111C23.7978 36.5345 23.7978 36.5697 23.8095 36.5931C24.6532 36.4993 25.5321 36.7454 26.2235 37.3313C26.8797 37.8821 27.2781 38.6555 27.3484 39.5109C27.3484 39.5344 27.3484 39.5695 27.3601 39.5929C28.2038 39.4992 29.0827 39.7453 29.7741 40.3312C30.4303 40.8819 30.8287 41.6553 30.899 42.5108C30.9693 43.3662 30.6998 44.1865 30.1491 44.8427L29.8561 45.1591Z" fill="#31C1DE"/>
<path d="M47.5041 34.2932C47.3166 34.2932 47.1408 34.2346 46.9768 34.1174L39.4537 28.563C37.1452 28.8911 34.9188 28.5747 32.8329 27.6139C31.0283 26.7701 29.7276 25.6335 28.9425 24.8132C28.8605 24.7195 28.7081 24.7195 28.6144 24.8132C23.1186 29.7466 19.8375 28.1412 18.3727 26.7467C17.8688 26.2663 17.611 25.5866 17.6813 24.8835C17.7516 24.1804 18.1266 23.5594 18.7242 23.1727C22.1108 21.0048 25.2161 18.0401 26.7746 16.4699C27.7707 15.4621 29.212 14.9934 30.6182 15.216L33.9462 15.7433C34.4266 15.8136 34.7547 16.2707 34.6727 16.7511C34.6024 17.2315 34.1454 17.5597 33.6649 17.4776L30.3252 16.9503C29.4815 16.8214 28.6144 17.1026 28.005 17.712C26.3996 19.3408 23.1772 22.3993 19.6617 24.6609C19.5211 24.7546 19.4391 24.8952 19.4156 25.0593C19.4039 25.153 19.4156 25.3288 19.568 25.4811C21.8413 27.649 25.0989 25.61 27.4308 23.5125C28.2394 22.786 29.4581 22.8328 30.2081 23.6062C31.6728 25.1413 34.8367 27.5904 39.5357 26.7819C39.7701 26.7467 40.0162 26.7936 40.2037 26.9459L47.5392 32.3597L51.3125 29.9341L46.3088 17.2433L43.7191 18.1924C42.641 18.6026 41.4692 18.7198 40.3326 18.5323L37.7428 18.1221C37.2624 18.0518 36.9343 17.5948 37.0163 17.1144C37.0866 16.6339 37.5436 16.3175 38.0241 16.3878L40.6138 16.798C41.4458 16.9269 42.3129 16.8448 43.1098 16.5519L46.508 15.298C46.9533 15.134 47.4572 15.3566 47.633 15.8019L53.2108 29.9575C53.3632 30.3442 53.2226 30.7895 52.871 31.0238L47.9845 34.1526C47.8322 34.2463 47.6681 34.2932 47.5041 34.2932Z" fill="#31C1DE"/>
<path d="M53.4165 32.1846C53.1705 32.1846 52.9361 32.1377 52.7017 32.0322C52.2564 31.8447 51.9283 31.4932 51.7526 31.0479L45.7411 15.8143C45.3779 14.8885 45.8349 13.8456 46.7489 13.4824L51.5299 11.5957C51.9752 11.42 52.4674 11.4317 52.9009 11.6192C53.3462 11.8067 53.6743 12.1582 53.8501 12.6035L56.182 18.4743C56.3578 18.9313 56.1352 19.4469 55.6899 19.6227C55.2329 19.7985 54.7173 19.5758 54.5415 19.1305L52.2213 13.2597C52.2213 13.2597 52.2213 13.248 52.1978 13.2363C52.1861 13.2246 52.1744 13.2363 52.1744 13.2363L47.3934 15.1229C47.37 15.1346 47.37 15.1463 47.37 15.1698L53.3814 30.4034C53.3814 30.4034 53.3814 30.4151 53.4048 30.4268C53.4165 30.4386 53.4283 30.4268 53.4283 30.4268L58.221 28.5285C58.221 28.5285 58.2327 28.5285 58.2444 28.5051C58.2561 28.4933 58.2444 28.4816 58.2444 28.4816L56.0531 22.9506C55.8774 22.4936 56.1 21.9898 56.5453 21.814C57.0023 21.6382 57.5062 21.8609 57.682 22.3061L59.8615 27.8488C60.0373 28.2941 60.0256 28.7863 59.8381 29.2199C59.6506 29.6652 59.2991 29.9933 58.8538 30.169L54.0728 32.0557C53.8618 32.1377 53.6392 32.1846 53.4165 32.1846Z" fill="#31C1DE"/>
</g>
</g>
<defs>
<clipPath id="clip0_212_1694">
<rect width="60" height="60" fill="white"/>
</clipPath>
</defs>
</svg>
