<svg width="60" height="60" viewBox="0 0 60 60" fill="none" xmlns="http://www.w3.org/2000/svg">
<g clip-path="url(#clip0_212_1947)">
<mask id="mask0_212_1947" style="mask-type:luminance" maskUnits="userSpaceOnUse" x="-10" y="-11" width="81" height="81">
<path d="M70.0044 69.9927H-9.99561V-10.0073H70.0044V69.9927Z" fill="white"/>
</mask>
<g mask="url(#mask0_212_1947)">
<path d="M18.8858 27.7168C16.6594 27.7168 14.6204 26.8848 13.1439 25.3732C11.7378 23.9318 10.9644 22.0218 10.9644 19.9945V14.4284C10.9644 14.0065 11.1401 13.6081 11.4448 13.3152C11.7495 13.0339 12.1713 12.8816 12.5815 12.9167C15.7688 13.1511 19.2374 12.2136 22.0732 10.3622C22.6943 9.96376 23.5028 10.0575 24.0067 10.5965C24.4754 11.1004 24.8621 11.5106 25.1551 11.8269C25.7878 12.5066 26.0808 12.8113 26.2566 13.0339C26.5378 13.3972 26.5964 13.655 26.5964 13.9597V19.9828C26.6081 24.2482 23.1395 27.7168 18.8858 27.7168ZM12.7221 14.6862V19.9945C12.7221 22.9241 15.0306 25.9591 18.8858 25.9591C22.1787 25.9591 24.8504 23.2873 24.8504 19.9945V14.0768C24.7098 13.9011 24.37 13.5378 23.8895 13.0339C23.62 12.741 23.2802 12.3894 22.87 11.9441C19.8233 13.8776 16.1555 14.8737 12.7221 14.6862Z" fill="#31C1DE"/>
<path d="M18.8733 34.5786C18.6038 34.5786 18.3577 34.4614 18.1936 34.2505L14.3032 29.4461C14.1743 29.2937 14.104 29.0945 14.104 28.8953V25.7314C14.104 25.415 14.2798 25.1103 14.561 24.958C14.8422 24.8057 15.1821 24.8174 15.4516 24.9931C16.4594 25.6376 17.6077 25.954 18.885 25.954C20.092 25.954 21.2638 25.5908 22.2599 24.8994C22.5294 24.7119 22.8809 24.6885 23.1622 24.8408C23.4551 24.9931 23.6309 25.2978 23.6309 25.6142V28.8836C23.6309 29.0828 23.5606 29.282 23.4317 29.4343L19.5412 34.2388C19.3889 34.4497 19.1311 34.5786 18.8733 34.5786ZM15.85 28.5789L18.8616 32.2936L21.8732 28.5789V27.1024C20.9357 27.5008 19.9279 27.7118 18.885 27.7118C17.8187 27.7118 16.7992 27.5243 15.85 27.1493V28.5789Z" fill="#31C1DE"/>
<path d="M26.2092 21.0737C26.01 21.0737 25.7991 21.062 25.5882 21.0269C25.1546 20.9565 24.8265 20.5816 24.8382 20.1363V20.066C24.8382 20.0425 24.8382 20.0191 24.8382 19.9957V14.8865C24.8382 14.453 25.1546 14.078 25.5882 14.0194C26.7131 13.8553 27.7795 14.1483 28.588 14.8514C29.3614 15.5193 29.8067 16.4919 29.8067 17.5231C29.8067 18.5543 29.3614 19.5269 28.5763 20.1949C27.9318 20.7691 27.0998 21.0737 26.2092 21.0737ZM26.6076 15.7654V19.2691C26.924 19.2105 27.2053 19.0699 27.4513 18.859C27.838 18.5192 28.0724 18.0387 28.0724 17.5114C28.0724 16.9958 27.8498 16.5036 27.4631 16.1638C27.217 15.9763 26.924 15.8357 26.6076 15.7654Z" fill="#31C1DE"/>
<path d="M11.3631 21.0674C10.4725 21.0674 9.64053 20.7627 8.9726 20.2002C8.18748 19.5323 7.74219 18.5597 7.74219 17.5285C7.74219 16.5442 8.16404 15.6301 8.94916 14.9505C9.78115 14.224 10.9061 13.8724 11.9607 14.013C12.3943 14.0716 12.7224 14.4466 12.7224 14.8802V19.9893C12.7224 20.0127 12.7224 20.0479 12.7224 20.0713V20.1416C12.7341 20.5869 12.4177 20.9619 11.9724 21.0322C11.7732 21.0557 11.5623 21.0674 11.3631 21.0674ZM10.9647 15.8176C10.66 15.8997 10.3553 16.052 10.1093 16.2746C9.72256 16.6145 9.49991 17.0598 9.49991 17.5285C9.49991 18.0441 9.72256 18.5363 10.121 18.8761C10.3671 19.087 10.6483 19.2159 10.9647 19.2862V15.8176Z" fill="#31C1DE"/>
<path d="M9.47017 16.5371C9.35299 16.5371 9.23581 16.5137 9.11863 16.4668C8.80224 16.3262 8.59131 16.0098 8.59131 15.6582V12.2131C8.59131 6.58838 13.1614 2.01829 18.7861 2.01829C24.4108 2.01829 28.9809 6.58838 28.9809 12.2131V15.5645C28.9809 15.916 28.77 16.2324 28.4536 16.3731C28.1372 16.5137 27.7622 16.4434 27.5044 16.209C27.0826 15.8106 26.4967 15.6465 25.8639 15.7403C25.6061 15.7754 25.3483 15.7051 25.1608 15.5411C24.9616 15.377 24.8561 15.1309 24.8561 14.8731V14.0646C24.7155 13.8888 24.3757 13.5255 23.8952 13.0217C23.6257 12.7287 23.2859 12.3772 22.8758 11.9319C19.829 13.8654 16.1613 14.8614 12.7278 14.6739V14.8731C12.7278 15.1309 12.6224 15.3653 12.4232 15.5293C12.2357 15.6934 11.9779 15.7754 11.7318 15.7403C11.1576 15.6582 10.5248 15.8692 10.0678 16.291C9.90374 16.4668 9.69282 16.5371 9.47017 16.5371ZM18.7861 3.78773C14.134 3.78773 10.349 7.5727 10.349 12.2248V14.1583C10.5717 14.088 10.7943 14.0411 11.017 14.006C11.0873 13.7365 11.2396 13.4904 11.4505 13.3029C11.7552 13.0217 12.1771 12.8693 12.5872 12.9045C15.7863 13.1388 19.2431 12.2014 22.0789 10.3499C22.7 9.95149 23.5085 10.0452 24.0124 10.5843C24.4812 11.0882 24.8679 11.4983 25.1725 11.8147C25.8053 12.4943 26.0983 12.799 26.274 13.0217C26.5553 13.3849 26.6139 13.6427 26.6139 13.9474V13.9708C26.8248 13.9943 27.024 14.0294 27.2232 14.088V12.2014C27.2232 7.5727 23.4382 3.78773 18.7861 3.78773Z" fill="#31C1DE"/>
<path d="M30.3847 57.8501C29.9043 57.8501 29.5059 57.4517 29.5059 56.9712V40.1674C29.5059 39.6869 29.9043 39.2885 30.3847 39.2885C30.8652 39.2885 31.2636 39.6869 31.2636 40.1674V56.9712C31.2636 57.4517 30.8652 57.8501 30.3847 57.8501Z" fill="#31C1DE"/>
<path d="M7.36275 57.8501C6.8823 57.8501 6.48389 57.4517 6.48389 56.9712V40.1674C6.48389 39.6869 6.8823 39.2885 7.36275 39.2885C7.8432 39.2885 8.24161 39.6869 8.24161 40.1674V56.9712C8.24161 57.4517 7.8432 57.8501 7.36275 57.8501Z" fill="#31C1DE"/>
<path d="M23.0174 37.3833C22.7128 37.3833 22.4081 37.2896 22.1503 37.1021L18.3536 34.4069C18.1544 34.2663 18.0255 34.0553 17.9903 33.8093C17.9552 33.5632 18.0255 33.3288 18.1778 33.1413L22.0683 28.3369C22.3144 28.0439 22.7128 27.9384 23.0643 28.0673L26.779 29.5087C27.0133 29.6024 27.1891 29.7782 27.2829 30.0126C27.3766 30.2469 27.3649 30.5047 27.2477 30.7274L24.3533 36.5513C24.1541 36.9497 23.8026 37.231 23.3807 37.3364C23.2635 37.3716 23.1346 37.3833 23.0174 37.3833ZM20.1465 33.5163L22.9237 35.4967L25.2673 30.7977L23.0409 29.9423L20.1465 33.5163Z" fill="#31C1DE"/>
<path d="M14.7245 37.3833C14.6073 37.3833 14.4784 37.3716 14.3613 37.3364C13.9394 37.231 13.5879 36.9497 13.3886 36.5513L10.4825 30.7157C10.3771 30.493 10.3654 30.2352 10.4474 30.0008C10.5411 29.7665 10.7169 29.5907 10.9513 29.497L14.6659 28.0674C15.0175 27.9267 15.4276 28.0322 15.662 28.3369L19.5524 33.1413C19.7047 33.3288 19.7751 33.5749 19.7399 33.8093C19.7047 34.0436 19.5758 34.2663 19.3766 34.4069L15.5917 37.1021C15.3339 37.2896 15.0292 37.3833 14.7245 37.3833ZM12.4746 30.7977L14.8183 35.4967L17.5955 33.528L14.7011 29.9423L12.4746 30.7977Z" fill="#31C1DE"/>
<path d="M20.3267 38.5034H17.4089C17.1159 38.5034 16.8347 38.3511 16.6824 38.1167L15.3816 36.1481C15.1238 35.7496 15.2176 35.2223 15.6043 34.9411L18.3229 33.0076C18.3698 32.9724 18.4166 32.9373 18.4635 32.9138C18.6159 32.8318 18.7799 32.8084 18.9557 32.8201C19.0729 32.8318 19.1783 32.867 19.2838 32.9138C19.3307 32.9373 19.3775 32.9724 19.4244 33.0076L22.143 34.9411C22.5297 35.2106 22.6235 35.7496 22.3657 36.1481L21.065 38.105C20.9009 38.3511 20.6197 38.5034 20.3267 38.5034ZM17.8893 36.7457H19.858L20.4322 35.8785L18.8737 34.777L17.3151 35.8785L17.8893 36.7457Z" fill="#31C1DE"/>
<path d="M18.8664 57.9609C18.7609 57.9609 18.6554 57.9375 18.55 57.9023C18.3976 57.8438 18.2687 57.75 18.175 57.6211L14.4134 53.4846C14.1205 53.1682 13.9799 52.7112 14.0385 52.2659C14.0385 52.2542 14.0385 52.2425 14.0385 52.2425L16.5344 37.4776C16.6047 37.0557 16.968 36.751 17.4016 36.751H20.3194C20.753 36.751 21.1162 37.0557 21.1866 37.4776L23.6942 52.2307C23.6942 52.2425 23.6942 52.2542 23.6942 52.2542C23.7646 52.7112 23.6239 53.1682 23.331 53.4846L19.5577 57.6445C19.464 57.7617 19.3468 57.8555 19.1945 57.9023C19.1359 57.9258 19.0773 57.9375 19.0187 57.9492C18.9718 57.9609 18.9132 57.9609 18.8664 57.9609ZM15.8079 52.4065L18.8664 55.7814L21.9365 52.4065L19.5812 38.5088H18.1515L15.8079 52.4065Z" fill="#31C1DE"/>
<path d="M57.6184 8.38135H33.9594C32.6469 8.38135 31.5806 7.31499 31.5806 6.00256V4.40889C31.5806 3.09645 32.6469 2.0301 33.9594 2.0301H57.6184C58.9308 2.0301 59.9971 3.09645 59.9971 4.40889V6.00256C59.9971 7.31499 58.9308 8.38135 57.6184 8.38135ZM33.9594 3.78782C33.6195 3.78782 33.3383 4.06906 33.3383 4.40889V6.00256C33.3383 6.34238 33.6195 6.62362 33.9594 6.62362H57.6184C57.9582 6.62362 58.2394 6.34238 58.2394 6.00256V4.40889C58.2394 4.06906 57.9582 3.78782 57.6184 3.78782H33.9594Z" fill="#31C1DE"/>
<path d="M57.6184 28.2358H33.9594C32.6469 28.2358 31.5806 27.1695 31.5806 25.857V24.2634C31.5806 22.9509 32.6469 21.8846 33.9594 21.8846H57.6184C58.9308 21.8846 59.9971 22.9509 59.9971 24.2634V25.857C59.9971 27.1695 58.9308 28.2358 57.6184 28.2358ZM33.9594 23.6423C33.6195 23.6423 33.3383 23.9236 33.3383 24.2634V25.857C33.3383 26.1969 33.6195 26.4781 33.9594 26.4781H57.6184C57.9582 26.4781 58.2394 26.1969 58.2394 25.857V24.2634C58.2394 23.9236 57.9582 23.6423 57.6184 23.6423H33.9594Z" fill="#31C1DE"/>
<path d="M45.7884 8.38135H33.953C32.6406 8.38135 31.5742 7.31499 31.5742 6.00256V4.40889C31.5742 3.09645 32.6406 2.0301 33.953 2.0301H45.7884C46.2688 2.0301 46.6672 2.42851 46.6672 2.90896V7.50248C46.6672 7.99465 46.2688 8.38135 45.7884 8.38135ZM33.953 3.78782C33.6132 3.78782 33.3319 4.06906 33.3319 4.40889V6.00256C33.3319 6.34238 33.6132 6.62362 33.953 6.62362H44.9095V3.78782H33.953Z" fill="#31C1DE"/>
<path d="M52.1352 18.3101C51.6548 18.3101 51.2564 17.9116 51.2564 17.4312V13.7165H33.9603C33.6205 13.7165 33.3393 13.9978 33.3393 14.3376V15.9313C33.3393 16.2711 33.6205 16.5523 33.9603 16.5523C34.4408 16.5523 34.8392 16.9508 34.8392 17.4312C34.8392 17.9116 34.4408 18.3101 33.9603 18.3101C32.6479 18.3101 31.5815 17.2437 31.5815 15.9313V14.3376C31.5815 13.0252 32.6479 11.9588 33.9603 11.9588H52.1352C52.6157 11.9588 53.0141 12.3572 53.0141 12.8377V17.4312C53.0141 17.9116 52.6157 18.3101 52.1352 18.3101Z" fill="#31C1DE"/>
<path d="M45.7884 28.2358H33.953C32.6406 28.2358 31.5742 27.1695 31.5742 25.857V24.2634C31.5742 22.9509 32.6406 21.8846 33.953 21.8846H45.7884C46.2688 21.8846 46.6672 22.283 46.6672 22.7635V27.357C46.6672 27.8491 46.2688 28.2358 45.7884 28.2358ZM33.953 23.6423C33.6132 23.6423 33.3319 23.9236 33.3319 24.2634V25.857C33.3319 26.1969 33.6132 26.4781 33.953 26.4781H44.9095V23.6423H33.953Z" fill="#31C1DE"/>
<path d="M57.6237 18.3101H47.839C47.3586 18.3101 46.9602 17.9116 46.9602 17.4312C46.9602 16.9508 47.3586 16.5523 47.839 16.5523H57.6237C57.9636 16.5523 58.2448 16.2711 58.2448 15.9313V14.3376C58.2448 13.9978 57.9636 13.7165 57.6237 13.7165H33.9647C33.6249 13.7165 33.3437 13.9978 33.3437 14.3376V15.9313C33.3437 16.2711 33.6249 16.5523 33.9647 16.5523H43.7377C44.2181 16.5523 44.6166 16.9508 44.6166 17.4312C44.6166 17.9116 44.2181 18.3101 43.7377 18.3101H33.953C32.6406 18.3101 31.5742 17.2437 31.5742 15.9313V14.3376C31.5742 13.0252 32.6406 11.9588 33.953 11.9588H57.6237C58.9362 11.9588 60.0025 13.0252 60.0025 14.3376V15.9313C59.9908 17.2437 58.9244 18.3101 57.6237 18.3101Z" fill="#31C1DE"/>
<path d="M35.6013 57.9624H2.15761C0.974073 57.9624 0.0131836 57.0015 0.0131836 55.818V38.7915C0.0131836 33.9167 4.18486 32.1473 4.37235 32.077C4.37235 32.077 4.38406 32.077 4.38406 32.0652L14.6726 28.0811C15.0242 27.9404 15.4343 28.0459 15.6687 28.3506L18.8794 32.3113L22.0902 28.3506C22.3363 28.0576 22.7347 27.9522 23.0863 28.0811L33.3866 32.0652C33.3866 32.0652 33.3983 32.0652 33.3983 32.077C33.574 32.1473 37.7574 33.9284 37.7574 38.7915V44.0529C37.7574 44.5334 37.359 44.9318 36.8786 44.9318C36.3981 44.9318 35.988 44.5334 35.988 44.0529V38.7915C35.988 35.1705 32.9413 33.7878 32.7303 33.6941L23.0394 29.9442L19.5474 34.2565C19.3833 34.4675 19.1255 34.5846 18.8677 34.5846C18.6099 34.5846 18.3521 34.4675 18.1881 34.2565L14.6961 29.9442L5.01685 33.6941C4.82936 33.7761 1.75919 35.1471 1.75919 38.7915V55.8297C1.75919 56.0406 1.93497 56.2164 2.14589 56.2164H35.5896C35.8005 56.2164 35.9763 56.0406 35.9763 55.8297V48.1543C35.9763 47.6738 36.3747 47.2754 36.8551 47.2754C37.3356 47.2754 37.734 47.6738 37.734 48.1543V55.818C37.7457 57.0015 36.7848 57.9624 35.6013 57.9624Z" fill="#31C1DE"/>
</g>
</g>
<defs>
<clipPath id="clip0_212_1947">
<rect width="60" height="60" fill="white"/>
</clipPath>
</defs>
</svg>
