<svg width="60" height="60" viewBox="0 0 60 60" fill="none" xmlns="http://www.w3.org/2000/svg">
<path d="M35.5429 48.8671C35.2968 48.8671 35.0273 48.832 34.7461 48.7617C32.8359 48.2929 28.2773 47.1914 28.2304 47.1914C27.7617 47.0742 27.4687 46.6054 27.5859 46.1367C27.7031 45.6679 28.1718 45.375 28.6406 45.4921C28.6875 45.5039 33.2461 46.6054 35.1562 47.0742C36.1406 47.3203 36.5039 46.5703 36.6093 46.2304C36.75 45.7617 37.2304 45.5039 37.6992 45.6445C38.1679 45.7851 38.4257 46.2773 38.2968 46.7461C38.0273 47.6718 37.0898 48.8671 35.5429 48.8671Z" fill="#31C1DE"/>
<path d="M35.5429 48.8671C35.2968 48.8671 35.0273 48.832 34.7461 48.7617C32.8359 48.2929 28.2773 47.1914 28.2304 47.1914C27.7617 47.0742 27.4687 46.6054 27.5859 46.1367C27.7031 45.6679 28.1718 45.375 28.6406 45.4921C28.6875 45.5039 33.2461 46.6054 35.1562 47.0742C36.1406 47.3203 36.5039 46.5703 36.6093 46.2304C36.75 45.7617 37.2304 45.5039 37.6992 45.6445C38.1679 45.7851 38.4257 46.2773 38.2968 46.7461C38.0273 47.6718 37.0898 48.8671 35.5429 48.8671Z" fill="#31C1DE"/>
<path d="M13.9687 59.9998C13.0546 59.9998 12.1757 59.4725 11.7656 58.5936L6.38665 46.8514C5.83587 45.6443 6.36321 44.2029 7.57024 43.6521L10.2773 42.41C10.8515 42.1521 11.4843 42.1287 12.082 42.3396C12.6679 42.5623 13.1367 42.9959 13.4062 43.5701L18.8437 55.4178C19.3827 56.6014 18.8671 57.9959 17.6835 58.535L14.9765 59.7771C14.6484 59.9295 14.3085 59.9998 13.9687 59.9998ZM11.2617 43.9568C11.1796 43.9568 11.0976 43.9803 11.0156 44.0154L8.30853 45.2576C7.9804 45.41 7.83978 45.7967 7.9804 46.1248L13.3593 57.8553C13.5117 58.1834 13.8984 58.324 14.2265 58.1834L16.9335 56.9412C17.2265 56.8006 17.3671 56.449 17.2265 56.1561L11.789 44.3084C11.7187 44.1678 11.6015 44.0506 11.4609 44.0037C11.4023 43.9686 11.332 43.9568 11.2617 43.9568Z" fill="#31C1DE"/>
<path d="M31.5585 14.5427C31.4882 14.5427 31.4179 14.5309 31.3475 14.5192C31.3007 14.5075 26.7421 13.4059 24.8319 12.9372C23.8475 12.6911 23.4843 13.4411 23.3788 13.7809C23.2382 14.2497 22.7577 14.5075 22.2889 14.3669C21.8202 14.2263 21.5624 13.7341 21.6913 13.2653C22.0077 12.1755 23.2264 10.7341 25.2421 11.2263C27.1522 11.695 31.7108 12.7966 31.7577 12.7966C32.2264 12.9138 32.5194 13.3825 32.4022 13.8513C32.3085 14.2614 31.9569 14.5427 31.5585 14.5427Z" fill="#31C1DE"/>
<path d="M31.5585 14.5427C31.4882 14.5427 31.4179 14.5309 31.3475 14.5192C31.3007 14.5075 26.7421 13.4059 24.8319 12.9372C23.8475 12.6911 23.4843 13.4411 23.3788 13.7809C23.2382 14.2497 22.7577 14.5075 22.2889 14.3669C21.8202 14.2263 21.5624 13.7341 21.6913 13.2653C22.0077 12.1755 23.2264 10.7341 25.2421 11.2263C27.1522 11.695 31.7108 12.7966 31.7577 12.7966C32.2264 12.9138 32.5194 13.3825 32.4022 13.8513C32.3085 14.2614 31.9569 14.5427 31.5585 14.5427Z" fill="#31C1DE"/>
<path d="M32.9531 20.6133C32.9413 20.6133 32.9296 20.6133 32.9179 20.6133C31.4062 20.5899 30.5507 20.2383 26.5429 18.6211C25.7577 18.3047 24.8437 17.9415 23.7773 17.5079C22.207 16.8868 21.6562 15.7383 21.5507 14.7188L11.6015 17.6719C9.36321 18.5391 7.40618 17.918 6.51556 16.0313C6.51556 16.0196 6.50384 16.0196 6.50384 16.0079C5.40227 13.5118 7.28899 11.7305 8.56634 11.0626C8.57806 11.0508 8.60149 11.0508 8.61321 11.0391L16.7929 7.41802C19.9335 6.03521 22.8398 4.74615 23.121 4.61724C25.6054 3.35162 28.0312 3.94927 28.957 4.26568C28.9687 4.26568 28.9804 4.2774 28.9921 4.2774L33.1523 5.94146C34.8398 6.60943 37.0663 6.58599 39.2812 5.87115L42.2812 4.73443C42.7148 4.57037 43.1952 4.76958 43.3945 5.19146L47.9179 15.0469C48.0234 15.2696 48.0234 15.5274 47.9296 15.7501C47.8359 15.9727 47.6484 16.1485 47.414 16.2305C46.7929 16.4532 46.207 16.7579 45.6679 17.1329C44.4492 17.9883 43.1484 18.7266 41.8007 19.336C39.0937 20.5547 38.0507 20.6016 32.9531 20.6133ZM23.3788 13.8047C23.3788 13.8047 23.2499 14.2266 23.332 14.6836C23.4257 15.2344 23.789 15.6329 24.4335 15.8907C25.4999 16.3126 26.414 16.6876 27.1992 17.004C31.0663 18.5626 31.7695 18.8438 32.9648 18.8672C37.9921 18.8555 38.7304 18.8086 41.0507 17.7657C42.2929 17.2032 43.4999 16.5235 44.6249 15.7266C45.0351 15.4336 45.4687 15.1876 45.914 14.9766L42.1171 6.69146L39.8671 7.54693C39.8554 7.54693 39.8437 7.55865 39.832 7.55865C37.1952 8.41412 34.5937 8.42584 32.496 7.5938L28.3593 5.94146C27.6327 5.69537 25.7812 5.23834 23.8945 6.21099C23.871 6.22271 23.8593 6.23443 23.8359 6.23443C23.7421 6.26959 20.7421 7.60552 17.496 9.03521L9.33977 12.6446C8.96477 12.8438 7.42962 13.7579 8.09759 15.293C8.7304 16.5821 9.99602 16.4063 10.957 16.0313L11.0038 16.0196C11.0273 16.0079 11.039 16.0079 11.0624 15.9961L22.289 12.6797C22.6054 12.586 22.9452 12.6797 23.1679 12.9141C23.3906 13.1485 23.4843 13.4883 23.3788 13.8047Z" fill="#31C1DE"/>
<path d="M48.738 17.8007C48.4568 17.8007 48.1872 17.7538 47.9177 17.6484C47.3318 17.4257 46.863 16.9921 46.5935 16.4179L41.156 4.58196C40.6169 3.39837 41.1325 2.00384 42.3161 1.46478L45.0232 0.222588C46.2302 -0.328193 47.6716 0.199151 48.2224 1.40618L53.6013 13.1367C54.1521 14.3437 53.6247 15.7851 52.4177 16.3359L49.7107 17.5781C49.406 17.7304 49.0661 17.8007 48.738 17.8007ZM46.031 1.75774C45.9372 1.75774 45.8435 1.78118 45.7614 1.81634L43.0544 3.05853C42.7614 3.19915 42.6208 3.55071 42.7614 3.84368L48.1989 15.6913C48.2693 15.832 48.3864 15.9492 48.5271 15.996C48.6794 16.0546 48.8318 16.0429 48.9841 15.9843L51.6911 14.7421C52.0193 14.5898 52.1599 14.2031 52.0193 13.8749L46.6286 2.14446C46.5232 1.89837 46.2771 1.75774 46.031 1.75774Z" fill="#31C1DE"/>
<path d="M30.0232 35.8008C27.41 35.8008 26.2146 33.9023 26.156 33.8203C25.8982 33.4102 26.0271 32.8711 26.449 32.6133C26.8709 32.3555 27.3982 32.4844 27.656 32.9062C27.6795 32.9414 28.4178 34.0547 30.0232 34.0547C31.6287 34.0547 32.2146 33.1641 32.2146 32.5547C32.2146 31.9336 32.0857 31.2891 30.5857 30.8906C28.031 30.2109 26.5545 28.9453 26.5545 27.4102C26.5545 25.6641 28.2068 24.1992 30.1639 24.1992C32.0975 24.1992 33.492 25.6289 33.5506 25.6875C33.8904 26.0391 33.8787 26.5898 33.5271 26.9297C33.1756 27.2695 32.6248 27.2578 32.285 26.9063C32.2615 26.8828 31.324 25.957 30.1639 25.957C29.074 25.957 28.3123 26.7305 28.3123 27.4102C28.3123 27.9375 29.2498 28.7227 31.031 29.1914C33.0115 29.707 33.9725 30.8086 33.9725 32.5547C33.9725 34.125 32.5896 35.8008 30.0232 35.8008Z" fill="#31C1DE"/>
<path d="M30 25.4531C29.5195 25.4531 29.1211 25.0547 29.1211 24.5742V23.25C29.1211 22.7695 29.5195 22.3711 30 22.3711C30.4805 22.3711 30.8789 22.7695 30.8789 23.25V24.5742C30.8789 25.0547 30.4805 25.4531 30 25.4531Z" fill="#31C1DE"/>
<path d="M30 37.6289C29.5195 37.6289 29.1211 37.2305 29.1211 36.75V35.4258C29.1211 34.9453 29.5195 34.5469 30 34.5469C30.4805 34.5469 30.8789 34.9453 30.8789 35.4258V36.75C30.8789 37.2422 30.4805 37.6289 30 37.6289Z" fill="#31C1DE"/>
<path d="M33.6212 56.1445C32.4844 56.1445 31.5469 55.8867 31.0548 55.7227C31.043 55.7227 31.0313 55.7109 31.0196 55.7109L26.8594 54.0469C25.1719 53.3789 22.9454 53.4023 20.7305 54.1172L17.7305 55.2539C17.2969 55.418 16.8165 55.2188 16.6173 54.7969L12.0938 44.9414C11.9883 44.7187 11.9883 44.4609 12.0821 44.2383C12.1758 44.0156 12.3633 43.8398 12.5977 43.7578C13.2188 43.5352 13.8048 43.2305 14.3438 42.8555C15.5626 42 16.8633 41.2617 18.211 40.6523C20.8946 39.457 21.9376 39.4102 27.0352 39.3984C27.0469 39.3984 27.0587 39.3984 27.0704 39.3984C28.5821 39.4219 29.4376 39.7734 33.4454 41.3906C34.2305 41.707 35.1446 42.0703 36.211 42.5039C37.7813 43.125 38.3321 44.2734 38.4376 45.293L48.3868 42.3516C50.6251 41.4844 52.5821 42.1055 53.4727 43.9922C53.4727 44.0039 53.4844 44.0039 53.4844 44.0156C54.586 46.5117 52.6993 48.3047 51.4219 48.9609C51.4102 48.9727 51.3868 48.9727 51.3751 48.9844L45.6915 51.4922C45.2462 51.6914 44.7305 51.4922 44.5313 51.0469C44.3321 50.6016 44.5313 50.0859 44.9766 49.8867L50.6251 47.3906C51.0001 47.1914 52.5352 46.2773 51.8673 44.7422C51.2344 43.4531 49.9688 43.6289 49.0079 44.0039L48.961 44.0156C48.9376 44.0273 48.9258 44.0273 48.9024 44.0391L37.6758 47.3555C37.3594 47.4492 37.0196 47.3555 36.7969 47.1211C36.5743 46.8867 36.4923 46.5352 36.5977 46.2305C36.5977 46.2305 36.7266 45.8086 36.6446 45.3516C36.5508 44.8008 36.1876 44.4023 35.543 44.1445C34.4766 43.7227 33.5626 43.3477 32.7774 43.0313C28.9102 41.4727 28.2071 41.1914 27.0118 41.168C21.9844 41.1797 21.2462 41.2266 18.9258 42.2695C17.6837 42.832 16.4766 43.5117 15.3516 44.3086C14.9415 44.6016 14.5079 44.8477 14.0626 45.0586L17.8594 53.3438L20.1094 52.4883C20.1212 52.4883 20.1329 52.4766 20.1446 52.4766C22.7813 51.6211 25.3829 51.6094 27.4805 52.4414L31.6173 54.0938C32.3438 54.3398 34.1954 54.7969 36.0821 53.8242C36.1055 53.8125 36.1173 53.8008 36.1407 53.8008L41.2266 51.5508C41.6719 51.3516 42.1876 51.5508 42.3868 51.9961C42.586 52.4414 42.3868 52.957 41.9415 53.1562L36.8673 55.4062C35.7305 55.957 34.5938 56.1445 33.6212 56.1445Z" fill="#31C1DE"/>
<path d="M31.7578 42.5153C31.6406 42.5153 31.5352 42.4919 31.4297 42.4567C28.6641 41.3552 28.043 41.1677 27.0469 41.1442C26.0625 41.1442 25.1016 41.156 24.3164 41.1677C24.1641 41.1677 24.0117 41.1325 23.8711 41.0622C19.8633 38.8356 17.3672 34.5935 17.3672 30.0114C17.3672 26.9645 18.4688 24.0231 20.4609 21.7263C22.4414 19.4528 25.1602 17.9528 28.125 17.5075C28.2773 17.4841 28.4414 17.5075 28.582 17.5661C31.3477 18.6794 31.9688 18.8552 32.9766 18.8786C33.9609 18.8786 34.9219 18.8669 35.707 18.8552C35.8711 18.8552 36.0117 18.8903 36.1523 18.9606C39.4922 20.8239 41.7891 24.0349 42.457 27.7849C42.5391 28.2653 42.2227 28.7224 41.7422 28.8044C41.2617 28.8864 40.8047 28.57 40.7227 28.0895C40.1602 24.9372 38.2617 22.2302 35.4961 20.613C34.7461 20.6247 33.8672 20.6247 32.9648 20.6364C32.9531 20.6364 32.9414 20.6364 32.9297 20.6364C31.6289 20.613 30.7734 20.3435 28.1484 19.2888C22.9805 20.1794 19.125 24.7497 19.125 30.0114C19.125 33.8786 21.1875 37.4645 24.5273 39.4099C25.2773 39.3981 26.1562 39.3981 27.0586 39.3864H27.0703C28.3828 39.4099 29.2383 39.6794 31.8633 40.7341C36.3984 39.9606 39.9375 36.4216 40.7344 31.8747C40.8164 31.3942 41.2734 31.0778 41.7539 31.1599C42.2344 31.2419 42.5508 31.6989 42.4688 32.1794C41.543 37.5466 37.2891 41.7067 31.8984 42.5153C31.8398 42.5036 31.8047 42.5153 31.7578 42.5153Z" fill="#31C1DE"/>
</svg>
