<svg width="80" height="80" viewBox="0 0 80 80" fill="none" xmlns="http://www.w3.org/2000/svg">
<path d="M40 12.8125C22.2584 12.8125 7.82452 27.2463 7.82452 44.988C7.82452 47.7045 8.1639 50.4039 8.83312 53.0111C8.99406 53.638 9.63234 54.0155 10.2595 53.8548C10.8864 53.6939 11.2642 53.0552 11.1033 52.4284C10.5791 50.3867 10.2759 48.283 10.1936 46.1598H26.4156C26.5034 52.1756 27.2669 57.9047 28.6159 62.8072H16.0675C14.7098 60.9841 13.5466 58.9884 12.6164 56.8428C12.3589 56.2491 11.6691 55.9766 11.075 56.2337C10.4812 56.4912 10.2086 57.1812 10.4659 57.7752C15.572 69.5531 27.1648 77.1634 40 77.1634C57.7416 77.1634 72.1755 62.7295 72.1755 44.988C72.1755 27.2464 57.7416 12.8125 40 12.8125ZM61.9655 24.825H50.6717C49.7758 22.1328 48.702 19.7992 47.4894 17.9342C46.9442 17.0958 46.373 16.3577 45.7806 15.7203C52.1241 16.9709 57.7517 20.2381 61.9655 24.825ZM69.8066 43.8161H58.3273C57.8202 41.4822 55.8319 39.6958 53.3995 39.4933C53.2942 38.0023 53.148 36.5245 52.9581 35.0919C52.8731 34.4503 52.2833 33.9989 51.6425 34.0841C51.0009 34.1691 50.5497 34.7581 50.6347 35.3997C50.8242 36.8298 50.9691 38.3075 51.0714 39.7983C49.3045 40.4359 47.9545 41.9516 47.5495 43.8159H28.7595C28.8505 37.7453 29.6469 31.9983 31.0503 27.1688H48.9481C49.2787 28.312 49.5806 29.5216 49.8489 30.7917C49.9826 31.4248 50.6047 31.83 51.2376 31.6961C51.8709 31.5623 52.2759 30.9406 52.142 30.3073C51.913 29.223 51.6576 28.177 51.3805 27.1688H63.9106C67.4095 31.8516 69.5648 37.5925 69.8066 43.8161ZM63.9108 62.8072H51.3803C52.3947 59.1105 53.0891 54.9106 53.4019 50.4825C55.833 50.2791 57.8203 48.493 58.3272 46.1598H69.8064C69.5648 52.3834 67.4095 58.1244 63.9108 62.8072ZM52.9383 41.8162C54.6872 41.8162 56.11 43.2391 56.11 44.988C56.11 46.7369 54.687 48.1597 52.9383 48.1597C51.1894 48.1597 49.7666 46.7369 49.7666 44.988C49.7666 43.2391 51.1894 41.8162 52.9383 41.8162ZM16.0891 27.1688H28.6159C27.2669 32.0713 26.5036 37.8003 26.4156 43.8159H10.1934C10.4351 37.5925 12.5903 31.8516 16.0891 27.1688ZM40 15.1562C43.0653 15.1562 46.0647 18.8034 48.1973 24.825H31.8051C31.9658 24.3736 32.1317 23.9313 32.3041 23.5009C34.4289 18.1978 37.2339 15.1562 40 15.1562ZM34.2217 15.72C32.6917 17.3683 31.3055 19.6916 30.1284 22.6292C29.8458 23.3347 29.5787 24.068 29.3264 24.825H18.0344C22.2487 20.2377 27.8772 16.9703 34.2217 15.72ZM28.7595 46.1598H47.5494C47.9547 48.025 49.3055 49.5409 51.0733 50.1781C50.7531 54.8308 49.9958 59.1383 48.9298 62.8072H31.0503C29.6469 57.9775 28.8505 52.2305 28.7595 46.1598ZM40 74.8197C37.2339 74.8197 34.4289 71.7781 32.3041 66.475C32.1316 66.0447 31.9658 65.6023 31.8051 65.1509H48.1762C46.0767 71.0681 43.1178 74.8197 40 74.8197ZM18.0059 65.1509H29.3264C29.5787 65.908 29.8458 66.6413 30.1284 67.3467C31.3053 70.2841 32.6909 72.6078 34.2208 74.2558C27.9534 73.0209 22.2784 69.8091 18.0059 65.1509ZM45.7975 74.2523C47.0209 72.9261 48.1545 71.1591 49.1734 68.9652C49.718 67.7927 50.2181 66.5148 50.6712 65.1509H61.9655C57.7555 69.7336 52.1341 72.9992 45.7975 74.2523Z" fill="#31C1DE"/>
<path d="M74.5234 24.7734C71.1967 19.104 66.4975 14.3193 60.9013 10.8821C61.2945 10.1237 61.5183 9.26386 61.5183 8.35214C61.5183 5.31089 59.0441 2.83667 56.0028 2.83667C53.6227 2.83667 51.59 4.35245 50.8187 6.46917C47.3122 5.48636 43.6766 4.98808 40 4.98808C30.8931 4.98808 22.0333 8.11089 14.9558 13.7975C13.9519 12.4209 12.328 11.5239 10.4975 11.5239C7.45625 11.5239 4.98203 13.9981 4.98203 17.0393C4.98203 18.976 5.98625 20.6817 7.50063 21.6659C2.58969 28.4867 0 36.5195 0 44.9881C0 45.6353 0.524687 46.16 1.17188 46.16C1.81906 46.16 2.34375 45.6353 2.34375 44.9881C2.34375 36.7968 4.91625 29.039 9.78859 22.5076C10.0209 22.5376 10.2572 22.5546 10.4975 22.5546C13.5387 22.5546 16.013 20.0804 16.013 17.0392C16.013 16.697 15.98 16.3625 15.9202 16.0373C22.6631 10.4231 31.2089 7.33183 40 7.33183C43.5756 7.33183 47.1086 7.83308 50.5086 8.81901C50.7466 11.6425 53.1191 13.8676 56.0028 13.8676C57.277 13.8676 58.4506 13.4321 59.3855 12.7039C64.7823 15.952 69.3123 20.5237 72.5019 25.9596C75.8739 31.7062 77.6562 38.2862 77.6562 44.9881C77.6562 45.6353 78.1809 46.16 78.8281 46.16C79.4753 46.16 80 45.6353 80 44.9881C80 37.8696 78.1063 30.8795 74.5234 24.7734ZM10.4975 20.211C8.74859 20.211 7.32578 18.7882 7.32578 17.0393C7.32578 15.2904 8.74859 13.8676 10.4975 13.8676C12.2464 13.8676 13.6692 15.2904 13.6692 17.0393C13.6692 18.7882 12.2464 20.211 10.4975 20.211ZM56.0028 11.5239C54.2539 11.5239 52.8311 10.101 52.8311 8.35214C52.8311 6.60323 54.2539 5.18042 56.0028 5.18042C57.7517 5.18042 59.1745 6.60323 59.1745 8.35214C59.1745 10.101 57.7517 11.5239 56.0028 11.5239Z" fill="#31C1DE"/>
</svg>
