<svg width="80" height="80" viewBox="0 0 80 80" fill="none" xmlns="http://www.w3.org/2000/svg">
<path d="M75.624 58.1291C76.2714 58.1291 76.7959 57.6044 76.7959 56.9572V40.8823C76.7959 39.5758 75.7329 38.5127 74.4262 38.5127H68.019C66.694 38.5127 65.616 39.5906 65.616 40.9159V48.2986H59.1834C58.2523 48.2986 57.4446 48.832 57.0459 49.6084L55.1101 48.8588C54.5065 48.6248 53.8278 48.9248 53.5939 49.5283C53.36 50.1317 53.66 50.8108 54.2634 51.0444L56.7799 52.0189V58.0842H50.3468C49.022 58.0842 47.9439 59.1622 47.9439 60.4875V67.8702H41.5114C40.7904 67.8702 40.144 68.1909 39.7032 68.6953L38.1498 59.5181L39.4068 57.6261C40.1451 58.1505 40.816 58.7748 41.9515 58.4903C42.5756 58.3342 43.0982 57.9145 43.3857 57.3387L47.7796 48.5331L48.7943 48.9261C49.3985 49.1603 50.0768 48.8602 50.3106 48.2566C50.5442 47.6531 50.2445 46.9742 49.641 46.7405L42.1582 43.8427V39.7772C44.7981 37.7563 46.6182 34.7192 47.0315 31.255C50.1675 31.1156 52.5053 28.6069 52.5053 25.6206C52.5053 24.2377 51.9971 22.9184 51.0939 21.9003V16.7586C51.0939 7.51797 43.576 0 34.3354 0C25.0945 0 17.5767 7.51797 17.5767 16.7586V22.0338C16.6634 23.0434 16.166 24.2941 16.166 25.6208C16.166 28.6027 18.4979 31.1155 21.6389 31.255C22.0506 34.7409 23.8904 37.9045 26.7882 39.9738V43.8428C26.7743 43.8483 10.3167 50.2283 10.3029 50.2341C10.0131 50.3531 3.20386 53.2441 3.20386 61.2025V77.3253C3.20386 78.7891 4.39448 79.9797 5.85823 79.9797C48.9301 79.9797 25.8198 79.9995 75.6239 79.9995C76.2712 79.9995 76.7957 79.4748 76.7957 78.8277V62.4261C76.7957 61.7789 76.2712 61.2542 75.6239 61.2542C74.9765 61.2542 74.452 61.7789 74.452 62.4261V77.6559H67.96C67.96 77.3006 67.96 41.3892 67.96 40.9158C67.96 40.883 67.9865 40.8564 68.019 40.8564H74.4262C74.4404 40.8564 74.452 40.868 74.452 40.8822V56.957C74.452 57.6044 74.9768 58.1291 75.624 58.1291ZM45.5843 47.6831L41.364 56.1411C41.2775 56.0795 38.8828 54.3786 36.1701 52.4522L41.3593 46.0467L45.5843 47.6831ZM37.4953 56.2686L36.2889 58.0845H32.667L31.4607 56.2687L34.4781 54.1256L37.4953 56.2686ZM29.1323 44.2194V41.2958C30.7237 41.9787 32.5903 42.3742 34.5014 42.3742C36.3525 42.3742 38.1714 41.9664 39.8143 41.2V44.2305L34.4779 50.8178L29.1323 44.2194ZM50.1614 25.6208C50.1614 27.2795 48.922 28.7192 47.1242 28.8978V22.3447C48.8721 22.512 50.1614 23.923 50.1614 25.6208ZM21.5471 28.8978C19.7473 28.7195 18.51 27.2783 18.51 25.6208C18.51 23.9597 19.9521 22.6595 21.5471 22.3978V28.8978ZM21.5854 20.0297C21.0215 20.0813 20.3979 20.238 19.9206 20.4238V16.7587C19.9206 8.81047 26.3871 2.34391 34.3354 2.34391C42.2837 2.34391 48.7501 8.81031 48.7501 16.7587V20.3209C48.2334 20.1372 47.6882 20.0259 47.1243 19.9925V19.6786C47.1246 18.5944 46.9664 18.6408 42.8698 14.2372C42.1162 13.4272 40.9107 13.3019 40.0129 13.8889C35.1364 17.0745 29.261 18.5942 23.9462 18.2128C22.8306 18.1281 21.7973 18.8983 21.5854 20.0297ZM23.891 29.7516C23.891 28.7695 23.891 21.5756 23.891 20.5581C29.7807 20.9527 36.0928 19.2253 41.217 15.9016C43.3234 18.1648 44.4734 19.3572 44.7804 19.7528C44.7804 31.8566 44.7829 29.3547 44.7739 30.0086C44.6356 35.59 40.0464 40.0302 34.5014 40.0302C28.1862 40.0305 23.891 35.1423 23.891 29.7516ZM27.5895 46.0497L32.78 52.4564C31.0904 53.6562 28.47 55.5177 27.5917 56.1414L23.3714 47.6834L27.5895 46.0497ZM16.394 77.6361V63.6998C16.394 63.0527 15.8695 62.528 15.2221 62.528C14.5748 62.528 14.0503 63.0527 14.0503 63.6998V77.6361H5.85854C5.68729 77.6361 5.54808 77.4969 5.54808 77.3256V61.2028C5.54808 54.9 10.8712 52.5395 11.187 52.4053L21.176 48.5328L25.5701 57.3391C25.8575 57.9148 26.3801 58.3345 27.0043 58.4906C28.1204 58.7702 28.7573 58.1888 29.5489 57.6266L30.8059 59.5186L27.739 77.6361H16.394ZM30.1162 77.6361L33.0287 60.4281H35.927L38.8396 77.6361H30.1162ZM47.9442 77.6561H41.4521L41.4523 70.2736C41.4523 70.2408 41.4789 70.2142 41.5117 70.2142H47.9442V77.6561ZM56.7801 77.6561H50.2881C50.2881 75.1011 50.2881 63.0025 50.2881 60.4877C50.2881 60.4548 50.3146 60.4283 50.3471 60.4283H56.7803V77.6561H56.7801ZM65.616 77.6561H59.1239C59.1239 76.3797 59.1239 52.0064 59.1239 51.2161V50.7019C59.1239 50.6691 59.1504 50.6425 59.1832 50.6425H65.6159V77.6561H65.616Z" fill="#31C1DE"/>
</svg>
