<svg width="80" height="80" viewBox="0 0 80 80" fill="none" xmlns="http://www.w3.org/2000/svg">
<g clip-path="url(#clip0_236_4226)">
<path d="M70.0402 55.8076H60.2854C60.3541 55.549 60.3943 55.2789 60.3943 54.999V48.0425C60.3943 47.7625 60.3541 47.4925 60.2854 47.2339H66.6059C68.3465 47.2339 69.7626 45.8176 69.7626 44.077V37.1203C69.7626 35.3797 68.3465 33.9634 66.6059 33.9634H41.1732V19.6056C41.5935 19.6272 42.1096 19.644 42.7002 19.644C46.1109 19.644 51.9713 19.0822 55.7829 15.63C56.2634 15.1947 56.3002 14.4522 55.8648 13.9715C55.4295 13.4907 54.6868 13.4543 54.2063 13.8895C50.3752 17.3595 43.6788 17.3772 41.211 17.2515C41.0827 14.9834 41.1548 9.12746 44.879 5.7545C48.7105 2.28418 55.4077 2.267 57.8752 2.39246C57.9674 3.9984 57.9604 7.40309 56.6252 10.4478C56.3649 11.0417 56.6352 11.7342 57.2291 11.9945C57.8234 12.2548 58.5154 11.9847 58.776 11.3907C60.8645 6.62746 60.1512 1.3534 60.1196 1.13121C60.0451 0.602309 59.6227 0.19059 59.0923 0.129184C58.676 0.0810586 48.8332 -0.994879 43.3026 4.01403C41.7091 5.45715 40.6677 7.22293 39.9937 9.01934C39.2352 7.00356 38.1254 5.30778 36.6971 4.01418C36.1132 3.48528 35.4526 3.00043 34.733 2.57278C34.176 2.24137 33.4552 2.42481 33.1238 2.982C32.7926 3.53934 32.9759 4.25996 33.5332 4.59122C34.1182 4.93903 34.6524 5.33043 35.1205 5.75465C38.2621 8.59997 38.8049 13.2125 38.8209 15.947C38.8207 15.9832 38.8207 16.0192 38.8207 16.0548C38.821 16.5164 38.8071 16.9228 38.7885 17.2517C36.3191 17.3773 29.6237 17.3592 25.7932 13.8897C22.068 10.5159 21.9966 4.65793 22.1251 2.39184C23.5976 2.3159 26.5743 2.29028 29.549 3.022C30.1785 3.17731 30.8145 2.79184 30.9695 2.16231C31.1243 1.53262 30.7393 0.896684 30.1096 0.74184C25.5224 -0.386754 21.0937 0.107777 20.9074 0.129184C20.377 0.190746 19.9546 0.602465 19.8801 1.13121C19.8665 1.22684 19.5532 3.50684 19.9087 6.40465C20.3893 10.3225 21.8791 13.5126 24.217 15.63C28.029 19.0823 33.889 19.644 37.2996 19.644C37.8895 19.644 38.4051 19.6272 38.8252 19.6056V33.9632H19.3279C17.5873 33.9632 16.171 35.3795 16.171 37.1201V44.0767C16.171 44.3567 16.2112 44.6267 16.2799 44.8853H9.95961C8.21898 44.8853 6.80273 46.3015 6.80273 48.0422V54.9987C6.80273 56.7393 8.21898 58.1556 9.95961 58.1556H19.7145C19.6457 58.4142 19.6055 58.6843 19.6055 58.9643V65.9209C19.6055 66.2009 19.6457 66.4711 19.7145 66.7297H9.95961C8.21898 66.7297 6.80273 68.1459 6.80273 69.8865V76.8431C6.80273 78.5837 8.21898 80 9.95961 80H29.5709C30.2193 80 30.7449 79.4743 30.7449 78.8259C30.7449 78.1775 30.2193 77.6518 29.5709 77.6518H24.8699V69.0779H42.3273V77.6518H34.2673C33.6188 77.6518 33.0932 78.1775 33.0932 78.8259C33.0932 79.4743 33.6188 80 34.2673 80H57.2376C58.9782 80 60.3945 78.5839 60.3945 76.8431V69.8865C60.3945 69.6065 60.3543 69.3365 60.2855 69.0779H70.0404C71.781 69.0779 73.1973 67.6617 73.1973 65.9211V58.9645C73.1973 57.2237 71.7809 55.8076 70.0402 55.8076ZM37.6727 66.7297V58.1557H55.1301V66.7297H37.6727ZM22.5216 47.2337V55.8076H19.0696V47.2337H22.5216ZM24.8698 47.2337H42.3271V55.8076H24.8698V47.2337ZM51.6955 36.3115V44.8854H34.2382V36.3115H51.6955ZM54.0437 44.8854V36.3115H57.4957V44.8854H54.0437ZM44.6754 55.8076V47.2337H48.1274V55.8076H44.6754ZM31.8899 44.8854H28.4379V36.3115H31.8899V44.8854ZM35.3245 58.1557V66.7297H31.8724V58.1557H35.3245ZM57.4782 58.1557H60.9302V66.7297H57.4782V58.1557ZM50.4755 55.8076V47.2337H57.2374C57.6834 47.2337 58.0462 47.5965 58.0462 48.0423V54.9989C58.0462 55.4448 57.6834 55.8075 57.2374 55.8075H50.4755V55.8076ZM67.4145 37.1203V44.0768C67.4145 44.5228 67.0516 44.8854 66.6059 44.8854H59.8438V36.3115H66.6059C67.0516 36.3115 67.4145 36.6743 67.4145 37.1203ZM18.5191 37.1203C18.5191 36.6743 18.882 36.3117 19.3279 36.3117H26.0898V44.8856H19.3279C18.882 44.8856 18.5191 44.5228 18.5191 44.077V37.1203ZM9.15086 54.9989V48.0423C9.15086 47.5965 9.51367 47.2337 9.95961 47.2337H16.7215V55.8076H9.95961C9.51367 55.8076 9.15086 55.4448 9.15086 54.9989ZM21.9537 65.9209V58.9643C21.9537 58.5184 22.3165 58.1556 22.7624 58.1556H29.5243V66.7295H22.7624C22.3165 66.7297 21.9537 66.367 21.9537 65.9209ZM9.15086 76.8431V69.8865C9.15086 69.4407 9.51367 69.0779 9.95961 69.0779H16.7215V77.6518H9.95961C9.51367 77.6518 9.15086 77.289 9.15086 76.8431ZM19.0696 77.6518V69.0779H22.5216V77.6518H19.0696ZM44.6754 69.0779H48.1274V77.6518H44.6754V69.0779ZM58.0462 69.8865V76.8431C58.0462 77.289 57.6834 77.6517 57.2374 77.6517H50.4755V69.0778H57.2374C57.6834 69.0779 58.0462 69.4407 58.0462 69.8865ZM70.849 65.9209C70.849 66.3668 70.4862 66.7297 70.0402 66.7297H63.2784V58.1557H70.0402C70.4862 58.1557 70.849 58.5186 70.849 58.9645V65.9209Z" fill="#31C1DE"/>
</g>
<defs>
<clipPath id="clip0_236_4226">
<rect width="80" height="80" fill="white"/>
</clipPath>
</defs>
</svg>
