<svg width="80" height="80" viewBox="0 0 80 80" fill="none" xmlns="http://www.w3.org/2000/svg">
<g clip-path="url(#clip0_236_4270)">
<mask id="mask0_236_4270" style="mask-type:luminance" maskUnits="userSpaceOnUse" x="-14" y="-14" width="108" height="108">
<path d="M93.3385 93.3235H-13.3281V-13.3432H93.3385V93.3235Z" fill="white"/>
</mask>
<g mask="url(#mask0_236_4270)">
<path d="M75.4955 72.9634H24.7949C24.1543 72.9634 23.623 72.4322 23.623 71.7916C23.623 71.151 24.1543 70.6197 24.7949 70.6197H75.4955C76.683 70.6197 77.6517 69.651 77.6517 68.4636V40.4806C77.6517 39.84 78.1829 39.3088 78.8235 39.3088C79.4641 39.3088 79.9953 39.84 79.9953 40.4806V68.4792C79.9953 70.9479 77.9798 72.9634 75.4955 72.9634Z" fill="#31C1DE"/>
<path d="M8.33393 49.5583C7.69333 49.5583 7.16211 49.0271 7.16211 48.3865V40.4807C7.16211 39.8401 7.69333 39.3089 8.33393 39.3089C8.97452 39.3089 9.50574 39.8401 9.50574 40.4807V48.3865C9.50574 49.0271 8.97452 49.5583 8.33393 49.5583Z" fill="#31C1DE"/>
<path d="M55.9772 17.3787C55.3367 17.3787 54.8054 16.8474 54.8054 16.2068V12.1445H32.3534V16.2068C32.3534 16.8474 31.8222 17.3787 31.1816 17.3787C30.541 17.3787 30.0098 16.8474 30.0098 16.2068V10.9727C30.0098 10.3321 30.541 9.80091 31.1816 9.80091H55.9772C56.6178 9.80091 57.1491 10.3321 57.1491 10.9727V16.2068C57.1491 16.8474 56.6178 17.3787 55.9772 17.3787Z" fill="#31C1DE"/>
<path d="M62.1329 17.3787C61.4923 17.3787 60.9611 16.8474 60.9611 16.2068V8.48847C60.9611 7.11354 59.8361 5.98859 58.4612 5.98859H28.697C27.3221 5.98859 26.1972 7.11354 26.1972 8.48847V16.2068C26.1972 16.8474 25.6659 17.3787 25.0253 17.3787C24.3847 17.3787 23.8535 16.8474 23.8535 16.2068V8.48847C23.8535 5.81673 26.0253 3.64496 28.697 3.64496H58.4612C61.1329 3.64496 63.3047 5.81673 63.3047 8.48847V16.2068C63.3047 16.8474 62.7735 17.3787 62.1329 17.3787Z" fill="#31C1DE"/>
<path d="M33.2026 22.0596C32.562 22.0596 32.0308 21.5283 32.0308 20.8878V18.0129C32.0308 17.6692 31.7495 17.3879 31.4058 17.3879H24.7967C24.453 17.3879 24.1718 17.6692 24.1718 18.0129V20.8878C24.1718 21.5283 23.6405 22.0596 22.9999 22.0596C22.3593 22.0596 21.8281 21.5283 21.8281 20.8878V18.0129C21.8281 16.3723 23.1562 15.0443 24.7967 15.0443H31.4058C33.0463 15.0443 34.3744 16.3723 34.3744 18.0129V20.8878C34.3744 21.5283 33.8432 22.0596 33.2026 22.0596Z" fill="#31C1DE"/>
<path d="M64.1557 22.0596C63.5151 22.0596 62.9839 21.5283 62.9839 20.8878V18.0129C62.9839 17.6692 62.7026 17.3879 62.3589 17.3879H55.7499C55.4061 17.3879 55.1249 17.6692 55.1249 18.0129V20.8878C55.1249 21.5283 54.5937 22.0596 53.9531 22.0596C53.3125 22.0596 52.7812 21.5283 52.7812 20.8878V18.0129C52.7812 16.3723 54.1093 15.0443 55.7499 15.0443H62.3589C63.9995 15.0443 65.3275 16.3723 65.3275 18.0129V20.8878C65.3275 21.5283 64.7963 22.0596 64.1557 22.0596Z" fill="#31C1DE"/>
<path d="M77.2895 43.1899H69.8212C69.1806 43.1899 68.6493 42.6587 68.6493 42.0181C68.6493 41.3775 69.1806 40.8463 69.8212 40.8463H77.2895C77.4927 40.8463 77.6489 40.6744 77.6489 40.4869V24.2065C77.6489 23.0191 76.6802 22.0504 75.4928 22.0504H11.6521C10.4647 22.0504 9.49598 23.0191 9.49598 24.2065V28.6125C9.49598 29.2531 8.96476 29.7843 8.32416 29.7843C7.68357 29.7843 7.15234 29.2531 7.15234 28.6125V24.2065C7.15234 21.7222 9.16787 19.7067 11.6521 19.7067H75.5084C77.9926 19.7067 80.0082 21.7222 80.0082 24.2065V40.4869C79.9925 41.9713 78.7738 43.1899 77.2895 43.1899Z" fill="#31C1DE"/>
<path d="M64.6146 43.1899H52.8652C52.2246 43.1899 51.6934 42.6587 51.6934 42.0181C51.6934 41.3775 52.2246 40.8463 52.8652 40.8463H64.6146C65.2552 40.8463 65.7864 41.3775 65.7864 42.0181C65.7864 42.6587 65.2552 43.1899 64.6146 43.1899Z" fill="#31C1DE"/>
<path d="M34.2858 43.1821H9.8651C8.36518 43.1821 7.16211 41.9634 7.16211 40.4791V33.8232C7.16211 33.1826 7.69333 32.6514 8.33393 32.6514C8.97452 32.6514 9.50574 33.1826 9.50574 33.8232V40.4791C9.50574 40.6823 9.66199 40.8385 9.8651 40.8385H34.2858C34.9264 40.8385 35.4576 41.3697 35.4576 42.0103C35.4576 42.6509 34.942 43.1821 34.2858 43.1821Z" fill="#31C1DE"/>
<path d="M48.3977 51.0637H38.7575C35.6483 51.0637 33.1172 48.5326 33.1172 45.4234V40.4705C33.1172 39.0018 34.3046 37.8144 35.7733 37.8144H51.3663C52.835 37.8144 54.0224 39.0018 54.0224 40.4705V45.4234C54.038 48.5326 51.5069 51.0637 48.3977 51.0637ZM35.7733 40.158C35.6014 40.158 35.4608 40.2986 35.4608 40.4705V45.4234C35.4608 47.2358 36.9451 48.7201 38.7575 48.7201H48.3977C50.2101 48.7201 51.6944 47.2358 51.6944 45.4234V40.4705C51.6944 40.2986 51.5538 40.158 51.3819 40.158H35.7733Z" fill="#31C1DE"/>
<path d="M47.9819 44.2844H39.1699C38.5293 44.2844 37.998 43.7532 37.998 43.1126C37.998 42.472 38.5293 41.9408 39.1699 41.9408H47.9819C48.6225 41.9408 49.1538 42.472 49.1538 43.1126C49.1538 43.7532 48.6382 44.2844 47.9819 44.2844Z" fill="#31C1DE"/>
<path d="M15.5442 76.3494C6.98208 76.3494 0.0136719 69.381 0.0136719 60.8189C0.0136719 52.2568 6.98208 45.2884 15.5442 45.2884C24.1062 45.2884 31.0747 52.2568 31.0747 60.8189C31.0747 69.381 24.1062 76.3494 15.5442 76.3494ZM15.5442 47.632C8.26327 47.632 2.35731 53.5536 2.35731 60.8189C2.35731 68.0998 8.27889 74.0057 15.5442 74.0057C22.8094 74.0057 28.731 68.0998 28.731 60.8189C28.731 53.538 22.8094 47.632 15.5442 47.632Z" fill="#31C1DE"/>
<path d="M16.1795 66.3655H14.8827C13.5546 66.3655 12.3515 65.5686 11.8359 64.3343C11.5859 63.7406 11.8672 63.0531 12.4609 62.8032C13.0546 62.5532 13.7421 62.8344 13.9921 63.4281C14.1483 63.7875 14.492 64.0218 14.8827 64.0218H16.1795C16.7107 64.0218 17.1482 63.5844 17.1482 63.0531C17.1482 62.5219 16.7107 62.0844 16.1795 62.0844H14.8827C13.0546 62.0844 11.5703 60.6001 11.5703 58.7721C11.5703 56.9284 13.0546 55.4441 14.8827 55.4441H16.1795C17.2888 55.4441 18.3044 55.991 18.9293 56.8972C19.2887 57.4284 19.1481 58.1628 18.6168 58.5221C18.0856 58.8815 17.3513 58.7409 16.9919 58.2096C16.8044 57.944 16.5076 57.7878 16.1795 57.7878H14.8827C14.3514 57.7878 13.9139 58.2253 13.9139 58.7565C13.9139 59.2877 14.3514 59.7252 14.8827 59.7252H16.1795C18.0075 59.7252 19.4918 61.2095 19.4918 63.0375C19.4918 64.8812 18.0075 66.3655 16.1795 66.3655Z" fill="#31C1DE"/>
<path d="M15.5371 57.4158C14.8965 57.4158 14.3652 56.8845 14.3652 56.244V55.0565C14.3652 54.4159 14.8965 53.8847 15.5371 53.8847C16.1776 53.8847 16.7089 54.4159 16.7089 55.0565V56.244C16.7089 56.8845 16.1776 57.4158 15.5371 57.4158Z" fill="#31C1DE"/>
<path d="M15.5371 67.7534C14.8965 67.7534 14.3652 67.2222 14.3652 66.5816V65.3942C14.3652 64.7536 14.8965 64.2223 15.5371 64.2223C16.1776 64.2223 16.7089 64.7536 16.7089 65.3942V66.5816C16.7089 67.2222 16.1776 67.7534 15.5371 67.7534Z" fill="#31C1DE"/>
<path d="M15.5307 72.021C9.35913 72.021 4.32812 66.99 4.32812 60.8184C4.32812 54.6468 9.35913 49.6158 15.5307 49.6158C20.6398 49.6158 25.0927 53.0532 26.3895 57.9904C26.5458 58.6154 26.1708 59.256 25.5458 59.4122C24.9209 59.5685 24.2803 59.1935 24.124 58.5685C23.1085 54.6625 19.5774 51.9439 15.5463 51.9439C10.6559 51.9439 6.68738 55.9124 6.68738 60.8028C6.68738 65.6932 10.6559 69.6617 15.5463 69.6617C19.5149 69.6617 23.0303 66.99 24.0928 63.1621C24.2646 62.5371 24.9052 62.1777 25.5302 62.3496C26.1552 62.5215 26.5145 63.1621 26.3427 63.787C24.999 68.6462 20.5617 72.021 15.5307 72.021Z" fill="#31C1DE"/>
</g>
</g>
<defs>
<clipPath id="clip0_236_4270">
<rect width="80" height="80" fill="white"/>
</clipPath>
</defs>
</svg>
