<svg width="80" height="80" viewBox="0 0 80 80" fill="none" xmlns="http://www.w3.org/2000/svg">
<g clip-path="url(#clip0_39_837)">
<path fill-rule="evenodd" clip-rule="evenodd" d="M74.5886 22.3004C75.1732 22.0227 75.8722 22.2715 76.1499 22.8561C78.6189 28.0535 80 33.8671 80 40C80 62.0914 62.0914 80 40 80C27.0414 80 15.522 73.8366 8.21417 64.2864C7.82086 63.7724 7.9187 63.0369 8.43269 62.6436C8.94669 62.2503 9.6822 62.3481 10.0755 62.8621C16.959 71.8578 27.802 77.6563 40 77.6563C60.797 77.6563 77.6562 60.797 77.6562 40C77.6562 34.2223 76.3558 28.7516 74.0329 23.8618C73.7552 23.2772 74.004 22.5781 74.5886 22.3004Z" fill="#31C1DE"/>
<path fill-rule="evenodd" clip-rule="evenodd" d="M0 40C0 17.9086 17.9086 0 40 0C52.7489 0 64.1052 5.96566 71.4281 15.2532C71.8288 15.7614 71.7416 16.4983 71.2334 16.899C70.7251 17.2997 69.9883 17.2126 69.5876 16.7043C62.6901 7.95622 52.0008 2.34375 40 2.34375C19.203 2.34375 2.34375 19.203 2.34375 40C2.34375 45.7777 3.64422 51.2484 5.9671 56.1383C6.24481 56.7229 5.99603 57.4219 5.41143 57.6996C4.82684 57.9773 4.1278 57.7285 3.85008 57.1439C1.38109 51.9466 0 46.1329 0 40Z" fill="#31C1DE"/>
<path fill-rule="evenodd" clip-rule="evenodd" d="M7.35461 61.2878C7.66643 61.0276 8.09076 60.9473 8.47607 61.0758L16.7964 63.8492C17.4104 64.0539 17.7422 64.7175 17.5375 65.3315C17.3329 65.9455 16.6692 66.2774 16.0552 66.0727L9.53374 63.8989L10.6523 71.7288C10.7438 72.3695 10.2986 72.9631 9.65793 73.0546C9.01723 73.1462 8.42364 72.701 8.33211 72.0603L6.94539 62.3532C6.88795 61.9512 7.04279 61.548 7.35461 61.2878Z" fill="#31C1DE"/>
<path fill-rule="evenodd" clip-rule="evenodd" d="M70.3421 6.94528C70.9828 6.85375 71.5764 7.29894 71.6679 7.93965L73.0546 17.6467C73.1121 18.0487 72.9572 18.4519 72.6454 18.7121C72.3336 18.9724 71.9093 19.0526 71.524 18.9241L63.2037 16.1507C62.5897 15.946 62.2578 15.2824 62.4625 14.6684C62.6672 14.0544 63.3308 13.7226 63.9448 13.9272L70.4663 16.1011L69.3477 8.2711C69.2562 7.6304 69.7014 7.03681 70.3421 6.94528Z" fill="#31C1DE"/>
<path fill-rule="evenodd" clip-rule="evenodd" d="M15.0303 56.2827C15.0303 55.6355 15.555 55.1108 16.2022 55.1108H63.7978C64.445 55.1108 64.9697 55.6355 64.9697 56.2827C64.9697 56.9299 64.445 57.4546 63.7978 57.4546H16.2022C15.555 57.4546 15.0303 56.9299 15.0303 56.2827Z" fill="#31C1DE"/>
<path fill-rule="evenodd" clip-rule="evenodd" d="M52.5251 37.5757C53.1724 37.5757 53.697 38.1003 53.697 38.7476V56.2829C53.697 56.9301 53.1724 57.4547 52.5251 57.4547C51.8779 57.4547 51.3533 56.9301 51.3533 56.2829V38.7476C51.3533 38.1003 51.8779 37.5757 52.5251 37.5757Z" fill="#31C1DE"/>
<path fill-rule="evenodd" clip-rule="evenodd" d="M56.2828 18.7878C56.6746 18.7878 57.0405 18.9837 57.2579 19.3097L64.7729 30.5823C65.0126 30.9419 65.0349 31.4043 64.831 31.7853C64.6271 32.1664 64.23 32.4042 63.7978 32.4042H61.2122V56.2828C61.2122 56.93 60.6875 57.4547 60.0403 57.4547C59.3931 57.4547 58.8684 56.93 58.8684 56.2828V31.2324C58.8684 30.5852 59.3931 30.0605 60.0403 30.0605H61.6081L56.2828 22.0723L50.9573 30.0605H52.5251C53.1724 30.0605 53.697 30.5852 53.697 31.2324V33.7374C53.697 34.3846 53.1724 34.9093 52.5251 34.9093C51.8779 34.9093 51.3533 34.3846 51.3533 33.7374V32.4042H48.7676C48.3355 32.4042 47.9384 32.1664 47.7344 31.7853C47.5305 31.4043 47.5529 30.9419 47.7926 30.5823L55.3077 19.3097C55.5251 18.9837 55.891 18.7878 56.2828 18.7878Z" fill="#31C1DE"/>
<path fill-rule="evenodd" clip-rule="evenodd" d="M18.5223 47.7926C19.0608 48.1517 19.2063 48.8792 18.8473 49.4177L18.3919 50.1008H19.9597C20.6069 50.1008 21.1316 50.6255 21.1316 51.2727V56.2829C21.1316 56.9301 20.6069 57.4547 19.9597 57.4547C19.3125 57.4547 18.7878 56.9301 18.7878 56.2829V52.4446H16.2022C15.77 52.4446 15.3729 52.2067 15.169 51.8257C14.9651 51.4446 14.9874 50.9823 15.2272 50.6227L16.8972 48.1177C17.2562 47.5792 17.9837 47.4336 18.5223 47.7926Z" fill="#31C1DE"/>
<path fill-rule="evenodd" clip-rule="evenodd" d="M23.7172 38.8281C24.109 38.8281 24.4749 39.0239 24.6923 39.35L32.2074 50.6226C32.4472 50.9822 32.4695 51.4446 32.2656 51.8256C32.0616 52.2067 31.6645 52.4445 31.2324 52.4445H28.6467V56.2828C28.6467 56.93 28.1221 57.4547 27.4749 57.4547C26.8277 57.4547 26.303 56.93 26.303 56.2828V51.2727C26.303 50.6254 26.8277 50.1008 27.4749 50.1008H29.0427L23.7172 42.1126L21.559 45.35C21.2 45.8885 20.4724 46.0341 19.9339 45.6751C19.3954 45.3161 19.2499 44.5885 19.6089 44.05L22.7421 39.35C22.9595 39.024 23.3254 38.8281 23.7172 38.8281Z" fill="#31C1DE"/>
<path fill-rule="evenodd" clip-rule="evenodd" d="M40 28.8079C40.3918 28.8079 40.7577 29.0037 40.9751 29.3297L48.4902 40.6023C48.73 40.9619 48.7523 41.4243 48.5484 41.8053C48.3445 42.1864 47.9474 42.4243 47.5152 42.4243H44.9294V56.2827C44.9294 56.9299 44.4047 57.4546 43.7575 57.4546C43.1103 57.4546 42.5856 56.9299 42.5856 56.2827V41.2524C42.5856 40.6052 43.1103 40.0805 43.7575 40.0805H45.3255L40 32.0924L34.6745 40.0805H36.2425C36.8897 40.0805 37.4144 40.6052 37.4144 41.2524V56.2827C37.4144 56.9299 36.8897 57.4546 36.2425 57.4546C35.5953 57.4546 35.0706 56.9299 35.0706 56.2827V42.4243H32.4849C32.0527 42.4243 31.6556 42.1864 31.4517 41.8053C31.2477 41.4243 31.2701 40.9619 31.5098 40.6023L39.025 29.3297C39.2423 29.0037 39.6082 28.8079 40 28.8079Z" fill="#31C1DE"/>
</g>
<defs>
<clipPath id="clip0_39_837">
<rect width="80" height="80" fill="white"/>
</clipPath>
</defs>
</svg>
