<svg width="80" height="80" viewBox="0 0 80 80" fill="none" xmlns="http://www.w3.org/2000/svg">
<g clip-path="url(#clip0_236_4183)">
<mask id="mask0_236_4183" style="mask-type:luminance" maskUnits="userSpaceOnUse" x="-14" y="-14" width="108" height="108">
<path d="M93.3385 93.3235H-13.3281V-13.3432H93.3385V93.3235Z" fill="white"/>
</mask>
<g mask="url(#mask0_236_4183)">
<path d="M19.8076 29.6057H4.41775C1.98037 29.6057 -0.00390625 27.6214 -0.00390625 25.1841V14.7939C-0.00390625 12.3722 1.98037 10.3879 4.41775 10.3879H6.35516C6.99575 10.3879 7.52698 10.9191 7.52698 11.5597C7.52698 12.2003 6.99575 12.7315 6.35516 12.7315H4.41775C3.27718 12.7315 2.33973 13.669 2.33973 14.8096V25.1997C2.33973 26.3402 3.27718 27.2777 4.41775 27.2777H19.8076C20.9482 27.2777 21.8857 26.3402 21.8857 25.1997V14.8096C21.8857 13.669 20.9482 12.7315 19.8076 12.7315H11.9799C11.3393 12.7315 10.8081 12.2003 10.8081 11.5597C10.8081 10.9191 11.3393 10.3879 11.9799 10.3879H19.8076C22.245 10.3879 24.2293 12.3722 24.2293 14.8096V25.1997C24.2137 27.6214 22.2294 29.6057 19.8076 29.6057Z" fill="#31C1DE"/>
<path d="M12.523 18.9812H5.60151C4.96091 18.9812 4.42969 18.45 4.42969 17.8094C4.42969 17.1688 4.96091 16.6376 5.60151 16.6376H12.523C13.1636 16.6376 13.6949 17.1688 13.6949 17.8094C13.6949 18.45 13.1793 18.9812 12.523 18.9812Z" fill="#31C1DE"/>
<path d="M18.3509 23.356H5.60151C4.96091 23.356 4.42969 22.8247 4.42969 22.1841C4.42969 21.5435 4.96091 21.0123 5.60151 21.0123H18.3509C18.9915 21.0123 19.5227 21.5435 19.5227 22.1841C19.5227 22.8247 19.0071 23.356 18.3509 23.356Z" fill="#31C1DE"/>
<path d="M47.6885 23.8269H32.2986C29.8612 23.8269 27.877 21.8426 27.877 19.4052V9.01513C27.877 6.57775 29.8612 4.59347 32.2986 4.59347H47.6885C50.1259 4.59347 52.1101 6.57775 52.1101 9.01513V19.4052C52.1101 21.8426 50.1259 23.8269 47.6885 23.8269ZM32.2986 6.95273C31.158 6.95273 30.2206 7.89018 30.2206 9.03075V19.4052C30.2206 20.5458 31.158 21.4833 32.2986 21.4833H47.6885C48.8291 21.4833 49.7665 20.5458 49.7665 19.4052V9.01513C49.7665 7.87456 48.8291 6.93711 47.6885 6.93711H32.2986V6.95273Z" fill="#31C1DE"/>
<path d="M40.4137 13.2024H33.4921C32.8515 13.2024 32.3203 12.6712 32.3203 12.0306C32.3203 11.39 32.8515 10.8588 33.4921 10.8588H40.4137C41.0543 10.8588 41.5855 11.39 41.5855 12.0306C41.5855 12.6712 41.0699 13.2024 40.4137 13.2024Z" fill="#31C1DE"/>
<path d="M46.2415 17.5771H33.4921C32.8515 17.5771 32.3203 17.0459 32.3203 16.4053C32.3203 15.7647 32.8515 15.2335 33.4921 15.2335H46.2415C46.8821 15.2335 47.4133 15.7647 47.4133 16.4053C47.4133 17.0459 46.8977 17.5771 46.2415 17.5771Z" fill="#31C1DE"/>
<path d="M75.5791 29.6057H60.1892C57.7519 29.6057 55.7676 27.6214 55.7676 25.1841V14.7939C55.7676 12.3566 57.7519 10.3723 60.1892 10.3723H75.5791C78.0165 10.3723 80.0008 12.3566 80.0008 14.7939V25.1841C80.0008 27.6214 78.0165 29.6057 75.5791 29.6057ZM60.1892 12.7315C59.0487 12.7315 58.1112 13.669 58.1112 14.8096V25.1841C58.1112 26.3246 59.0487 27.2621 60.1892 27.2621H75.5791C76.7197 27.2621 77.6571 26.3246 77.6571 25.1841V14.7939C77.6571 13.6534 76.7197 12.7159 75.5791 12.7159H60.1892V12.7315Z" fill="#31C1DE"/>
<path d="M68.3023 18.9812H61.3808C60.7402 18.9812 60.209 18.45 60.209 17.8094C60.209 17.1688 60.7402 16.6376 61.3808 16.6376H68.3023C68.9429 16.6376 69.4742 17.1688 69.4742 17.8094C69.4742 18.45 68.9586 18.9812 68.3023 18.9812Z" fill="#31C1DE"/>
<path d="M74.1302 23.356H61.3808C60.7402 23.356 60.209 22.8247 60.209 22.1841C60.209 21.5435 60.7402 21.0123 61.3808 21.0123H74.1302C74.7708 21.0123 75.302 21.5435 75.302 22.1841C75.302 22.8247 74.7864 23.356 74.1302 23.356Z" fill="#31C1DE"/>
<path d="M39.9972 70.6997C30.8258 70.6997 23.3574 63.2313 23.3574 54.0599C23.3574 44.8885 30.8258 37.4201 39.9972 37.4201C49.1687 37.4201 56.637 44.8885 56.637 54.0599C56.637 63.2313 49.1687 70.6997 39.9972 70.6997ZM39.9972 39.7637C32.107 39.7637 25.7011 46.1697 25.7011 54.0599C25.7011 61.9501 32.107 68.3561 39.9972 68.3561C47.8875 68.3561 54.2934 61.9501 54.2934 54.0599C54.2934 46.1697 47.8875 39.7637 39.9972 39.7637Z" fill="#31C1DE"/>
<path d="M39.997 75.3931C28.232 75.3931 18.6699 65.831 18.6699 54.066C18.6699 42.3009 28.232 32.7389 39.997 32.7389C51.7621 32.7389 61.3241 42.3009 61.3241 54.066C61.3241 58.7845 59.8085 63.2687 56.9493 67.0185C56.5587 67.5341 55.8244 67.6278 55.3088 67.2372C54.7932 66.8466 54.6994 66.1123 55.09 65.5967C57.6368 62.2531 58.9805 58.2689 58.9805 54.066C58.9805 43.5977 50.4652 35.0825 39.997 35.0825C29.5288 35.0825 21.0136 43.5977 21.0136 54.066C21.0136 64.5342 29.5288 73.0494 39.997 73.0494C44.1531 73.0494 48.0904 71.737 51.4027 69.2371C51.9183 68.8465 52.6526 68.9559 53.0432 69.4715C53.4338 69.9871 53.3245 70.7214 52.8089 71.112C49.0903 73.9088 44.6687 75.3931 39.997 75.3931Z" fill="#31C1DE"/>
<path d="M19.8707 52.8232C19.5738 52.8232 19.2769 52.7139 19.0426 52.4795L11.1523 44.5893C10.9336 44.3705 10.8086 44.0737 10.8086 43.7612V28.4338C10.8086 27.7932 11.3398 27.262 11.9804 27.262C12.621 27.262 13.1522 27.7932 13.1522 28.4338V43.2768L20.6987 50.8233C21.1518 51.2764 21.1518 52.0264 20.6987 52.4795C20.4644 52.7139 20.1675 52.8232 19.8707 52.8232Z" fill="#31C1DE"/>
<path d="M60.3066 52.3857C60.0097 52.3857 59.7129 52.2764 59.4785 52.042C59.0254 51.5889 59.0254 50.8389 59.4785 50.3858L66.5875 43.2768V28.4338C66.5875 27.7932 67.1188 27.262 67.7593 27.262C68.3999 27.262 68.9312 27.7932 68.9312 28.4338V43.7768C68.9312 44.0893 68.8062 44.3861 68.5874 44.6049L61.1347 52.0576C60.9159 52.2764 60.6191 52.3857 60.3066 52.3857Z" fill="#31C1DE"/>
<path d="M39.8691 35.0764C39.2285 35.0764 38.6973 34.5452 38.6973 33.9046V22.6551C38.6973 22.0146 39.2285 21.4833 39.8691 21.4833C40.5097 21.4833 41.0409 22.0146 41.0409 22.6551V33.9046C41.0409 34.5452 40.5097 35.0764 39.8691 35.0764Z" fill="#31C1DE"/>
<path d="M39.6649 63.0627C37.8368 63.0627 36.7119 62.8909 34.8682 61.6878C34.3214 61.3285 34.1808 60.6097 34.5245 60.0629C34.8839 59.516 35.6026 59.3754 36.1494 59.7192C37.5556 60.641 38.2118 60.7191 39.868 60.7035C41.8523 60.6879 43.0085 59.2036 43.2428 57.8286C43.3366 57.2818 43.4616 55.4225 41.3054 54.6569C38.7899 53.7819 37.3369 53.0945 36.29 52.282C35.1338 51.3758 34.6026 49.7821 34.9151 48.1416C35.2588 46.3448 36.5088 44.9074 38.1806 44.3918C41.6648 43.345 43.9772 45.423 44.0709 45.5167L42.4772 47.2354L42.5085 47.251C42.446 47.2041 41.0398 45.9855 38.868 46.6417C37.8681 46.9385 37.3681 47.8447 37.2275 48.5791C37.0869 49.3603 37.2744 50.079 37.7431 50.4384C38.7587 51.2352 40.5242 51.9227 42.1022 52.4695C44.649 53.3757 46.0083 55.6256 45.5708 58.2349C45.1802 60.5472 43.2428 63.0315 39.8992 63.0627C39.8211 63.0627 39.743 63.0627 39.6649 63.0627Z" fill="#31C1DE"/>
<path d="M39.8925 65.4741C39.2519 65.4741 38.7207 64.9429 38.7207 64.3023V43.0377C38.7207 42.3971 39.2519 41.8659 39.8925 41.8659C40.5331 41.8659 41.0643 42.3971 41.0643 43.0377V64.3023C41.0643 64.9585 40.5331 65.4741 39.8925 65.4741Z" fill="#31C1DE"/>
</g>
</g>
<defs>
<clipPath id="clip0_236_4183">
<rect width="80" height="80" fill="white"/>
</clipPath>
</defs>
</svg>
