<svg width="80" height="80" viewBox="0 0 80 80" fill="none" xmlns="http://www.w3.org/2000/svg">
<g clip-path="url(#clip0_39_814)">
<path d="M80 22.5818C80 20.3027 78.1464 18.4491 75.8673 18.4491H53.6298V12.0801C53.6298 9.29626 51.3647 7.03125 48.5809 7.03125H31.4191C28.6353 7.03125 26.3702 9.29626 26.3702 12.0801V18.4491H4.13269C1.85364 18.4491 0 20.3027 0 22.5818V28.8049C0 31.4948 0.697632 34.0253 1.92139 36.2244V66.7969C1.92139 70.2594 4.73816 73.0768 8.20129 73.0768H71.7987C75.2612 73.0768 78.0786 70.2594 78.0786 66.7969V36.2244C79.3024 34.0253 80 31.4948 80 28.8049V22.5818ZM28.714 12.0801C28.714 10.5884 29.9274 9.375 31.4191 9.375H48.5809C50.0726 9.375 51.286 10.5884 51.286 12.0801V18.4491H28.714V12.0801ZM75.7349 66.7975C75.7349 68.9673 73.9691 70.733 71.7987 70.733H8.20129C6.03088 70.733 4.26514 68.9673 4.26514 66.7975V39.3958C7.05261 42.3004 10.9723 44.1119 15.307 44.1119H26.9238C27.5708 44.1119 28.0957 43.587 28.0957 42.9401C28.0957 42.2925 27.5708 41.7682 26.9238 41.7682H15.307C8.15918 41.7676 2.34375 35.9528 2.34375 28.8049V22.5818C2.34375 21.5955 3.14636 20.7928 4.13269 20.7928H75.8673C76.8536 20.7928 77.6562 21.5955 77.6562 22.5818V28.8049C77.6562 35.9528 71.8408 41.7676 64.693 41.7676H53.0847C52.4371 41.7676 51.9128 42.2925 51.9128 42.9395C51.9128 43.587 52.4371 44.1113 53.0847 44.1113H64.693C69.0277 44.1113 72.9474 42.3004 75.7349 39.3951V66.7975Z" fill="#31C1DE"/>
<path d="M46.1292 38.4331H33.8715C31.9788 38.4331 30.4395 39.9724 30.4395 41.8645V44.6428C30.4395 46.5355 31.9788 48.0748 33.8715 48.0748H46.1292C48.0212 48.0748 49.5605 46.5349 49.5605 44.6428V41.8645C49.5605 39.9724 48.0212 38.4331 46.1292 38.4331ZM47.2168 44.6428C47.2168 45.2428 46.7291 45.7311 46.1292 45.7311H33.8715C33.2715 45.7311 32.7832 45.2428 32.7832 44.6428V41.8645C32.7832 41.2645 33.2715 40.7762 33.8715 40.7762H46.1292C46.7291 40.7762 47.2168 41.2645 47.2168 41.8645V44.6428Z" fill="#31C1DE"/>
</g>
<defs>
<clipPath id="clip0_39_814">
<rect width="80" height="80" fill="white"/>
</clipPath>
</defs>
</svg>
