<svg width="80" height="80" viewBox="0 0 80 80" fill="none" xmlns="http://www.w3.org/2000/svg">
<mask id="mask0_49_453" style="mask-type:luminance" maskUnits="userSpaceOnUse" x="0" y="0" width="80" height="80">
<path d="M0 7.62939e-06H80V80H0V7.62939e-06Z" fill="white"/>
</mask>
<g mask="url(#mask0_49_453)">
<path fill-rule="evenodd" clip-rule="evenodd" d="M28.272 41.521C28.272 42.1682 28.7966 42.6929 29.4438 42.6929H76.9698C77.617 42.6929 78.1417 42.1682 78.1417 41.521V28.8815C78.1417 26.7772 76.4356 25.0718 74.3317 25.0718H32.0818C29.9778 25.0718 28.272 26.7773 28.272 28.8815V41.521ZM30.6157 40.3491V28.8815C30.6157 28.0719 31.2721 27.4155 32.0818 27.4155H74.3317C75.1415 27.4155 75.7979 28.072 75.7979 28.8815V40.3491H30.6157Z" fill="#31C1DE"/>
<path fill-rule="evenodd" clip-rule="evenodd" d="M32.8719 52.1797C32.8719 53.1351 33.6467 53.9094 34.6018 53.9094H39.8116C40.7668 53.9094 41.5415 53.1351 41.5415 52.1797V48.2072C41.5415 47.2515 40.7665 46.4775 39.8116 46.4775H34.6018C33.6469 46.4775 32.8719 47.2515 32.8719 48.2072V52.1797ZM35.2157 51.5657V48.8213H39.1977V51.5657H35.2157Z" fill="#31C1DE"/>
<path fill-rule="evenodd" clip-rule="evenodd" d="M43.5387 52.1797C43.5387 53.1349 44.3132 53.9094 45.2684 53.9094H50.4784C51.4339 53.9094 52.2081 53.1347 52.2081 52.1797V48.2072C52.2081 47.2519 51.4337 46.4775 50.4784 46.4775H45.2684C44.3134 46.4775 43.5387 47.2517 43.5387 48.2072V52.1797ZM45.8824 51.5657V48.8213H49.8643V51.5657H45.8824Z" fill="#31C1DE"/>
<path fill-rule="evenodd" clip-rule="evenodd" d="M64.8722 72.5018C64.8722 73.4569 65.6467 74.2314 66.6019 74.2314H71.8117C72.7672 74.2314 73.5416 73.4569 73.5416 72.5018V48.2072C73.5416 47.2521 72.7672 46.4775 71.8117 46.4775H66.6019C65.6467 46.4775 64.8722 47.2521 64.8722 48.2072V72.5018ZM67.2159 71.8877V48.8213H71.1978V71.8877H67.2159Z" fill="#31C1DE"/>
<path fill-rule="evenodd" clip-rule="evenodd" d="M32.8719 62.3409C32.8719 63.2963 33.6467 64.0706 34.6018 64.0706H39.8116C40.7668 64.0706 41.5415 63.2963 41.5415 62.3409V58.3684C41.5415 57.4126 40.7665 56.6387 39.8116 56.6387H34.6018C33.6469 56.6387 32.8719 57.4126 32.8719 58.3684V62.3409ZM35.2157 61.7268V58.9824H39.1977V61.7268H35.2157Z" fill="#31C1DE"/>
<path fill-rule="evenodd" clip-rule="evenodd" d="M43.5387 62.3409C43.5387 63.296 44.3132 64.0706 45.2684 64.0706H50.4784C51.4339 64.0706 52.2081 63.2958 52.2081 62.3409V58.3684C52.2081 57.413 51.4337 56.6387 50.4784 56.6387H45.2684C44.3134 56.6387 43.5387 57.4128 43.5387 58.3684V62.3409ZM45.8824 61.7268V58.9824H49.8643V61.7268H45.8824Z" fill="#31C1DE"/>
<path fill-rule="evenodd" clip-rule="evenodd" d="M32.8719 72.5018C32.8719 73.4572 33.6467 74.2314 34.6018 74.2314H39.8116C40.7668 74.2314 41.5415 73.4571 41.5415 72.5018V68.5293C41.5415 67.5735 40.7665 66.7996 39.8116 66.7996H34.6018C33.6469 66.7996 32.8719 67.5735 32.8719 68.5293V72.5018ZM35.2157 71.8877V69.1433H39.1977V71.8877H35.2157Z" fill="#31C1DE"/>
<path fill-rule="evenodd" clip-rule="evenodd" d="M43.5387 72.5018C43.5387 73.4569 44.3132 74.2314 45.2684 74.2314H50.4784C51.4339 74.2314 52.2081 73.4567 52.2081 72.5018V68.5293C52.2081 67.5739 51.4337 66.7996 50.4784 66.7996H45.2684C44.3134 66.7996 43.5387 67.5737 43.5387 68.5293V72.5018ZM45.8824 71.8877V69.1433H49.8643V71.8877H45.8824Z" fill="#31C1DE"/>
<path fill-rule="evenodd" clip-rule="evenodd" d="M43.5387 52.1797C43.5387 53.1349 44.3132 53.9094 45.2684 53.9094H50.4784C51.4339 53.9094 52.2081 53.1347 52.2081 52.1797V48.2072C52.2081 47.2519 51.4337 46.4775 50.4784 46.4775H45.2684C44.3134 46.4775 43.5387 47.2517 43.5387 48.2072V52.1797ZM45.8824 51.5657V48.8213H49.8643V51.5657H45.8824Z" fill="#31C1DE"/>
<path fill-rule="evenodd" clip-rule="evenodd" d="M54.2053 52.1797C54.2053 53.1351 54.98 53.9094 55.9352 53.9094H61.145C62.1006 53.9094 62.8747 53.1347 62.8747 52.1797V48.2072C62.8747 47.2519 62.1003 46.4775 61.145 46.4775H55.9352C54.9803 46.4775 54.2053 47.2515 54.2053 48.2072V52.1797ZM56.5491 51.5657V48.8213H60.5309V51.5657H56.5491Z" fill="#31C1DE"/>
<path fill-rule="evenodd" clip-rule="evenodd" d="M43.5387 62.3409C43.5387 63.296 44.3132 64.0706 45.2684 64.0706H50.4784C51.4339 64.0706 52.2081 63.2958 52.2081 62.3409V58.3684C52.2081 57.413 51.4337 56.6387 50.4784 56.6387H45.2684C44.3134 56.6387 43.5387 57.4128 43.5387 58.3684V62.3409ZM45.8824 61.7268V58.9824H49.8643V61.7268H45.8824Z" fill="#31C1DE"/>
<path fill-rule="evenodd" clip-rule="evenodd" d="M54.2053 62.3409C54.2053 63.2963 54.98 64.0706 55.9352 64.0706H61.145C62.1006 64.0706 62.8747 63.2958 62.8747 62.3409V58.3684C62.8747 57.413 62.1003 56.6387 61.145 56.6387H55.9352C54.9803 56.6387 54.2053 57.4126 54.2053 58.3684V62.3409ZM56.5491 61.7268V58.9824H60.5309V61.7268H56.5491Z" fill="#31C1DE"/>
<path fill-rule="evenodd" clip-rule="evenodd" d="M43.5387 72.5018C43.5387 73.4569 44.3132 74.2314 45.2684 74.2314H50.4784C51.4339 74.2314 52.2081 73.4567 52.2081 72.5018V68.5293C52.2081 67.5739 51.4337 66.7996 50.4784 66.7996H45.2684C44.3134 66.7996 43.5387 67.5737 43.5387 68.5293V72.5018ZM45.8824 71.8877V69.1433H49.8643V71.8877H45.8824Z" fill="#31C1DE"/>
<path fill-rule="evenodd" clip-rule="evenodd" d="M54.2053 72.5018C54.2053 73.4572 54.98 74.2314 55.9352 74.2314H61.145C62.1006 74.2314 62.8747 73.4567 62.8747 72.5018V68.5293C62.8747 67.5739 62.1003 66.7996 61.145 66.7996H55.9352C54.9803 66.7996 54.2053 67.5735 54.2053 68.5293V72.5018ZM56.5491 71.8877V69.1433H60.5309V71.8877H56.5491Z" fill="#31C1DE"/>
<path fill-rule="evenodd" clip-rule="evenodd" d="M54.2053 52.1797C54.2053 53.1351 54.98 53.9094 55.9352 53.9094H61.145C62.1006 53.9094 62.8747 53.1347 62.8747 52.1797V48.2072C62.8747 47.2519 62.1003 46.4775 61.145 46.4775H55.9352C54.9803 46.4775 54.2053 47.2515 54.2053 48.2072V52.1797ZM56.5491 51.5657V48.8213H60.5309V51.5657H56.5491Z" fill="#31C1DE"/>
<path fill-rule="evenodd" clip-rule="evenodd" d="M31.9618 77.6563C31.3187 77.6563 30.6157 77.0488 30.6157 76.0644V42.6928H75.7979V76.0644C75.7979 77.0488 75.095 77.6563 74.4518 77.6563H31.9618ZM28.272 76.0644C28.272 78.1331 29.8237 80 31.9618 80H74.4518C76.5899 80 78.1417 78.1331 78.1417 76.0644V41.5209C78.1417 40.8737 77.617 40.3491 76.9698 40.3491H29.4438C28.7966 40.3491 28.272 40.8737 28.272 41.5209V76.0644Z" fill="#31C1DE"/>
<path fill-rule="evenodd" clip-rule="evenodd" d="M66.8046 35.8017C66.8046 37.6621 68.3127 39.1702 70.173 39.1702C72.0332 39.1702 73.5416 37.6622 73.5416 35.8017V32.2072C73.5416 30.3469 72.0332 28.8389 70.173 28.8389C68.3127 28.8389 66.8046 30.347 66.8046 32.2072V35.8017ZM70.173 36.8264C69.6071 36.8264 69.1483 36.3676 69.1483 35.8017V32.2072C69.1483 31.6415 69.607 31.1827 70.173 31.1827C70.7391 31.1827 71.1978 31.6416 71.1978 32.2072V35.8017C71.1978 36.3675 70.739 36.8264 70.173 36.8264Z" fill="#31C1DE"/>
<path fill-rule="evenodd" clip-rule="evenodd" d="M9.17908 9.14722C9.17908 9.79443 9.70374 10.3191 10.351 10.3191H24.5697C25.2169 10.3191 25.7416 9.79443 25.7416 9.14722C25.7416 8.50001 25.2169 7.97534 24.5697 7.97534H10.351C9.70374 7.97534 9.17908 8.50001 9.17908 9.14722Z" fill="#31C1DE"/>
<path fill-rule="evenodd" clip-rule="evenodd" d="M9.17908 15.7668C9.17908 16.4141 9.70374 16.9387 10.351 16.9387H48.5367C49.1839 16.9387 49.7086 16.4141 49.7086 15.7668C49.7086 15.1196 49.1839 14.595 48.5367 14.595H10.351C9.70374 14.595 9.17908 15.1196 9.17908 15.7668Z" fill="#31C1DE"/>
<path fill-rule="evenodd" clip-rule="evenodd" d="M9.17908 21.3938C9.17908 22.041 9.70374 22.5657 10.351 22.5657H48.5367C49.1839 22.5657 49.7086 22.041 49.7086 21.3938C49.7086 20.7466 49.1839 20.2219 48.5367 20.2219H10.351C9.70374 20.2219 9.17908 20.7466 9.17908 21.3938Z" fill="#31C1DE"/>
<path fill-rule="evenodd" clip-rule="evenodd" d="M9.17908 33.9714C9.17908 34.6186 9.70374 35.1433 10.351 35.1433H23.2813C23.9285 35.1433 24.4531 34.6186 24.4531 33.9714C24.4531 33.3242 23.9285 32.7996 23.2813 32.7996H10.351C9.70374 32.7996 9.17908 33.3242 9.17908 33.9714Z" fill="#31C1DE"/>
<path fill-rule="evenodd" clip-rule="evenodd" d="M9.17908 51.9004C9.17908 53.0651 10.1233 54.0098 11.2885 54.0098H22.3438C23.5086 54.0098 24.4531 53.0653 24.4531 51.9004V41.1977C24.4531 40.0326 23.5085 39.0884 22.3438 39.0884H11.2885C10.1234 39.0884 9.17908 40.0327 9.17908 41.1977V51.9004ZM11.5228 51.666V41.4321H22.1094V51.666H11.5228Z" fill="#31C1DE"/>
<path fill-rule="evenodd" clip-rule="evenodd" d="M9.17908 58.7957C9.17908 59.4429 9.70374 59.9675 10.351 59.9675H23.2813C23.9285 59.9675 24.4531 59.4429 24.4531 58.7957C24.4531 58.1484 23.9285 57.6238 23.2813 57.6238H10.351C9.70374 57.6238 9.17908 58.1484 9.17908 58.7957Z" fill="#31C1DE"/>
<path fill-rule="evenodd" clip-rule="evenodd" d="M9.17908 65.0847C9.17908 65.7319 9.70374 66.2566 10.351 66.2566H23.2813C23.9285 66.2566 24.4531 65.7319 24.4531 65.0847C24.4531 64.4375 23.9285 63.9128 23.2813 63.9128H10.351C9.70374 63.9128 9.17908 64.4375 9.17908 65.0847Z" fill="#31C1DE"/>
<path fill-rule="evenodd" clip-rule="evenodd" d="M5.02915 71.8879C4.57263 71.8879 4.20227 71.5176 4.20227 71.0609V3.17076C4.20227 2.71407 4.57245 2.34389 5.02915 2.34389H53.3785C53.8351 2.34389 54.2054 2.71413 54.2054 3.17076V25.0717H32.0818C29.9777 25.0717 28.272 26.7775 28.272 28.8815V71.8879H5.02915ZM1.85852 71.0609C1.85852 72.8117 3.27785 74.2317 5.02915 74.2317H29.4438C30.091 74.2317 30.6157 73.707 30.6157 73.0598V28.8815C30.6157 28.0719 31.2721 27.4154 32.0818 27.4154H55.3773C56.0245 27.4154 56.5491 26.8908 56.5491 26.2436V3.17076C56.5491 1.41959 55.1294 0.000137329 53.3785 0.000137329H5.02915C3.27803 0.000137329 1.85852 1.41965 1.85852 3.17076V71.0609Z" fill="#31C1DE"/>
<path fill-rule="evenodd" clip-rule="evenodd" d="M13.2156 46.5491C13.2156 47.1963 13.7402 47.7209 14.3875 47.7209H19.3875C20.0347 47.7209 20.5593 47.1963 20.5593 46.5491C20.5593 45.9019 20.0347 45.3772 19.3875 45.3772H14.3875C13.7402 45.3772 13.2156 45.9019 13.2156 46.5491Z" fill="#31C1DE"/>
<path fill-rule="evenodd" clip-rule="evenodd" d="M16.8875 50.2209C17.5347 50.2209 18.0593 49.6963 18.0593 49.0491V44.0491C18.0593 43.4019 17.5347 42.8772 16.8875 42.8772C16.2402 42.8772 15.7156 43.4019 15.7156 44.0491V49.0491C15.7156 49.6963 16.2402 50.2209 16.8875 50.2209Z" fill="#31C1DE"/>
</g>
</svg>
