<svg width="16" height="16" viewBox="0 0 16 16" fill="none" xmlns="http://www.w3.org/2000/svg">
<g clip-path="url(#clip0_49_754)">
<path d="M14.7341 7.0409L1.83522 0.748744C1.72429 0.694631 1.60247 0.666504 1.47904 0.666504C1.03036 0.666504 0.666626 1.03024 0.666626 1.47892V1.50236C0.666626 1.61138 0.679993 1.71998 0.706433 1.82574L1.94375 6.77497C1.97754 6.91017 2.09184 7.01004 2.23032 7.02544L7.66869 7.6297C7.85729 7.65064 7.99996 7.81004 7.99996 7.99984C7.99996 8.18964 7.85729 8.34904 7.66869 8.36997L2.23032 8.97424C2.09184 8.98964 1.97754 9.08951 1.94375 9.2247L0.706433 14.1739C0.679993 14.2797 0.666626 14.3883 0.666626 14.4973V14.5208C0.666626 14.9694 1.03036 15.3332 1.47904 15.3332C1.60247 15.3332 1.72429 15.305 1.83522 15.2509L14.7341 8.95877C15.1007 8.77997 15.3333 8.40777 15.3333 7.99984C15.3333 7.5919 15.1007 7.2197 14.7341 7.0409Z" fill="white"/>
</g>
<defs>
<clipPath id="clip0_49_754">
<rect width="16" height="16" fill="white"/>
</clipPath>
</defs>
</svg>
