<svg width="70" height="70" viewBox="0 0 70 70" fill="none" xmlns="http://www.w3.org/2000/svg">
<g clip-path="url(#clip0_49_1698)">
<mask id="mask0_49_1698" style="mask-type:luminance" maskUnits="userSpaceOnUse" x="-12" y="-12" width="94" height="94">
<path d="M81.6718 81.6581H-11.6616V-11.6752H81.6718V81.6581Z" fill="white"/>
</mask>
<g mask="url(#mask0_49_1698)">
<path d="M50.0303 48.351C49.6748 48.351 49.333 48.1732 49.1416 47.8314C48.8545 47.3393 49.0323 46.7104 49.5107 46.437C50.0029 46.1499 50.3447 45.6987 50.4951 45.1656L52.5184 37.6054C53.161 35.1856 55.5944 33.7228 58.0279 34.2696C58.5748 34.3927 58.9302 34.9395 58.8072 35.5C58.6841 36.0469 58.1373 36.4023 57.5768 36.2793C56.2096 35.9648 54.8562 36.7988 54.4871 38.1522L52.4774 45.6987C52.1903 46.7651 51.5067 47.6674 50.5498 48.2142C50.372 48.3099 50.1943 48.351 50.0303 48.351Z" fill="white"/>
<path d="M48.301 69.9957H36.9265C36.284 69.9957 35.7508 69.4625 35.7508 68.82V58.4709C35.7508 55.8187 36.0926 53.1801 36.7898 50.6236L39.7838 39.4406C39.9615 38.7844 40.3717 38.2512 40.9595 37.9094C41.5474 37.5676 42.2309 37.4856 42.8872 37.6633C46.0315 38.5109 47.9045 41.7647 47.0569 44.9091L46.1683 48.2312C46.1683 48.2585 46.1546 48.2722 46.1956 48.2995C46.2366 48.3269 46.2503 48.3132 46.264 48.2995L58.0212 41.5049C58.5134 41.2178 58.8551 40.7667 59.0055 40.2335L60.7281 33.808C61.1656 32.1948 62.2866 30.8414 63.7904 30.0758C65.2943 29.3239 67.0715 29.2555 68.6437 29.8844C69.6554 30.2945 70.2022 31.4019 69.9151 32.4683L67.2629 42.3662C66.9211 43.6376 66.2513 44.786 65.3216 45.7157L51.6367 59.2912C50.2559 60.6583 49.463 62.5723 49.463 64.5136V68.82C49.4767 69.4762 48.9435 69.9957 48.301 69.9957ZM37.8015 67.945H47.426V64.5272C47.426 62.0391 48.4377 59.6056 50.2013 57.8557L63.8861 44.2802C64.556 43.6103 65.0482 42.7764 65.2943 41.8604L67.9465 31.9488C67.9602 31.8804 67.9328 31.812 67.8781 31.7984C66.8254 31.3746 65.7044 31.4156 64.7064 31.9214C63.7221 32.4136 62.9975 33.3022 62.7104 34.3549L60.9878 40.7804C60.7007 41.8467 60.0172 42.749 59.0602 43.2959L47.303 50.0905C46.5647 50.5143 45.6351 50.4596 44.9515 49.9401C44.268 49.4206 43.9672 48.5456 44.1996 47.7117L45.0882 44.3896C45.6351 42.3389 44.4183 40.2062 42.354 39.6457C42.1899 39.6046 42.0532 39.6593 41.9849 39.7003C41.9165 39.7414 41.8071 39.8234 41.7661 39.9874L38.7721 51.1705C38.1296 53.5493 37.8151 56.0101 37.8151 58.4846V67.945H37.8015Z" fill="white"/>
<path d="M33.0654 69.9901H21.691C21.0484 69.9901 20.5153 69.4569 20.5153 68.8144V64.508C20.5153 62.5666 19.7223 60.6527 18.3415 59.2856L17.1521 58.0962C16.7557 57.6997 16.742 57.0435 17.1521 56.647C17.5486 56.2505 18.2048 56.2369 18.6013 56.647L19.7907 57.8364C21.5543 59.6 22.5796 62.0335 22.5796 64.5216V67.9394H32.2041V58.4653C32.2041 56.0045 31.876 53.5436 31.2471 51.1512L28.2532 39.9681C28.2121 39.8041 28.0891 39.7221 28.0344 39.681C27.9661 39.64 27.8293 39.5853 27.6653 39.6264C25.6146 40.1869 24.3842 42.3059 24.931 44.3703L25.8197 47.6924C26.0384 48.5263 25.7513 49.4013 25.0678 49.9208C24.3842 50.4403 23.4682 50.5086 22.7163 50.0712L10.9591 43.2766C10.0021 42.7161 9.31853 41.8274 9.03144 40.7611L7.30887 34.3356C7.02177 33.2692 6.2972 32.3806 5.31287 31.8885C4.31487 31.3963 3.19383 31.3416 2.14115 31.7654C2.08646 31.7791 2.05912 31.8474 2.07279 31.9158L4.72501 41.8138C4.97109 42.7297 5.46325 43.5637 6.13314 44.2336L15.1698 53.2566C15.5663 53.653 15.5799 54.3092 15.1698 54.7057C14.7733 55.1022 14.1171 55.1158 13.7207 54.7057L4.67032 45.7237C3.74068 44.7941 3.07079 43.6457 2.72901 42.3743L0.0767976 32.4763C-0.210298 31.41 0.33655 30.3026 1.34822 29.8925C2.92041 29.2636 4.69766 29.3319 6.2015 30.0839C7.70533 30.8358 8.82637 32.2029 9.26385 33.8298L10.9864 40.2552C11.1368 40.8021 11.4786 41.2532 11.9707 41.5267L23.728 48.3212C23.7417 48.3349 23.769 48.3486 23.7963 48.3212C23.8374 48.2939 23.8237 48.2802 23.8237 48.2529L22.9351 44.9308C22.0874 41.7864 23.9604 38.5327 27.1048 37.6851C27.761 37.5073 28.4445 37.603 29.0324 37.9311C29.6203 38.2729 30.0304 38.8198 30.2081 39.4623L33.2021 50.6454C33.8857 53.2019 34.2411 55.8404 34.2411 58.4926V68.8417C34.2411 69.4706 33.7216 69.9901 33.0654 69.9901Z" fill="white"/>
<path d="M35.0004 14.9155C34.4399 14.9155 33.9751 14.4507 33.9751 13.8902C33.9751 13.3707 34.3579 12.9469 34.8637 12.8785V12.277C34.8637 11.7165 35.3285 11.2516 35.8891 11.2516C36.4496 11.2516 36.9144 11.7028 36.9144 12.277V13.0016C36.9144 14.0542 36.0531 14.9155 35.0004 14.9155Z" fill="white"/>
<path d="M27.1818 35.2222C26.6213 35.2222 26.1564 34.7573 26.1564 34.1968V29.2615C26.1564 28.701 26.6213 28.2362 27.1818 28.2362C27.7423 28.2362 28.2071 28.701 28.2071 29.2615V34.1968C28.2071 34.7573 27.7423 35.2222 27.1818 35.2222Z" fill="white"/>
<path d="M42.8146 35.2222C42.2541 35.2222 41.7893 34.7573 41.7893 34.1968V29.2615C41.7893 28.701 42.2541 28.2362 42.8146 28.2362C43.3752 28.2362 43.84 28.701 43.84 29.2615V34.1968C43.84 34.7573 43.3752 35.2222 42.8146 35.2222Z" fill="white"/>
<path d="M46.6953 35.2156H41.0901C40.5295 35.2156 40.0647 34.7508 40.0647 34.1902C40.0647 33.6297 40.5295 33.1649 41.0901 33.1649H46.0527V25.6731C46.0527 23.6497 44.4122 22.0092 42.3888 22.0092H39.9827L37.5082 23.3626C35.936 24.2239 34.0494 24.2239 32.4772 23.3626L30.0164 21.9955H27.6103C25.5869 21.9955 23.9464 23.6361 23.9464 25.6594V33.1649H36.3051C36.8657 33.1649 37.3305 33.6297 37.3305 34.1902C37.3305 34.7508 36.8657 35.2156 36.3051 35.2156H23.2902C22.5109 35.2156 21.882 34.5867 21.882 33.8074V25.6594C21.882 22.5014 24.4522 19.9448 27.5966 19.9448H30.2625C30.4402 19.9448 30.6042 19.9859 30.7546 20.0679L33.4615 21.558C34.4185 22.0775 35.5532 22.0775 36.5102 21.558L39.2171 20.0679C39.3675 19.9859 39.5315 19.9448 39.7093 19.9448H42.3888C45.5469 19.9448 48.1034 22.515 48.1034 25.6594V33.8074C48.1034 34.5867 47.4745 35.2156 46.6953 35.2156Z" fill="white"/>
<path d="M28.7368 12.2499C28.6138 12.2499 28.4907 12.2225 28.3814 12.1815C28.0123 12.0448 27.7388 11.6894 27.7115 11.2929L27.4791 8.14852C27.315 6.00214 28.0259 3.96513 29.4477 2.40661C30.8695 0.889105 32.7972 0.0278187 34.9025 0.000475883C36.9942 -0.026866 39.0176 0.834419 40.4667 2.33825C41.9022 3.85576 42.6541 5.92011 42.5311 7.99813C42.5311 8.0118 42.5311 8.02548 42.5311 8.03915L42.2987 11.1835C42.2713 11.58 42.0116 11.9354 41.6288 12.0722C41.2597 12.2089 40.8358 12.1132 40.5488 11.8397L39.7832 11.0742C39.5508 10.8417 39.2637 10.664 38.9629 10.582C36.7755 10.0078 34.7658 8.85942 33.139 7.27356C32.7698 8.2989 32.182 9.21487 31.4437 9.95312L29.4477 11.9491C29.27 12.1542 28.9966 12.2499 28.7368 12.2499ZM32.9065 4.64869C33.2347 4.64869 33.5354 4.77173 33.7678 5.00414L34.4787 5.71504C35.8732 7.1095 37.5958 8.1075 39.4824 8.61334C39.7968 8.69536 40.1113 8.83208 40.3984 8.99613C40.4531 8.17586 40.4804 7.95712 40.4804 7.90243V7.88876C40.5761 6.34392 40.0429 4.8811 38.9766 3.76006C37.9102 2.63902 36.4747 2.03749 34.9299 2.05116C33.3987 2.06483 31.9906 2.6937 30.9652 3.81474C29.9262 4.94945 29.4067 6.45329 29.5298 8.02548L29.5981 8.92777L30.0083 8.51764C30.5961 7.92978 31.0336 7.19153 31.2933 6.35759C31.4301 5.90644 31.6488 5.4963 31.9496 5.12718C32.1683 4.85375 32.4964 4.67603 32.8382 4.66236C32.8655 4.64869 32.8792 4.64869 32.9065 4.64869Z" fill="white"/>
<path d="M34.9962 20.4303C32.7268 20.4303 28.2016 17.9695 27.9145 14.1142L27.7095 11.3116C27.6685 10.7511 28.0923 10.2589 28.6528 10.2179C29.2133 10.1769 29.7055 10.6007 29.7465 11.1612L29.9652 13.9638C30.0746 15.454 31.264 16.5613 31.9612 17.0945C33.0686 17.9421 34.3263 18.3796 34.9962 18.3796C35.6661 18.3796 36.9239 17.9421 38.0312 17.0945C38.7285 16.5613 39.9179 15.454 40.0272 13.9638L40.246 11.0518C40.287 10.4913 40.7791 10.0675 41.3397 10.1085C41.9002 10.1495 42.324 10.6417 42.283 11.2022L42.0642 14.1142C41.7908 17.9695 37.2656 20.4303 34.9962 20.4303Z" fill="white"/>
<path d="M22.9096 29.9897C22.6362 29.9897 22.3627 29.8804 22.1577 29.6616C19.0816 26.3805 17.3864 22.1015 17.3864 17.6036C17.3864 14.2815 18.3161 11.0415 20.0796 8.23885C20.3941 7.76036 21.023 7.60998 21.5014 7.92442C21.9799 8.22518 22.1303 8.85406 21.8159 9.33255C20.271 11.807 19.4371 14.6643 19.4371 17.6036C19.4371 21.582 20.9409 25.3689 23.6615 28.2535C24.0443 28.6636 24.0306 29.3199 23.6205 29.7026C23.4154 29.894 23.1693 29.9897 22.9096 29.9897Z" fill="white"/>
<path d="M47.0815 29.9896C46.8354 29.9896 46.5756 29.8939 46.3843 29.7162C45.9741 29.3334 45.9468 28.6772 46.3432 28.2671C49.0501 25.3688 50.554 21.5818 50.554 17.6035C50.554 9.03166 43.5817 2.04568 34.9961 2.04568C31.2502 2.04568 27.6274 3.39913 24.7974 5.85994C24.3736 6.22906 23.7174 6.18805 23.3483 5.76424C22.9791 5.34044 23.0202 4.68422 23.444 4.3151C26.643 1.52617 30.7444 -0.00500488 34.9961 -0.00500488C44.7027 -0.00500488 52.6047 7.89695 52.6047 17.6035C52.6047 22.1013 50.9094 26.3941 47.8334 29.6615C47.6283 29.8803 47.3549 29.9896 47.0815 29.9896Z" fill="white"/>
<path d="M39.723 21.9967C38.3832 21.9967 37.2895 20.903 37.2895 19.5632V18.1551C37.2895 17.5946 37.7543 17.1298 38.3148 17.1298C38.8753 17.1298 39.3402 17.5946 39.3402 18.1551V19.5632C39.3402 19.7683 39.5042 19.946 39.723 19.946C40.2835 19.946 40.7483 20.4108 40.7483 20.9714C40.7483 21.5319 40.2835 21.9967 39.723 21.9967Z" fill="white"/>
<path d="M30.2711 21.9991C29.7105 21.9991 29.2457 21.5343 29.2457 20.9738C29.2457 20.4133 29.7105 19.9485 30.2711 19.9485C30.4761 19.9485 30.6539 19.7844 30.6539 19.5657V18.1575C30.6539 17.597 31.1187 17.1322 31.6792 17.1322C32.2397 17.1322 32.7045 17.597 32.7045 18.1575V19.5657C32.7045 20.9054 31.6108 21.9991 30.2711 21.9991Z" fill="white"/>
<path d="M19.9662 48.351C19.7885 48.351 19.6107 48.3099 19.4604 48.2142C18.5034 47.6537 17.8198 46.7651 17.5327 45.6987L15.4957 38.1386C15.1403 36.7851 13.7868 35.9648 12.406 36.2656C11.8592 36.3886 11.2986 36.0469 11.1756 35.4863C11.0526 34.9395 11.3943 34.379 11.9549 34.2559C14.402 33.7091 16.8218 35.1719 17.478 37.5917L19.5014 45.1519C19.6518 45.6987 19.9935 46.1499 20.4857 46.4233C20.9779 46.7104 21.1419 47.3393 20.8548 47.8178C20.6634 48.1732 20.3216 48.351 19.9662 48.351Z" fill="white"/>
<path d="M15.7076 45.8948C15.5299 45.8948 15.3522 45.8538 15.2018 45.7581C14.2448 45.1975 13.5613 44.3089 13.2742 43.2426L11.2371 35.6824C11.0594 34.9988 10.6219 34.4383 10.0204 34.0829C9.40521 33.7411 8.69431 33.659 8.02442 33.8368C7.47757 33.9872 6.91705 33.6727 6.76666 33.1259C6.61628 32.579 6.93072 32.0185 7.47757 31.8681C8.68063 31.5263 9.95206 31.6904 11.0321 32.3056C12.1258 32.9345 12.8914 33.9325 13.2195 35.1492L15.2428 42.7094C15.3932 43.2562 15.735 43.7074 16.2271 43.9808C16.7193 44.2679 16.8834 44.8968 16.5963 45.3753C16.4049 45.717 16.0631 45.8948 15.7076 45.8948Z" fill="white"/>
<path d="M54.2888 45.8948C53.9333 45.8948 53.5916 45.717 53.4002 45.3753C53.1131 44.8831 53.2908 44.2542 53.7693 43.9808C54.2615 43.6937 54.6032 43.2426 54.7536 42.7094L56.777 35.1492C57.1051 33.9325 57.8707 32.9345 58.9644 32.3056C60.0444 31.6904 61.3158 31.5263 62.5189 31.8544C63.0657 32.0185 63.3802 32.579 63.2298 33.1259C63.0794 33.6727 62.5189 33.9872 61.972 33.8368C61.3021 33.659 60.5912 33.7411 59.976 34.0829C59.3745 34.4246 58.937 34.9988 58.7456 35.6687L56.7359 43.2426C56.4488 44.3089 55.7653 45.2112 54.8083 45.7581C54.6306 45.8538 54.4529 45.8948 54.2888 45.8948Z" fill="white"/>
</g>
</g>
<defs>
<clipPath id="clip0_49_1698">
<rect width="70" height="70" fill="white"/>
</clipPath>
</defs>
</svg>
