<svg width="70" height="70" viewBox="0 0 70 70" fill="none" xmlns="http://www.w3.org/2000/svg">
<g clip-path="url(#clip0_49_1590)">
<path fill-rule="evenodd" clip-rule="evenodd" d="M22.7145 8.8677C25.7147 3.56112 30.0184 0 34.9999 0C39.9814 0 44.2851 3.56112 47.2853 8.86768C50.303 14.2053 52.1372 21.5104 52.1372 29.5235C52.1372 33.3915 51.7089 37.0876 50.9306 40.4752C50.8688 40.7442 50.7012 40.9769 50.4657 41.1207C50.2301 41.2646 49.9465 41.3074 49.679 41.2395C49.334 41.152 48.9738 41.105 48.6029 41.105H21.3971C21.0263 41.105 20.666 41.152 20.321 41.2396C20.0535 41.3075 19.7699 41.2647 19.5343 41.1209C19.2988 40.9771 19.1312 40.7444 19.0694 40.4754C18.2909 37.0876 17.8627 33.3914 17.8627 29.5236C17.8627 21.5105 19.6968 14.2054 22.7145 8.8677ZM24.4998 9.877C21.6862 14.8536 19.9135 21.7977 19.9135 29.5236C19.9135 32.8848 20.2501 36.1018 20.8633 39.0764C21.0394 39.0617 21.2174 39.0542 21.3971 39.0542H48.6029C48.7825 39.0542 48.9605 39.0617 49.1366 39.0764C49.7498 36.1018 50.0864 32.8847 50.0864 29.5235C50.0864 21.7976 48.3137 14.8536 45.5001 9.87699C42.6689 4.86925 38.9167 2.0508 34.9999 2.0508C31.0831 2.0508 27.331 4.86925 24.4998 9.877Z" fill="white"/>
<path fill-rule="evenodd" clip-rule="evenodd" d="M8.59986 16.9911C15.6266 14.4441 24.8842 12.9094 34.9999 12.9094C45.1156 12.9094 54.3732 14.4441 61.4 16.9911C61.6621 17.0861 61.8742 17.2837 61.9875 17.5384C63.617 21.2023 64.5237 25.2581 64.5235 29.5237C64.5235 33.7892 63.6169 37.8451 61.9873 41.5089C61.8741 41.7636 61.662 41.9612 61.3999 42.0562C59.0727 42.8999 56.5028 43.6304 53.744 44.2316C53.2756 44.3337 52.799 44.0976 52.5964 43.6632C51.8915 42.1522 50.3593 41.1052 48.6028 41.1052H21.397C19.6405 41.1052 18.1082 42.1522 17.4033 43.6632C17.2007 44.0976 16.7241 44.3337 16.2557 44.2316C13.4969 43.6302 10.927 42.8998 8.59985 42.0562C8.33776 41.9612 8.12565 41.7636 8.01236 41.5089C6.38285 37.845 5.47618 33.7892 5.47618 29.5236C5.47618 25.2581 6.38285 21.2022 8.01237 17.5384C8.12565 17.2837 8.33777 17.086 8.59986 16.9911ZM9.71227 18.7714C8.30645 22.0729 7.52698 25.7059 7.52698 29.5236C7.52698 33.3414 8.30644 36.9743 9.71227 40.2759C11.6241 40.9489 13.7126 41.5479 15.9478 42.0612C17.0927 40.2606 19.1067 39.0544 21.397 39.0544H48.6028C50.893 39.0544 52.907 40.2606 54.0519 42.0612C56.2872 41.5481 58.3757 40.949 60.2874 40.2759C61.6933 36.9744 62.4727 33.3414 62.4727 29.5236C62.4729 25.7059 61.6934 22.073 60.2876 18.7714C53.5766 16.4087 44.7276 14.9602 34.9999 14.9602C25.2722 14.9602 16.4233 16.4087 9.71227 18.7714Z" fill="white"/>
<path fill-rule="evenodd" clip-rule="evenodd" d="M35.0001 0.484131C35.5664 0.484131 36.0255 0.943218 36.0255 1.50953V39.7697C36.0255 40.336 35.5664 40.7951 35.0001 40.7951C34.4338 40.7951 33.9747 40.336 33.9747 39.7697V1.50953C33.9747 0.943218 34.4338 0.484131 35.0001 0.484131Z" fill="white"/>
<path fill-rule="evenodd" clip-rule="evenodd" d="M5.96059 29.5236C5.96059 28.9573 6.41967 28.4982 6.98599 28.4982H63.014C63.5803 28.4982 64.0394 28.9573 64.0394 29.5236C64.0394 30.0899 63.5803 30.549 63.014 30.549H6.98599C6.41967 30.549 5.96059 30.0899 5.96059 29.5236Z" fill="white"/>
<path fill-rule="evenodd" clip-rule="evenodd" d="M26.0062 37.81C26.0062 35.4566 27.914 33.549 30.2672 33.549H39.7326C42.0858 33.549 43.9936 35.4567 43.9935 37.81C43.9935 37.8099 43.9935 37.81 43.9935 37.81V40.0797C43.9935 40.646 43.5344 41.1051 42.9681 41.1051H27.0316C26.4653 41.1051 26.0062 40.646 26.0062 40.0797V37.81ZM30.2672 35.5998C29.0466 35.5998 28.057 36.5892 28.057 37.81V39.0543H41.9427V37.81C41.9428 36.5894 40.9533 35.5998 39.7326 35.5998H30.2672Z" fill="white"/>
<path fill-rule="evenodd" clip-rule="evenodd" d="M30.39 52.754C30.39 51.166 31.6773 49.8787 33.2654 49.8787H36.8117C38.3997 49.8787 39.687 51.166 39.687 52.754V56.3004C39.687 57.8884 38.3997 59.1757 36.8117 59.1757H33.2654C31.6773 59.1757 30.39 57.8884 30.39 56.3004V52.754ZM33.2654 51.9295C32.81 51.9295 32.4408 52.2986 32.4408 52.754V56.3004C32.4408 56.7557 32.81 57.1249 33.2654 57.1249H36.8117C37.2671 57.1249 37.6362 56.7557 37.6362 56.3004V52.754C37.6362 52.2986 37.2671 51.9295 36.8117 51.9295H33.2654Z" fill="white"/>
<path fill-rule="evenodd" clip-rule="evenodd" d="M14.9428 45.5085C14.9428 41.9564 17.8448 39.0542 21.3971 39.0542H48.6029C52.1552 39.0542 55.0573 41.9563 55.0574 45.5086V49.264C55.0574 52.8162 52.1555 55.7183 48.6032 55.7183H38.6618C38.0955 55.7183 37.6364 55.2592 37.6364 54.6929V52.7537C37.6364 52.2983 37.2673 51.9291 36.8119 51.9291H33.2655C32.8101 51.9291 32.4409 52.2983 32.4409 52.7537V54.6929C32.4409 55.2592 31.9818 55.7183 31.4155 55.7183H21.3971C17.845 55.7183 14.9428 52.8163 14.9428 49.264V45.5085ZM21.3971 41.105C18.9775 41.105 16.9936 43.0889 16.9936 45.5085V49.264C16.9936 51.6837 18.9776 53.6675 21.3971 53.6675H30.3901V52.7537C30.3901 51.1657 31.6775 49.8783 33.2655 49.8783H36.8119C38.3999 49.8783 39.6872 51.1657 39.6872 52.7537V53.6675H48.6032C51.0228 53.6675 53.0066 51.6836 53.0066 49.264V45.5087C53.0065 43.089 51.0225 41.105 48.6029 41.105H21.3971Z" fill="white"/>
<path fill-rule="evenodd" clip-rule="evenodd" d="M14.9427 45.5086C14.9427 41.9565 17.8447 39.0543 21.397 39.0543H48.6029C52.155 39.0543 55.0572 41.9563 55.0572 45.5086V63.5457C55.0572 67.0978 52.1552 70 48.6029 70H37.3925C36.8262 70 36.3671 69.5409 36.3671 68.9746C36.3671 68.4082 36.8262 67.9492 37.3925 67.9492H48.6029C51.0225 67.9492 53.0064 65.9652 53.0064 63.5457V45.5086C53.0064 43.089 51.0224 41.1051 48.6029 41.1051H21.397C18.9773 41.1051 16.9935 43.0891 16.9935 45.5086V63.5457C16.9935 65.9653 18.9774 67.9492 21.397 67.9492H32.6073C33.1736 67.9492 33.6327 68.4082 33.6327 68.9746C33.6327 69.5409 33.1736 70 32.6073 70H21.397C17.8448 70 14.9427 67.098 14.9427 63.5457V45.5086Z" fill="white"/>
<path fill-rule="evenodd" clip-rule="evenodd" d="M5.47632 29.5236C5.47632 13.2182 18.6945 0 34.9999 0C41.4166 0 47.3569 2.04908 52.2005 5.52703C52.6605 5.85734 52.7656 6.49802 52.4353 6.95803C52.105 7.41803 51.4643 7.52317 51.0043 7.19286C46.4976 3.95676 40.9731 2.0508 34.9999 2.0508C19.8272 2.0508 7.52712 14.3508 7.52712 29.5236C7.52712 36.783 10.3425 43.3832 14.9427 48.2957V45.5086C14.9427 41.9563 17.8448 39.0544 21.397 39.0544H48.6029C52.1552 39.0544 55.0572 41.9565 55.0572 45.5086V48.2957C59.6573 43.3832 62.4727 36.7831 62.4727 29.5236C62.4727 21.9826 59.435 15.1537 54.5147 10.1882C54.1161 9.78597 54.1191 9.13673 54.5214 8.73812C54.9236 8.33951 55.5729 8.34248 55.9715 8.74475C61.2566 14.0784 64.5235 21.4201 64.5235 29.5236C64.5235 38.2508 60.7347 46.0932 54.7168 51.4966C54.4157 51.767 53.9837 51.835 53.6141 51.6701C53.2444 51.5053 53.0064 51.1384 53.0064 50.7337V45.5086C53.0064 43.0891 51.0225 41.1052 48.6029 41.1052H21.397C18.9774 41.1052 16.9935 43.089 16.9935 45.5086V50.7337C16.9935 51.1384 16.7554 51.5053 16.3858 51.6701C16.0162 51.835 15.5842 51.767 15.283 51.4966C9.2652 46.0932 5.47632 38.2507 5.47632 29.5236Z" fill="white"/>
</g>
<defs>
<clipPath id="clip0_49_1590">
<rect width="70" height="70" fill="white"/>
</clipPath>
</defs>
</svg>
