<svg width="70" height="70" viewBox="0 0 70 70" fill="none" xmlns="http://www.w3.org/2000/svg">
<g clip-path="url(#clip0_49_1423)">
<mask id="mask0_49_1423" style="mask-type:luminance" maskUnits="userSpaceOnUse" x="0" y="0" width="70" height="70">
<path d="M0 7.62939e-06H70V70H0V7.62939e-06Z" fill="white"/>
</mask>
<g mask="url(#mask0_49_1423)">
<path fill-rule="evenodd" clip-rule="evenodd" d="M59.5797 36.0254C60.146 36.0254 60.6051 35.5663 60.6051 35C60.6051 20.8586 49.1413 9.3949 35 9.3949C34.4337 9.3949 33.9746 9.85399 33.9746 10.4203C33.9746 10.9866 34.4337 11.4457 35 11.4457C48.0087 11.4457 58.5543 21.9912 58.5543 35C58.5543 35.5663 59.0134 36.0254 59.5797 36.0254Z" fill="white"/>
<path fill-rule="evenodd" clip-rule="evenodd" d="M55.5051 56.5304C55.777 56.5304 56.0378 56.4224 56.2301 56.2301C59.3887 53.0715 61.8478 49.2115 63.3503 44.9009C63.5367 44.3661 63.2543 43.7815 62.7195 43.5951C62.1848 43.4088 61.6002 43.6912 61.4138 44.2259C60.1299 47.9093 58.0947 51.242 55.4919 54.0417L48.418 46.9678C48.0176 46.5674 47.3683 46.5674 46.9679 46.9678C46.5675 47.3683 46.5675 48.0175 46.9679 48.418L54.78 56.2301C54.9723 56.4224 55.2331 56.5304 55.5051 56.5304Z" fill="white"/>
<path fill-rule="evenodd" clip-rule="evenodd" d="M63.4065 40.9448C63.9647 41.0405 64.4947 40.6655 64.5903 40.1073C64.8749 38.4468 65.0234 36.7401 65.0234 35C65.0234 34.4337 64.5644 33.9746 63.998 33.9746H52.9512C52.3849 33.9746 51.9258 34.4337 51.9258 35C51.9258 35.5663 52.3849 36.0254 52.9512 36.0254H62.9542C62.9084 37.2941 62.778 38.5412 62.569 39.761C62.4734 40.3192 62.8483 40.8492 63.4065 40.9448Z" fill="white"/>
<path fill-rule="evenodd" clip-rule="evenodd" d="M16.0231 35C16.0231 45.4806 24.5193 53.9768 35 53.9768C45.4807 53.9768 53.9769 45.4806 53.9769 35C53.9769 24.5194 45.4807 16.0231 35 16.0231C24.5193 16.0231 16.0231 24.5194 16.0231 35ZM35 51.926C25.6519 51.926 18.0739 44.348 18.0739 35C18.0739 25.652 25.6519 18.0739 35 18.0739C44.348 18.0739 51.9261 25.652 51.9261 35C51.9261 44.348 44.348 51.926 35 51.926Z" fill="white"/>
<path fill-rule="evenodd" clip-rule="evenodd" d="M35 47.507C30.9182 47.507 27.2854 45.5417 24.9996 42.502C24.6592 42.0494 24.0164 41.9584 23.5638 42.2988C23.1112 42.6391 23.0202 43.2819 23.3605 43.7346C26.0158 47.2656 30.2443 49.5577 35 49.5577C43.0284 49.5577 49.5578 43.0283 49.5578 34.9999C49.5578 26.9715 43.0284 20.4421 35 20.4421C26.9716 20.4421 20.4422 26.9715 20.4422 34.9999C20.4422 36.4432 20.6539 37.8396 21.0485 39.1588C21.2107 39.7014 21.7821 40.0096 22.3247 39.8474C22.8672 39.6851 23.1755 39.1137 23.0132 38.5711C22.675 37.4403 22.493 36.2418 22.493 34.9999C22.493 28.1041 28.1042 22.4929 35 22.4929C41.8958 22.4929 47.507 28.1041 47.507 34.9999C47.507 41.8957 41.8958 47.507 35 47.507Z" fill="white"/>
<path fill-rule="evenodd" clip-rule="evenodd" d="M32.6538 43.0983C33.3672 43.2745 34.0826 43.2948 34.9141 43.2893C37.5581 43.2716 39.3601 41.4144 39.8471 39.3667C40.0917 38.3385 40.0184 37.2198 39.5256 36.2241C39.0258 35.2139 38.1273 34.3989 36.8547 33.949C35.0732 33.3194 33.8342 32.667 32.9161 32.0867C31.8963 31.4422 31.8291 29.2475 33.7757 28.6635C34.7767 28.3632 35.6414 28.5303 36.274 28.7816C36.5918 28.9078 36.8446 29.0533 37.0145 29.1646C37.0989 29.2199 37.1612 29.2657 37.1991 29.2948C37.218 29.3093 37.2307 29.3196 37.2369 29.3247C37.2386 29.3261 37.2399 29.3271 37.2405 29.3277C37.6674 29.695 38.3115 29.6493 38.6821 29.2242C39.0543 28.7973 39.01 28.1496 38.5831 27.7775L37.9409 28.5141C38.5831 27.7774 38.5828 27.7771 38.5824 27.7768L38.58 27.7748L38.5762 27.7715C38.5734 27.7691 38.5701 27.7663 38.5664 27.7631C38.5589 27.7568 38.5495 27.7489 38.5382 27.7396C38.5157 27.7211 38.4856 27.697 38.4483 27.6684C38.3737 27.6111 38.2696 27.5351 38.1383 27.4491C37.8768 27.2778 37.5013 27.0624 37.0311 26.8757C36.0879 26.501 34.7385 26.2336 33.1864 26.6992C29.6094 27.7723 29.266 32.2059 31.8205 33.8203C32.867 34.4817 34.2441 35.2014 36.1712 35.8826C36.9737 36.1662 37.4398 36.6329 37.6876 37.1337C37.9425 37.6488 37.9999 38.2702 37.852 38.8921C37.5541 40.1447 36.4781 41.228 34.9005 41.2385C34.0845 41.244 33.5911 41.2174 33.1457 41.1074C32.7169 41.0015 32.2707 40.8017 31.6038 40.3654C31.1299 40.0554 30.4944 40.1882 30.1843 40.6621C29.8743 41.136 30.0071 41.7715 30.481 42.0815C31.2613 42.592 31.9238 42.9179 32.6538 43.0983ZM37.2367 29.3243L37.2369 29.3247L37.2367 29.3243Z" fill="white"/>
<path fill-rule="evenodd" clip-rule="evenodd" d="M35 45.4257C35.5663 45.4257 36.0254 44.9666 36.0254 44.4003V25.5998C36.0254 25.0335 35.5663 24.5744 35 24.5744C34.4337 24.5744 33.9746 25.0335 33.9746 25.5998V44.4003C33.9746 44.9666 34.4337 45.4257 35 45.4257Z" fill="white"/>
<path fill-rule="evenodd" clip-rule="evenodd" d="M0.00454712 3.23972C0.00454712 5.02633 1.45301 6.47449 3.23945 6.47449C5.02597 6.47449 6.47421 5.02624 6.47421 3.23972C6.47421 1.4532 5.02597 0.00495672 3.23945 0.00495672C1.45301 0.00495672 0.00454712 1.45312 0.00454712 3.23972ZM3.23945 4.42371C2.58546 4.42371 2.05533 3.89355 2.05533 3.23972C2.05533 2.5859 2.58546 2.05574 3.23945 2.05574C3.89336 2.05574 4.42343 2.58581 4.42343 3.23972C4.42343 3.89363 3.89336 4.42371 3.23945 4.42371Z" fill="white"/>
<path fill-rule="evenodd" clip-rule="evenodd" d="M63.5255 3.23972C63.5255 5.02633 64.9739 6.47449 66.7604 6.47449C68.5469 6.47449 69.9951 5.02624 69.9951 3.23972C69.9951 1.4532 68.5469 0.00495672 66.7604 0.00495672C64.9739 0.00495672 63.5255 1.45312 63.5255 3.23972ZM66.7604 4.42371C66.1064 4.42371 65.5762 3.89355 65.5762 3.23972C65.5762 2.5859 66.1064 2.05574 66.7604 2.05574C67.4143 2.05574 67.9443 2.58581 67.9443 3.23972C67.9443 3.89363 67.4143 4.42371 66.7604 4.42371Z" fill="white"/>
<path fill-rule="evenodd" clip-rule="evenodd" d="M63.5255 66.7604C63.5255 68.547 64.9739 69.9951 66.7604 69.9951C68.5469 69.9951 69.9951 68.5469 69.9951 66.7604C69.9951 64.9738 68.5469 63.5256 66.7604 63.5256C64.9739 63.5256 63.5255 64.9737 63.5255 66.7604ZM66.7604 67.9443C66.1064 67.9443 65.5762 67.4142 65.5762 66.7604C65.5762 66.1065 66.1064 65.5764 66.7604 65.5764C67.4143 65.5764 67.9443 66.1064 67.9443 66.7604C67.9443 67.4143 67.4143 67.9443 66.7604 67.9443Z" fill="white"/>
<path fill-rule="evenodd" clip-rule="evenodd" d="M14.4399 15.8903C14.6322 16.0826 14.893 16.1907 15.165 16.1907H18.8074C19.3737 16.1907 19.8328 15.7316 19.8328 15.1653C19.8328 14.599 19.3737 14.1399 18.8074 14.1399H15.5897L5.52676 4.07694C5.12632 3.6765 4.47708 3.6765 4.07664 4.07694C3.6762 4.47738 3.6762 5.12662 4.07664 5.52706L14.4399 15.8903Z" fill="white"/>
<path fill-rule="evenodd" clip-rule="evenodd" d="M48.8028 19.0006C49.2589 19.3363 49.9007 19.2389 50.2365 18.7829L60.9266 4.2651H64.5509C65.1172 4.2651 65.5763 3.80601 65.5763 3.23971C65.5763 2.6734 65.1172 2.21432 64.5509 2.21432H60.4082C60.0823 2.21432 59.7758 2.36926 59.5825 2.63171L48.5851 17.5669C48.2494 18.0229 48.3468 18.6648 48.8028 19.0006Z" fill="white"/>
<path fill-rule="evenodd" clip-rule="evenodd" d="M66.7603 65.5763C67.3266 65.5763 67.7857 65.1172 67.7857 64.5509V58.179C67.7857 57.907 67.6777 57.6462 67.4854 57.4539L58.0431 48.0115C57.6426 47.611 56.9934 47.611 56.5929 48.0114C56.1925 48.4119 56.1925 49.0611 56.5929 49.4616L65.7349 58.6037V64.5509C65.7349 65.1172 66.194 65.5763 66.7603 65.5763Z" fill="white"/>
<path fill-rule="evenodd" clip-rule="evenodd" d="M0.00546265 34.9903C0.00546265 54.3172 15.6731 69.9849 35 69.9849C44.6604 69.9849 53.4069 66.0682 59.7395 59.7399C59.9319 59.5476 60.04 59.2867 60.04 59.0147C60.0401 58.7427 59.932 58.4818 59.7397 58.2895L56.2301 54.7799C55.8297 54.3795 55.1804 54.3795 54.78 54.7799C54.3796 55.1804 54.3796 55.8296 54.78 56.23L57.5531 59.0031C51.6568 64.5421 43.7258 67.9341 35 67.9341C16.8058 67.9341 2.05624 53.1846 2.05624 34.9903C2.05624 23.5897 7.84604 13.5407 16.6499 7.62686C17.12 7.31108 17.2451 6.674 16.9293 6.20391C16.6135 5.73382 15.9764 5.60872 15.5063 5.9245C6.15942 12.2032 0.00546265 22.8781 0.00546265 34.9903Z" fill="white"/>
<path fill-rule="evenodd" clip-rule="evenodd" d="M35 18.0742C35.5663 18.0742 36.0254 17.6151 36.0254 17.0488V1.01992C36.0254 0.453617 35.5663 -0.00546646 35 -0.00546646C29.5456 -0.00546646 24.381 1.24229 19.7767 3.47121C19.2669 3.71796 19.0538 4.3312 19.3005 4.84093C19.5473 5.35065 20.1605 5.56383 20.6702 5.31708C24.7126 3.3602 29.2149 2.2063 33.9746 2.06095V17.0488C33.9746 17.6151 34.4337 18.0742 35 18.0742Z" fill="white"/>
</g>
</g>
<defs>
<clipPath id="clip0_49_1423">
<rect width="70" height="70" fill="white"/>
</clipPath>
</defs>
</svg>
