<svg width="70" height="70" viewBox="0 0 70 70" fill="none" xmlns="http://www.w3.org/2000/svg">
<path fill-rule="evenodd" clip-rule="evenodd" d="M39.1844 12.2708C39.1844 11.7044 39.6435 11.2454 40.2098 11.2454H51.7148C53.7914 11.2454 55.475 12.9289 55.475 15.0055V22.295C55.475 22.8613 55.0159 23.3204 54.4496 23.3204C53.8833 23.3204 53.4242 22.8613 53.4242 22.295V15.0055C53.4242 14.0615 52.6588 13.2961 51.7148 13.2961H40.2098C39.6435 13.2961 39.1844 12.8371 39.1844 12.2708Z" fill="white"/>
<path fill-rule="evenodd" clip-rule="evenodd" d="M23.7521 12.2709C23.7521 11.7046 24.2112 11.2455 24.7775 11.2455H29.8833C30.4496 11.2455 30.9087 11.7046 30.9087 12.2709C30.9087 12.8372 30.4496 13.2963 29.8833 13.2963H24.7775C24.2112 13.2963 23.7521 12.8372 23.7521 12.2709Z" fill="white"/>
<path fill-rule="evenodd" clip-rule="evenodd" d="M18.2852 13.2963C17.3405 13.2963 16.5758 14.061 16.5758 15.0057V22.2951C16.5758 22.8614 16.1167 23.3205 15.5504 23.3205C14.9841 23.3205 14.525 22.8614 14.525 22.2951V15.0057C14.525 12.9283 16.2079 11.2455 18.2852 11.2455H19.9917C20.558 11.2455 21.0171 11.7046 21.0171 12.2709C21.0171 12.8372 20.558 13.2963 19.9917 13.2963H18.2852Z" fill="white"/>
<path fill-rule="evenodd" clip-rule="evenodd" d="M35 0C35.3701 -6.51926e-08 35.7115 0.199474 35.8933 0.521918L38.6125 5.34652L44.0414 6.4418C44.4042 6.515 44.6994 6.77805 44.8138 7.13006C44.9282 7.48208 44.844 7.86842 44.5935 8.1409L40.8453 12.218L41.4811 17.7196C41.5236 18.0873 41.3646 18.4493 41.0652 18.6668C40.7657 18.8844 40.3723 18.9237 40.0357 18.7697L35 16.4649L29.9643 18.7697C29.6277 18.9237 29.2343 18.8844 28.9348 18.6668C28.6354 18.4493 28.4764 18.0873 28.5189 17.7196L29.1547 12.218L25.4065 8.1409C25.156 7.86842 25.0718 7.48208 25.1862 7.13006C25.3006 6.77805 25.5958 6.515 25.9586 6.4418L31.3874 5.34652L34.1067 0.521918C34.2885 0.199475 34.6299 6.51926e-08 35 0ZM35 3.11374L32.9436 6.76232C32.7972 7.02194 32.5452 7.20505 32.2531 7.26399L28.1475 8.09228L30.982 11.1755C31.1837 11.3949 31.28 11.6912 31.2457 11.9872L30.765 16.1478L34.5733 14.4049C34.8442 14.2809 35.1557 14.2809 35.4267 14.4049L39.235 16.1478L38.7542 11.9872C38.72 11.6912 38.8163 11.3949 39.018 11.1755L41.8525 8.09228L37.7469 7.26399C37.4548 7.20505 37.2027 7.02194 37.0564 6.76232L35 3.11374Z" fill="white"/>
<path fill-rule="evenodd" clip-rule="evenodd" d="M9.13493 33.1502C8.75357 29.3514 11.7317 26.0537 15.5483 26.0557C19.3639 26.0576 22.3443 29.3568 21.9669 33.1547L21.8216 34.6173C21.5538 37.3117 19.9158 39.6766 17.4878 40.8711C16.2683 41.4712 14.8395 41.4703 13.6201 40.8693C11.1922 39.6728 9.5521 37.3073 9.28177 34.6129M9.28177 34.6129L9.13493 33.1502C9.13493 33.1501 9.13493 33.1502 9.13493 33.1502M15.5473 28.1064C12.9477 28.1051 10.9151 30.3516 11.1755 32.9453L11.3223 34.4081C11.522 36.399 12.7339 38.1463 14.5267 39.0298C15.1754 39.3495 15.9347 39.3497 16.5825 39.031C18.3734 38.1499 19.583 36.4048 19.7808 34.4146C19.7808 34.4146 19.7808 34.4146 19.7808 34.4146L19.9262 32.9519C20.184 30.358 18.1479 28.1078 15.5473 28.1064Z" fill="white"/>
<path fill-rule="evenodd" clip-rule="evenodd" d="M8.22268 50.3989C8.78899 50.3989 9.24807 50.858 9.24807 51.4243V65.4809C9.24807 66.4203 8.86895 67.2746 8.25469 67.8931C7.64255 68.5109 6.79036 68.8986 5.8508 68.9047C3.94953 68.9198 2.40051 67.3817 2.40051 65.4811V60.4122C2.40051 59.8459 2.8596 59.3868 3.4259 59.3868C3.99221 59.3868 4.45129 59.8459 4.45129 60.4122V65.4811C4.45129 66.2436 5.07311 66.8603 5.83494 66.854L5.83697 66.854C6.21227 66.8517 6.55195 66.698 6.79815 66.4494L6.79929 66.4483C7.04623 66.1998 7.19729 65.8594 7.19729 65.4809V51.4243C7.19729 50.858 7.65637 50.3989 8.22268 50.3989Z" fill="white"/>
<path fill-rule="evenodd" clip-rule="evenodd" d="M13.5364 42.5226C13.6369 43.0799 13.2667 43.6132 12.7094 43.7137L8.10946 44.5438C8.10946 44.5438 8.10946 44.5438 8.10945 44.5438C5.99139 44.926 4.45129 46.7695 4.45129 48.9207V55.6263C4.45129 56.1927 3.99221 56.6517 3.4259 56.6517C2.8596 56.6517 2.40051 56.1927 2.40051 55.6263V48.9207C2.40051 45.7774 4.6508 43.084 7.74527 42.5256L7.74529 42.5256L12.3452 41.6955C12.9025 41.595 13.4358 41.9653 13.5364 42.5226Z" fill="white"/>
<path fill-rule="evenodd" clip-rule="evenodd" d="M17.565 42.5224C17.6655 41.9651 18.1989 41.5949 18.7562 41.6954L22.5668 42.383C23.1241 42.4835 23.4944 43.0168 23.3938 43.5742C23.2933 44.1315 22.7599 44.5017 22.2026 44.4012L18.392 43.7136C17.8347 43.6131 17.4644 43.0798 17.565 42.5224Z" fill="white"/>
<path fill-rule="evenodd" clip-rule="evenodd" d="M15.5504 64.8104C16.1167 64.8104 16.5758 65.2695 16.5758 65.8358V68.9739C16.5758 69.5402 16.1167 69.9993 15.5504 69.9993C14.9841 69.9993 14.525 69.5402 14.525 68.9739V65.8358C14.525 65.2695 14.9841 64.8104 15.5504 64.8104Z" fill="white"/>
<path fill-rule="evenodd" clip-rule="evenodd" d="M18.0789 38.6615C18.641 38.5927 19.1525 38.9925 19.2213 39.5547L19.5918 42.5798C19.6607 43.1419 19.2608 43.6534 18.6987 43.7223C18.1366 43.7911 17.6251 43.3912 17.5563 42.8291L17.1857 39.804C17.1169 39.2419 17.5168 38.7304 18.0789 38.6615Z" fill="white"/>
<path fill-rule="evenodd" clip-rule="evenodd" d="M13.0298 38.5962C13.5919 38.665 13.9918 39.1765 13.9229 39.7386L13.5445 42.8292C13.4757 43.3913 12.9642 43.7911 12.4021 43.7223C11.84 43.6535 11.4401 43.142 11.5089 42.5799L11.8874 39.4894C11.9562 38.9273 12.4677 38.5274 13.0298 38.5962Z" fill="white"/>
<path fill-rule="evenodd" clip-rule="evenodd" d="M8.22308 64.4558C8.78939 64.4558 9.24847 64.9149 9.24847 65.4812V68.974C9.24847 69.5403 8.78939 69.9993 8.22308 69.9993C7.65678 69.9993 7.19769 69.5403 7.19769 68.974V65.4812C7.19769 64.9149 7.65678 64.4558 8.22308 64.4558Z" fill="white"/>
<path fill-rule="evenodd" clip-rule="evenodd" d="M22.8777 58.6965C23.444 58.6965 23.9031 59.1556 23.9031 59.7219V68.9727C23.9031 69.539 23.444 69.9981 22.8777 69.9981C22.3114 69.9981 21.8523 69.539 21.8523 68.9727V59.7219C21.8523 59.1556 22.3114 58.6965 22.8777 58.6965Z" fill="white"/>
<path fill-rule="evenodd" clip-rule="evenodd" d="M58.8245 32.9453C59.0849 30.3516 57.0523 28.1051 54.4527 28.1064C51.852 28.1078 49.816 30.358 50.0738 32.9519L50.0738 32.952L50.2191 34.4145C50.2191 34.4145 50.2191 34.4146 50.2191 34.4146C50.417 36.4048 51.6266 38.1499 53.4175 39.031L53.4175 39.031C54.0653 39.3497 54.8245 39.3495 55.4733 39.0298L55.4733 39.0298C57.2661 38.1463 58.478 36.399 58.6777 34.4081L58.6777 34.4081L58.8245 32.9453ZM54.4517 26.0557C58.2683 26.0537 61.2464 29.3514 60.865 33.1502L60.7182 34.6128C60.7182 34.6129 60.7182 34.6129 60.7182 34.6129C60.4479 37.3073 58.8078 39.6728 56.3798 40.8693C55.1605 41.4703 53.7317 41.4712 52.5122 40.8711C50.0842 39.6766 48.4462 37.3117 48.1784 34.6174L48.1784 34.6173L48.0331 33.1547C48.0331 33.1547 48.0331 33.1547 48.0331 33.1547C47.6557 29.3568 50.6361 26.0576 54.4517 26.0557Z" fill="white"/>
<path fill-rule="evenodd" clip-rule="evenodd" d="M61.7773 50.3989C62.3437 50.3989 62.8027 50.858 62.8027 51.4243V65.4809C62.8027 65.8594 62.9538 66.1998 63.2007 66.4483L63.2019 66.4494C63.4481 66.698 63.7878 66.8517 64.1631 66.854L64.1651 66.854C64.9269 66.8603 65.5487 66.2436 65.5487 65.4811V62.8051C65.5487 62.2388 66.0078 61.7797 66.5741 61.7797C67.1404 61.7797 67.5995 62.2388 67.5995 62.8051V65.4811C67.5995 67.3817 66.0505 68.9198 64.1492 68.9047C63.2097 68.8986 62.3576 68.5109 61.7455 67.8932C61.1311 67.2747 60.752 66.4204 60.752 65.4809V51.4243C60.752 50.858 61.211 50.3989 61.7773 50.3989Z" fill="white"/>
<path fill-rule="evenodd" clip-rule="evenodd" d="M56.4638 42.5226C56.5644 41.9653 57.0977 41.595 57.655 41.6955L62.2549 42.5256L62.2549 42.5256C65.3494 43.084 67.5997 45.7775 67.5997 48.9207V58.0192C67.5997 58.5855 67.1406 59.0446 66.5743 59.0446C66.008 59.0446 65.5489 58.5855 65.5489 58.0192V48.9207C65.5489 46.7696 64.0088 44.926 61.8907 44.5438C61.8907 44.5438 61.8907 44.5438 61.8907 44.5438L57.2908 43.7137C56.7335 43.6132 56.3632 43.0799 56.4638 42.5226Z" fill="white"/>
<path fill-rule="evenodd" clip-rule="evenodd" d="M52.4351 42.5225C52.5357 43.0798 52.1654 43.6131 51.6081 43.7136L47.7974 44.4012C47.24 44.5017 46.7067 44.1315 46.6062 43.5741C46.5056 43.0168 46.8759 42.4835 47.4332 42.383L51.244 41.6954C51.8013 41.5949 52.3346 41.9651 52.4351 42.5225Z" fill="white"/>
<path fill-rule="evenodd" clip-rule="evenodd" d="M54.4496 64.8104C55.0159 64.8104 55.475 65.2695 55.475 65.8358V68.9739C55.475 69.5402 55.0159 69.9993 54.4496 69.9993C53.8833 69.9993 53.4242 69.5402 53.4242 68.9739V65.8358C53.4242 65.2695 53.8833 64.8104 54.4496 64.8104Z" fill="white"/>
<path fill-rule="evenodd" clip-rule="evenodd" d="M51.9211 38.6615C52.4832 38.7304 52.8831 39.2418 52.8142 39.804L52.4437 42.8291C52.3749 43.3912 51.8634 43.7911 51.3013 43.7223C50.7392 43.6534 50.3393 43.1419 50.4082 42.5798L50.7787 39.5547C50.8475 38.9925 51.359 38.5927 51.9211 38.6615Z" fill="white"/>
<path fill-rule="evenodd" clip-rule="evenodd" d="M56.9702 38.5962C57.5323 38.5274 58.0438 38.9273 58.1126 39.4894L58.4911 42.5799C58.5599 43.142 58.16 43.6535 57.5979 43.7223C57.0358 43.7911 56.5243 43.3913 56.4555 42.8292L56.077 39.7386C56.0082 39.1765 56.4081 38.665 56.9702 38.5962Z" fill="white"/>
<path fill-rule="evenodd" clip-rule="evenodd" d="M61.7769 64.4558C62.3432 64.4558 62.8023 64.9149 62.8023 65.4812V68.974C62.8023 69.5403 62.3432 69.9993 61.7769 69.9993C61.2106 69.9993 60.7515 69.5403 60.7515 68.974V65.4812C60.7515 64.9149 61.2106 64.4558 61.7769 64.4558Z" fill="white"/>
<path fill-rule="evenodd" clip-rule="evenodd" d="M47.1223 58.6965C47.6886 58.6965 48.1477 59.1556 48.1477 59.7219V68.9727C48.1477 69.539 47.6886 69.9981 47.1223 69.9981C46.556 69.9981 46.0969 69.539 46.0969 68.9727V59.7219C46.0969 59.1556 46.556 58.6965 47.1223 58.6965Z" fill="white"/>
<path fill-rule="evenodd" clip-rule="evenodd" d="M28.5873 27.3909C28.2059 23.5922 31.1841 20.2944 35.0007 20.2964C38.8162 20.2983 41.7967 23.5976 41.4192 27.3955C41.4192 27.3954 41.4192 27.3955 41.4192 27.3955L41.2739 28.8581C41.0061 31.5524 39.3681 33.9173 36.9402 35.1119C35.7206 35.7119 34.2918 35.711 33.0725 35.1101C30.6444 33.9135 29.0043 31.5481 28.7341 28.8536M28.7341 28.8536L28.5873 27.3909C28.5873 27.3909 28.5873 27.3909 28.5873 27.3909M34.9996 22.3472C32.4 22.3458 30.3674 24.5923 30.6278 27.186L30.7746 28.6488C30.9742 30.6396 32.1861 32.387 33.979 33.2705C34.6277 33.5902 35.3871 33.5904 36.0348 33.2717C37.8257 32.3906 39.0353 30.6455 39.2332 28.6553C39.2332 28.6553 39.2332 28.6553 39.2332 28.6553L39.3785 27.1927C39.6363 24.5987 37.6003 22.3485 34.9996 22.3472Z" fill="white"/>
<path fill-rule="evenodd" clip-rule="evenodd" d="M31.7969 35.9361C32.3542 35.8356 32.8875 36.2059 32.988 36.7632C33.0886 37.3205 32.7183 37.8538 32.161 37.9543L27.5614 38.7842L27.3793 37.7751L27.5613 38.7842C25.4435 39.1663 23.9031 41.0096 23.9031 43.1616V59.722C23.9031 60.4848 24.5246 61.1014 25.2873 61.0954C26.0416 61.0895 26.6499 60.4763 26.6499 59.7221L26.6498 45.6648C26.6497 45.0985 27.1088 44.6394 27.6751 44.6394C28.2414 44.6394 28.7005 45.0984 28.7005 45.6647L28.7007 59.722C28.7007 61.6026 27.1841 63.1313 25.3035 63.1461C23.4019 63.1612 21.8523 61.6237 21.8523 59.722V43.1616C21.8523 40.0174 24.103 37.3243 27.1972 36.766C27.1972 36.766 27.1972 36.766 27.1972 36.766L31.7969 35.9361Z" fill="white"/>
<path fill-rule="evenodd" clip-rule="evenodd" d="M37.0169 36.7632C37.1175 36.2059 37.6508 35.8356 38.2081 35.9362L42.808 36.7662L42.808 36.7662C45.9025 37.3246 48.1528 40.0181 48.1528 43.1613V47.4904C48.1528 48.0567 47.6937 48.5158 47.1274 48.5158C46.5611 48.5158 46.102 48.0567 46.102 47.4904V43.1613C46.102 41.0102 44.5619 39.1666 42.4438 38.7844C42.4438 38.7844 42.4438 38.7844 42.4438 38.7844L37.8439 37.9543C37.2866 37.8538 36.9163 37.3205 37.0169 36.7632Z" fill="white"/>
<path fill-rule="evenodd" clip-rule="evenodd" d="M42.3306 44.6396C42.8969 44.6396 43.356 45.0987 43.356 45.665V59.7215C43.356 60.4758 43.9627 61.0872 44.714 61.0944H44.7302C45.4552 61.0944 46.0516 60.53 46.0985 59.8131C46.0988 59.8085 46.0992 59.804 46.0995 59.7994C46.1008 59.7831 46.1018 59.7585 46.1018 59.7215V52.2762C46.1018 51.7099 46.5609 51.2508 47.1272 51.2508C47.6935 51.2508 48.1526 51.7099 48.1526 52.2762V59.7215C48.1526 59.7892 48.151 59.8687 48.1445 59.9536C48.0242 61.7386 46.5408 63.1452 44.7303 63.1452H44.7097L44.7023 63.1452C42.8215 63.1315 41.3052 61.6024 41.3052 59.7215V45.665C41.3052 45.0987 41.7643 44.6396 42.3306 44.6396Z" fill="white"/>
<path fill-rule="evenodd" clip-rule="evenodd" d="M35.0027 59.0511C35.5691 59.0511 36.0281 59.5102 36.0281 60.0765V68.9746C36.0281 69.5409 35.5691 70 35.0027 70C34.4364 70 33.9774 69.5409 33.9774 68.9746V60.0765C33.9774 59.5102 34.4364 59.0511 35.0027 59.0511Z" fill="white"/>
<path fill-rule="evenodd" clip-rule="evenodd" d="M37.5313 32.9021C38.0934 32.8333 38.6049 33.2331 38.6737 33.7953L39.0442 36.8206C39.1131 37.3827 38.7132 37.8942 38.1511 37.963C37.589 38.0318 37.0775 37.632 37.0086 37.0699L36.6381 34.0446C36.5693 33.4824 36.9692 32.971 37.5313 32.9021Z" fill="white"/>
<path fill-rule="evenodd" clip-rule="evenodd" d="M32.4822 32.8369C33.0443 32.9058 33.4441 33.4173 33.3753 33.9794L32.9967 37.0699C32.9279 37.632 32.4164 38.0319 31.8543 37.963C31.2921 37.8942 30.8923 37.3827 30.9611 36.8206L31.3397 33.73C31.4086 33.1679 31.9201 32.7681 32.4822 32.8369Z" fill="white"/>
<path fill-rule="evenodd" clip-rule="evenodd" d="M27.6754 58.6965C28.2417 58.6965 28.7008 59.1556 28.7008 59.7219V68.9746C28.7008 69.5409 28.2417 70 27.6754 70C27.1091 70 26.65 69.5409 26.65 68.9746V59.7219C26.65 59.1556 27.1091 58.6965 27.6754 58.6965Z" fill="white"/>
<path fill-rule="evenodd" clip-rule="evenodd" d="M42.33 58.6965C42.8963 58.6965 43.3554 59.1556 43.3554 59.7219V68.9734C43.3554 69.5397 42.8963 69.9988 42.33 69.9988C41.7637 69.9988 41.3046 69.5397 41.3046 68.9734V59.7219C41.3046 59.1556 41.7637 58.6965 42.33 58.6965Z" fill="white"/>
</svg>
